<svg width="623" height="354" viewBox="0 0 623 354" fill="none" xmlns="http://www.w3.org/2000/svg">
<path d="M157.097 241.44C158.75 241.44 160.046 241.899 160.985 242.816C161.934 243.723 162.409 245.024 162.409 246.72C162.409 248.416 161.934 249.723 160.985 250.64C160.046 251.547 158.75 252 157.097 252H153.689V241.44H157.097ZM157.225 250.8C158.43 250.8 159.369 250.443 160.041 249.728C160.724 249.003 161.065 248 161.065 246.72C161.065 245.44 160.724 244.443 160.041 243.728C159.369 243.003 158.43 242.64 157.225 242.64H154.969V250.8H157.225ZM168.324 252.16C167.567 252.16 166.89 251.995 166.292 251.664C165.706 251.333 165.247 250.859 164.916 250.24C164.586 249.611 164.42 248.864 164.42 248C164.42 247.136 164.586 246.395 164.916 245.776C165.247 245.147 165.7 244.667 166.276 244.336C166.852 244.005 167.508 243.84 168.244 243.84C168.991 243.84 169.626 244 170.148 244.32C170.682 244.64 171.087 245.077 171.364 245.632C171.642 246.176 171.78 246.789 171.78 247.472C171.78 247.653 171.775 247.819 171.764 247.968C171.754 248.117 171.738 248.251 171.716 248.368H165.252V247.232H171.156L170.5 247.36C170.5 246.592 170.287 246 169.86 245.584C169.444 245.168 168.895 244.96 168.212 244.96C167.69 244.96 167.236 245.083 166.852 245.328C166.479 245.563 166.186 245.909 165.972 246.368C165.77 246.816 165.668 247.36 165.668 248C165.668 248.629 165.775 249.173 165.988 249.632C166.202 250.091 166.5 250.443 166.884 250.688C167.279 250.923 167.748 251.04 168.292 251.04C168.879 251.04 169.354 250.928 169.716 250.704C170.09 250.48 170.388 250.176 170.612 249.792L171.62 250.384C171.418 250.747 171.156 251.061 170.836 251.328C170.527 251.595 170.159 251.803 169.732 251.952C169.316 252.091 168.847 252.16 168.324 252.16ZM177.384 240.24C177.662 240.24 177.923 240.272 178.168 240.336C178.414 240.4 178.606 240.491 178.744 240.608L178.408 241.648C178.28 241.563 178.142 241.504 177.992 241.472C177.843 241.429 177.678 241.408 177.496 241.408C177.038 241.408 176.68 241.52 176.424 241.744C176.168 241.957 176.04 242.304 176.04 242.784V244V244.416V252H174.76V242.656C174.76 242.304 174.814 241.979 174.92 241.68C175.027 241.381 175.187 241.125 175.4 240.912C175.624 240.699 175.902 240.533 176.232 240.416C176.563 240.299 176.947 240.24 177.384 240.24ZM178.712 244V245.104H173.16V244H178.712ZM181.064 242.464C180.776 242.464 180.542 242.379 180.36 242.208C180.19 242.027 180.104 241.792 180.104 241.504C180.104 241.216 180.19 240.987 180.36 240.816C180.542 240.635 180.776 240.544 181.064 240.544C181.352 240.544 181.582 240.635 181.752 240.816C181.934 240.987 182.024 241.216 182.024 241.504C182.024 241.792 181.934 242.027 181.752 242.208C181.582 242.379 181.352 242.464 181.064 242.464ZM181.704 244V252H180.424V244H181.704ZM184.683 252V244H185.803L185.915 245.792L185.707 245.616C185.878 245.189 186.107 244.848 186.395 244.592C186.683 244.325 187.014 244.133 187.387 244.016C187.771 243.899 188.166 243.84 188.571 243.84C189.147 243.84 189.67 243.952 190.139 244.176C190.609 244.389 190.982 244.72 191.259 245.168C191.547 245.616 191.691 246.187 191.691 246.88V252H190.411V247.328C190.411 246.443 190.219 245.829 189.835 245.488C189.462 245.136 188.998 244.96 188.443 244.96C188.059 244.96 187.675 245.051 187.291 245.232C186.907 245.413 186.587 245.707 186.331 246.112C186.086 246.517 185.963 247.061 185.963 247.744V252H184.683ZM197.934 252.16C197.176 252.16 196.499 251.995 195.902 251.664C195.315 251.333 194.856 250.859 194.526 250.24C194.195 249.611 194.03 248.864 194.03 248C194.03 247.136 194.195 246.395 194.526 245.776C194.856 245.147 195.31 244.667 195.886 244.336C196.462 244.005 197.118 243.84 197.854 243.84C198.6 243.84 199.235 244 199.758 244.32C200.291 244.64 200.696 245.077 200.974 245.632C201.251 246.176 201.39 246.789 201.39 247.472C201.39 247.653 201.384 247.819 201.374 247.968C201.363 248.117 201.347 248.251 201.326 248.368H194.862V247.232H200.766L200.11 247.36C200.11 246.592 199.896 246 199.47 245.584C199.054 245.168 198.504 244.96 197.822 244.96C197.299 244.96 196.846 245.083 196.462 245.328C196.088 245.563 195.795 245.909 195.582 246.368C195.379 246.816 195.278 247.36 195.278 248C195.278 248.629 195.384 249.173 195.598 249.632C195.811 250.091 196.11 250.443 196.494 250.688C196.888 250.923 197.358 251.04 197.902 251.04C198.488 251.04 198.963 250.928 199.326 250.704C199.699 250.48 199.998 250.176 200.222 249.792L201.23 250.384C201.027 250.747 200.766 251.061 200.446 251.328C200.136 251.595 199.768 251.803 199.342 251.952C198.926 252.091 198.456 252.16 197.934 252.16ZM212.589 243.84C213.144 243.84 213.629 243.925 214.045 244.096C214.472 244.267 214.84 244.512 215.149 244.832C215.458 245.152 215.709 245.531 215.901 245.968L214.685 246.544C214.514 246.032 214.253 245.643 213.901 245.376C213.56 245.099 213.112 244.96 212.557 244.96C212.024 244.96 211.565 245.083 211.181 245.328C210.797 245.563 210.504 245.909 210.301 246.368C210.098 246.816 209.997 247.36 209.997 248C209.997 248.629 210.098 249.173 210.301 249.632C210.504 250.091 210.797 250.443 211.181 250.688C211.565 250.923 212.024 251.04 212.557 251.04C212.973 251.04 213.33 250.976 213.629 250.848C213.938 250.72 214.189 250.533 214.381 250.288C214.584 250.043 214.722 249.744 214.797 249.392L215.981 249.808C215.8 250.299 215.549 250.72 215.229 251.072C214.92 251.424 214.541 251.696 214.093 251.888C213.656 252.069 213.154 252.16 212.589 252.16C211.842 252.16 211.176 251.995 210.589 251.664C210.002 251.333 209.544 250.859 209.213 250.24C208.882 249.611 208.717 248.864 208.717 248C208.717 247.136 208.882 246.395 209.213 245.776C209.544 245.147 210.002 244.667 210.589 244.336C211.176 244.005 211.842 243.84 212.589 243.84ZM221.542 243.84C222.3 243.84 222.966 244.005 223.542 244.336C224.129 244.667 224.588 245.147 224.918 245.776C225.249 246.395 225.414 247.136 225.414 248C225.414 248.864 225.249 249.611 224.918 250.24C224.588 250.859 224.129 251.333 223.542 251.664C222.966 251.995 222.3 252.16 221.542 252.16C220.796 252.16 220.129 251.995 219.542 251.664C218.956 251.333 218.497 250.859 218.166 250.24C217.836 249.611 217.67 248.864 217.67 248C217.67 247.136 217.836 246.395 218.166 245.776C218.497 245.147 218.956 244.667 219.542 244.336C220.129 244.005 220.796 243.84 221.542 243.84ZM221.542 244.944C220.998 244.944 220.534 245.067 220.15 245.312C219.766 245.557 219.468 245.909 219.254 246.368C219.052 246.816 218.95 247.36 218.95 248C218.95 248.629 219.052 249.173 219.254 249.632C219.468 250.091 219.766 250.443 220.15 250.688C220.534 250.933 220.998 251.056 221.542 251.056C222.086 251.056 222.55 250.933 222.934 250.688C223.318 250.443 223.612 250.091 223.814 249.632C224.028 249.173 224.134 248.629 224.134 248C224.134 247.36 224.028 246.816 223.814 246.368C223.612 245.909 223.318 245.557 222.934 245.312C222.55 245.067 222.086 244.944 221.542 244.944ZM227.824 252V244H228.944L229.056 245.792L228.848 245.616C229.019 245.189 229.248 244.848 229.536 244.592C229.824 244.325 230.155 244.133 230.528 244.016C230.912 243.899 231.307 243.84 231.712 243.84C232.288 243.84 232.811 243.952 233.28 244.176C233.749 244.389 234.123 244.72 234.4 245.168C234.688 245.616 234.832 246.187 234.832 246.88V252H233.552V247.328C233.552 246.443 233.36 245.829 232.976 245.488C232.603 245.136 232.139 244.96 231.584 244.96C231.2 244.96 230.816 245.051 230.432 245.232C230.048 245.413 229.728 245.707 229.472 246.112C229.227 246.517 229.104 247.061 229.104 247.744V252H227.824ZM240.85 252.16C240.189 252.16 239.581 251.995 239.026 251.664C238.472 251.333 238.029 250.859 237.698 250.24C237.368 249.611 237.202 248.864 237.202 248C237.202 247.115 237.378 246.363 237.73 245.744C238.082 245.125 238.546 244.656 239.122 244.336C239.698 244.005 240.317 243.84 240.978 243.84C241.64 243.84 242.21 244.011 242.69 244.352C243.181 244.693 243.506 245.147 243.666 245.712L243.506 245.824V240.32H244.786V252H243.666L243.554 250.064L243.73 249.968C243.656 250.437 243.474 250.837 243.186 251.168C242.909 251.488 242.562 251.733 242.146 251.904C241.741 252.075 241.309 252.16 240.85 252.16ZM240.978 251.04C241.49 251.04 241.933 250.912 242.306 250.656C242.69 250.4 242.984 250.037 243.186 249.568C243.4 249.088 243.506 248.528 243.506 247.888C243.506 247.28 243.4 246.757 243.186 246.32C242.984 245.883 242.696 245.547 242.322 245.312C241.96 245.077 241.533 244.96 241.042 244.96C240.232 244.96 239.602 245.237 239.154 245.792C238.706 246.347 238.482 247.083 238.482 248C238.482 248.917 238.701 249.653 239.138 250.208C239.576 250.763 240.189 251.04 240.978 251.04ZM248.401 242.464C248.113 242.464 247.879 242.379 247.697 242.208C247.527 242.027 247.441 241.792 247.441 241.504C247.441 241.216 247.527 240.987 247.697 240.816C247.879 240.635 248.113 240.544 248.401 240.544C248.689 240.544 248.919 240.635 249.089 240.816C249.271 240.987 249.361 241.216 249.361 241.504C249.361 241.792 249.271 242.027 249.089 242.208C248.919 242.379 248.689 242.464 248.401 242.464ZM249.041 244V252H247.761V244H249.041ZM253.899 241.728V249.792C253.899 250.187 254.011 250.48 254.235 250.672C254.459 250.864 254.747 250.96 255.099 250.96C255.409 250.96 255.675 250.907 255.899 250.8C256.123 250.693 256.326 250.549 256.507 250.368L256.955 251.44C256.71 251.664 256.417 251.84 256.075 251.968C255.745 252.096 255.361 252.16 254.923 252.16C254.518 252.16 254.139 252.091 253.787 251.952C253.435 251.803 253.153 251.573 252.939 251.264C252.737 250.944 252.63 250.528 252.619 250.016V242.08L253.899 241.728ZM256.811 244V245.104H251.019V244H256.811ZM259.355 242.464C259.067 242.464 258.832 242.379 258.651 242.208C258.48 242.027 258.395 241.792 258.395 241.504C258.395 241.216 258.48 240.987 258.651 240.816C258.832 240.635 259.067 240.544 259.355 240.544C259.643 240.544 259.872 240.635 260.043 240.816C260.224 240.987 260.315 241.216 260.315 241.504C260.315 241.792 260.224 242.027 260.043 242.208C259.872 242.379 259.643 242.464 259.355 242.464ZM259.995 244V252H258.715V244H259.995ZM266.277 243.84C267.034 243.84 267.701 244.005 268.277 244.336C268.863 244.667 269.322 245.147 269.653 245.776C269.983 246.395 270.149 247.136 270.149 248C270.149 248.864 269.983 249.611 269.653 250.24C269.322 250.859 268.863 251.333 268.277 251.664C267.701 251.995 267.034 252.16 266.277 252.16C265.53 252.16 264.863 251.995 264.277 251.664C263.69 251.333 263.231 250.859 262.901 250.24C262.57 249.611 262.405 248.864 262.405 248C262.405 247.136 262.57 246.395 262.901 245.776C263.231 245.147 263.69 244.667 264.277 244.336C264.863 244.005 265.53 243.84 266.277 243.84ZM266.277 244.944C265.733 244.944 265.269 245.067 264.885 245.312C264.501 245.557 264.202 245.909 263.989 246.368C263.786 246.816 263.685 247.36 263.685 248C263.685 248.629 263.786 249.173 263.989 249.632C264.202 250.091 264.501 250.443 264.885 250.688C265.269 250.933 265.733 251.056 266.277 251.056C266.821 251.056 267.285 250.933 267.669 250.688C268.053 250.443 268.346 250.091 268.549 249.632C268.762 249.173 268.869 248.629 268.869 248C268.869 247.36 268.762 246.816 268.549 246.368C268.346 245.909 268.053 245.557 267.669 245.312C267.285 245.067 266.821 244.944 266.277 244.944ZM272.558 252V244H273.678L273.79 245.792L273.582 245.616C273.753 245.189 273.982 244.848 274.27 244.592C274.558 244.325 274.889 244.133 275.262 244.016C275.646 243.899 276.041 243.84 276.446 243.84C277.022 243.84 277.545 243.952 278.014 244.176C278.484 244.389 278.857 244.72 279.134 245.168C279.422 245.616 279.566 246.187 279.566 246.88V252H278.286V247.328C278.286 246.443 278.094 245.829 277.71 245.488C277.337 245.136 276.873 244.96 276.318 244.96C275.934 244.96 275.55 245.051 275.166 245.232C274.782 245.413 274.462 245.707 274.206 246.112C273.961 246.517 273.838 247.061 273.838 247.744V252H272.558ZM292.59 246.832C292.59 246.235 292.43 245.776 292.11 245.456C291.79 245.125 291.336 244.96 290.75 244.96C290.195 244.96 289.726 245.083 289.342 245.328C288.958 245.563 288.675 245.947 288.494 246.48L287.454 245.84C287.667 245.243 288.062 244.763 288.638 244.4C289.214 244.027 289.928 243.84 290.782 243.84C291.358 243.84 291.88 243.941 292.35 244.144C292.819 244.336 293.187 244.635 293.454 245.04C293.731 245.435 293.87 245.947 293.87 246.576V250.448C293.87 250.832 294.072 251.024 294.478 251.024C294.68 251.024 294.878 250.997 295.07 250.944L295.006 251.952C294.792 252.059 294.515 252.112 294.174 252.112C293.864 252.112 293.587 252.053 293.342 251.936C293.096 251.819 292.904 251.643 292.766 251.408C292.627 251.163 292.558 250.859 292.558 250.496V250.336L292.878 250.384C292.75 250.8 292.531 251.141 292.222 251.408C291.912 251.664 291.566 251.856 291.182 251.984C290.798 252.101 290.419 252.16 290.046 252.16C289.576 252.16 289.139 252.08 288.734 251.92C288.328 251.76 288.003 251.52 287.758 251.2C287.523 250.869 287.406 250.464 287.406 249.984C287.406 249.387 287.603 248.896 287.998 248.512C288.403 248.117 288.963 247.851 289.678 247.712L292.846 247.088V248.144L290.27 248.672C289.747 248.779 289.358 248.928 289.102 249.12C288.846 249.312 288.718 249.579 288.718 249.92C288.718 250.251 288.846 250.523 289.102 250.736C289.368 250.939 289.742 251.04 290.222 251.04C290.531 251.04 290.824 251.003 291.102 250.928C291.39 250.843 291.646 250.72 291.87 250.56C292.094 250.389 292.27 250.181 292.398 249.936C292.526 249.68 292.59 249.381 292.59 249.04V246.832ZM296.98 252V244H298.1L298.212 245.792L298.004 245.616C298.175 245.189 298.404 244.848 298.692 244.592C298.98 244.325 299.311 244.133 299.684 244.016C300.068 243.899 300.463 243.84 300.868 243.84C301.444 243.84 301.967 243.952 302.436 244.176C302.906 244.389 303.279 244.72 303.556 245.168C303.844 245.616 303.988 246.187 303.988 246.88V252H302.708V247.328C302.708 246.443 302.516 245.829 302.132 245.488C301.759 245.136 301.295 244.96 300.74 244.96C300.356 244.96 299.972 245.051 299.588 245.232C299.204 245.413 298.884 245.707 298.628 246.112C298.383 246.517 298.26 247.061 298.26 247.744V252H296.98ZM310.006 252.16C309.345 252.16 308.737 251.995 308.182 251.664C307.628 251.333 307.185 250.859 306.854 250.24C306.524 249.611 306.358 248.864 306.358 248C306.358 247.115 306.534 246.363 306.886 245.744C307.238 245.125 307.702 244.656 308.278 244.336C308.854 244.005 309.473 243.84 310.134 243.84C310.796 243.84 311.366 244.011 311.846 244.352C312.337 244.693 312.662 245.147 312.822 245.712L312.662 245.824V240.32H313.942V252H312.822L312.71 250.064L312.886 249.968C312.812 250.437 312.63 250.837 312.342 251.168C312.065 251.488 311.718 251.733 311.302 251.904C310.897 252.075 310.465 252.16 310.006 252.16ZM310.134 251.04C310.646 251.04 311.089 250.912 311.462 250.656C311.846 250.4 312.14 250.037 312.342 249.568C312.556 249.088 312.662 248.528 312.662 247.888C312.662 247.28 312.556 246.757 312.342 246.32C312.14 245.883 311.852 245.547 311.478 245.312C311.116 245.077 310.689 244.96 310.198 244.96C309.388 244.96 308.758 245.237 308.31 245.792C307.862 246.347 307.638 247.083 307.638 248C307.638 248.917 307.857 249.653 308.294 250.208C308.732 250.763 309.345 251.04 310.134 251.04ZM322.371 252V244H323.411L323.587 245.312C323.811 244.821 324.136 244.453 324.563 244.208C325 243.963 325.528 243.84 326.147 243.84C326.285 243.84 326.435 243.851 326.595 243.872C326.765 243.893 326.909 243.936 327.027 244L326.803 245.168C326.685 245.125 326.557 245.093 326.419 245.072C326.28 245.051 326.083 245.04 325.827 245.04C325.496 245.04 325.16 245.136 324.819 245.328C324.488 245.52 324.211 245.813 323.987 246.208C323.763 246.592 323.651 247.083 323.651 247.68V252H322.371ZM333.355 246.832C333.355 246.235 333.195 245.776 332.875 245.456C332.555 245.125 332.102 244.96 331.515 244.96C330.961 244.96 330.491 245.083 330.107 245.328C329.723 245.563 329.441 245.947 329.259 246.48L328.219 245.84C328.433 245.243 328.827 244.763 329.403 244.4C329.979 244.027 330.694 243.84 331.547 243.84C332.123 243.84 332.646 243.941 333.115 244.144C333.585 244.336 333.953 244.635 334.219 245.04C334.497 245.435 334.635 245.947 334.635 246.576V250.448C334.635 250.832 334.838 251.024 335.243 251.024C335.446 251.024 335.643 250.997 335.835 250.944L335.771 251.952C335.558 252.059 335.281 252.112 334.939 252.112C334.63 252.112 334.353 252.053 334.107 251.936C333.862 251.819 333.67 251.643 333.531 251.408C333.393 251.163 333.323 250.859 333.323 250.496V250.336L333.643 250.384C333.515 250.8 333.297 251.141 332.987 251.408C332.678 251.664 332.331 251.856 331.947 251.984C331.563 252.101 331.185 252.16 330.811 252.16C330.342 252.16 329.905 252.08 329.499 251.92C329.094 251.76 328.769 251.52 328.523 251.2C328.289 250.869 328.171 250.464 328.171 249.984C328.171 249.387 328.369 248.896 328.763 248.512C329.169 248.117 329.729 247.851 330.443 247.712L333.611 247.088V248.144L331.035 248.672C330.513 248.779 330.123 248.928 329.867 249.12C329.611 249.312 329.483 249.579 329.483 249.92C329.483 250.251 329.611 250.523 329.867 250.736C330.134 250.939 330.507 251.04 330.987 251.04C331.297 251.04 331.59 251.003 331.867 250.928C332.155 250.843 332.411 250.72 332.635 250.56C332.859 250.389 333.035 250.181 333.163 249.936C333.291 249.68 333.355 249.381 333.355 249.04V246.832ZM337.746 252V244H338.866L338.978 245.792L338.77 245.616C338.94 245.189 339.17 244.848 339.458 244.592C339.746 244.325 340.076 244.133 340.45 244.016C340.834 243.899 341.228 243.84 341.634 243.84C342.21 243.84 342.732 243.952 343.202 244.176C343.671 244.389 344.044 244.72 344.322 245.168C344.61 245.616 344.754 246.187 344.754 246.88V252H343.474V247.328C343.474 246.443 343.282 245.829 342.898 245.488C342.524 245.136 342.06 244.96 341.506 244.96C341.122 244.96 340.738 245.051 340.354 245.232C339.97 245.413 339.65 245.707 339.394 246.112C339.148 246.517 339.026 247.061 339.026 247.744V252H337.746ZM354.388 242.528L354.676 243.664C354.665 243.664 354.649 243.664 354.628 243.664C354.607 243.664 354.585 243.664 354.564 243.664C354.041 243.664 353.636 243.771 353.348 243.984C353.071 244.187 352.932 244.517 352.932 244.976L352.148 244.576C352.148 244.16 352.244 243.797 352.436 243.488C352.628 243.179 352.889 242.944 353.22 242.784C353.551 242.613 353.913 242.528 354.308 242.528C354.319 242.528 354.329 242.528 354.34 242.528C354.361 242.528 354.377 242.528 354.388 242.528ZM351.956 250.976C352.713 250.976 353.305 251.152 353.732 251.504C354.159 251.845 354.372 252.304 354.372 252.88C354.372 253.403 354.196 253.856 353.844 254.24C353.503 254.624 353.039 254.917 352.452 255.12C351.876 255.333 351.225 255.44 350.5 255.44C349.241 255.44 348.297 255.227 347.668 254.8C347.049 254.373 346.74 253.861 346.74 253.264C346.74 252.837 346.879 252.453 347.156 252.112C347.444 251.781 347.924 251.595 348.596 251.552L348.484 251.792C348.121 251.696 347.812 251.536 347.556 251.312C347.311 251.077 347.188 250.741 347.188 250.304C347.188 249.867 347.348 249.493 347.668 249.184C347.999 248.864 348.484 248.667 349.124 248.592L349.972 249.024H349.812C349.289 249.077 348.916 249.211 348.692 249.424C348.479 249.627 348.372 249.851 348.372 250.096C348.372 250.395 348.479 250.619 348.692 250.768C348.916 250.907 349.225 250.976 349.62 250.976H351.956ZM350.484 254.368C351.103 254.368 351.609 254.304 352.004 254.176C352.409 254.048 352.708 253.883 352.9 253.68C353.092 253.477 353.188 253.259 353.188 253.024C353.188 252.736 353.071 252.507 352.836 252.336C352.612 252.165 352.201 252.08 351.604 252.08H349.14C348.799 252.08 348.511 252.165 348.276 252.336C348.041 252.517 347.924 252.763 347.924 253.072C347.924 253.467 348.148 253.781 348.596 254.016C349.055 254.251 349.684 254.368 350.484 254.368ZM350.372 243.84C351.012 243.84 351.577 243.957 352.068 244.192C352.569 244.416 352.959 244.731 353.236 245.136C353.513 245.541 353.652 246.011 353.652 246.544C353.652 247.067 353.513 247.536 353.236 247.952C352.959 248.357 352.569 248.677 352.068 248.912C351.577 249.136 351.012 249.248 350.372 249.248C349.316 249.248 348.505 248.997 347.94 248.496C347.375 247.984 347.092 247.333 347.092 246.544C347.092 246.011 347.231 245.541 347.508 245.136C347.796 244.731 348.185 244.416 348.676 244.192C349.167 243.957 349.732 243.84 350.372 243.84ZM350.372 244.88C349.817 244.88 349.353 245.035 348.98 245.344C348.607 245.643 348.42 246.043 348.42 246.544C348.42 247.035 348.607 247.435 348.98 247.744C349.353 248.053 349.817 248.208 350.372 248.208C350.927 248.208 351.391 248.053 351.764 247.744C352.137 247.435 352.324 247.035 352.324 246.544C352.324 246.043 352.137 245.643 351.764 245.344C351.391 245.035 350.927 244.88 350.372 244.88ZM359.512 252.16C358.754 252.16 358.077 251.995 357.48 251.664C356.893 251.333 356.434 250.859 356.104 250.24C355.773 249.611 355.608 248.864 355.608 248C355.608 247.136 355.773 246.395 356.104 245.776C356.434 245.147 356.888 244.667 357.464 244.336C358.04 244.005 358.696 243.84 359.432 243.84C360.178 243.84 360.813 244 361.336 244.32C361.869 244.64 362.274 245.077 362.552 245.632C362.829 246.176 362.968 246.789 362.968 247.472C362.968 247.653 362.962 247.819 362.952 247.968C362.941 248.117 362.925 248.251 362.904 248.368H356.44V247.232H362.344L361.688 247.36C361.688 246.592 361.474 246 361.048 245.584C360.632 245.168 360.082 244.96 359.4 244.96C358.877 244.96 358.424 245.083 358.04 245.328C357.666 245.563 357.373 245.909 357.16 246.368C356.957 246.816 356.856 247.36 356.856 248C356.856 248.629 356.962 249.173 357.176 249.632C357.389 250.091 357.688 250.443 358.072 250.688C358.466 250.923 358.936 251.04 359.48 251.04C360.066 251.04 360.541 250.928 360.904 250.704C361.277 250.48 361.576 250.176 361.8 249.792L362.808 250.384C362.605 250.747 362.344 251.061 362.024 251.328C361.714 251.595 361.346 251.803 360.92 251.952C360.504 252.091 360.034 252.16 359.512 252.16ZM368.282 252.16C367.503 252.16 366.783 251.995 366.122 251.664C365.471 251.333 364.97 250.864 364.618 250.256L365.706 249.472C365.941 249.963 366.282 250.347 366.73 250.624C367.189 250.901 367.738 251.04 368.378 251.04C368.943 251.04 369.386 250.933 369.706 250.72C370.026 250.496 370.186 250.208 370.186 249.856C370.186 249.632 370.111 249.429 369.962 249.248C369.823 249.056 369.551 248.917 369.146 248.832L367.226 248.432C366.447 248.272 365.887 248.005 365.546 247.632C365.215 247.259 365.05 246.795 365.05 246.24C365.05 245.803 365.173 245.403 365.418 245.04C365.674 244.677 366.031 244.389 366.49 244.176C366.959 243.952 367.509 243.84 368.138 243.84C368.927 243.84 369.594 243.995 370.138 244.304C370.682 244.613 371.087 245.051 371.354 245.616L370.282 246.32C370.101 245.851 369.807 245.509 369.402 245.296C368.997 245.072 368.575 244.96 368.138 244.96C367.754 244.96 367.423 245.013 367.146 245.12C366.879 245.227 366.671 245.376 366.522 245.568C366.383 245.749 366.314 245.957 366.314 246.192C366.314 246.427 366.394 246.645 366.554 246.848C366.714 247.04 367.013 247.179 367.45 247.264L369.45 247.68C370.197 247.829 370.719 248.075 371.018 248.416C371.317 248.757 371.466 249.173 371.466 249.664C371.466 250.165 371.333 250.608 371.066 250.992C370.799 251.365 370.426 251.653 369.946 251.856C369.466 252.059 368.911 252.16 368.282 252.16ZM380.868 241.728V249.792C380.868 250.187 380.98 250.48 381.204 250.672C381.428 250.864 381.716 250.96 382.068 250.96C382.378 250.96 382.644 250.907 382.868 250.8C383.092 250.693 383.295 250.549 383.476 250.368L383.924 251.44C383.679 251.664 383.386 251.84 383.044 251.968C382.714 252.096 382.33 252.16 381.892 252.16C381.487 252.16 381.108 252.091 380.756 251.952C380.404 251.803 380.122 251.573 379.908 251.264C379.706 250.944 379.599 250.528 379.588 250.016V242.08L380.868 241.728ZM383.78 244V245.104H377.988V244H383.78ZM388.995 243.84C389.753 243.84 390.419 244.005 390.995 244.336C391.582 244.667 392.041 245.147 392.371 245.776C392.702 246.395 392.867 247.136 392.867 248C392.867 248.864 392.702 249.611 392.371 250.24C392.041 250.859 391.582 251.333 390.995 251.664C390.419 251.995 389.753 252.16 388.995 252.16C388.249 252.16 387.582 251.995 386.995 251.664C386.409 251.333 385.95 250.859 385.619 250.24C385.289 249.611 385.123 248.864 385.123 248C385.123 247.136 385.289 246.395 385.619 245.776C385.95 245.147 386.409 244.667 386.995 244.336C387.582 244.005 388.249 243.84 388.995 243.84ZM388.995 244.944C388.451 244.944 387.987 245.067 387.603 245.312C387.219 245.557 386.921 245.909 386.707 246.368C386.505 246.816 386.403 247.36 386.403 248C386.403 248.629 386.505 249.173 386.707 249.632C386.921 250.091 387.219 250.443 387.603 250.688C387.987 250.933 388.451 251.056 388.995 251.056C389.539 251.056 390.003 250.933 390.387 250.688C390.771 250.443 391.065 250.091 391.267 249.632C391.481 249.173 391.587 248.629 391.587 248C391.587 247.36 391.481 246.816 391.267 246.368C391.065 245.909 390.771 245.557 390.387 245.312C390.003 245.067 389.539 244.944 388.995 244.944ZM404.042 243.84C404.597 243.84 405.082 243.925 405.498 244.096C405.925 244.267 406.293 244.512 406.602 244.832C406.912 245.152 407.162 245.531 407.354 245.968L406.138 246.544C405.968 246.032 405.706 245.643 405.354 245.376C405.013 245.099 404.565 244.96 404.01 244.96C403.477 244.96 403.018 245.083 402.634 245.328C402.25 245.563 401.957 245.909 401.754 246.368C401.552 246.816 401.45 247.36 401.45 248C401.45 248.629 401.552 249.173 401.754 249.632C401.957 250.091 402.25 250.443 402.634 250.688C403.018 250.923 403.477 251.04 404.01 251.04C404.426 251.04 404.784 250.976 405.082 250.848C405.392 250.72 405.642 250.533 405.834 250.288C406.037 250.043 406.176 249.744 406.25 249.392L407.434 249.808C407.253 250.299 407.002 250.72 406.682 251.072C406.373 251.424 405.994 251.696 405.546 251.888C405.109 252.069 404.608 252.16 404.042 252.16C403.296 252.16 402.629 251.995 402.042 251.664C401.456 251.333 400.997 250.859 400.666 250.24C400.336 249.611 400.17 248.864 400.17 248C400.17 247.136 400.336 246.395 400.666 245.776C400.997 245.147 401.456 244.667 402.042 244.336C402.629 244.005 403.296 243.84 404.042 243.84ZM412.995 243.84C413.753 243.84 414.419 244.005 414.995 244.336C415.582 244.667 416.041 245.147 416.371 245.776C416.702 246.395 416.867 247.136 416.867 248C416.867 248.864 416.702 249.611 416.371 250.24C416.041 250.859 415.582 251.333 414.995 251.664C414.419 251.995 413.753 252.16 412.995 252.16C412.249 252.16 411.582 251.995 410.995 251.664C410.409 251.333 409.95 250.859 409.619 250.24C409.289 249.611 409.123 248.864 409.123 248C409.123 247.136 409.289 246.395 409.619 245.776C409.95 245.147 410.409 244.667 410.995 244.336C411.582 244.005 412.249 243.84 412.995 243.84ZM412.995 244.944C412.451 244.944 411.987 245.067 411.603 245.312C411.219 245.557 410.921 245.909 410.707 246.368C410.505 246.816 410.403 247.36 410.403 248C410.403 248.629 410.505 249.173 410.707 249.632C410.921 250.091 411.219 250.443 411.603 250.688C411.987 250.933 412.451 251.056 412.995 251.056C413.539 251.056 414.003 250.933 414.387 250.688C414.771 250.443 415.065 250.091 415.267 249.632C415.481 249.173 415.587 248.629 415.587 248C415.587 247.36 415.481 246.816 415.267 246.368C415.065 245.909 414.771 245.557 414.387 245.312C414.003 245.067 413.539 244.944 412.995 244.944ZM419.277 252V244H420.397L420.509 245.792L420.301 245.616C420.472 245.189 420.701 244.848 420.989 244.592C421.277 244.325 421.608 244.133 421.981 244.016C422.365 243.899 422.76 243.84 423.165 243.84C423.741 243.84 424.264 243.952 424.733 244.176C425.202 244.389 425.576 244.72 425.853 245.168C426.141 245.616 426.285 246.187 426.285 246.88V252H425.005V247.328C425.005 246.443 424.813 245.829 424.429 245.488C424.056 245.136 423.592 244.96 423.037 244.96C422.653 244.96 422.269 245.051 421.885 245.232C421.501 245.413 421.181 245.707 420.925 246.112C420.68 246.517 420.557 247.061 420.557 247.744V252H419.277ZM432.322 240.24C432.599 240.24 432.861 240.272 433.106 240.336C433.351 240.4 433.543 240.491 433.682 240.608L433.346 241.648C433.218 241.563 433.079 241.504 432.93 241.472C432.781 241.429 432.615 241.408 432.434 241.408C431.975 241.408 431.618 241.52 431.362 241.744C431.106 241.957 430.978 242.304 430.978 242.784V244V244.416V252H429.698V242.656C429.698 242.304 429.751 241.979 429.858 241.68C429.965 241.381 430.125 241.125 430.338 240.912C430.562 240.699 430.839 240.533 431.17 240.416C431.501 240.299 431.885 240.24 432.322 240.24ZM433.65 244V245.104H428.098V244H433.65ZM436.002 242.464C435.714 242.464 435.479 242.379 435.298 242.208C435.127 242.027 435.042 241.792 435.042 241.504C435.042 241.216 435.127 240.987 435.298 240.816C435.479 240.635 435.714 240.544 436.002 240.544C436.29 240.544 436.519 240.635 436.69 240.816C436.871 240.987 436.962 241.216 436.962 241.504C436.962 241.792 436.871 242.027 436.69 242.208C436.519 242.379 436.29 242.464 436.002 242.464ZM436.642 244V252H435.362V244H436.642ZM446.357 242.528L446.645 243.664C446.634 243.664 446.618 243.664 446.597 243.664C446.575 243.664 446.554 243.664 446.533 243.664C446.01 243.664 445.605 243.771 445.317 243.984C445.039 244.187 444.901 244.517 444.901 244.976L444.117 244.576C444.117 244.16 444.213 243.797 444.405 243.488C444.597 243.179 444.858 242.944 445.189 242.784C445.519 242.613 445.882 242.528 446.277 242.528C446.287 242.528 446.298 242.528 446.309 242.528C446.33 242.528 446.346 242.528 446.357 242.528ZM443.925 250.976C444.682 250.976 445.274 251.152 445.701 251.504C446.127 251.845 446.341 252.304 446.341 252.88C446.341 253.403 446.165 253.856 445.813 254.24C445.471 254.624 445.007 254.917 444.421 255.12C443.845 255.333 443.194 255.44 442.469 255.44C441.21 255.44 440.266 255.227 439.637 254.8C439.018 254.373 438.709 253.861 438.709 253.264C438.709 252.837 438.847 252.453 439.125 252.112C439.413 251.781 439.893 251.595 440.565 251.552L440.453 251.792C440.09 251.696 439.781 251.536 439.525 251.312C439.279 251.077 439.157 250.741 439.157 250.304C439.157 249.867 439.317 249.493 439.637 249.184C439.967 248.864 440.453 248.667 441.093 248.592L441.941 249.024H441.781C441.258 249.077 440.885 249.211 440.661 249.424C440.447 249.627 440.341 249.851 440.341 250.096C440.341 250.395 440.447 250.619 440.661 250.768C440.885 250.907 441.194 250.976 441.589 250.976H443.925ZM442.453 254.368C443.071 254.368 443.578 254.304 443.973 254.176C444.378 254.048 444.677 253.883 444.869 253.68C445.061 253.477 445.157 253.259 445.157 253.024C445.157 252.736 445.039 252.507 444.805 252.336C444.581 252.165 444.17 252.08 443.573 252.08H441.109C440.767 252.08 440.479 252.165 440.245 252.336C440.01 252.517 439.893 252.763 439.893 253.072C439.893 253.467 440.117 253.781 440.565 254.016C441.023 254.251 441.653 254.368 442.453 254.368ZM442.341 243.84C442.981 243.84 443.546 243.957 444.037 244.192C444.538 244.416 444.927 244.731 445.205 245.136C445.482 245.541 445.621 246.011 445.621 246.544C445.621 247.067 445.482 247.536 445.205 247.952C444.927 248.357 444.538 248.677 444.037 248.912C443.546 249.136 442.981 249.248 442.341 249.248C441.285 249.248 440.474 248.997 439.909 248.496C439.343 247.984 439.061 247.333 439.061 246.544C439.061 246.011 439.199 245.541 439.477 245.136C439.765 244.731 440.154 244.416 440.645 244.192C441.135 243.957 441.701 243.84 442.341 243.84ZM442.341 244.88C441.786 244.88 441.322 245.035 440.949 245.344C440.575 245.643 440.389 246.043 440.389 246.544C440.389 247.035 440.575 247.435 440.949 247.744C441.322 248.053 441.786 248.208 442.341 248.208C442.895 248.208 443.359 248.053 443.733 247.744C444.106 247.435 444.293 247.035 444.293 246.544C444.293 246.043 444.106 245.643 443.733 245.344C443.359 245.035 442.895 244.88 442.341 244.88ZM451.032 252.16C450.52 252.16 450.035 252.064 449.576 251.872C449.128 251.68 448.76 251.371 448.472 250.944C448.195 250.507 448.056 249.941 448.056 249.248V244H449.336V248.912C449.336 249.723 449.512 250.283 449.864 250.592C450.216 250.891 450.712 251.04 451.352 251.04C451.651 251.04 451.944 250.992 452.232 250.896C452.52 250.789 452.776 250.629 453 250.416C453.235 250.192 453.416 249.909 453.544 249.568C453.683 249.227 453.752 248.821 453.752 248.352V244H455.032V252H453.912L453.832 250.784C453.555 251.264 453.176 251.616 452.696 251.84C452.227 252.053 451.672 252.16 451.032 252.16ZM458.011 252V244H459.051L459.227 245.312C459.451 244.821 459.777 244.453 460.203 244.208C460.641 243.963 461.169 243.84 461.787 243.84C461.926 243.84 462.075 243.851 462.235 243.872C462.406 243.893 462.55 243.936 462.667 244L462.443 245.168C462.326 245.125 462.198 245.093 462.059 245.072C461.921 245.051 461.723 245.04 461.467 245.04C461.137 245.04 460.801 245.136 460.459 245.328C460.129 245.52 459.851 245.813 459.627 246.208C459.403 246.592 459.291 247.083 459.291 247.68V252H458.011ZM467.637 252.16C466.879 252.16 466.202 251.995 465.605 251.664C465.018 251.333 464.559 250.859 464.229 250.24C463.898 249.611 463.733 248.864 463.733 248C463.733 247.136 463.898 246.395 464.229 245.776C464.559 245.147 465.013 244.667 465.589 244.336C466.165 244.005 466.821 243.84 467.557 243.84C468.303 243.84 468.938 244 469.461 244.32C469.994 244.64 470.399 245.077 470.677 245.632C470.954 246.176 471.093 246.789 471.093 247.472C471.093 247.653 471.087 247.819 471.077 247.968C471.066 248.117 471.05 248.251 471.029 248.368H464.565V247.232H470.469L469.813 247.36C469.813 246.592 469.599 246 469.173 245.584C468.757 245.168 468.207 244.96 467.525 244.96C467.002 244.96 466.549 245.083 466.165 245.328C465.791 245.563 465.498 245.909 465.285 246.368C465.082 246.816 464.981 247.36 464.981 248C464.981 248.629 465.087 249.173 465.301 249.632C465.514 250.091 465.813 250.443 466.197 250.688C466.591 250.923 467.061 251.04 467.605 251.04C468.191 251.04 468.666 250.928 469.029 250.704C469.402 250.48 469.701 250.176 469.925 249.792L470.933 250.384C470.73 250.747 470.469 251.061 470.149 251.328C469.839 251.595 469.471 251.803 469.045 251.952C468.629 252.091 468.159 252.16 467.637 252.16ZM240.583 266H242.007L239.223 274H237.943L235.687 267.632L233.559 274H232.279L229.495 266H230.919L232.935 272.512L235.111 266H236.391L238.567 272.512L240.583 266ZM243.926 274V262.32H245.206V267.2C245.483 266.72 245.851 266.373 246.31 266.16C246.768 265.947 247.27 265.84 247.814 265.84C248.39 265.84 248.912 265.952 249.382 266.176C249.851 266.389 250.224 266.72 250.502 267.168C250.79 267.616 250.934 268.187 250.934 268.88V274H249.654V269.328C249.654 268.443 249.462 267.829 249.078 267.488C248.704 267.136 248.24 266.96 247.686 266.96C247.302 266.96 246.918 267.051 246.534 267.232C246.15 267.413 245.83 267.712 245.574 268.128C245.328 268.533 245.206 269.077 245.206 269.76V274H243.926ZM257.176 274.16C256.418 274.16 255.741 273.995 255.144 273.664C254.557 273.333 254.098 272.859 253.768 272.24C253.437 271.611 253.272 270.864 253.272 270C253.272 269.136 253.437 268.395 253.768 267.776C254.098 267.147 254.552 266.667 255.128 266.336C255.704 266.005 256.36 265.84 257.096 265.84C257.842 265.84 258.477 266 259 266.32C259.533 266.64 259.938 267.077 260.216 267.632C260.493 268.176 260.632 268.789 260.632 269.472C260.632 269.653 260.626 269.819 260.616 269.968C260.605 270.117 260.589 270.251 260.568 270.368H254.104V269.232H260.008L259.352 269.36C259.352 268.592 259.138 268 258.712 267.584C258.296 267.168 257.746 266.96 257.064 266.96C256.541 266.96 256.088 267.083 255.704 267.328C255.33 267.563 255.037 267.909 254.824 268.368C254.621 268.816 254.52 269.36 254.52 270C254.52 270.629 254.626 271.173 254.84 271.632C255.053 272.091 255.352 272.443 255.736 272.688C256.13 272.923 256.6 273.04 257.144 273.04C257.73 273.04 258.205 272.928 258.568 272.704C258.941 272.48 259.24 272.176 259.464 271.792L260.472 272.384C260.269 272.747 260.008 273.061 259.688 273.328C259.378 273.595 259.01 273.803 258.584 273.952C258.168 274.091 257.698 274.16 257.176 274.16ZM263.066 274V266H264.186L264.298 267.792L264.09 267.616C264.261 267.189 264.49 266.848 264.778 266.592C265.066 266.325 265.397 266.133 265.77 266.016C266.154 265.899 266.549 265.84 266.954 265.84C267.53 265.84 268.053 265.952 268.522 266.176C268.991 266.389 269.365 266.72 269.642 267.168C269.93 267.616 270.074 268.187 270.074 268.88V274H268.794V269.328C268.794 268.443 268.602 267.829 268.218 267.488C267.845 267.136 267.381 266.96 266.826 266.96C266.442 266.96 266.058 267.051 265.674 267.232C265.29 267.413 264.97 267.707 264.714 268.112C264.469 268.517 264.346 269.061 264.346 269.744V274H263.066ZM284.595 266L280.835 275.344C280.633 275.867 280.409 276.277 280.163 276.576C279.929 276.885 279.662 277.104 279.363 277.232C279.075 277.371 278.739 277.44 278.355 277.44C277.993 277.44 277.657 277.387 277.347 277.28C277.049 277.184 276.782 277.051 276.547 276.88L276.899 275.76C277.113 275.952 277.337 276.091 277.571 276.176C277.817 276.272 278.057 276.32 278.291 276.32C278.569 276.32 278.83 276.235 279.075 276.064C279.321 275.893 279.545 275.547 279.747 275.024L280.163 273.984L279.363 272.08L276.819 266H278.275L280.275 271.216L280.771 272.64L281.347 271.056L283.219 266H284.595ZM289.581 265.84C290.339 265.84 291.005 266.005 291.581 266.336C292.168 266.667 292.627 267.147 292.957 267.776C293.288 268.395 293.453 269.136 293.453 270C293.453 270.864 293.288 271.611 292.957 272.24C292.627 272.859 292.168 273.333 291.581 273.664C291.005 273.995 290.339 274.16 289.581 274.16C288.835 274.16 288.168 273.995 287.581 273.664C286.995 273.333 286.536 272.859 286.205 272.24C285.875 271.611 285.709 270.864 285.709 270C285.709 269.136 285.875 268.395 286.205 267.776C286.536 267.147 286.995 266.667 287.581 266.336C288.168 266.005 288.835 265.84 289.581 265.84ZM289.581 266.944C289.037 266.944 288.573 267.067 288.189 267.312C287.805 267.557 287.507 267.909 287.293 268.368C287.091 268.816 286.989 269.36 286.989 270C286.989 270.629 287.091 271.173 287.293 271.632C287.507 272.091 287.805 272.443 288.189 272.688C288.573 272.933 289.037 273.056 289.581 273.056C290.125 273.056 290.589 272.933 290.973 272.688C291.357 272.443 291.651 272.091 291.853 271.632C292.067 271.173 292.173 270.629 292.173 270C292.173 269.36 292.067 268.816 291.853 268.368C291.651 267.909 291.357 267.557 290.973 267.312C290.589 267.067 290.125 266.944 289.581 266.944ZM298.759 274.16C298.247 274.16 297.762 274.064 297.303 273.872C296.855 273.68 296.487 273.371 296.199 272.944C295.922 272.507 295.783 271.941 295.783 271.248V266H297.063V270.912C297.063 271.723 297.239 272.283 297.591 272.592C297.943 272.891 298.439 273.04 299.079 273.04C299.378 273.04 299.671 272.992 299.959 272.896C300.247 272.789 300.503 272.629 300.727 272.416C300.962 272.192 301.143 271.909 301.271 271.568C301.41 271.227 301.479 270.821 301.479 270.352V266H302.759V274H301.639L301.559 272.784C301.282 273.264 300.903 273.616 300.423 273.84C299.954 274.053 299.399 274.16 298.759 274.16ZM315.863 268.832C315.863 268.235 315.703 267.776 315.383 267.456C315.063 267.125 314.61 266.96 314.023 266.96C313.468 266.96 312.999 267.083 312.615 267.328C312.231 267.563 311.948 267.947 311.767 268.48L310.727 267.84C310.94 267.243 311.335 266.763 311.911 266.4C312.487 266.027 313.202 265.84 314.055 265.84C314.631 265.84 315.154 265.941 315.623 266.144C316.092 266.336 316.46 266.635 316.727 267.04C317.004 267.435 317.143 267.947 317.143 268.576V272.448C317.143 272.832 317.346 273.024 317.751 273.024C317.954 273.024 318.151 272.997 318.343 272.944L318.279 273.952C318.066 274.059 317.788 274.112 317.447 274.112C317.138 274.112 316.86 274.053 316.615 273.936C316.37 273.819 316.178 273.643 316.039 273.408C315.9 273.163 315.831 272.859 315.831 272.496V272.336L316.151 272.384C316.023 272.8 315.804 273.141 315.495 273.408C315.186 273.664 314.839 273.856 314.455 273.984C314.071 274.101 313.692 274.16 313.319 274.16C312.85 274.16 312.412 274.08 312.007 273.92C311.602 273.76 311.276 273.52 311.031 273.2C310.796 272.869 310.679 272.464 310.679 271.984C310.679 271.387 310.876 270.896 311.271 270.512C311.676 270.117 312.236 269.851 312.951 269.712L316.119 269.088V270.144L313.543 270.672C313.02 270.779 312.631 270.928 312.375 271.12C312.119 271.312 311.991 271.579 311.991 271.92C311.991 272.251 312.119 272.523 312.375 272.736C312.642 272.939 313.015 273.04 313.495 273.04C313.804 273.04 314.098 273.003 314.375 272.928C314.663 272.843 314.919 272.72 315.143 272.56C315.367 272.389 315.543 272.181 315.671 271.936C315.799 271.68 315.863 271.381 315.863 271.04V268.832ZM320.254 274V266H321.294L321.47 267.312C321.694 266.821 322.019 266.453 322.446 266.208C322.883 265.963 323.411 265.84 324.03 265.84C324.168 265.84 324.318 265.851 324.478 265.872C324.648 265.893 324.792 265.936 324.91 266L324.686 267.168C324.568 267.125 324.44 267.093 324.302 267.072C324.163 267.051 323.966 267.04 323.71 267.04C323.379 267.04 323.043 267.136 322.702 267.328C322.371 267.52 322.094 267.813 321.87 268.208C321.646 268.592 321.534 269.083 321.534 269.68V274H320.254ZM329.879 274.16C329.122 274.16 328.444 273.995 327.847 273.664C327.26 273.333 326.802 272.859 326.471 272.24C326.14 271.611 325.975 270.864 325.975 270C325.975 269.136 326.14 268.395 326.471 267.776C326.802 267.147 327.255 266.667 327.831 266.336C328.407 266.005 329.063 265.84 329.799 265.84C330.546 265.84 331.18 266 331.703 266.32C332.236 266.64 332.642 267.077 332.919 267.632C333.196 268.176 333.335 268.789 333.335 269.472C333.335 269.653 333.33 269.819 333.319 269.968C333.308 270.117 333.292 270.251 333.271 270.368H326.807V269.232H332.711L332.055 269.36C332.055 268.592 331.842 268 331.415 267.584C330.999 267.168 330.45 266.96 329.767 266.96C329.244 266.96 328.791 267.083 328.407 267.328C328.034 267.563 327.74 267.909 327.527 268.368C327.324 268.816 327.223 269.36 327.223 270C327.223 270.629 327.33 271.173 327.543 271.632C327.756 272.091 328.055 272.443 328.439 272.688C328.834 272.923 329.303 273.04 329.847 273.04C330.434 273.04 330.908 272.928 331.271 272.704C331.644 272.48 331.943 272.176 332.167 271.792L333.175 272.384C332.972 272.747 332.711 273.061 332.391 273.328C332.082 273.595 331.714 273.803 331.287 273.952C330.871 274.091 330.402 274.16 329.879 274.16ZM345.894 268.832C345.894 268.235 345.734 267.776 345.414 267.456C345.094 267.125 344.641 266.96 344.054 266.96C343.5 266.96 343.03 267.083 342.646 267.328C342.262 267.563 341.98 267.947 341.798 268.48L340.758 267.84C340.972 267.243 341.366 266.763 341.942 266.4C342.518 266.027 343.233 265.84 344.086 265.84C344.662 265.84 345.185 265.941 345.654 266.144C346.124 266.336 346.492 266.635 346.758 267.04C347.036 267.435 347.174 267.947 347.174 268.576V272.448C347.174 272.832 347.377 273.024 347.782 273.024C347.985 273.024 348.182 272.997 348.374 272.944L348.31 273.952C348.097 274.059 347.82 274.112 347.478 274.112C347.169 274.112 346.892 274.053 346.646 273.936C346.401 273.819 346.209 273.643 346.07 273.408C345.932 273.163 345.862 272.859 345.862 272.496V272.336L346.182 272.384C346.054 272.8 345.836 273.141 345.526 273.408C345.217 273.664 344.87 273.856 344.486 273.984C344.102 274.101 343.724 274.16 343.35 274.16C342.881 274.16 342.444 274.08 342.038 273.92C341.633 273.76 341.308 273.52 341.062 273.2C340.828 272.869 340.71 272.464 340.71 271.984C340.71 271.387 340.908 270.896 341.302 270.512C341.708 270.117 342.268 269.851 342.982 269.712L346.15 269.088V270.144L343.574 270.672C343.052 270.779 342.662 270.928 342.406 271.12C342.15 271.312 342.022 271.579 342.022 271.92C342.022 272.251 342.15 272.523 342.406 272.736C342.673 272.939 343.046 273.04 343.526 273.04C343.836 273.04 344.129 273.003 344.406 272.928C344.694 272.843 344.95 272.72 345.174 272.56C345.398 272.389 345.574 272.181 345.702 271.936C345.83 271.68 345.894 271.381 345.894 271.04V268.832ZM351.501 262.32V271.968C351.501 272.373 351.576 272.656 351.725 272.816C351.874 272.965 352.114 273.04 352.445 273.04C352.658 273.04 352.834 273.024 352.973 272.992C353.112 272.96 353.298 272.901 353.533 272.816L353.325 273.936C353.154 274.011 352.968 274.064 352.765 274.096C352.562 274.139 352.354 274.16 352.141 274.16C351.49 274.16 351.005 273.984 350.685 273.632C350.376 273.28 350.221 272.741 350.221 272.016V262.32H351.501ZM358.52 274.16C357.762 274.16 357.085 273.995 356.488 273.664C355.901 273.333 355.442 272.859 355.112 272.24C354.781 271.611 354.616 270.864 354.616 270C354.616 269.136 354.781 268.395 355.112 267.776C355.442 267.147 355.896 266.667 356.472 266.336C357.048 266.005 357.704 265.84 358.44 265.84C359.186 265.84 359.821 266 360.344 266.32C360.877 266.64 361.282 267.077 361.56 267.632C361.837 268.176 361.976 268.789 361.976 269.472C361.976 269.653 361.97 269.819 361.96 269.968C361.949 270.117 361.933 270.251 361.911 270.368H355.448V269.232H361.352L360.696 269.36C360.696 268.592 360.482 268 360.056 267.584C359.64 267.168 359.09 266.96 358.408 266.96C357.885 266.96 357.432 267.083 357.048 267.328C356.674 267.563 356.381 267.909 356.168 268.368C355.965 268.816 355.864 269.36 355.864 270C355.864 270.629 355.97 271.173 356.184 271.632C356.397 272.091 356.696 272.443 357.08 272.688C357.474 272.923 357.944 273.04 358.488 273.04C359.074 273.04 359.549 272.928 359.912 272.704C360.285 272.48 360.584 272.176 360.808 271.792L361.816 272.384C361.613 272.747 361.352 273.061 361.032 273.328C360.722 273.595 360.354 273.803 359.928 273.952C359.512 274.091 359.042 274.16 358.52 274.16ZM364.41 274V266H365.45L365.626 267.312C365.85 266.821 366.175 266.453 366.602 266.208C367.039 265.963 367.567 265.84 368.186 265.84C368.325 265.84 368.474 265.851 368.634 265.872C368.805 265.893 368.949 265.936 369.066 266L368.842 267.168C368.725 267.125 368.597 267.093 368.458 267.072C368.319 267.051 368.122 267.04 367.866 267.04C367.535 267.04 367.199 267.136 366.858 267.328C366.527 267.52 366.25 267.813 366.026 268.208C365.802 268.592 365.69 269.083 365.69 269.68V274H364.41ZM372.345 263.728V271.792C372.345 272.187 372.457 272.48 372.681 272.672C372.905 272.864 373.193 272.96 373.545 272.96C373.854 272.96 374.121 272.907 374.345 272.8C374.569 272.693 374.771 272.549 374.953 272.368L375.401 273.44C375.155 273.664 374.862 273.84 374.521 273.968C374.19 274.096 373.806 274.16 373.369 274.16C372.963 274.16 372.585 274.091 372.233 273.952C371.881 273.803 371.598 273.573 371.385 273.264C371.182 272.944 371.075 272.528 371.065 272.016V264.08L372.345 263.728ZM375.257 266V267.104H369.465V266H375.257ZM380.504 274.16C379.747 274.16 379.069 273.995 378.472 273.664C377.885 273.333 377.427 272.859 377.096 272.24C376.765 271.611 376.6 270.864 376.6 270C376.6 269.136 376.765 268.395 377.096 267.776C377.427 267.147 377.88 266.667 378.456 266.336C379.032 266.005 379.688 265.84 380.424 265.84C381.171 265.84 381.805 266 382.328 266.32C382.861 266.64 383.267 267.077 383.544 267.632C383.821 268.176 383.96 268.789 383.96 269.472C383.96 269.653 383.955 269.819 383.944 269.968C383.933 270.117 383.917 270.251 383.896 270.368H377.432V269.232H383.336L382.68 269.36C382.68 268.592 382.467 268 382.04 267.584C381.624 267.168 381.075 266.96 380.392 266.96C379.869 266.96 379.416 267.083 379.032 267.328C378.659 267.563 378.365 267.909 378.152 268.368C377.949 268.816 377.848 269.36 377.848 270C377.848 270.629 377.955 271.173 378.168 271.632C378.381 272.091 378.68 272.443 379.064 272.688C379.459 272.923 379.928 273.04 380.472 273.04C381.059 273.04 381.533 272.928 381.896 272.704C382.269 272.48 382.568 272.176 382.792 271.792L383.8 272.384C383.597 272.747 383.336 273.061 383.016 273.328C382.707 273.595 382.339 273.803 381.912 273.952C381.496 274.091 381.027 274.16 380.504 274.16ZM389.514 274.16C388.853 274.16 388.245 273.995 387.69 273.664C387.136 273.333 386.693 272.859 386.362 272.24C386.032 271.611 385.866 270.864 385.866 270C385.866 269.115 386.042 268.363 386.394 267.744C386.746 267.125 387.21 266.656 387.786 266.336C388.362 266.005 388.981 265.84 389.642 265.84C390.304 265.84 390.874 266.011 391.354 266.352C391.845 266.693 392.17 267.147 392.33 267.712L392.17 267.824V262.32H393.45V274H392.33L392.218 272.064L392.394 271.968C392.32 272.437 392.138 272.837 391.85 273.168C391.573 273.488 391.226 273.733 390.81 273.904C390.405 274.075 389.973 274.16 389.514 274.16ZM389.642 273.04C390.154 273.04 390.597 272.912 390.97 272.656C391.354 272.4 391.648 272.037 391.85 271.568C392.064 271.088 392.17 270.528 392.17 269.888C392.17 269.28 392.064 268.757 391.85 268.32C391.648 267.883 391.36 267.547 390.986 267.312C390.624 267.077 390.197 266.96 389.706 266.96C388.896 266.96 388.266 267.237 387.818 267.792C387.37 268.347 387.146 269.083 387.146 270C387.146 270.917 387.365 271.653 387.802 272.208C388.24 272.763 388.853 273.04 389.642 273.04Z" fill="#0E0E1A"/>
<line opacity="0.1" x1="56" y1="47" x2="56" y2="224" stroke="#57AA64" stroke-width="2"/>
<line opacity="0.1" x1="145" y1="47" x2="145" y2="224" stroke="#57AA64" stroke-width="2"/>
<line opacity="0.1" x1="234" y1="47" x2="234" y2="224" stroke="#57AA64" stroke-width="2"/>
<line opacity="0.1" x1="313" y1="47" x2="313" y2="224" stroke="#57AA64" stroke-width="2"/>
<line opacity="0.1" x1="392" y1="47" x2="392" y2="224" stroke="#57AA64" stroke-width="2"/>
<mask id="path-7-inside-1_2214_36379" fill="white">
<path d="M30 104H594V156H30V104Z"/>
</mask>
<path d="M30 104H594V156H30V104Z" fill="#56A97A" fill-opacity="0.04"/>
<path d="M30 156.306H31.5326V155.694H30V156.306ZM34.5978 156.306H37.663V155.694H34.5978V156.306ZM40.7283 156.306H43.7935V155.694H40.7283V156.306ZM46.8587 156.306H49.9239V155.694H46.8587V156.306ZM52.9891 156.306H56.0543V155.694H52.9891V156.306ZM59.1196 156.306H62.1848V155.694H59.1196V156.306ZM65.25 156.306H68.3152V155.694H65.25V156.306ZM71.3804 156.306H74.4456V155.694H71.3804V156.306ZM77.5109 156.306H80.5761V155.694H77.5109V156.306ZM83.6413 156.306H86.7065V155.694H83.6413V156.306ZM89.7717 156.306H92.8369V155.694H89.7717V156.306ZM95.9022 156.306H98.9674V155.694H95.9022V156.306ZM102.033 156.306H105.098V155.694H102.033V156.306ZM108.163 156.306H111.228V155.694H108.163V156.306ZM114.293 156.306H117.359V155.694H114.293V156.306ZM120.424 156.306H123.489V155.694H120.424V156.306ZM126.554 156.306H129.62V155.694H126.554V156.306ZM132.685 156.306H135.75V155.694H132.685V156.306ZM138.815 156.306H141.88V155.694H138.815V156.306ZM144.946 156.306H148.011V155.694H144.946V156.306ZM151.076 156.306H154.141V155.694H151.076V156.306ZM157.206 156.306H160.272V155.694H157.206V156.306ZM163.337 156.306H166.402V155.694H163.337V156.306ZM169.467 156.306H172.533V155.694H169.467V156.306ZM175.598 156.306H178.663V155.694H175.598V156.306ZM181.728 156.306H184.793V155.694H181.728V156.306ZM187.859 156.306H190.924V155.694H187.859V156.306ZM193.989 156.306H197.054V155.694H193.989V156.306ZM200.12 156.306H203.185V155.694H200.12V156.306ZM206.25 156.306H209.315V155.694H206.25V156.306ZM212.38 156.306H215.446V155.694H212.38V156.306ZM218.511 156.306H221.576V155.694H218.511V156.306ZM224.641 156.306H227.706V155.694H224.641V156.306ZM230.772 156.306H233.837V155.694H230.772V156.306ZM236.902 156.306H239.967V155.694H236.902V156.306ZM243.033 156.306H246.098V155.694H243.033V156.306ZM249.163 156.306H252.228V155.694H249.163V156.306ZM255.293 156.306H258.359V155.694H255.293V156.306ZM261.424 156.306H264.489V155.694H261.424V156.306ZM267.554 156.306H270.619V155.694H267.554V156.306ZM273.685 156.306H276.75V155.694H273.685V156.306ZM279.815 156.306H282.88V155.694H279.815V156.306ZM285.946 156.306H289.011V155.694H285.946V156.306ZM292.076 156.306H295.141V155.694H292.076V156.306ZM298.206 156.306H301.272V155.694H298.206V156.306ZM304.337 156.306H307.402V155.694H304.337V156.306ZM310.467 156.306H313.533V155.694H310.467V156.306ZM316.598 156.306H319.663V155.694H316.598V156.306ZM322.728 156.306H325.793V155.694H322.728V156.306ZM328.859 156.306H331.924V155.694H328.859V156.306ZM334.989 156.306H338.054V155.694H334.989V156.306ZM341.119 156.306H344.185V155.694H341.119V156.306ZM347.25 156.306H350.315V155.694H347.25V156.306ZM353.38 156.306H356.446V155.694H353.38V156.306ZM359.511 156.306H362.576V155.694H359.511V156.306ZM365.641 156.306H368.706V155.694H365.641V156.306ZM371.772 156.306H374.837V155.694H371.772V156.306ZM377.902 156.306H380.967V155.694H377.902V156.306ZM384.032 156.306H387.098V155.694H384.032V156.306ZM390.163 156.306H393.228V155.694H390.163V156.306ZM396.293 156.306H399.359V155.694H396.293V156.306ZM402.424 156.306H405.489V155.694H402.424V156.306ZM408.554 156.306H411.619V155.694H408.554V156.306ZM414.685 156.306H417.75V155.694H414.685V156.306ZM420.815 156.306H423.88V155.694H420.815V156.306ZM426.945 156.306H430.011V155.694H426.945V156.306ZM433.076 156.306H436.141V155.694H433.076V156.306ZM439.206 156.306H442.272V155.694H439.206V156.306ZM445.337 156.306H448.402V155.694H445.337V156.306ZM451.467 156.306H454.532V155.694H451.467V156.306ZM457.598 156.306H460.663V155.694H457.598V156.306ZM463.728 156.306H466.793V155.694H463.728V156.306ZM469.859 156.306H472.924V155.694H469.859V156.306ZM475.989 156.306H479.054V155.694H475.989V156.306ZM482.119 156.306H485.185V155.694H482.119V156.306ZM488.25 156.306H491.315V155.694H488.25V156.306ZM494.38 156.306H497.445V155.694H494.38V156.306ZM500.511 156.306H503.576V155.694H500.511V156.306ZM506.641 156.306H509.706V155.694H506.641V156.306ZM512.772 156.306H515.837V155.694H512.772V156.306ZM518.902 156.306H521.967V155.694H518.902V156.306ZM525.032 156.306H528.098V155.694H525.032V156.306ZM531.163 156.306H534.228V155.694H531.163V156.306ZM537.293 156.306H540.358V155.694H537.293V156.306ZM543.424 156.306H546.489V155.694H543.424V156.306ZM549.554 156.306H552.619V155.694H549.554V156.306ZM555.685 156.306H558.75V155.694H555.685V156.306ZM561.815 156.306H564.88V155.694H561.815V156.306ZM567.946 156.306H571.011V155.694H567.946V156.306ZM574.076 156.306H577.141V155.694H574.076V156.306ZM580.207 156.306H583.272V155.694H580.207V156.306ZM586.337 156.306H589.402V155.694H586.337V156.306ZM592.468 156.306H594V155.694H592.468V156.306ZM594 103.694H592.467V104.306H594V103.694ZM589.402 103.694H586.337V104.306H589.402V103.694ZM583.272 103.694H580.207V104.306H583.272V103.694ZM577.141 103.694H574.076V104.306H577.141V103.694ZM571.011 103.694H567.946V104.306H571.011V103.694ZM564.88 103.694H561.815V104.306H564.88V103.694ZM558.75 103.694H555.685V104.306H558.75V103.694ZM552.62 103.694H549.554V104.306H552.62V103.694ZM546.489 103.694H543.424V104.306H546.489V103.694ZM540.359 103.694H537.293V104.306H540.359V103.694ZM534.228 103.694H531.163V104.306H534.228V103.694ZM528.098 103.694H525.033V104.306H528.098V103.694ZM521.967 103.694H518.902V104.306H521.967V103.694ZM515.837 103.694H512.772V104.306H515.837V103.694ZM509.707 103.694H506.641V104.306H509.707V103.694ZM503.576 103.694H500.511V104.306H503.576V103.694ZM497.446 103.694H494.38V104.306H497.446V103.694ZM491.315 103.694H488.25V104.306H491.315V103.694ZM485.185 103.694H482.12V104.306H485.185V103.694ZM479.054 103.694H475.989V104.306H479.054V103.694ZM472.924 103.694H469.859V104.306H472.924V103.694ZM466.794 103.694H463.728V104.306H466.794V103.694ZM460.663 103.694H457.598V104.306H460.663V103.694ZM454.533 103.694H451.467V104.306H454.533V103.694ZM448.402 103.694H445.337V104.306H448.402V103.694ZM442.272 103.694H439.207V104.306H442.272V103.694ZM436.141 103.694H433.076V104.306H436.141V103.694ZM430.011 103.694H426.946V104.306H430.011V103.694ZM423.88 103.694H420.815V104.306H423.88V103.694ZM417.75 103.694H414.685V104.306H417.75V103.694ZM411.62 103.694H408.554V104.306H411.62V103.694ZM405.489 103.694H402.424V104.306H405.489V103.694ZM399.359 103.694H396.294V104.306H399.359V103.694ZM393.228 103.694H390.163V104.306H393.228V103.694ZM387.098 103.694H384.033V104.306H387.098V103.694ZM380.967 103.694H377.902V104.306H380.967V103.694ZM374.837 103.694H371.772V104.306H374.837V103.694ZM368.707 103.694H365.641V104.306H368.707V103.694ZM362.576 103.694H359.511V104.306H362.576V103.694ZM356.446 103.694H353.381V104.306H356.446V103.694ZM350.315 103.694H347.25V104.306H350.315V103.694ZM344.185 103.694H341.12V104.306H344.185V103.694ZM338.054 103.694H334.989V104.306H338.054V103.694ZM331.924 103.694H328.859V104.306H331.924V103.694ZM325.794 103.694H322.728V104.306H325.794V103.694ZM319.663 103.694H316.598V104.306H319.663V103.694ZM313.533 103.694H310.467V104.306H313.533V103.694ZM307.402 103.694H304.337V104.306H307.402V103.694ZM301.272 103.694H298.207V104.306H301.272V103.694ZM295.141 103.694H292.076V104.306H295.141V103.694ZM289.011 103.694H285.946V104.306H289.011V103.694ZM282.881 103.694H279.815V104.306H282.881V103.694ZM276.75 103.694H273.685V104.306H276.75V103.694ZM270.62 103.694H267.554V104.306H270.62V103.694ZM264.489 103.694H261.424V104.306H264.489V103.694ZM258.359 103.694H255.294V104.306H258.359V103.694ZM252.228 103.694H249.163V104.306H252.228V103.694ZM246.098 103.694H243.033V104.306H246.098V103.694ZM239.968 103.694H236.902V104.306H239.968V103.694ZM233.837 103.694H230.772V104.306H233.837V103.694ZM227.707 103.694H224.641V104.306H227.707V103.694ZM221.576 103.694H218.511V104.306H221.576V103.694ZM215.446 103.694H212.381V104.306H215.446V103.694ZM209.315 103.694H206.25V104.306H209.315V103.694ZM203.185 103.694H200.12V104.306H203.185V103.694ZM197.055 103.694H193.989V104.306H197.055V103.694ZM190.924 103.694H187.859V104.306H190.924V103.694ZM184.794 103.694H181.728V104.306H184.794V103.694ZM178.663 103.694H175.598V104.306H178.663V103.694ZM172.533 103.694H169.468V104.306H172.533V103.694ZM166.402 103.694H163.337V104.306H166.402V103.694ZM160.272 103.694H157.207V104.306H160.272V103.694ZM154.141 103.694H151.076V104.306H154.141V103.694ZM148.011 103.694H144.946V104.306H148.011V103.694ZM141.881 103.694H138.815V104.306H141.881V103.694ZM135.75 103.694H132.685V104.306H135.75V103.694ZM129.62 103.694H126.555V104.306H129.62V103.694ZM123.489 103.694H120.424V104.306H123.489V103.694ZM117.359 103.694H114.294V104.306H117.359V103.694ZM111.228 103.694H108.163V104.306H111.228V103.694ZM105.098 103.694H102.033V104.306H105.098V103.694ZM98.9676 103.694H95.9024V104.306H98.9676V103.694ZM92.8372 103.694H89.7719V104.306H92.8372V103.694ZM86.7067 103.694H83.6415V104.306H86.7067V103.694ZM80.5763 103.694H77.511V104.306H80.5763V103.694ZM74.4458 103.694H71.3806V104.306H74.4458V103.694ZM68.3153 103.694H65.2501V104.306H68.3153V103.694ZM62.1848 103.694H59.1196V104.306H62.1848V103.694ZM56.0543 103.694H52.9891V104.306H56.0543V103.694ZM49.9238 103.694H46.8586V104.306H49.9238V103.694ZM43.7933 103.694H40.7281V104.306H43.7933V103.694ZM37.6628 103.694H34.5976V104.306H37.6628V103.694ZM31.5324 103.694H30V104.306H31.5324V103.694ZM30 156.612H31.5326V155.388H30V156.612ZM34.5978 156.612H37.663V155.388H34.5978V156.612ZM40.7283 156.612H43.7935V155.388H40.7283V156.612ZM46.8587 156.612H49.9239V155.388H46.8587V156.612ZM52.9891 156.612H56.0543V155.388H52.9891V156.612ZM59.1196 156.612H62.1848V155.388H59.1196V156.612ZM65.25 156.612H68.3152V155.388H65.25V156.612ZM71.3804 156.612H74.4456V155.388H71.3804V156.612ZM77.5109 156.612H80.5761V155.388H77.5109V156.612ZM83.6413 156.612H86.7065V155.388H83.6413V156.612ZM89.7717 156.612H92.8369V155.388H89.7717V156.612ZM95.9022 156.612H98.9674V155.388H95.9022V156.612ZM102.033 156.612H105.098V155.388H102.033V156.612ZM108.163 156.612H111.228V155.388H108.163V156.612ZM114.293 156.612H117.359V155.388H114.293V156.612ZM120.424 156.612H123.489V155.388H120.424V156.612ZM126.554 156.612H129.62V155.388H126.554V156.612ZM132.685 156.612H135.75V155.388H132.685V156.612ZM138.815 156.612H141.88V155.388H138.815V156.612ZM144.946 156.612H148.011V155.388H144.946V156.612ZM151.076 156.612H154.141V155.388H151.076V156.612ZM157.206 156.612H160.272V155.388H157.206V156.612ZM163.337 156.612H166.402V155.388H163.337V156.612ZM169.467 156.612H172.533V155.388H169.467V156.612ZM175.598 156.612H178.663V155.388H175.598V156.612ZM181.728 156.612H184.793V155.388H181.728V156.612ZM187.859 156.612H190.924V155.388H187.859V156.612ZM193.989 156.612H197.054V155.388H193.989V156.612ZM200.12 156.612H203.185V155.388H200.12V156.612ZM206.25 156.612H209.315V155.388H206.25V156.612ZM212.38 156.612H215.446V155.388H212.38V156.612ZM218.511 156.612H221.576V155.388H218.511V156.612ZM224.641 156.612H227.706V155.388H224.641V156.612ZM230.772 156.612H233.837V155.388H230.772V156.612ZM236.902 156.612H239.967V155.388H236.902V156.612ZM243.033 156.612H246.098V155.388H243.033V156.612ZM249.163 156.612H252.228V155.388H249.163V156.612ZM255.293 156.612H258.359V155.388H255.293V156.612ZM261.424 156.612H264.489V155.388H261.424V156.612ZM267.554 156.612H270.619V155.388H267.554V156.612ZM273.685 156.612H276.75V155.388H273.685V156.612ZM279.815 156.612H282.88V155.388H279.815V156.612ZM285.946 156.612H289.011V155.388H285.946V156.612ZM292.076 156.612H295.141V155.388H292.076V156.612ZM298.206 156.612H301.272V155.388H298.206V156.612ZM304.337 156.612H307.402V155.388H304.337V156.612ZM310.467 156.612H313.533V155.388H310.467V156.612ZM316.598 156.612H319.663V155.388H316.598V156.612ZM322.728 156.612H325.793V155.388H322.728V156.612ZM328.859 156.612H331.924V155.388H328.859V156.612ZM334.989 156.612H338.054V155.388H334.989V156.612ZM341.119 156.612H344.185V155.388H341.119V156.612ZM347.25 156.612H350.315V155.388H347.25V156.612ZM353.38 156.612H356.446V155.388H353.38V156.612ZM359.511 156.612H362.576V155.388H359.511V156.612ZM365.641 156.612H368.706V155.388H365.641V156.612ZM371.772 156.612H374.837V155.388H371.772V156.612ZM377.902 156.612H380.967V155.388H377.902V156.612ZM384.032 156.612H387.098V155.388H384.032V156.612ZM390.163 156.612H393.228V155.388H390.163V156.612ZM396.293 156.612H399.359V155.388H396.293V156.612ZM402.424 156.612H405.489V155.388H402.424V156.612ZM408.554 156.612H411.619V155.388H408.554V156.612ZM414.685 156.612H417.75V155.388H414.685V156.612ZM420.815 156.612H423.88V155.388H420.815V156.612ZM426.945 156.612H430.011V155.388H426.945V156.612ZM433.076 156.612H436.141V155.388H433.076V156.612ZM439.206 156.612H442.272V155.388H439.206V156.612ZM445.337 156.612H448.402V155.388H445.337V156.612ZM451.467 156.612H454.532V155.388H451.467V156.612ZM457.598 156.612H460.663V155.388H457.598V156.612ZM463.728 156.612H466.793V155.388H463.728V156.612ZM469.859 156.612H472.924V155.388H469.859V156.612ZM475.989 156.612H479.054V155.388H475.989V156.612ZM482.119 156.612H485.185V155.388H482.119V156.612ZM488.25 156.612H491.315V155.388H488.25V156.612ZM494.38 156.612H497.445V155.388H494.38V156.612ZM500.511 156.612H503.576V155.388H500.511V156.612ZM506.641 156.612H509.706V155.388H506.641V156.612ZM512.772 156.612H515.837V155.388H512.772V156.612ZM518.902 156.612H521.967V155.388H518.902V156.612ZM525.032 156.612H528.098V155.388H525.032V156.612ZM531.163 156.612H534.228V155.388H531.163V156.612ZM537.293 156.612H540.358V155.388H537.293V156.612ZM543.424 156.612H546.489V155.388H543.424V156.612ZM549.554 156.612H552.619V155.388H549.554V156.612ZM555.685 156.612H558.75V155.388H555.685V156.612ZM561.815 156.612H564.88V155.388H561.815V156.612ZM567.946 156.612H571.011V155.388H567.946V156.612ZM574.076 156.612H577.141V155.388H574.076V156.612ZM580.207 156.612H583.272V155.388H580.207V156.612ZM586.337 156.612H589.402V155.388H586.337V156.612ZM592.468 156.612H594V155.388H592.468V156.612ZM594 103.388H592.467V104.612H594V103.388ZM589.402 103.388H586.337V104.612H589.402V103.388ZM583.272 103.388H580.207V104.612H583.272V103.388ZM577.141 103.388H574.076V104.612H577.141V103.388ZM571.011 103.388H567.946V104.612H571.011V103.388ZM564.88 103.388H561.815V104.612H564.88V103.388ZM558.75 103.388H555.685V104.612H558.75V103.388ZM552.62 103.388H549.554V104.612H552.62V103.388ZM546.489 103.388H543.424V104.612H546.489V103.388ZM540.359 103.388H537.293V104.612H540.359V103.388ZM534.228 103.388H531.163V104.612H534.228V103.388ZM528.098 103.388H525.033V104.612H528.098V103.388ZM521.967 103.388H518.902V104.612H521.967V103.388ZM515.837 103.388H512.772V104.612H515.837V103.388ZM509.707 103.388H506.641V104.612H509.707V103.388ZM503.576 103.388H500.511V104.612H503.576V103.388ZM497.446 103.388H494.38V104.612H497.446V103.388ZM491.315 103.388H488.25V104.612H491.315V103.388ZM485.185 103.388H482.12V104.612H485.185V103.388ZM479.054 103.388H475.989V104.612H479.054V103.388ZM472.924 103.388H469.859V104.612H472.924V103.388ZM466.794 103.388H463.728V104.612H466.794V103.388ZM460.663 103.388H457.598V104.612H460.663V103.388ZM454.533 103.388H451.467V104.612H454.533V103.388ZM448.402 103.388H445.337V104.612H448.402V103.388ZM442.272 103.388H439.207V104.612H442.272V103.388ZM436.141 103.388H433.076V104.612H436.141V103.388ZM430.011 103.388H426.946V104.612H430.011V103.388ZM423.88 103.388H420.815V104.612H423.88V103.388ZM417.75 103.388H414.685V104.612H417.75V103.388ZM411.62 103.388H408.554V104.612H411.62V103.388ZM405.489 103.388H402.424V104.612H405.489V103.388ZM399.359 103.388H396.294V104.612H399.359V103.388ZM393.228 103.388H390.163V104.612H393.228V103.388ZM387.098 103.388H384.033V104.612H387.098V103.388ZM380.967 103.388H377.902V104.612H380.967V103.388ZM374.837 103.388H371.772V104.612H374.837V103.388ZM368.707 103.388H365.641V104.612H368.707V103.388ZM362.576 103.388H359.511V104.612H362.576V103.388ZM356.446 103.388H353.381V104.612H356.446V103.388ZM350.315 103.388H347.25V104.612H350.315V103.388ZM344.185 103.388H341.12V104.612H344.185V103.388ZM338.054 103.388H334.989V104.612H338.054V103.388ZM331.924 103.388H328.859V104.612H331.924V103.388ZM325.794 103.388H322.728V104.612H325.794V103.388ZM319.663 103.388H316.598V104.612H319.663V103.388ZM313.533 103.388H310.467V104.612H313.533V103.388ZM307.402 103.388H304.337V104.612H307.402V103.388ZM301.272 103.388H298.207V104.612H301.272V103.388ZM295.141 103.388H292.076V104.612H295.141V103.388ZM289.011 103.388H285.946V104.612H289.011V103.388ZM282.881 103.388H279.815V104.612H282.881V103.388ZM276.75 103.388H273.685V104.612H276.75V103.388ZM270.62 103.388H267.554V104.612H270.62V103.388ZM264.489 103.388H261.424V104.612H264.489V103.388ZM258.359 103.388H255.294V104.612H258.359V103.388ZM252.228 103.388H249.163V104.612H252.228V103.388ZM246.098 103.388H243.033V104.612H246.098V103.388ZM239.968 103.388H236.902V104.612H239.968V103.388ZM233.837 103.388H230.772V104.612H233.837V103.388ZM227.707 103.388H224.641V104.612H227.707V103.388ZM221.576 103.388H218.511V104.612H221.576V103.388ZM215.446 103.388H212.381V104.612H215.446V103.388ZM209.315 103.388H206.25V104.612H209.315V103.388ZM203.185 103.388H200.12V104.612H203.185V103.388ZM197.055 103.388H193.989V104.612H197.055V103.388ZM190.924 103.388H187.859V104.612H190.924V103.388ZM184.794 103.388H181.728V104.612H184.794V103.388ZM178.663 103.388H175.598V104.612H178.663V103.388ZM172.533 103.388H169.468V104.612H172.533V103.388ZM166.402 103.388H163.337V104.612H166.402V103.388ZM160.272 103.388H157.207V104.612H160.272V103.388ZM154.141 103.388H151.076V104.612H154.141V103.388ZM148.011 103.388H144.946V104.612H148.011V103.388ZM141.881 103.388H138.815V104.612H141.881V103.388ZM135.75 103.388H132.685V104.612H135.75V103.388ZM129.62 103.388H126.555V104.612H129.62V103.388ZM123.489 103.388H120.424V104.612H123.489V103.388ZM117.359 103.388H114.294V104.612H117.359V103.388ZM111.228 103.388H108.163V104.612H111.228V103.388ZM105.098 103.388H102.033V104.612H105.098V103.388ZM98.9676 103.388H95.9024V104.612H98.9676V103.388ZM92.8372 103.388H89.7719V104.612H92.8372V103.388ZM86.7067 103.388H83.6415V104.612H86.7067V103.388ZM80.5763 103.388H77.511V104.612H80.5763V103.388ZM74.4458 103.388H71.3806V104.612H74.4458V103.388ZM68.3153 103.388H65.2501V104.612H68.3153V103.388ZM62.1848 103.388H59.1196V104.612H62.1848V103.388ZM56.0543 103.388H52.9891V104.612H56.0543V103.388ZM49.9238 103.388H46.8586V104.612H49.9238V103.388ZM43.7933 103.388H40.7281V104.612H43.7933V103.388ZM37.6628 103.388H34.5976V104.612H37.6628V103.388ZM31.5324 103.388H30V104.612H31.5324V103.388Z" fill="#56A97A" mask="url(#path-7-inside-1_2214_36379)"/>
<line opacity="0.1" x1="471" y1="47" x2="471" y2="224" stroke="#57AA64" stroke-width="2"/>
<line opacity="0.1" x1="550" y1="47" x2="550" y2="224" stroke="#57AA64" stroke-width="2"/>
<g filter="url(#filter0_d_2214_36379)">
<rect x="51" y="126" width="10" height="10" rx="5" fill="#57AA64"/>
</g>
<path opacity="0.3" d="M56 131L145 172L234.5 78L312.5 138L392.5 121L471.5 172L549.5 131" stroke="#57AA64" stroke-width="4"/>
<path d="M501 156.494L471.5 172L447.48 156.494M209.745 104L234.5 78L268.3 104M159.764 156.494L145 172L111.34 156.494" stroke="white" stroke-width="4"/>
<path d="M501 156.494L471.5 172L447.48 156.494M209.745 104L234.5 78L268.3 104M159.764 156.494L145 172L111.34 156.494" stroke="#F96B6B" stroke-opacity="0.4" stroke-width="4"/>
<g filter="url(#filter1_d_2214_36379)">
<rect x="547" y="126" width="8" height="8" rx="4" fill="#57AA64"/>
</g>
<defs>
<filter id="filter0_d_2214_36379" x="47" y="122" width="18" height="18" filterUnits="userSpaceOnUse" color-interpolation-filters="sRGB">
<feFlood flood-opacity="0" result="BackgroundImageFix"/>
<feColorMatrix in="SourceAlpha" type="matrix" values="0 0 0 0 0 0 0 0 0 0 0 0 0 0 0 0 0 0 127 0" result="hardAlpha"/>
<feMorphology radius="4" operator="dilate" in="SourceAlpha" result="effect1_dropShadow_2214_36379"/>
<feOffset/>
<feComposite in2="hardAlpha" operator="out"/>
<feColorMatrix type="matrix" values="0 0 0 0 0.803922 0 0 0 0 0.898039 0 0 0 0 0.815686 0 0 0 1 0"/>
<feBlend mode="normal" in2="BackgroundImageFix" result="effect1_dropShadow_2214_36379"/>
<feBlend mode="normal" in="SourceGraphic" in2="effect1_dropShadow_2214_36379" result="shape"/>
</filter>
<filter id="filter1_d_2214_36379" x="543" y="122" width="16" height="16" filterUnits="userSpaceOnUse" color-interpolation-filters="sRGB">
<feFlood flood-opacity="0" result="BackgroundImageFix"/>
<feColorMatrix in="SourceAlpha" type="matrix" values="0 0 0 0 0 0 0 0 0 0 0 0 0 0 0 0 0 0 127 0" result="hardAlpha"/>
<feMorphology radius="4" operator="dilate" in="SourceAlpha" result="effect1_dropShadow_2214_36379"/>
<feOffset/>
<feComposite in2="hardAlpha" operator="out"/>
<feColorMatrix type="matrix" values="0 0 0 0 0.803922 0 0 0 0 0.898039 0 0 0 0 0.815686 0 0 0 1 0"/>
<feBlend mode="normal" in2="BackgroundImageFix" result="effect1_dropShadow_2214_36379"/>
<feBlend mode="normal" in="SourceGraphic" in2="effect1_dropShadow_2214_36379" result="shape"/>
</filter>
</defs>
</svg>
