<svg width="16" height="16" viewBox="0 0 16 16" fill="none" xmlns="http://www.w3.org/2000/svg">
<g clip-path="url(#clip0_5438_266660)">
<rect width="16" height="16" rx="4" fill="white"/>
<path d="M15.1111 16H0.888889C0.4 16 0 15.6 0 15.1111V0.888889C0 0.4 0.4 0 0.888889 0H15.1111C15.6 0 16 0.4 16 0.888889V15.1111C16 15.6 15.6 16 15.1111 16Z" fill="url(#paint0_linear_5438_266660)"/>
<path opacity="0.05" d="M13.7868 6.3299V5.99967C13.7868 5.63212 13.4877 5.33301 13.1201 5.33301H11.8193C11.4517 5.33301 11.1526 5.63212 11.1526 5.99967V6.23479C10.8948 5.75079 10.3539 5.33301 9.24858 5.33301H7.90236C7.53481 5.33301 7.2357 5.63212 7.2357 5.99967V9.43479L5.93392 5.77523C5.8397 5.51079 5.58725 5.33301 5.30636 5.33301H4.43125C4.15258 5.33301 3.90103 5.50901 3.80503 5.77167L2.32236 9.84456C2.25392 10.0321 2.28103 10.2415 2.3957 10.405C2.50992 10.5686 2.69747 10.6663 2.89747 10.6663H3.58058C3.87303 10.6663 4.12858 10.4792 4.21614 10.201L4.38192 9.6779H5.31258L5.48058 10.2037C5.56903 10.4801 5.82414 10.6663 6.11525 10.6663H6.80725C7.00547 10.6663 7.19214 10.5695 7.30681 10.4077C7.3197 10.3895 7.32725 10.369 7.33792 10.3499C7.4557 10.5392 7.6637 10.6663 7.90236 10.6663H8.45881C8.82636 10.6663 9.12547 10.3672 9.12547 9.99967V9.13523H9.15836C9.80236 9.13523 10.333 8.95967 10.7357 8.61434C11.1579 8.25167 11.3726 7.77345 11.3726 7.1939C11.3726 7.06901 11.3633 6.92856 11.3379 6.78279C11.3921 6.84056 11.453 6.89212 11.5246 6.92767V9.07123C11.3046 9.18012 11.1526 9.40723 11.1526 9.66901V9.99967C11.1526 10.3672 11.4517 10.6663 11.8193 10.6663H13.1201C13.4877 10.6663 13.7868 10.3672 13.7868 9.99967V9.66945C13.7868 9.40767 13.6348 9.18056 13.4148 9.07167V6.92812C13.6348 6.81879 13.7868 6.59212 13.7868 6.3299ZM9.42992 7.23123C9.42992 7.3779 9.42992 7.47701 9.12547 7.48634V6.99123C9.42992 7.00012 9.42992 7.09345 9.42992 7.23123Z" fill="black"/>
<path opacity="0.07" d="M5.72491 5.85077C5.6618 5.67433 5.49335 5.55566 5.30668 5.55566H4.43157C4.2458 5.55566 4.0778 5.673 4.01424 5.84811L2.53157 9.92144C2.48802 10.041 2.50535 10.1739 2.5778 10.2783C2.65068 10.3823 2.77024 10.4446 2.89735 10.4446H3.58046C3.77513 10.4446 3.9458 10.3197 4.00402 10.1343L4.21868 9.45611H5.47424L5.69113 10.1361C5.75068 10.321 5.92091 10.445 6.11468 10.445H6.80668C6.93291 10.445 7.05202 10.3832 7.12491 10.2801C7.1978 10.177 7.21602 10.0441 7.17335 9.925L5.72491 5.85077ZM5.10268 8.24277H4.57468L4.83957 7.41789L5.10268 8.24277Z" fill="black"/>
<path opacity="0.07" d="M9.24849 5.55566H7.90227C7.65694 5.55566 7.45782 5.75522 7.45782 6.00011V10.0001C7.45782 10.245 7.65694 10.4446 7.90227 10.4446H8.45871C8.70405 10.4446 8.90316 10.245 8.90316 10.0001V8.91344H9.15827C9.7476 8.91344 10.2294 8.75611 10.5912 8.44589C10.9623 8.12722 11.1503 7.70589 11.1503 7.19433C11.1503 6.44678 10.8205 5.55566 9.24849 5.55566ZM9.65205 7.23166C9.65205 7.48011 9.58227 7.70989 9.07471 7.70989H8.90316V6.769H9.07471C9.58227 6.76855 9.65205 6.99122 9.65205 7.23166Z" fill="black"/>
<path opacity="0.07" d="M13.5643 6.33033V6.00011C13.5643 5.75522 13.3652 5.55566 13.1198 5.55566H11.819C11.5736 5.55566 11.3745 5.75522 11.3745 6.00011V6.33033C11.3745 6.55078 11.5358 6.73433 11.7465 6.769V9.23122C11.5358 9.26589 11.3745 9.44944 11.3745 9.66989V10.0001C11.3745 10.245 11.5736 10.4446 11.819 10.4446H13.1198C13.3652 10.4446 13.5643 10.245 13.5643 10.0001V9.66989C13.5643 9.44944 13.403 9.26589 13.1923 9.23122V6.769C13.4025 6.73433 13.5643 6.55078 13.5643 6.33033Z" fill="black"/>
<path d="M6.80646 10.2218H6.11446C6.01801 10.2218 5.93223 10.1591 5.9029 10.0671L5.63623 9.2329H4.05579L3.79179 10.0662C3.76246 10.1591 3.67668 10.2218 3.57979 10.2218H2.89668C2.78068 10.2218 2.69979 10.1062 2.73935 9.99734L4.22246 5.92357C4.25446 5.83557 4.33801 5.77734 4.43135 5.77734H5.30601C5.40023 5.77734 5.48379 5.83646 5.51535 5.9249L6.96423 9.99823C7.0029 10.1076 6.92201 10.2218 6.80646 10.2218ZM5.4069 8.46445L4.92957 6.97068C4.89446 6.85912 4.86957 6.72579 4.85534 6.57068H4.83046C4.82023 6.7009 4.79446 6.82979 4.75312 6.95823L4.26957 8.46445H5.4069Z" fill="white"/>
<path d="M8.68045 8.69068V9.99957C8.68045 10.1222 8.5809 10.2218 8.45823 10.2218H7.90179C7.77912 10.2218 7.67957 10.1222 7.67957 9.99957V5.99957C7.67957 5.8769 7.77912 5.77734 7.90179 5.77734H9.24801C10.368 5.77734 10.928 6.24934 10.928 7.19379C10.928 7.64001 10.7676 8.00134 10.4462 8.2769C10.1249 8.55245 9.69556 8.69068 9.15868 8.69068H8.68045ZM8.68045 6.54579V7.93112H9.07423C9.60712 7.93112 9.87379 7.69779 9.87379 7.23068C9.87379 6.77423 9.60712 6.54579 9.07423 6.54579H8.68045Z" fill="white"/>
<path d="M13.3421 5.99957V6.32979C13.3421 6.45245 13.2426 6.55201 13.1199 6.55201H12.9701V9.44668H13.1199C13.2426 9.44668 13.3421 9.54623 13.3421 9.6689V9.99957C13.3421 10.1222 13.2426 10.2218 13.1199 10.2218H11.8195C11.6968 10.2218 11.5972 10.1222 11.5972 9.99957V9.66934C11.5972 9.54668 11.6968 9.44712 11.8195 9.44712H11.9692V6.55245H11.8195C11.6968 6.55245 11.5972 6.4529 11.5972 6.33023V5.99957C11.5972 5.8769 11.6968 5.77734 11.8195 5.77734H13.1199C13.2426 5.77734 13.3421 5.8769 13.3421 5.99957Z" fill="white"/>
</g>
<defs>
<linearGradient id="paint0_linear_5438_266660" x1="8" y1="0.0537778" x2="8" y2="16.0173" gradientUnits="userSpaceOnUse">
<stop stop-color="#33BEF0"/>
<stop offset="1" stop-color="#0A85D9"/>
</linearGradient>
<clipPath id="clip0_5438_266660">
<rect width="16" height="16" rx="4" fill="white"/>
</clipPath>
</defs>
</svg>
