<?xml version="1.0" encoding="utf-8"?>
<!-- Generator: Adobe Illustrator 21.0.0, SVG Export Plug-In . SVG Version: 6.00 Build 0)  -->
<svg version="1.1" id="Layer_1" xmlns="http://www.w3.org/2000/svg" xmlns:xlink="http://www.w3.org/1999/xlink" x="0px" y="0px"
	 viewBox="0 0 500 500" style="enable-background:new 0 0 500 500;" xml:space="preserve">
<style type="text/css">
	.st0{fill:#FFFFFF;}
</style>
<rect x="527.8" y="-8.1" width="513.7" height="513.7"/>
<g>
	<path d="M193.7,179.8c-10.1-13.3-29.3-22.2-51.3-22.2c-52.4,0-83.1,36.3-83.1,88.9s30.7,88.9,83.8,88.9c22,0,42.2-9.3,50.6-22.9
		v20.2h42.9v-75.9h-40.5c-3.6,26-21.4,42.4-47.1,42.4c-28.3,0-47.1-20.9-47.1-52.7c0-31.8,18.9-52.7,47.1-52.7
		c23.8,0,40.8,14.1,46.1,36.8h41.5v-70.3h-42.9V179.8z"/>
	<path d="M359,157.5c-23.4,0-42.6,9.6-53.1,24.3v-21.5h-42.6v70.3h41.6c5.3-22.7,22.3-36.8,46.1-36.8c28.3,0,47.1,20.9,47.1,52.7
		c0,31.8-18.8,52.7-47.1,52.7c-25.7,0-43.5-16.5-47.1-42.4h-40.5v145.7h42.6v-88.6c9.8,13.3,28.6,21.6,49.9,21.6
		c51.7,0,84.8-36.3,84.8-88.9S409.6,157.5,359,157.5z"/>
</g>
<g>
	<path class="st0" d="M726.8,179.8c-10.1-13.3-29.3-22.2-51.3-22.2c-52.4,0-83.1,36.3-83.1,88.9s30.7,88.9,83.8,88.9
		c22,0,42.2-9.3,50.6-22.9v20.2h42.9v-75.9h-40.5c-3.6,26-21.4,42.4-47.1,42.4c-28.3,0-47.1-20.9-47.1-52.7
		c0-31.8,18.9-52.7,47.1-52.7c23.8,0,40.8,14.1,46.1,36.8h41.5v-70.3h-42.9V179.8z"/>
	<path class="st0" d="M892.1,157.5c-23.4,0-42.6,9.6-53.1,24.3v-21.5h-42.6v70.3H838c5.3-22.7,22.3-36.8,46.1-36.8
		c28.3,0,47.1,20.9,47.1,52.7c0,31.8-18.8,52.7-47.1,52.7c-25.7,0-43.5-16.5-47.1-42.4h-40.5v145.7H839v-88.6
		c9.8,13.3,28.6,21.6,49.9,21.6c51.7,0,84.8-36.3,84.8-88.9S942.7,157.5,892.1,157.5z"/>
</g>
</svg>
