<svg width="17" height="16" viewBox="0 0 17 16" fill="none" xmlns="http://www.w3.org/2000/svg">
<circle cx="8.64453" cy="8" r="8" fill="black"/>
<g clip-path="url(#clip0_777_14740)">
<path d="M10.1918 5.75016C9.84944 5.29994 9.20002 5 8.45566 5C6.68414 5 5.64453 6.22341 5.64453 8C5.64453 9.7766 6.68414 11 8.47923 11C9.22358 11 9.90836 10.6879 10.1918 10.2268V10.9073H11.6445V8.34598H10.2743C10.1512 9.22149 9.55027 9.7766 8.68021 9.7766C7.72375 9.7766 7.08545 9.0731 7.08545 8C7.08545 6.92688 7.72375 6.22341 8.68021 6.22341C9.48543 6.22341 10.0602 6.69857 10.239 7.46344H11.6445V5.09273H10.1918V5.75016Z" fill="white"/>
</g>
<defs>
<clipPath id="clip0_777_14740">
<rect width="6" height="6" fill="white" transform="translate(5.64453 5)"/>
</clipPath>
</defs>
</svg>
