<svg width="101" height="20" viewBox="0 0 101 20" fill="none" xmlns="http://www.w3.org/2000/svg">
<g clip-path="url(#clip0_4790_222229)">
<path d="M9.13776 4.86355C8.44973 3.9561 7.14471 3.35156 5.64894 3.35156C2.08908 3.35156 0 5.8174 0 9.39822C0 12.979 2.08908 15.4449 5.6963 15.4449C7.19207 15.4449 8.56813 14.8159 9.13776 13.8865V15.258H12.057V10.0956H9.30352C9.0562 11.8602 7.84853 12.979 6.10017 12.979C4.17816 12.979 2.89551 11.5612 2.89551 9.39822C2.89551 7.23529 4.17816 5.8174 6.10017 5.8174C7.71829 5.8174 8.87334 6.77512 9.23248 8.31676H12.057V3.53847H9.13776V4.86355Z" fill="white"/>
<path d="M20.3748 3.35156C18.7856 3.35156 17.4793 4.0025 16.7676 5.00276V3.53847H13.8721V8.31676H16.6979C17.057 6.77512 18.2107 5.8174 19.8288 5.8174C21.7522 5.8174 23.0335 7.23529 23.0335 9.39822C23.0335 11.5612 21.7522 12.979 19.8288 12.979C18.0805 12.979 16.8741 11.8602 16.6268 10.0956H13.8721V20.0028H16.7676V13.9793C17.4319 14.8867 18.7146 15.4449 20.1617 15.4449C23.6742 15.4449 25.929 12.979 25.929 9.39822C25.929 5.8174 23.8163 3.35156 20.3748 3.35156Z" fill="white"/>
<path d="M33.6189 3.34504C32.0284 3.34504 30.7234 3.99598 30.0117 4.99624V3.53065H27.1162V19.9949H30.0117V13.9715C30.6761 14.8789 31.9574 15.4371 33.4058 15.4371C36.9183 15.4371 39.1732 12.9725 39.1732 9.39041C39.1732 5.8083 37.0604 3.34375 33.6189 3.34375V3.34504ZM33.073 12.9725C31.1036 12.9725 29.821 11.5546 29.821 9.3917C29.821 7.22877 31.1023 5.81088 33.073 5.81088C35.0437 5.81088 36.2777 7.22877 36.2777 9.3917C36.2777 11.5546 34.9963 12.9725 33.073 12.9725Z" fill="white"/>
<path d="M46.1265 13.0718C44.2756 13.0718 43.0416 11.8628 42.8272 9.97956H51.6558C51.6794 9.74754 51.7031 9.39822 51.7031 9.0025C51.7031 6.21184 49.8995 3.35156 45.8884 3.35156C41.8773 3.35156 40.0264 6.25824 40.0264 9.35182C40.0264 12.4454 42.2102 15.4449 46.1252 15.4449C49.0681 15.4449 51.2993 13.8401 51.7505 11.3523H48.9023C48.5945 12.4686 47.621 13.0731 46.1252 13.0731L46.1265 13.0718ZM45.8897 5.49129C47.6223 5.49129 48.6669 6.60756 48.7853 8.09634H42.8995C43.2087 6.32913 44.2519 5.49129 45.8897 5.49129Z" fill="white"/>
<path d="M56.1663 5.60266V3.53254H53.2471V15.2521H56.1663V9.71712C56.1663 7.48459 56.9016 5.9262 58.7539 5.9262H60.201V3.53125H59.2275C57.6844 3.53125 56.7596 4.11259 56.1663 5.60137V5.60266Z" fill="white"/>
<path d="M64.093 0H61.1738V11.1627C61.1738 13.7677 62.8827 15.2552 65.4928 15.2552H67.4148V12.6734H65.8243C64.7324 12.6734 64.0917 12.0688 64.0917 10.883V5.92936H67.4148V3.53442H64.0917V0H64.093Z" fill="white"/>
<path d="M76.8615 9.92594C76.8615 11.6467 75.7223 12.9022 74.0844 12.9022C72.6136 12.9022 71.5928 11.786 71.5928 10.1812V3.53125H68.6973V10.787C68.6973 13.5312 70.4535 15.4377 73.1359 15.4377C74.8448 15.4377 76.1972 14.7171 76.8628 13.4372V15.2508H79.782V3.53125H76.8628V9.92594H76.8615Z" fill="white"/>
<path d="M84.3606 5.60266V3.53254H81.4414V15.2521H84.3606V9.71712C84.3606 7.48459 85.096 5.9262 86.9483 5.9262H88.8229V3.53125H87.4232C85.88 3.53125 84.9552 4.11259 84.3619 5.60137L84.3606 5.60266Z" fill="white"/>
<path d="M97.8187 11.351C97.5095 12.4673 96.5374 13.0718 95.0416 13.0718C93.1906 13.0718 91.9566 11.8628 91.7422 9.97956H100.571C100.594 9.74754 100.618 9.39822 100.618 9.0025C100.618 6.21184 98.8146 3.35156 94.8035 3.35156C90.7924 3.35156 88.9414 6.25824 88.9414 9.35182C88.9414 12.4454 91.1252 15.4449 95.0403 15.4449C97.9831 15.4449 100.214 13.8401 100.666 11.3523H97.8174L97.8187 11.351ZM94.8048 5.49129C96.5374 5.49129 97.5819 6.60756 97.7003 8.09634H91.8145C92.1224 6.32913 93.1669 5.49129 94.8048 5.49129Z" fill="white"/>
</g>
<defs>
<clipPath id="clip0_4790_222229">
<rect width="100.667" height="20" fill="white"/>
</clipPath>
</defs>
</svg>
