<svg width="1042" height="207" viewBox="0 0 1042 207" fill="none" xmlns="http://www.w3.org/2000/svg">
<g clip-path="url(#clip0_6738_5)">
<path d="M94.5849 50.3074C87.4631 40.9153 73.9549 34.6584 58.4722 34.6584C21.6241 34.6584 0 60.1798 0 97.2413C0 134.303 21.6241 159.824 58.9624 159.824C74.4451 159.824 88.6887 153.314 94.5849 143.695V157.89H124.801V104.459H96.3007C93.7406 122.723 81.2401 134.303 63.1428 134.303C43.2481 134.303 29.9714 119.628 29.9714 97.2413C29.9714 74.855 43.2481 60.1798 63.1428 60.1798C79.892 60.1798 91.8478 70.0922 95.5653 86.0481H124.801V36.5928H94.5849V50.3074Z" fill="black"/>
<path d="M210.903 34.6584C194.453 34.6584 180.932 41.3956 173.565 51.7483V36.5928H143.593V86.0481H172.843C176.56 70.0922 188.503 60.1798 205.252 60.1798C225.16 60.1798 238.423 74.855 238.423 97.2413C238.423 119.628 225.16 134.303 205.252 134.303C187.155 134.303 174.668 122.723 172.108 104.459H143.593V206.998H173.565V144.655C180.441 154.048 193.718 159.824 208.697 159.824C245.055 159.824 268.395 134.303 268.395 97.2413C268.395 60.1798 246.526 34.6584 210.903 34.6584Z" fill="black"/>
<path d="M347.989 34.6616C331.526 34.6616 318.018 41.3988 310.651 51.7515V36.5827H280.679V206.988H310.651V144.645C317.528 154.037 330.791 159.814 345.783 159.814C382.141 159.814 405.481 134.306 405.481 97.2312C405.481 60.1564 383.612 34.6483 347.989 34.6483V34.6616ZM342.338 134.306C321.953 134.306 308.676 119.631 308.676 97.2445C308.676 74.8582 321.939 60.1831 342.338 60.1831C362.737 60.1831 375.509 74.8582 375.509 97.2445C375.509 119.631 362.246 134.306 342.338 134.306Z" fill="black"/>
<path d="M477.459 135.263C458.3 135.263 445.527 122.749 443.307 103.258H534.692C534.937 100.857 535.182 97.2413 535.182 93.1456C535.182 64.2622 516.513 34.6584 474.994 34.6584C433.476 34.6584 414.316 64.7425 414.316 96.761C414.316 128.78 436.921 159.824 477.445 159.824C507.907 159.824 531.002 143.215 535.672 117.466H506.191C503.005 129.02 492.928 135.277 477.445 135.277L477.459 135.263ZM475.008 56.8045C492.942 56.8045 503.754 68.3579 504.979 83.7668H444.056C447.256 65.4762 458.055 56.8045 475.008 56.8045Z" fill="black"/>
<path d="M581.373 58.0078V36.582H551.157V157.879H581.373V100.592C581.373 77.4857 588.985 61.3564 608.158 61.3564H623.137V36.5687H613.061C597.088 36.5687 587.515 42.5855 581.373 57.9944V58.0078Z" fill="black"/>
<path d="M663.427 0H633.21V115.534C633.21 142.496 650.899 157.891 677.915 157.891H697.81V131.169H681.347C670.045 131.169 663.413 124.912 663.413 112.639V61.3689H697.81V36.5812H663.413V0H663.427Z" fill="black"/>
<path d="M795.597 102.764C795.597 120.574 783.805 133.568 766.851 133.568C751.627 133.568 741.06 122.015 741.06 105.405V36.5788H711.089V111.676C711.089 140.079 729.268 159.81 757.033 159.81C774.722 159.81 788.72 152.353 795.611 139.105V157.876H825.827V36.5788H795.611V102.764H795.597Z" fill="black"/>
<path d="M873.215 58.0078V36.582H842.998V157.879H873.215V100.592C873.215 77.4857 880.827 61.3564 900 61.3564H919.404V36.5687H904.916C888.943 36.5687 879.37 42.5855 873.228 57.9944L873.215 58.0078Z" fill="black"/>
<path d="M1012.52 117.453C1009.32 129.006 999.257 135.263 983.774 135.263C964.615 135.263 951.842 122.749 949.623 103.258H1041.01C1041.25 100.857 1041.5 97.2413 1041.5 93.1456C1041.5 64.2622 1022.83 34.6584 981.31 34.6584C939.791 34.6584 920.632 64.7425 920.632 96.761C920.632 128.78 943.236 159.824 983.761 159.824C1014.22 159.824 1037.32 143.215 1041.99 117.466H1012.51L1012.52 117.453ZM981.323 56.8045C999.257 56.8045 1010.07 68.3579 1011.29 83.7668H950.371C953.558 65.4762 964.37 56.8045 981.323 56.8045Z" fill="black"/>
</g>
<defs>
<clipPath id="clip0_6738_5">
<rect width="1042" height="207" fill="white"/>
</clipPath>
</defs>
</svg>
