<svg width="118" height="24" viewBox="0 0 118 24" fill="none" xmlns="http://www.w3.org/2000/svg">
<g clip-path="url(#clip0_4584_217472)">
<path d="M10.6924 5.83282C9.88732 4.74388 8.36028 4.01843 6.61003 4.01843C2.44453 4.01843 3.19481e-05 6.97744 3.19481e-05 11.2744C3.19481e-05 15.5714 2.44453 18.5304 6.66544 18.5304C8.41569 18.5304 10.0259 17.7756 10.6924 16.6603V18.3061H14.1082V12.1112H10.8864C10.597 14.2288 9.18383 15.5714 7.13803 15.5714C4.88903 15.5714 3.38816 13.8699 3.38816 11.2744C3.38816 8.67891 4.88903 6.97744 7.13803 6.97744C9.03143 6.97744 10.383 8.12671 10.8032 9.97667H14.1082V4.24272H10.6924V5.83282Z" fill="black"/>
<path d="M23.8417 4.01843C21.9821 4.01843 20.4535 4.79956 19.6207 5.99987V4.24272H16.2326V9.97667H19.5392C19.9594 8.12671 21.3094 6.97744 23.2028 6.97744C25.4534 6.97744 26.9527 8.67891 26.9527 11.2744C26.9527 13.8699 25.4534 15.5714 23.2028 15.5714C21.157 15.5714 19.7454 14.2288 19.456 12.1112H16.2326V23.9999H19.6207V16.7717C20.3981 17.8607 21.899 18.5304 23.5923 18.5304C27.7024 18.5304 30.3408 15.5714 30.3408 11.2744C30.3408 6.97744 27.8686 4.01843 23.8417 4.01843Z" fill="black"/>
<path d="M39.3382 4.01845C37.4771 4.01845 35.9501 4.79958 35.1173 5.99989V4.24119H31.7292V23.9983H35.1173V16.7702C35.8947 17.8591 37.394 18.5289 39.0888 18.5289C43.1989 18.5289 45.8374 15.5714 45.8374 11.2729C45.8374 6.97437 43.3652 4.01691 39.3382 4.01691V4.01845ZM38.6994 15.5714C36.395 15.5714 34.8941 13.87 34.8941 11.2744C34.8941 8.67893 36.3934 6.97746 38.6994 6.97746C41.0053 6.97746 42.4493 8.67893 42.4493 11.2744C42.4493 13.87 40.9499 15.5714 38.6994 15.5714Z" fill="black"/>
<path d="M53.9744 15.6828C51.8085 15.6828 50.3646 14.2319 50.1137 11.972H60.4443C60.472 11.6936 60.4997 11.2744 60.4997 10.7996C60.4997 7.45076 58.3892 4.01843 53.6957 4.01843C49.0022 4.01843 46.8364 7.50644 46.8364 11.2187C46.8364 14.931 49.3917 18.5304 53.9728 18.5304C57.4164 18.5304 60.0271 16.6047 60.5551 13.6194H57.2224C56.8622 14.9589 55.7231 15.6843 53.9728 15.6843L53.9744 15.6828ZM53.6973 6.5861C55.7246 6.5861 56.9469 7.92562 57.0854 9.71217H50.1983C50.5601 7.59152 51.7808 6.5861 53.6973 6.5861Z" fill="black"/>
<path d="M65.7213 6.72501V4.24087H62.3055V18.3043H65.7213V11.6624C65.7213 8.98333 66.5818 7.11326 68.7493 7.11326H70.4425V4.23932H69.3034C67.4978 4.23932 66.4156 4.93692 65.7213 6.72346V6.72501Z" fill="black"/>
<path d="M74.9974 0H71.5816V13.3952C71.5816 16.5213 73.5812 18.3063 76.6353 18.3063H78.8843V15.208H77.0232C75.7455 15.208 74.9959 14.4826 74.9959 13.0596V7.11524H78.8843V4.2413H74.9959V0H74.9974Z" fill="black"/>
<path d="M89.9384 11.9145C89.9384 13.9794 88.6053 15.486 86.6888 15.486C84.9678 15.486 83.7733 14.1465 83.7733 12.2207V4.24084H80.3851V12.9477C80.3851 16.2408 82.4402 18.5285 85.5789 18.5285C87.5786 18.5285 89.161 17.6639 89.9399 16.1279V18.3043H93.3558V4.24084H89.9399V11.9145H89.9384Z" fill="black"/>
<path d="M98.7129 6.72501V4.24087H95.297V18.3043H98.7129V11.6624C98.7129 8.98333 99.5733 7.11326 101.741 7.11326H103.934V4.23932H102.296C100.491 4.23932 99.4086 4.93692 98.7144 6.72346L98.7129 6.72501Z" fill="black"/>
<path d="M114.46 13.6178C114.099 14.9573 112.961 15.6828 111.211 15.6828C109.045 15.6828 107.601 14.2319 107.35 11.972H117.681C117.708 11.6936 117.736 11.2744 117.736 10.7996C117.736 7.45076 115.626 4.01843 110.932 4.01843C106.239 4.01843 104.073 7.50644 104.073 11.2187C104.073 14.931 106.628 18.5304 111.209 18.5304C114.653 18.5304 117.264 16.6047 117.792 13.6194H114.459L114.46 13.6178ZM110.934 6.5861C112.961 6.5861 114.183 7.92562 114.322 9.71217H107.435C107.795 7.59152 109.017 6.5861 110.934 6.5861Z" fill="black"/>
</g>
<defs>
<clipPath id="clip0_4584_217472">
<rect width="117.793" height="24" fill="white"/>
</clipPath>
</defs>
</svg>
