<svg width="160" height="160" viewBox="0 0 160 160" fill="none" xmlns="http://www.w3.org/2000/svg">
<path d="M121.261 20.0043C112.131 7.99829 94.8129 0 74.9634 0C27.7229 0 0 32.6242 0 80C0 127.376 27.7229 160 75.5919 160C95.4413 160 113.702 151.678 121.261 139.382V157.527H160V89.2262H123.461C120.179 112.573 104.153 127.376 80.9514 127.376C55.4457 127.376 38.4244 108.616 38.4244 80C38.4244 51.3835 55.4457 32.6242 80.9514 32.6242C102.424 32.6242 117.752 45.2952 122.518 65.6917H160V2.47282H121.261V20.0043Z" fill="black"/>
</svg>
