<svg width="114" height="20" viewBox="0 0 114 20" fill="none" xmlns="http://www.w3.org/2000/svg">
<path d="M24.2254 3.98071C22.1008 3.98071 20.735 5.12285 20.4465 5.76074H20.3703V4.20345H17.3052V8.53031H20.5922C21.1241 7.29528 22.3335 6.64981 23.6035 6.64981C25.3038 6.64981 26.8964 7.82228 26.8964 9.98712C26.8964 12.152 25.3038 13.3244 23.6035 13.3244C22.3648 13.3244 21.1964 12.7207 20.644 11.5634H17.3052V19.9991H20.3556V14.2145H20.4309C20.735 14.8666 22.1008 15.9945 24.2107 15.9945C26.9727 15.9945 29.9175 13.9917 29.9175 9.98712C29.9175 5.98253 26.9727 3.98071 24.2254 3.98071Z" fill="#0E0E1A"/>
<path d="M31.9707 4.20345H35.029V5.76074H35.0896C35.379 5.12285 36.7478 3.98071 38.8782 3.98071C41.6324 3.98071 44.5831 5.98253 44.5831 9.98807C44.5831 13.9936 41.647 15.9954 38.8782 15.9954C36.7634 15.9954 35.3936 14.8685 35.0896 14.2154H35.029V20H31.9707V4.20345ZM38.2691 13.3254C39.9732 13.3254 41.5708 12.1539 41.5708 9.98807C41.5708 7.82228 39.9732 6.65076 38.2691 6.65076C36.5649 6.65076 34.9674 7.80806 34.9674 9.98807C34.9674 12.1681 36.5493 13.3254 38.2691 13.3254Z" fill="#0E0E1A"/>
<path d="M46.2451 9.99945C46.2451 6.10575 49.233 3.98071 52.2815 3.98071C55.3299 3.98071 58.7617 6.04604 58.088 11.1586H49.1557C49.5849 12.7339 51.0095 13.5661 52.8016 13.5661C53.966 13.5661 55.0083 13.2543 55.8814 12.5254L57.2756 13.9671C56.2949 15.1708 54.5634 16.0182 52.4496 16.0182C49.186 16.0182 46.2451 13.8486 46.2451 9.99945ZM55.3759 8.97389C55.1921 7.32466 53.7676 6.50669 52.3274 6.50669C50.8873 6.50669 49.5234 7.3095 49.1411 8.97389H55.3769H55.3759Z" fill="#0E0E1A"/>
<path d="M60.4365 4.20251H63.4752V7.19292C63.8839 5.41668 65.0327 3.98071 67.1641 3.98071C67.4359 3.98071 67.6784 4.0101 67.9502 4.06981V6.91141C67.6784 6.86686 67.4516 6.83748 67.1788 6.83748C64.8958 6.83748 63.4596 8.39192 63.4596 10.7008V15.7338H60.4209V4.20251H60.4365Z" fill="#0E0E1A"/>
<path d="M71.7959 12.5406V6.56077H70.1016V4.19213H71.7959V1.23206H74.8796V4.17792H77.3219V6.54655H74.8796V12.0231C74.8796 12.6155 75.2149 13.1927 76.223 13.1927C76.4977 13.1927 76.9103 13.1482 77.3375 13.0155V15.295C76.88 15.695 76.0098 15.8277 75.2619 15.8277C73.2625 15.8723 71.7969 14.9102 71.7969 12.5416L71.7959 12.5406Z" fill="#0E0E1A"/>
<path d="M90.9262 15.8107H87.8474V14.2269C87.1884 15.2486 85.9937 16.0183 84.2016 16.0183C81.7505 16.0183 79.6826 14.5529 79.6826 11.045V4.26514H82.7614V10.5711C82.7614 12.2582 83.6961 13.3691 85.3044 13.3691C86.9127 13.3691 87.8474 12.2592 87.8474 10.5711V4.26514H90.9262V15.8107Z" fill="#0E0E1A"/>
<path d="M93.6787 4.20251H96.7565V7.19292C97.1701 5.41668 98.3336 3.98071 100.493 3.98071C100.768 3.98071 101.013 4.0101 101.289 4.06981V6.91141C101.013 6.86686 100.784 6.83748 100.508 6.83748C98.1957 6.83748 96.7409 8.39192 96.7409 10.7008V15.7338H93.6631V4.20251H93.6787Z" fill="#0E0E1A"/>
<path d="M102.17 9.99945C102.17 6.10575 105.133 3.98071 108.156 3.98071C111.179 3.98071 114.584 6.04604 113.915 11.1586H105.057C105.482 12.7339 106.895 13.5661 108.674 13.5661C109.828 13.5661 110.862 13.2543 111.727 12.5254L113.11 13.9671C112.138 15.1708 110.421 16.0182 108.324 16.0182C105.087 16.0182 102.17 13.8486 102.17 9.99945ZM111.211 8.97389C111.029 7.32466 109.615 6.50669 108.187 6.50669C106.758 6.50669 105.406 7.3095 105.027 8.97389H111.211Z" fill="#0E0E1A"/>
<path d="M12.9761 8.53049H9.74183L8.84723 6.20735L7.93015 3.79228V3.82166L7.89984 3.76289L3.37698 15.7767H0L6.24947 0H9.58051L12.9761 8.53049Z" fill="#0E0E1A"/>
<path d="M15.8612 15.7766H12.5302L10.9082 11.5635H14.1835L15.8612 15.7766Z" fill="#0E0E1A"/>
</svg>
