<svg width="20" height="20" viewBox="0 0 20 20" fill="none" xmlns="http://www.w3.org/2000/svg">
<g clip-path="url(#clip0_4834_222867)">
<path d="M8.89766 9.60973L11.4858 16.345C11.5115 16.4113 11.5574 16.4683 11.6173 16.5084C11.6772 16.5485 11.7482 16.5697 11.8208 16.5692C11.8935 16.5687 11.9642 16.5466 12.0235 16.5057C12.0829 16.4649 12.128 16.4073 12.1528 16.3407L13.1889 13.5589C13.207 13.5112 13.2354 13.4678 13.2722 13.4319C13.3091 13.3959 13.3535 13.3682 13.4024 13.3506L16.2529 12.3394C16.3211 12.3152 16.3802 12.2712 16.422 12.2133C16.4639 12.1554 16.4866 12.0863 16.4871 12.0155C16.4876 11.9446 16.4658 11.8753 16.4247 11.8168C16.3837 11.7584 16.3252 11.7136 16.2573 11.6885L9.35569 9.16274C9.29173 9.13933 9.22222 9.13438 9.15546 9.14849C9.08869 9.1626 9.0275 9.19517 8.9792 9.24231C8.93089 9.28945 8.89752 9.34917 8.88306 9.41432C8.8686 9.47948 8.87367 9.54731 8.89766 9.60973Z" stroke="white" stroke-linecap="round" stroke-linejoin="round"/>
<path d="M13.5586 13.7109L16.4863 16.5681" stroke="white" stroke-linecap="round" stroke-linejoin="round"/>
<path d="M8.16552 14.4982C7.45516 14.131 6.84713 13.6006 6.39401 12.9526C5.94088 12.3047 5.65629 11.5588 5.56485 10.7794C5.47341 10 5.57787 9.21065 5.8692 8.47952C6.16052 7.74839 6.62994 7.09751 7.23688 6.58316C7.84381 6.06881 8.56999 5.70647 9.35262 5.52748C10.1352 5.34848 10.9508 5.3582 11.7287 5.55582C12.5066 5.75343 13.2235 6.13299 13.8174 6.66166C14.4112 7.19033 14.8642 7.85222 15.1371 8.59008" stroke="white" stroke-linecap="round" stroke-linejoin="round"/>
<path d="M6.94029 16.592C5.52744 15.8461 4.40065 14.673 3.72905 13.2489C3.05745 11.8249 2.87729 10.2266 3.2156 8.69415C3.5539 7.16166 4.39244 5.77761 5.60532 4.74974C6.8182 3.72188 8.33999 3.10567 9.94224 2.99362C11.5445 2.88156 13.1408 3.27971 14.4914 4.12828C15.8421 4.97686 16.8743 6.23009 17.4331 7.69984" stroke="white" stroke-linecap="round" stroke-linejoin="round"/>
</g>
<defs>
<clipPath id="clip0_4834_222867">
<rect width="20" height="20" fill="white"/>
</clipPath>
</defs>
</svg>
