<svg width="10" height="10" viewBox="0 0 10 10" fill="none" xmlns="http://www.w3.org/2000/svg">
<g clip-path="url(#clip0_5438_266678)">
<path d="M5.00038 0C2.48798 0 0.799988 0.930609 0.799988 1.79961C0.799988 2.66901 2.48798 3.6 5.00038 3.6C7.51258 3.6 9.19999 2.66901 9.19999 1.79961C9.19999 0.930609 7.51258 0 5.00038 0ZM0.799988 2.72187V3.83008C0.799988 4.68488 2.48798 5.6 5.00038 5.6C7.51258 5.6 9.19999 4.68488 9.19999 3.83008V2.72187C8.46559 3.47267 6.88258 4 5.00038 4C3.11778 4 1.53459 3.47247 0.799988 2.72187ZM0.799988 4.78203V5.83906C0.799988 6.69366 2.48798 7.6 5.00038 7.6C7.51258 7.6 9.19999 6.69346 9.19999 5.83906V4.78203C8.46559 5.53243 6.88258 6 5.00038 6C3.11778 6 1.53459 5.53243 0.799988 4.78203ZM0.799988 6.79102V7.83008C0.799988 8.68468 2.48798 9.6 5.00038 9.6C7.51258 9.6 9.19999 8.68468 9.19999 7.83008V6.79102C8.46559 7.54162 6.88258 8 5.00038 8C3.11778 8 1.53459 7.54162 0.799988 6.79102Z" fill="#5093EC"/>
</g>
<defs>
<clipPath id="clip0_5438_266678">
<rect width="10" height="10" fill="white"/>
</clipPath>
</defs>
</svg>
