<svg width="400" height="176" viewBox="0 0 400 176" fill="none" xmlns="http://www.w3.org/2000/svg">
<g clip-path="url(#clip0_2482_39858)">
<path d="M151.442 102.584L205.442 78.3674C205.946 78.1413 206.8 77.8588 207.339 77.7399L256.592 66.8514L302.414 45.3773C302.999 45.1033 303.995 44.7743 304.628 44.6456L345.117 36.4348C346.183 36.2185 346.213 35.7544 345.183 35.4038L303.918 28.2329L129.488 93.1059L149.809 102.572C150.256 102.78 150.991 102.785 151.442 102.584Z" fill="#C5CCD4"/>
<path d="M150.642 103.79C150.186 103.79 149.729 103.703 149.358 103.531L129.037 94.0651C128.649 93.8843 128.408 93.4901 128.426 93.0641C128.443 92.6382 128.715 92.2643 129.116 92.1148L303.546 27.2414C303.723 27.1754 303.915 27.1576 304.101 27.1902L345.366 34.3611C345.421 34.3704 345.475 34.3844 345.527 34.4026C346.802 34.8366 347.03 35.5318 346.997 36.0382C346.964 36.5446 346.649 37.2047 345.329 37.4723L304.84 45.6831C304.293 45.7941 303.371 46.0985 302.867 46.3352L257.045 67.8093C256.974 67.8428 256.9 67.8682 256.823 67.8851L207.57 78.7736C207.104 78.8765 206.314 79.1381 205.879 79.3329L151.879 103.549C151.519 103.71 151.081 103.79 150.642 103.79V103.79ZM132.233 93.2157L150.26 101.613C150.426 101.691 150.837 101.693 151.005 101.619L205.005 77.4026C205.574 77.1473 206.498 76.8415 207.108 76.7065L256.246 65.8434L301.961 44.4197C302.621 44.1102 303.699 43.7541 304.415 43.6084L342.163 35.9536L304.021 29.3251L132.232 93.2157H132.233Z" fill="#C5CCD4"/>
<path d="M244.891 1.63668L202.926 1.05915C201.843 1.04433 200.776 1.32801 199.845 1.87929L157.792 26.7738C156.918 27.2908 155.926 27.5732 154.91 27.5935C146.289 27.7629 114.316 28.4141 107.117 28.561C106.164 28.5805 105.236 28.8303 104.402 29.2888L85.7771 39.5375L54.7392 56.6171C53.8156 57.1252 53.8424 57.9051 54.7975 58.3505L150.129 102.758C150.714 103.031 151.397 102.998 151.953 102.671L183.735 83.9779L205.614 71.1096C206.393 70.6515 207.265 70.3818 208.169 70.3221C216.508 69.7712 246.832 67.7676 255.538 67.1926C256.522 67.1278 257.469 66.8171 258.301 66.2895L302.54 38.2101C303.442 37.6377 304.483 37.3214 305.553 37.2955L344.764 36.3496C346.267 36.3132 346.333 35.8873 344.911 35.4029L246.711 1.95085C246.125 1.75142 245.511 1.64515 244.891 1.63668Z" fill="#E6EAEE"/>
<path d="M206.8 70.4129L183.735 83.9782L151.953 102.671C151.465 102.958 150.644 102.998 150.129 102.758L54.798 58.3504C53.8424 57.9053 53.816 57.125 54.7393 56.6169L85.7772 39.5373L104.845 29.0444C105.367 28.7573 105.992 28.7226 106.543 28.9504L206.8 70.4125L206.8 70.4129Z" fill="white"/>
<path d="M150.935 103.975C150.49 103.975 150.05 103.89 149.678 103.717L54.347 59.3091C53.5165 58.9221 53.0255 58.2781 53.0009 57.5431C52.9762 56.808 53.422 56.1327 54.2244 55.6906L104.331 28.1185C105.141 27.6727 106.096 27.6202 106.951 27.9733L207.208 69.4354C207.579 69.5891 207.832 69.9389 207.86 70.339C207.888 70.7391 207.687 71.1202 207.34 71.3243L152.494 103.582C152.052 103.842 151.49 103.975 150.934 103.975H150.935ZM55.4008 57.4626L150.58 101.799C150.775 101.89 151.226 101.869 151.412 101.759L204.428 70.5782L106.134 29.9282C105.881 29.8236 105.599 29.8393 105.36 29.9709L55.4008 57.4626Z" fill="#C5CCD4"/>
<path d="M150.958 104C150.522 104 150.085 103.906 149.678 103.716L54.347 59.3091C53.5165 58.9221 53.026 58.2781 53.0009 57.543C52.9762 56.8076 53.422 56.1322 54.2244 55.6906L103.887 28.3624C104.868 27.823 105.978 27.5253 107.095 27.5024C114.294 27.3555 146.268 26.7043 154.889 26.5349C155.718 26.5184 156.534 26.2864 157.249 25.8638L199.301 0.969781C200.26 0.401987 201.829 -0.00956922 202.94 0.000169244L244.906 0.577702C245.535 0.586594 246.459 0.745797 247.054 0.948611L345.255 34.4011C345.778 34.5789 347.164 35.0514 346.986 36.2052C346.807 37.359 345.342 37.3942 344.79 37.4073L305.578 38.3532C304.878 38.3701 303.702 38.7266 303.111 39.1018L258.872 67.1812C257.893 67.8027 256.764 68.1715 255.608 68.2482L208.239 71.378C207.654 71.4165 206.661 71.7227 206.155 72.0203L152.494 103.581C152.021 103.859 151.49 103.999 150.957 103.999L150.958 104ZM55.4008 57.4626L150.58 101.799C150.847 101.923 151.158 101.909 151.412 101.759L205.073 70.198C205.873 69.7276 207.174 69.3266 208.098 69.2656L255.467 66.1358C256.268 66.0828 257.05 65.8271 257.729 65.3965L301.967 37.3171C302.895 36.7277 304.426 36.2637 305.527 36.237L341.527 35.3686L246.366 2.95219C245.987 2.82305 245.277 2.70069 244.877 2.69518L202.911 2.11765C202.201 2.10114 200.999 2.42801 200.389 2.78918L158.336 27.6837C157.305 28.2934 156.128 28.6283 154.931 28.652C146.311 28.8214 114.338 29.4726 107.139 29.6195C106.365 29.6352 105.597 29.8414 104.917 30.2157L55.4008 57.4626Z" fill="#C5CCD4"/>
<path d="M303.918 37.3351C302.427 38.284 259.718 65.3904 259.137 65.7604C257.817 66.5975 256.168 66.7533 254.711 66.1839L156.458 27.5632L175.842 16.0879L198.902 2.43758C200.399 1.5518 202.223 1.37185 203.866 1.95573C205.474 2.52522 212.33 4.94841 221.763 8.28235C224.824 9.36755 228.159 10.5451 231.67 11.7861C261.356 22.2833 303.875 37.3203 303.918 37.3351Z" fill="white"/>
<path d="M256.503 67.5792C255.766 67.5792 255.025 67.4437 254.323 67.1693L156.067 28.5479C155.69 28.3997 155.43 28.0508 155.398 27.6481C155.366 27.2459 155.566 26.8601 155.914 26.6535L198.359 1.52828C200.139 0.47441 202.276 0.266939 204.223 0.959216C205.831 1.52828 212.687 3.95146 222.119 7.28498C224.548 8.1462 227.149 9.06543 229.874 10.0283L283.502 28.9924C295.487 33.2308 304.145 36.2929 304.27 36.3365C304.654 36.4712 304.928 36.8116 304.974 37.2138C305.021 37.6156 304.834 38.0094 304.492 38.2275C303.482 38.8694 283.605 51.4857 270.673 59.694C264.492 63.6169 259.898 66.5329 259.709 66.6528C258.742 67.2659 257.626 67.5792 256.503 67.5792H256.503ZM158.864 27.3712L255.102 65.1996C256.24 65.6442 257.536 65.521 258.565 64.8681C258.752 64.7491 263.347 61.8331 269.528 57.9093C280.387 51.0175 296.143 41.0173 301.512 37.6084C299.116 36.7612 293.945 34.9325 282.789 30.9876L229.162 12.0238C226.436 11.061 223.835 10.1413 221.406 9.2801C211.974 5.94658 205.118 3.52297 203.509 2.95391C202.16 2.47418 200.679 2.61814 199.446 3.3481L158.864 27.3716V27.3712Z" fill="#C5CCD4"/>
<path d="M244.994 22.8875L241.373 36.803C241.253 37.2611 240.772 37.5689 240.304 37.4863L212.583 32.6167C212.256 32.5591 211.92 32.6188 211.633 32.7848L200.4 39.2892C200.03 39.5035 199.581 39.5382 199.183 39.3828L169.205 27.7085C168.224 27.327 168.163 26.5763 169.067 26.0407L201.76 6.68783C202.121 6.47401 202.562 6.43251 202.958 6.57351C218.483 12.1003 232.286 17.0191 244.114 21.2282C244.796 21.4708 245.176 22.1898 244.994 22.8875H244.994Z" fill="white"/>
<path d="M244.994 22.8875L241.373 36.803C241.253 37.2611 240.772 37.5689 240.304 37.4863L212.583 32.6167C212.256 32.5591 211.92 32.6188 211.633 32.7848L200.4 39.2892C200.03 39.5035 199.581 39.5382 199.183 39.3828L169.205 27.7085C168.224 27.327 168.163 26.5763 169.067 26.0407L201.76 6.68783C202.121 6.47401 202.562 6.43251 202.958 6.57351C218.483 12.1003 232.286 17.0191 244.114 21.2282C244.796 21.4708 245.176 22.1898 244.994 22.8875H244.994Z" fill="#E6EAEE"/>
<path d="M233.452 43.7308L224.858 48.9832C224.608 49.1361 224.301 49.1632 224.027 49.0569L208.506 43.0119C208.141 42.87 208.103 42.3717 208.441 42.1756L213.007 39.5348C213.198 39.4243 213.422 39.3845 213.64 39.423L233.288 42.8755C233.712 42.95 233.819 43.5068 233.452 43.7308Z" fill="#E6EAEE"/>
<path d="M272.608 50.6093L256.261 60.9833C255.883 61.2234 255.413 61.2691 254.995 61.1065L232.987 52.5422C232.505 52.3546 232.472 51.9811 232.912 51.7119L243.771 45.0753C244.063 44.8966 244.411 44.8306 244.75 44.8899L272.438 49.7582C273.089 49.8726 273.166 50.2557 272.609 50.6093H272.608Z" fill="#E6EAEE"/>
<path d="M291.209 38.804L282.098 44.5844C281.901 44.7097 281.663 44.7567 281.432 44.7161L248.618 38.9475C248.081 38.8531 247.739 38.3225 247.876 37.7967L251.377 24.3559C251.447 24.0845 251.725 23.941 251.991 24.0354C273.891 31.8384 287.602 36.7216 291.116 37.9728C291.611 38.1489 291.652 38.5224 291.209 38.8035L291.209 38.804Z" fill="#E6EAEE"/>
<path d="M324.876 32.8079L306.002 32.9883C305.501 32.993 305.003 32.9155 304.527 32.758L268.476 20.8372C266.956 20.316 267.018 20.0501 268.613 20.2462L300.484 24.161C300.571 24.1716 300.656 24.1907 300.738 24.2178L324.963 32.2135C325.86 32.5099 325.821 32.7775 324.876 32.8079Z" fill="white"/>
<path d="M227.748 5.80523L247.242 6.07367C247.385 6.07578 247.528 6.10034 247.664 6.14649L260.438 10.4979C260.849 10.638 260.863 10.9018 260.469 11.0839L252.465 14.7845C252.142 14.934 251.772 14.9513 251.436 14.8324L227.636 6.41959C226.64 6.06732 226.689 5.79083 227.747 5.80523H227.748Z" fill="white"/>
<path d="M190.734 58.8367L219.513 56.8305C219.78 56.8119 220.049 56.853 220.299 56.9512L235.355 62.8697C235.667 62.9924 235.595 63.451 235.26 63.473L205.613 65.4313C205.337 65.4495 205.06 65.4042 204.805 65.2984L190.635 59.4383C190.329 59.3117 190.403 58.8604 190.734 58.8371V58.8367Z" fill="white"/>
<path d="M204.517 50.7472L201.749 49.6608L157.593 31.6797C157.409 31.6082 157.104 31.5502 156.91 31.5544L131.391 32.0481L131.403 32.0523C131.374 32.0523 131.346 32.0481 131.318 32.0485C129.681 32.0803 128.073 32.1125 126.524 32.1442C125.342 32.1684 125.271 32.5558 126.364 33.0046L176.034 53.3986C176.291 53.5041 176.568 53.5485 176.845 53.5295L204.383 51.6089C205.47 51.5331 205.53 51.1452 204.516 50.7472H204.517Z" fill="white"/>
<path d="M99.8795 46.5989L108.443 50.9342C108.775 51.1023 108.783 51.5719 108.456 51.7506L103.737 54.3266C103.289 54.5713 102.742 54.5518 102.313 54.2758L88.2247 45.2262C87.9303 45.0369 87.9448 44.6034 88.2516 44.4344L104.522 35.4772C104.891 35.2739 105.334 35.2485 105.725 35.4077C107.97 36.3236 110.196 37.2373 112.392 38.1239C112.755 38.2704 112.782 38.7683 112.438 38.9551L99.8676 45.7826C99.54 45.9604 99.5468 46.4308 99.8795 46.5993V46.5989Z" fill="#E6EAEE"/>
<path d="M93.1936 56.9197L80.154 64.0364C79.8958 64.1774 79.5852 64.188 79.318 64.0648L65.5998 57.7378C65.1437 57.5273 65.1305 57.1573 65.5704 56.9151L80.6352 48.6255C80.9343 48.4608 81.2997 48.4735 81.5869 48.6577L93.2222 56.1275C93.5821 56.3587 93.5693 56.7152 93.1936 56.9202V56.9197Z" fill="#E6EAEE"/>
<path d="M140.262 86.9933L137.244 90.0969C136.97 90.3794 136.546 90.4577 136.188 90.2926L87.8998 68.0241C87.4416 67.8128 87.4293 67.4423 87.8717 67.2005L99.5976 60.796C99.8962 60.633 100.261 60.6457 100.547 60.8295L140.18 86.2845C140.441 86.4522 140.477 86.771 140.261 86.9933H140.262Z" fill="#E6EAEE"/>
<path d="M165.912 60.6145L145.79 81.3078C145.482 81.6246 144.992 81.6804 144.62 81.4416L107.212 57.4194C106.852 57.1882 106.865 56.8317 107.24 56.6268L116.396 51.6305C116.819 51.3998 116.813 51.0322 116.384 50.8146L107.838 46.4844C107.407 46.2659 107.402 45.8984 107.827 45.6676L117.33 40.5083C117.575 40.3754 117.869 40.3597 118.128 40.4652C135.354 47.4862 151.297 53.9809 165.757 59.8671C166.106 60.009 166.174 60.3447 165.912 60.6145Z" fill="#E6EAEE"/>
<path d="M191.787 71.2565L159.386 90.3151C159.084 90.4929 158.707 90.4857 158.411 90.296L151.297 85.7304C151.036 85.5627 150.999 85.2439 151.215 85.0216L172.427 63.2096C172.691 62.9386 173.096 62.8552 173.447 62.9983C179.873 65.6137 185.976 68.0907 191.73 70.4334C192.205 70.6269 192.229 70.9965 191.787 71.2565Z" fill="#E6EAEE"/>
<path d="M151.996 94.6627L149.417 96.1781C149.286 96.2552 149.125 96.2632 148.986 96.1993L143.616 93.7215C143.291 93.5711 143.229 93.2383 143.478 92.9818L145.956 90.4341C146.11 90.2757 146.354 90.2478 146.541 90.3672L152.011 93.8802C152.357 94.1025 152.35 94.4544 151.995 94.6627H151.996Z" fill="#E6EAEE"/>
</g>
<path d="M74.0593 133.44V144H72.0593V138.496L72.1713 135.408H72.1393L69.2113 144H67.4033L64.4913 135.408H64.4593L64.5713 138.496V144H62.5713V133.44H65.7713L67.6753 139.2L68.3473 141.584H68.3793L69.0673 139.216L70.9553 133.44H74.0593ZM81.0792 138.896C81.0792 138.437 80.9459 138.08 80.6792 137.824C80.4232 137.568 80.0819 137.44 79.6552 137.44C79.2605 137.44 78.9139 137.541 78.6152 137.744C78.3165 137.947 78.0979 138.283 77.9592 138.752L76.0872 138.176C76.2685 137.472 76.6632 136.907 77.2712 136.48C77.8899 136.053 78.7165 135.84 79.7512 135.84C80.4552 135.84 81.0685 135.952 81.5912 136.176C82.1139 136.389 82.5192 136.715 82.8072 137.152C83.1059 137.589 83.2552 138.139 83.2552 138.8V142.048C83.2552 142.453 83.4472 142.656 83.8312 142.656C84.0125 142.656 84.1832 142.629 84.3432 142.576L84.2152 143.936C83.9379 144.075 83.5912 144.144 83.1752 144.144C82.8019 144.144 82.4659 144.08 82.1672 143.952C81.8685 143.824 81.6339 143.632 81.4632 143.376C81.2925 143.109 81.2072 142.779 81.2072 142.384V142.32L81.5912 142.256C81.5272 142.661 81.3512 143.008 81.0632 143.296C80.7752 143.573 80.4232 143.787 80.0072 143.936C79.6019 144.085 79.1805 144.16 78.7432 144.16C78.1992 144.16 77.7299 144.08 77.3352 143.92C76.9405 143.749 76.6365 143.504 76.4232 143.184C76.2099 142.864 76.1032 142.469 76.1032 142C76.1032 141.403 76.2952 140.917 76.6792 140.544C77.0632 140.16 77.6125 139.899 78.3272 139.76L81.3352 139.152L81.3192 140.512L79.3992 140.896C79.0365 140.971 78.7592 141.072 78.5672 141.2C78.3859 141.317 78.2952 141.515 78.2952 141.792C78.2952 142.059 78.3912 142.261 78.5832 142.4C78.7859 142.539 79.0259 142.608 79.3032 142.608C79.5272 142.608 79.7459 142.581 79.9592 142.528C80.1725 142.475 80.3645 142.389 80.5352 142.272C80.7059 142.155 80.8392 141.995 80.9352 141.792C81.0312 141.589 81.0792 141.344 81.0792 141.056V138.896ZM88.2262 133.552V141.392C88.2262 141.776 88.3222 142.059 88.5142 142.24C88.7169 142.411 88.9889 142.496 89.3302 142.496C89.5969 142.496 89.8315 142.459 90.0342 142.384C90.2369 142.299 90.4182 142.187 90.5782 142.048L90.9302 143.504C90.6742 143.707 90.3542 143.867 89.9702 143.984C89.5862 144.101 89.1809 144.16 88.7542 144.16C88.2209 144.16 87.7462 144.08 87.3302 143.92C86.9249 143.76 86.6049 143.504 86.3702 143.152C86.1462 142.8 86.0342 142.331 86.0342 141.744V134.16L88.2262 133.552ZM90.7862 136V137.632H84.5622V136H90.7862ZM95.9012 135.84C96.6159 135.84 97.2185 135.947 97.7092 136.16C98.2105 136.363 98.6105 136.645 98.9092 137.008C99.2185 137.36 99.4372 137.755 99.5652 138.192L97.5172 138.928C97.4105 138.448 97.2292 138.085 96.9732 137.84C96.7172 137.595 96.3705 137.472 95.9332 137.472C95.5279 137.472 95.1812 137.568 94.8932 137.76C94.6052 137.941 94.3865 138.224 94.2372 138.608C94.0879 138.981 94.0132 139.451 94.0132 140.016C94.0132 140.581 94.0879 141.051 94.2372 141.424C94.3972 141.797 94.6212 142.075 94.9092 142.256C95.2079 142.437 95.5545 142.528 95.9492 142.528C96.2692 142.528 96.5412 142.475 96.7652 142.368C96.9892 142.251 97.1705 142.085 97.3092 141.872C97.4585 141.659 97.5599 141.403 97.6132 141.104L99.5972 141.744C99.4799 142.224 99.2612 142.645 98.9412 143.008C98.6212 143.371 98.2105 143.653 97.7092 143.856C97.2079 144.059 96.6265 144.16 95.9652 144.16C95.1439 144.16 94.4185 143.995 93.7892 143.664C93.1599 143.333 92.6745 142.859 92.3332 142.24C91.9919 141.621 91.8212 140.875 91.8212 140C91.8212 139.125 91.9919 138.379 92.3332 137.76C92.6745 137.141 93.1545 136.667 93.7732 136.336C94.3919 136.005 95.1012 135.84 95.9012 135.84ZM101.3 144V132.496H103.492V137.36C103.748 136.848 104.1 136.469 104.548 136.224C104.996 135.968 105.503 135.84 106.068 135.84C106.623 135.84 107.114 135.947 107.54 136.16C107.978 136.373 108.319 136.699 108.564 137.136C108.82 137.563 108.948 138.101 108.948 138.752V144H106.756V139.392C106.756 138.699 106.623 138.224 106.356 137.968C106.09 137.701 105.748 137.568 105.332 137.568C105.023 137.568 104.724 137.643 104.436 137.792C104.159 137.931 103.93 138.165 103.748 138.496C103.578 138.816 103.492 139.243 103.492 139.776V144H101.3ZM112.311 134.848C111.852 134.848 111.511 134.752 111.287 134.56C111.063 134.357 110.951 134.064 110.951 133.68C110.951 133.285 111.063 132.992 111.287 132.8C111.511 132.597 111.852 132.496 112.311 132.496C112.769 132.496 113.111 132.597 113.335 132.8C113.559 132.992 113.671 133.285 113.671 133.68C113.671 134.064 113.559 134.357 113.335 134.56C113.111 134.752 112.769 134.848 112.311 134.848ZM113.399 136V144H111.207V136H113.399ZM115.722 144V136H117.69L117.818 138.4L117.546 138.144C117.674 137.621 117.877 137.189 118.154 136.848C118.432 136.507 118.768 136.256 119.162 136.096C119.568 135.925 120.01 135.84 120.49 135.84C121.045 135.84 121.536 135.947 121.962 136.16C122.4 136.373 122.741 136.699 122.986 137.136C123.242 137.563 123.37 138.101 123.37 138.752V144H121.178V139.376C121.178 138.693 121.045 138.224 120.778 137.968C120.512 137.701 120.165 137.568 119.738 137.568C119.44 137.568 119.146 137.643 118.858 137.792C118.581 137.931 118.352 138.16 118.17 138.48C118 138.8 117.914 139.227 117.914 139.76V144H115.722ZM133.005 134.096L133.261 135.664C133.218 135.664 133.17 135.664 133.117 135.664C133.074 135.653 133.026 135.648 132.973 135.648C132.482 135.648 132.114 135.76 131.869 135.984C131.623 136.197 131.501 136.496 131.501 136.88L130.605 136.512C130.605 136.085 130.69 135.691 130.861 135.328C131.031 134.955 131.282 134.656 131.613 134.432C131.954 134.208 132.359 134.096 132.829 134.096C132.85 134.096 132.877 134.096 132.909 134.096C132.941 134.096 132.973 134.096 133.005 134.096ZM130.381 142.496C131.245 142.496 131.911 142.683 132.381 143.056C132.85 143.429 133.085 143.952 133.085 144.624C133.085 145.232 132.909 145.744 132.557 146.16C132.205 146.587 131.709 146.907 131.069 147.12C130.439 147.333 129.709 147.44 128.877 147.44C127.501 147.44 126.493 147.248 125.853 146.864C125.223 146.48 124.909 145.979 124.909 145.36C124.909 144.923 125.074 144.555 125.405 144.256C125.746 143.957 126.306 143.792 127.085 143.76L127.005 144.016C126.45 143.92 126.023 143.739 125.725 143.472C125.437 143.195 125.293 142.816 125.293 142.336C125.293 141.845 125.479 141.445 125.853 141.136C126.237 140.816 126.754 140.629 127.405 140.576L128.365 141.024H128.141C127.682 141.056 127.357 141.152 127.165 141.312C126.983 141.461 126.893 141.632 126.893 141.824C126.893 142.048 126.978 142.219 127.149 142.336C127.33 142.443 127.586 142.496 127.917 142.496H130.381ZM128.893 145.936C129.447 145.936 129.901 145.888 130.253 145.792C130.615 145.696 130.882 145.573 131.053 145.424C131.234 145.275 131.325 145.109 131.325 144.928C131.325 144.725 131.245 144.56 131.085 144.432C130.925 144.315 130.637 144.256 130.221 144.256H127.517C127.261 144.256 127.047 144.32 126.877 144.448C126.717 144.576 126.637 144.752 126.637 144.976C126.637 145.275 126.834 145.509 127.229 145.68C127.634 145.851 128.189 145.936 128.893 145.936ZM128.909 135.84C129.655 135.84 130.301 135.952 130.845 136.176C131.399 136.389 131.821 136.699 132.109 137.104C132.407 137.509 132.557 137.995 132.557 138.56C132.557 139.115 132.407 139.595 132.109 140C131.821 140.405 131.399 140.72 130.845 140.944C130.301 141.157 129.655 141.264 128.909 141.264C127.725 141.264 126.818 141.024 126.189 140.544C125.57 140.053 125.261 139.392 125.261 138.56C125.261 137.995 125.405 137.509 125.693 137.104C125.991 136.699 126.413 136.389 126.957 136.176C127.501 135.952 128.151 135.84 128.909 135.84ZM128.909 137.216C128.482 137.216 128.13 137.333 127.853 137.568C127.575 137.803 127.437 138.128 127.437 138.544C127.437 138.96 127.575 139.291 127.853 139.536C128.13 139.771 128.482 139.888 128.909 139.888C129.335 139.888 129.682 139.771 129.949 139.536C130.226 139.291 130.365 138.96 130.365 138.544C130.365 138.128 130.226 137.803 129.949 137.568C129.682 137.333 129.335 137.216 128.909 137.216ZM143.012 144.16C142.17 144.16 141.434 143.995 140.804 143.664C140.186 143.333 139.706 142.859 139.364 142.24C139.023 141.621 138.852 140.875 138.852 140C138.852 139.125 139.023 138.379 139.364 137.76C139.706 137.141 140.18 136.667 140.788 136.336C141.407 136.005 142.111 135.84 142.9 135.84C143.711 135.84 144.399 136.005 144.964 136.336C145.53 136.656 145.962 137.099 146.26 137.664C146.559 138.219 146.708 138.853 146.708 139.568C146.708 139.781 146.703 139.984 146.692 140.176C146.682 140.368 146.666 140.539 146.644 140.688H140.26V139.168H145.684L144.628 139.552C144.628 138.88 144.474 138.363 144.164 138C143.866 137.637 143.439 137.456 142.884 137.456C142.479 137.456 142.127 137.552 141.828 137.744C141.54 137.936 141.322 138.224 141.172 138.608C141.023 138.981 140.948 139.456 140.948 140.032C140.948 140.597 141.028 141.067 141.188 141.44C141.359 141.803 141.594 142.075 141.892 142.256C142.202 142.437 142.57 142.528 142.996 142.528C143.466 142.528 143.844 142.437 144.132 142.256C144.42 142.075 144.644 141.824 144.804 141.504L146.548 142.176C146.378 142.592 146.116 142.949 145.764 143.248C145.423 143.547 145.012 143.776 144.532 143.936C144.063 144.085 143.556 144.16 143.012 144.16ZM153.564 136H155.836L152.796 144H150.268L147.228 136H149.564L151.548 142.32L153.564 136ZM160.669 144.16C159.826 144.16 159.09 143.995 158.461 143.664C157.842 143.333 157.362 142.859 157.021 142.24C156.679 141.621 156.509 140.875 156.509 140C156.509 139.125 156.679 138.379 157.021 137.76C157.362 137.141 157.837 136.667 158.445 136.336C159.063 136.005 159.767 135.84 160.557 135.84C161.367 135.84 162.055 136.005 162.621 136.336C163.186 136.656 163.618 137.099 163.917 137.664C164.215 138.219 164.365 138.853 164.365 139.568C164.365 139.781 164.359 139.984 164.349 140.176C164.338 140.368 164.322 140.539 164.301 140.688H157.917V139.168H163.341L162.285 139.552C162.285 138.88 162.13 138.363 161.821 138C161.522 137.637 161.095 137.456 160.541 137.456C160.135 137.456 159.783 137.552 159.485 137.744C159.197 137.936 158.978 138.224 158.829 138.608C158.679 138.981 158.605 139.456 158.605 140.032C158.605 140.597 158.685 141.067 158.845 141.44C159.015 141.803 159.25 142.075 159.549 142.256C159.858 142.437 160.226 142.528 160.653 142.528C161.122 142.528 161.501 142.437 161.789 142.256C162.077 142.075 162.301 141.824 162.461 141.504L164.205 142.176C164.034 142.592 163.773 142.949 163.421 143.248C163.079 143.547 162.669 143.776 162.189 143.936C161.719 144.085 161.213 144.16 160.669 144.16ZM166.222 144V136H168.19L168.318 138.4L168.046 138.144C168.174 137.621 168.377 137.189 168.654 136.848C168.932 136.507 169.268 136.256 169.662 136.096C170.068 135.925 170.51 135.84 170.99 135.84C171.545 135.84 172.036 135.947 172.462 136.16C172.9 136.373 173.241 136.699 173.486 137.136C173.742 137.563 173.87 138.101 173.87 138.752V144H171.678V139.376C171.678 138.693 171.545 138.224 171.278 137.968C171.012 137.701 170.665 137.568 170.238 137.568C169.94 137.568 169.646 137.643 169.358 137.792C169.081 137.931 168.852 138.16 168.67 138.48C168.5 138.8 168.414 139.227 168.414 139.76V144H166.222ZM178.898 133.552V141.392C178.898 141.776 178.994 142.059 179.186 142.24C179.389 142.411 179.661 142.496 180.002 142.496C180.269 142.496 180.503 142.459 180.706 142.384C180.909 142.299 181.09 142.187 181.25 142.048L181.602 143.504C181.346 143.707 181.026 143.867 180.642 143.984C180.258 144.101 179.853 144.16 179.426 144.16C178.893 144.16 178.418 144.08 178.002 143.92C177.597 143.76 177.277 143.504 177.042 143.152C176.818 142.8 176.706 142.331 176.706 141.744V134.16L178.898 133.552ZM181.458 136V137.632H175.234V136H181.458ZM186.141 144.16C185.33 144.16 184.589 144.016 183.917 143.728C183.256 143.44 182.717 143.035 182.301 142.512L183.565 141.232C183.821 141.616 184.162 141.931 184.589 142.176C185.016 142.421 185.522 142.544 186.109 142.544C186.525 142.544 186.856 142.485 187.101 142.368C187.357 142.24 187.485 142.043 187.485 141.776C187.485 141.605 187.426 141.461 187.309 141.344C187.192 141.216 186.957 141.115 186.605 141.04L185.197 140.752C184.269 140.56 183.608 140.272 183.213 139.888C182.829 139.493 182.637 138.987 182.637 138.368C182.637 137.931 182.765 137.52 183.021 137.136C183.288 136.752 183.682 136.443 184.205 136.208C184.728 135.963 185.378 135.84 186.157 135.84C186.957 135.84 187.65 135.968 188.237 136.224C188.834 136.469 189.304 136.837 189.645 137.328L188.333 138.608C188.098 138.235 187.789 137.952 187.405 137.76C187.032 137.557 186.637 137.456 186.221 137.456C185.922 137.456 185.666 137.488 185.453 137.552C185.24 137.616 185.08 137.707 184.973 137.824C184.866 137.931 184.813 138.069 184.813 138.24C184.813 138.411 184.888 138.56 185.037 138.688C185.186 138.805 185.458 138.907 185.853 138.992L187.485 139.328C188.274 139.488 188.84 139.76 189.181 140.144C189.522 140.517 189.693 140.971 189.693 141.504C189.693 142.016 189.554 142.475 189.277 142.88C189.01 143.275 188.61 143.589 188.077 143.824C187.554 144.048 186.909 144.16 186.141 144.16ZM206.308 136H208.644L206.084 144H203.556L201.812 138.56L200.132 144H197.604L195.044 136H197.38L198.98 142.128L200.756 136H202.932L204.724 142.128L206.308 136ZM211.108 134.848C210.649 134.848 210.308 134.752 210.084 134.56C209.86 134.357 209.748 134.064 209.748 133.68C209.748 133.285 209.86 132.992 210.084 132.8C210.308 132.597 210.649 132.496 211.108 132.496C211.566 132.496 211.908 132.597 212.132 132.8C212.356 132.992 212.468 133.285 212.468 133.68C212.468 134.064 212.356 134.357 212.132 134.56C211.908 134.752 211.566 134.848 211.108 134.848ZM212.196 136V144H210.004V136H212.196ZM216.679 132.496V141.536C216.679 141.909 216.743 142.171 216.871 142.32C216.999 142.469 217.213 142.544 217.511 142.544C217.693 142.544 217.842 142.533 217.959 142.512C218.077 142.48 218.226 142.437 218.407 142.384L218.215 143.824C218.034 143.931 217.805 144.011 217.527 144.064C217.261 144.128 216.994 144.16 216.727 144.16C215.949 144.16 215.378 143.973 215.015 143.6C214.663 143.216 214.487 142.608 214.487 141.776V132.496H216.679ZM221.789 132.496V141.536C221.789 141.909 221.853 142.171 221.981 142.32C222.109 142.469 222.322 142.544 222.621 142.544C222.802 142.544 222.951 142.533 223.069 142.512C223.186 142.48 223.335 142.437 223.517 142.384L223.325 143.824C223.143 143.931 222.914 144.011 222.637 144.064C222.37 144.128 222.103 144.16 221.837 144.16C221.058 144.16 220.487 143.973 220.125 143.6C219.773 143.216 219.597 142.608 219.597 141.776V132.496H221.789ZM232.485 144.16C231.674 144.16 230.933 144.016 230.261 143.728C229.599 143.44 229.061 143.035 228.645 142.512L229.909 141.232C230.165 141.616 230.506 141.931 230.933 142.176C231.359 142.421 231.866 142.544 232.453 142.544C232.869 142.544 233.199 142.485 233.445 142.368C233.701 142.24 233.829 142.043 233.829 141.776C233.829 141.605 233.77 141.461 233.653 141.344C233.535 141.216 233.301 141.115 232.949 141.04L231.541 140.752C230.613 140.56 229.951 140.272 229.557 139.888C229.173 139.493 228.981 138.987 228.981 138.368C228.981 137.931 229.109 137.52 229.365 137.136C229.631 136.752 230.026 136.443 230.549 136.208C231.071 135.963 231.722 135.84 232.501 135.84C233.301 135.84 233.994 135.968 234.581 136.224C235.178 136.469 235.647 136.837 235.989 137.328L234.677 138.608C234.442 138.235 234.133 137.952 233.749 137.76C233.375 137.557 232.981 137.456 232.565 137.456C232.266 137.456 232.01 137.488 231.797 137.552C231.583 137.616 231.423 137.707 231.317 137.824C231.21 137.931 231.157 138.069 231.157 138.24C231.157 138.411 231.231 138.56 231.381 138.688C231.53 138.805 231.802 138.907 232.197 138.992L233.829 139.328C234.618 139.488 235.183 139.76 235.525 140.144C235.866 140.517 236.037 140.971 236.037 141.504C236.037 142.016 235.898 142.475 235.621 142.88C235.354 143.275 234.954 143.589 234.421 143.824C233.898 144.048 233.253 144.16 232.485 144.16ZM237.785 144V132.496H239.977V137.36C240.233 136.848 240.585 136.469 241.033 136.224C241.481 135.968 241.987 135.84 242.553 135.84C243.107 135.84 243.598 135.947 244.025 136.16C244.462 136.373 244.803 136.699 245.049 137.136C245.305 137.563 245.433 138.101 245.433 138.752V144H243.241V139.392C243.241 138.699 243.107 138.224 242.841 137.968C242.574 137.701 242.233 137.568 241.817 137.568C241.507 137.568 241.209 137.643 240.921 137.792C240.643 137.931 240.414 138.165 240.233 138.496C240.062 138.816 239.977 139.243 239.977 139.776V144H237.785ZM251.339 135.84C252.15 135.84 252.859 136.005 253.467 136.336C254.086 136.667 254.566 137.141 254.907 137.76C255.259 138.379 255.435 139.125 255.435 140C255.435 140.864 255.259 141.611 254.907 142.24C254.566 142.859 254.086 143.333 253.467 143.664C252.859 143.995 252.15 144.16 251.339 144.16C250.539 144.16 249.83 143.995 249.211 143.664C248.592 143.333 248.107 142.859 247.755 142.24C247.414 141.611 247.243 140.864 247.243 140C247.243 139.125 247.414 138.379 247.755 137.76C248.107 137.141 248.592 136.667 249.211 136.336C249.83 136.005 250.539 135.84 251.339 135.84ZM251.339 137.472C250.934 137.472 250.587 137.568 250.299 137.76C250.022 137.941 249.808 138.219 249.659 138.592C249.51 138.965 249.435 139.435 249.435 140C249.435 140.565 249.51 141.035 249.659 141.408C249.808 141.781 250.022 142.064 250.299 142.256C250.587 142.437 250.934 142.528 251.339 142.528C251.734 142.528 252.07 142.437 252.347 142.256C252.635 142.064 252.854 141.781 253.003 141.408C253.152 141.035 253.227 140.565 253.227 140C253.227 139.435 253.152 138.965 253.003 138.592C252.854 138.219 252.635 137.941 252.347 137.76C252.07 137.568 251.734 137.472 251.339 137.472ZM267.37 136H269.706L267.146 144H264.618L262.874 138.56L261.194 144H258.666L256.106 136H258.442L260.042 142.128L261.818 136H263.994L265.786 142.128L267.37 136ZM278.397 144.16C277.864 144.16 277.384 144.064 276.957 143.872C276.53 143.68 276.189 143.376 275.933 142.96C275.688 142.533 275.565 141.984 275.565 141.312V136H277.757V140.784C277.757 141.403 277.885 141.835 278.141 142.08C278.397 142.315 278.765 142.432 279.245 142.432C279.469 142.432 279.688 142.395 279.901 142.32C280.114 142.235 280.301 142.107 280.461 141.936C280.632 141.765 280.765 141.547 280.861 141.28C280.957 141.003 281.005 140.677 281.005 140.304V136H283.197V144H281.245L281.165 142.608C280.898 143.141 280.53 143.536 280.061 143.792C279.602 144.037 279.048 144.16 278.397 144.16ZM285.504 147.36V136H287.472L287.616 138.544L287.344 138.256C287.44 137.787 287.616 137.371 287.872 137.008C288.138 136.645 288.474 136.363 288.88 136.16C289.285 135.947 289.738 135.84 290.24 135.84C290.89 135.84 291.472 136.005 291.984 136.336C292.496 136.667 292.896 137.141 293.184 137.76C293.482 138.368 293.632 139.109 293.632 139.984C293.632 140.859 293.482 141.611 293.184 142.24C292.885 142.859 292.474 143.333 291.952 143.664C291.44 143.995 290.853 144.16 290.192 144.16C289.488 144.16 288.901 143.963 288.432 143.568C287.973 143.173 287.658 142.677 287.488 142.08L287.696 141.744V147.36H285.504ZM289.552 142.48C290.138 142.48 290.597 142.272 290.928 141.856C291.269 141.429 291.44 140.811 291.44 140C291.44 139.189 291.274 138.576 290.944 138.16C290.624 137.733 290.17 137.52 289.584 137.52C289.21 137.52 288.88 137.621 288.592 137.824C288.314 138.016 288.096 138.299 287.936 138.672C287.776 139.035 287.696 139.477 287.696 140C287.696 140.512 287.77 140.955 287.92 141.328C288.069 141.701 288.282 141.989 288.56 142.192C288.848 142.384 289.178 142.48 289.552 142.48ZM300.425 144V132.496H302.617V137.36C302.873 136.848 303.225 136.469 303.673 136.224C304.121 135.968 304.628 135.84 305.193 135.84C305.748 135.84 306.239 135.947 306.665 136.16C307.103 136.373 307.444 136.699 307.689 137.136C307.945 137.563 308.073 138.101 308.073 138.752V144H305.881V139.392C305.881 138.699 305.748 138.224 305.481 137.968C305.215 137.701 304.873 137.568 304.457 137.568C304.148 137.568 303.849 137.643 303.561 137.792C303.284 137.931 303.055 138.165 302.873 138.496C302.703 138.816 302.617 139.243 302.617 139.776V144H300.425ZM314.044 144.16C313.201 144.16 312.465 143.995 311.836 143.664C311.217 143.333 310.737 142.859 310.396 142.24C310.054 141.621 309.884 140.875 309.884 140C309.884 139.125 310.054 138.379 310.396 137.76C310.737 137.141 311.212 136.667 311.82 136.336C312.438 136.005 313.142 135.84 313.932 135.84C314.742 135.84 315.43 136.005 315.996 136.336C316.561 136.656 316.993 137.099 317.292 137.664C317.59 138.219 317.74 138.853 317.74 139.568C317.74 139.781 317.734 139.984 317.724 140.176C317.713 140.368 317.697 140.539 317.676 140.688H311.292V139.168H316.716L315.66 139.552C315.66 138.88 315.505 138.363 315.196 138C314.897 137.637 314.47 137.456 313.916 137.456C313.51 137.456 313.158 137.552 312.86 137.744C312.572 137.936 312.353 138.224 312.204 138.608C312.054 138.981 311.98 139.456 311.98 140.032C311.98 140.597 312.06 141.067 312.22 141.44C312.39 141.803 312.625 142.075 312.924 142.256C313.233 142.437 313.601 142.528 314.028 142.528C314.497 142.528 314.876 142.437 315.164 142.256C315.452 142.075 315.676 141.824 315.836 141.504L317.58 142.176C317.409 142.592 317.148 142.949 316.796 143.248C316.454 143.547 316.044 143.776 315.564 143.936C315.094 144.085 314.588 144.16 314.044 144.16ZM319.597 144V136H321.501L321.645 137.568C321.859 137.013 322.168 136.587 322.573 136.288C322.989 135.989 323.507 135.84 324.125 135.84C324.307 135.84 324.472 135.856 324.621 135.888C324.771 135.92 324.893 135.963 324.989 136.016L324.733 137.856C324.627 137.813 324.493 137.781 324.333 137.76C324.184 137.739 323.987 137.728 323.741 137.728C323.421 137.728 323.112 137.808 322.813 137.968C322.515 138.117 322.269 138.352 322.077 138.672C321.885 138.981 321.789 139.376 321.789 139.856V144H319.597ZM329.903 144.16C329.06 144.16 328.324 143.995 327.695 143.664C327.076 143.333 326.596 142.859 326.255 142.24C325.914 141.621 325.743 140.875 325.743 140C325.743 139.125 325.914 138.379 326.255 137.76C326.596 137.141 327.071 136.667 327.679 136.336C328.298 136.005 329.002 135.84 329.791 135.84C330.602 135.84 331.29 136.005 331.855 136.336C332.42 136.656 332.852 137.099 333.151 137.664C333.45 138.219 333.599 138.853 333.599 139.568C333.599 139.781 333.594 139.984 333.583 140.176C333.572 140.368 333.556 140.539 333.535 140.688H327.151V139.168H332.575L331.519 139.552C331.519 138.88 331.364 138.363 331.055 138C330.756 137.637 330.33 137.456 329.775 137.456C329.37 137.456 329.018 137.552 328.719 137.744C328.431 137.936 328.212 138.224 328.063 138.608C327.914 138.981 327.839 139.456 327.839 140.032C327.839 140.597 327.919 141.067 328.079 141.44C328.25 141.803 328.484 142.075 328.783 142.256C329.092 142.437 329.46 142.528 329.887 142.528C330.356 142.528 330.735 142.437 331.023 142.256C331.311 142.075 331.535 141.824 331.695 141.504L333.439 142.176C333.268 142.592 333.007 142.949 332.655 143.248C332.314 143.547 331.903 143.776 331.423 143.936C330.954 144.085 330.447 144.16 329.903 144.16ZM336.561 141.552C336.987 141.552 337.323 141.669 337.569 141.904C337.825 142.139 337.953 142.453 337.953 142.848C337.953 143.253 337.825 143.573 337.569 143.808C337.323 144.032 336.987 144.144 336.561 144.144C336.134 144.144 335.793 144.032 335.537 143.808C335.291 143.573 335.169 143.253 335.169 142.848C335.169 142.453 335.291 142.139 335.537 141.904C335.793 141.669 336.134 141.552 336.561 141.552Z" fill="#0E0E1A"/>
<path d="M44.5467 160.76C45.9934 160.76 47.1274 161.161 47.9487 161.964C48.7794 162.757 49.1947 163.896 49.1947 165.38C49.1947 166.864 48.7794 168.007 47.9487 168.81C47.1274 169.603 45.9934 170 44.5467 170H41.5647V160.76H44.5467ZM44.6587 168.95C45.7134 168.95 46.5347 168.637 47.1227 168.012C47.7201 167.377 48.0187 166.5 48.0187 165.38C48.0187 164.26 47.7201 163.387 47.1227 162.762C46.5347 162.127 45.7134 161.81 44.6587 161.81H42.6847V168.95H44.6587ZM54.3706 170.14C53.7079 170.14 53.1152 169.995 52.5926 169.706C52.0792 169.417 51.6779 169.001 51.3886 168.46C51.0992 167.909 50.9546 167.256 50.9546 166.5C50.9546 165.744 51.0992 165.095 51.3886 164.554C51.6779 164.003 52.0746 163.583 52.5786 163.294C53.0826 163.005 53.6566 162.86 54.3006 162.86C54.9539 162.86 55.5092 163 55.9666 163.28C56.4332 163.56 56.7879 163.943 57.0306 164.428C57.2732 164.904 57.3946 165.441 57.3946 166.038C57.3946 166.197 57.3899 166.341 57.3806 166.472C57.3712 166.603 57.3572 166.719 57.3386 166.822H51.6826V165.828H56.8486L56.2746 165.94C56.2746 165.268 56.0879 164.75 55.7146 164.386C55.3506 164.022 54.8699 163.84 54.2726 163.84C53.8152 163.84 53.4186 163.947 53.0826 164.162C52.7559 164.367 52.4992 164.671 52.3126 165.072C52.1352 165.464 52.0466 165.94 52.0466 166.5C52.0466 167.051 52.1399 167.527 52.3266 167.928C52.5132 168.329 52.7746 168.637 53.1106 168.852C53.4559 169.057 53.8666 169.16 54.3426 169.16C54.8559 169.16 55.2712 169.062 55.5886 168.866C55.9152 168.67 56.1766 168.404 56.3726 168.068L57.2546 168.586C57.0772 168.903 56.8486 169.179 56.5686 169.412C56.2979 169.645 55.9759 169.827 55.6026 169.958C55.2386 170.079 54.8279 170.14 54.3706 170.14ZM62.2983 159.71C62.541 159.71 62.7696 159.738 62.9843 159.794C63.199 159.85 63.367 159.929 63.4883 160.032L63.1943 160.942C63.0823 160.867 62.961 160.816 62.8303 160.788C62.6996 160.751 62.555 160.732 62.3963 160.732C61.995 160.732 61.6823 160.83 61.4583 161.026C61.2343 161.213 61.1223 161.516 61.1223 161.936V163V163.364V170H60.0023V161.824C60.0023 161.516 60.049 161.231 60.1423 160.97C60.2356 160.709 60.3756 160.485 60.5623 160.298C60.7583 160.111 61.001 159.967 61.2903 159.864C61.5796 159.761 61.9156 159.71 62.2983 159.71ZM63.4603 163V163.966H58.6023V163H63.4603ZM65.5183 161.656C65.2663 161.656 65.061 161.581 64.9023 161.432C64.753 161.273 64.6783 161.068 64.6783 160.816C64.6783 160.564 64.753 160.363 64.9023 160.214C65.061 160.055 65.2663 159.976 65.5183 159.976C65.7703 159.976 65.971 160.055 66.1203 160.214C66.279 160.363 66.3583 160.564 66.3583 160.816C66.3583 161.068 66.279 161.273 66.1203 161.432C65.971 161.581 65.7703 161.656 65.5183 161.656ZM66.0783 163V170H64.9583V163H66.0783ZM68.6848 170V163H69.6648L69.7628 164.568L69.5808 164.414C69.7301 164.041 69.9308 163.742 70.1828 163.518C70.4348 163.285 70.7241 163.117 71.0508 163.014C71.3868 162.911 71.7321 162.86 72.0868 162.86C72.5908 162.86 73.0481 162.958 73.4588 163.154C73.8695 163.341 74.1961 163.63 74.4388 164.022C74.6908 164.414 74.8168 164.913 74.8168 165.52V170H73.6968V165.912C73.6968 165.137 73.5288 164.601 73.1928 164.302C72.8661 163.994 72.4601 163.84 71.9748 163.84C71.6388 163.84 71.3028 163.919 70.9668 164.078C70.6308 164.237 70.3508 164.493 70.1268 164.848C69.9121 165.203 69.8048 165.679 69.8048 166.276V170H68.6848ZM80.2788 170.14C79.6161 170.14 79.0234 169.995 78.5008 169.706C77.9874 169.417 77.5861 169.001 77.2968 168.46C77.0074 167.909 76.8628 167.256 76.8628 166.5C76.8628 165.744 77.0074 165.095 77.2968 164.554C77.5861 164.003 77.9828 163.583 78.4868 163.294C78.9908 163.005 79.5648 162.86 80.2088 162.86C80.8621 162.86 81.4174 163 81.8748 163.28C82.3414 163.56 82.6961 163.943 82.9388 164.428C83.1814 164.904 83.3028 165.441 83.3028 166.038C83.3028 166.197 83.2981 166.341 83.2888 166.472C83.2794 166.603 83.2654 166.719 83.2468 166.822H77.5908V165.828H82.7568L82.1828 165.94C82.1828 165.268 81.9961 164.75 81.6228 164.386C81.2588 164.022 80.7781 163.84 80.1808 163.84C79.7234 163.84 79.3268 163.947 78.9908 164.162C78.6641 164.367 78.4074 164.671 78.2208 165.072C78.0434 165.464 77.9548 165.94 77.9548 166.5C77.9548 167.051 78.0481 167.527 78.2348 167.928C78.4214 168.329 78.6828 168.637 79.0188 168.852C79.3641 169.057 79.7748 169.16 80.2508 169.16C80.7641 169.16 81.1794 169.062 81.4968 168.866C81.8234 168.67 82.0848 168.404 82.2808 168.068L83.1628 168.586C82.9854 168.903 82.7568 169.179 82.4768 169.412C82.2061 169.645 81.8841 169.827 81.5108 169.958C81.1468 170.079 80.7361 170.14 80.2788 170.14ZM94.2923 165.478C94.2923 164.955 94.1523 164.554 93.8723 164.274C93.5923 163.985 93.1957 163.84 92.6823 163.84C92.197 163.84 91.7863 163.947 91.4503 164.162C91.1143 164.367 90.867 164.703 90.7083 165.17L89.7983 164.61C89.985 164.087 90.3303 163.667 90.8343 163.35C91.3383 163.023 91.9637 162.86 92.7103 162.86C93.2143 162.86 93.6717 162.949 94.0823 163.126C94.493 163.294 94.815 163.555 95.0483 163.91C95.291 164.255 95.4123 164.703 95.4123 165.254V168.642C95.4123 168.978 95.5897 169.146 95.9443 169.146C96.1217 169.146 96.2943 169.123 96.4623 169.076L96.4063 169.958C96.2197 170.051 95.977 170.098 95.6783 170.098C95.4077 170.098 95.165 170.047 94.9503 169.944C94.7357 169.841 94.5677 169.687 94.4463 169.482C94.325 169.267 94.2643 169.001 94.2643 168.684V168.544L94.5443 168.586C94.4323 168.95 94.241 169.249 93.9703 169.482C93.6997 169.706 93.3963 169.874 93.0603 169.986C92.7243 170.089 92.393 170.14 92.0663 170.14C91.6557 170.14 91.273 170.07 90.9183 169.93C90.5637 169.79 90.279 169.58 90.0643 169.3C89.859 169.011 89.7563 168.656 89.7563 168.236C89.7563 167.713 89.929 167.284 90.2743 166.948C90.629 166.603 91.119 166.369 91.7443 166.248L94.5163 165.702V166.626L92.2623 167.088C91.805 167.181 91.4643 167.312 91.2403 167.48C91.0163 167.648 90.9043 167.881 90.9043 168.18C90.9043 168.469 91.0163 168.707 91.2403 168.894C91.4737 169.071 91.8003 169.16 92.2203 169.16C92.491 169.16 92.7477 169.127 92.9903 169.062C93.2423 168.987 93.4663 168.88 93.6623 168.74C93.8583 168.591 94.0123 168.409 94.1243 168.194C94.2363 167.97 94.2923 167.709 94.2923 167.41V165.478ZM101.032 162.86C101.517 162.86 101.942 162.935 102.306 163.084C102.679 163.233 103.001 163.448 103.272 163.728C103.543 164.008 103.762 164.339 103.93 164.722L102.866 165.226C102.717 164.778 102.488 164.437 102.18 164.204C101.881 163.961 101.489 163.84 101.004 163.84C100.537 163.84 100.136 163.947 99.8 164.162C99.464 164.367 99.2074 164.671 99.03 165.072C98.8527 165.464 98.764 165.94 98.764 166.5C98.764 167.051 98.8527 167.527 99.03 167.928C99.2074 168.329 99.464 168.637 99.8 168.852C100.136 169.057 100.537 169.16 101.004 169.16C101.368 169.16 101.681 169.104 101.942 168.992C102.213 168.88 102.432 168.717 102.6 168.502C102.777 168.287 102.899 168.026 102.964 167.718L104 168.082C103.841 168.511 103.622 168.88 103.342 169.188C103.071 169.496 102.74 169.734 102.348 169.902C101.965 170.061 101.527 170.14 101.032 170.14C100.379 170.14 99.7954 169.995 99.282 169.706C98.7687 169.417 98.3674 169.001 98.078 168.46C97.7887 167.909 97.644 167.256 97.644 166.5C97.644 165.744 97.7887 165.095 98.078 164.554C98.3674 164.003 98.7687 163.583 99.282 163.294C99.7954 163.005 100.379 162.86 101.032 162.86ZM107.62 161.012V168.068C107.62 168.413 107.718 168.67 107.914 168.838C108.11 169.006 108.362 169.09 108.67 169.09C108.941 169.09 109.174 169.043 109.37 168.95C109.566 168.857 109.743 168.731 109.902 168.572L110.294 169.51C110.079 169.706 109.823 169.86 109.524 169.972C109.235 170.084 108.899 170.14 108.516 170.14C108.161 170.14 107.83 170.079 107.522 169.958C107.214 169.827 106.967 169.627 106.78 169.356C106.603 169.076 106.509 168.712 106.5 168.264V161.32L107.62 161.012ZM110.168 163V163.966H105.1V163H110.168ZM112.393 161.656C112.141 161.656 111.936 161.581 111.777 161.432C111.628 161.273 111.553 161.068 111.553 160.816C111.553 160.564 111.628 160.363 111.777 160.214C111.936 160.055 112.141 159.976 112.393 159.976C112.645 159.976 112.846 160.055 112.995 160.214C113.154 160.363 113.233 160.564 113.233 160.816C113.233 161.068 113.154 161.273 112.995 161.432C112.846 161.581 112.645 161.656 112.393 161.656ZM112.953 163V170H111.833V163H112.953ZM118.45 162.86C119.113 162.86 119.696 163.005 120.2 163.294C120.713 163.583 121.115 164.003 121.404 164.554C121.693 165.095 121.838 165.744 121.838 166.5C121.838 167.256 121.693 167.909 121.404 168.46C121.115 169.001 120.713 169.417 120.2 169.706C119.696 169.995 119.113 170.14 118.45 170.14C117.797 170.14 117.213 169.995 116.7 169.706C116.187 169.417 115.785 169.001 115.496 168.46C115.207 167.909 115.062 167.256 115.062 166.5C115.062 165.744 115.207 165.095 115.496 164.554C115.785 164.003 116.187 163.583 116.7 163.294C117.213 163.005 117.797 162.86 118.45 162.86ZM118.45 163.826C117.974 163.826 117.568 163.933 117.232 164.148C116.896 164.363 116.635 164.671 116.448 165.072C116.271 165.464 116.182 165.94 116.182 166.5C116.182 167.051 116.271 167.527 116.448 167.928C116.635 168.329 116.896 168.637 117.232 168.852C117.568 169.067 117.974 169.174 118.45 169.174C118.926 169.174 119.332 169.067 119.668 168.852C120.004 168.637 120.261 168.329 120.438 167.928C120.625 167.527 120.718 167.051 120.718 166.5C120.718 165.94 120.625 165.464 120.438 165.072C120.261 164.671 120.004 164.363 119.668 164.148C119.332 163.933 118.926 163.826 118.45 163.826ZM123.947 170V163H124.927L125.025 164.568L124.843 164.414C124.992 164.041 125.193 163.742 125.445 163.518C125.697 163.285 125.986 163.117 126.313 163.014C126.649 162.911 126.994 162.86 127.349 162.86C127.853 162.86 128.31 162.958 128.721 163.154C129.131 163.341 129.458 163.63 129.701 164.022C129.953 164.414 130.079 164.913 130.079 165.52V170H128.959V165.912C128.959 165.137 128.791 164.601 128.455 164.302C128.128 163.994 127.722 163.84 127.237 163.84C126.901 163.84 126.565 163.919 126.229 164.078C125.893 164.237 125.613 164.493 125.389 164.848C125.174 165.203 125.067 165.679 125.067 166.276V170H123.947ZM135.135 170.14C134.453 170.14 133.823 169.995 133.245 169.706C132.675 169.417 132.237 169.006 131.929 168.474L132.881 167.788C133.086 168.217 133.385 168.553 133.777 168.796C134.178 169.039 134.659 169.16 135.219 169.16C135.713 169.16 136.101 169.067 136.381 168.88C136.661 168.684 136.801 168.432 136.801 168.124C136.801 167.928 136.735 167.751 136.605 167.592C136.483 167.424 136.245 167.303 135.891 167.228L134.211 166.878C133.529 166.738 133.039 166.505 132.741 166.178C132.451 165.851 132.307 165.445 132.307 164.96C132.307 164.577 132.414 164.227 132.629 163.91C132.853 163.593 133.165 163.341 133.567 163.154C133.977 162.958 134.458 162.86 135.008 162.86C135.699 162.86 136.283 162.995 136.759 163.266C137.235 163.537 137.589 163.919 137.823 164.414L136.885 165.03C136.726 164.619 136.469 164.321 136.115 164.134C135.76 163.938 135.391 163.84 135.008 163.84C134.673 163.84 134.383 163.887 134.141 163.98C133.907 164.073 133.725 164.204 133.595 164.372C133.473 164.531 133.413 164.713 133.413 164.918C133.413 165.123 133.483 165.315 133.623 165.492C133.763 165.66 134.024 165.781 134.407 165.856L136.157 166.22C136.81 166.351 137.267 166.565 137.529 166.864C137.79 167.163 137.921 167.527 137.921 167.956C137.921 168.395 137.804 168.782 137.571 169.118C137.337 169.445 137.011 169.697 136.591 169.874C136.171 170.051 135.685 170.14 135.135 170.14ZM146.147 161.012V168.068C146.147 168.413 146.245 168.67 146.441 168.838C146.637 169.006 146.889 169.09 147.197 169.09C147.468 169.09 147.701 169.043 147.897 168.95C148.093 168.857 148.271 168.731 148.429 168.572L148.821 169.51C148.607 169.706 148.35 169.86 148.051 169.972C147.762 170.084 147.426 170.14 147.043 170.14C146.689 170.14 146.357 170.079 146.049 169.958C145.741 169.827 145.494 169.627 145.307 169.356C145.13 169.076 145.037 168.712 145.027 168.264V161.32L146.147 161.012ZM148.695 163V163.966H143.627V163H148.695ZM153.259 162.86C153.921 162.86 154.505 163.005 155.009 163.294C155.522 163.583 155.923 164.003 156.213 164.554C156.502 165.095 156.647 165.744 156.647 166.5C156.647 167.256 156.502 167.909 156.213 168.46C155.923 169.001 155.522 169.417 155.009 169.706C154.505 169.995 153.921 170.14 153.259 170.14C152.605 170.14 152.022 169.995 151.509 169.706C150.995 169.417 150.594 169.001 150.305 168.46C150.015 167.909 149.871 167.256 149.871 166.5C149.871 165.744 150.015 165.095 150.305 164.554C150.594 164.003 150.995 163.583 151.509 163.294C152.022 163.005 152.605 162.86 153.259 162.86ZM153.259 163.826C152.783 163.826 152.377 163.933 152.041 164.148C151.705 164.363 151.443 164.671 151.257 165.072C151.079 165.464 150.991 165.94 150.991 166.5C150.991 167.051 151.079 167.527 151.257 167.928C151.443 168.329 151.705 168.637 152.041 168.852C152.377 169.067 152.783 169.174 153.259 169.174C153.735 169.174 154.141 169.067 154.477 168.852C154.813 168.637 155.069 168.329 155.247 167.928C155.433 167.527 155.527 167.051 155.527 166.5C155.527 165.94 155.433 165.464 155.247 165.072C155.069 164.671 154.813 164.363 154.477 164.148C154.141 163.933 153.735 163.826 153.259 163.826ZM166.047 170.14C165.365 170.14 164.735 169.995 164.157 169.706C163.587 169.417 163.149 169.006 162.841 168.474L163.793 167.788C163.998 168.217 164.297 168.553 164.689 168.796C165.09 169.039 165.571 169.16 166.131 169.16C166.625 169.16 167.013 169.067 167.293 168.88C167.573 168.684 167.713 168.432 167.713 168.124C167.713 167.928 167.647 167.751 167.517 167.592C167.395 167.424 167.157 167.303 166.803 167.228L165.123 166.878C164.441 166.738 163.951 166.505 163.653 166.178C163.363 165.851 163.219 165.445 163.219 164.96C163.219 164.577 163.326 164.227 163.541 163.91C163.765 163.593 164.077 163.341 164.479 163.154C164.889 162.958 165.37 162.86 165.921 162.86C166.611 162.86 167.195 162.995 167.671 163.266C168.147 163.537 168.501 163.919 168.735 164.414L167.797 165.03C167.638 164.619 167.381 164.321 167.027 164.134C166.672 163.938 166.303 163.84 165.921 163.84C165.585 163.84 165.295 163.887 165.053 163.98C164.819 164.073 164.637 164.204 164.507 164.372C164.385 164.531 164.325 164.713 164.325 164.918C164.325 165.123 164.395 165.315 164.535 165.492C164.675 165.66 164.936 165.781 165.319 165.856L167.069 166.22C167.722 166.351 168.179 166.565 168.441 166.864C168.702 167.163 168.833 167.527 168.833 167.956C168.833 168.395 168.716 168.782 168.483 169.118C168.249 169.445 167.923 169.697 167.503 169.874C167.083 170.051 166.597 170.14 166.047 170.14ZM173.835 170.14C173.173 170.14 172.58 169.995 172.057 169.706C171.544 169.417 171.143 169.001 170.853 168.46C170.564 167.909 170.419 167.256 170.419 166.5C170.419 165.744 170.564 165.095 170.853 164.554C171.143 164.003 171.539 163.583 172.043 163.294C172.547 163.005 173.121 162.86 173.765 162.86C174.419 162.86 174.974 163 175.431 163.28C175.898 163.56 176.253 163.943 176.495 164.428C176.738 164.904 176.859 165.441 176.859 166.038C176.859 166.197 176.855 166.341 176.845 166.472C176.836 166.603 176.822 166.719 176.803 166.822H171.147V165.828H176.313L175.739 165.94C175.739 165.268 175.553 164.75 175.179 164.386C174.815 164.022 174.335 163.84 173.737 163.84C173.28 163.84 172.883 163.947 172.547 164.162C172.221 164.367 171.964 164.671 171.777 165.072C171.6 165.464 171.511 165.94 171.511 166.5C171.511 167.051 171.605 167.527 171.791 167.928C171.978 168.329 172.239 168.637 172.575 168.852C172.921 169.057 173.331 169.16 173.807 169.16C174.321 169.16 174.736 169.062 175.053 168.866C175.38 168.67 175.641 168.404 175.837 168.068L176.719 168.586C176.542 168.903 176.313 169.179 176.033 169.412C175.763 169.645 175.441 169.827 175.067 169.958C174.703 170.079 174.293 170.14 173.835 170.14ZM181.916 170.14C181.253 170.14 180.66 169.995 180.138 169.706C179.624 169.417 179.223 169.001 178.934 168.46C178.644 167.909 178.5 167.256 178.5 166.5C178.5 165.744 178.644 165.095 178.934 164.554C179.223 164.003 179.62 163.583 180.124 163.294C180.628 163.005 181.202 162.86 181.846 162.86C182.499 162.86 183.054 163 183.512 163.28C183.978 163.56 184.333 163.943 184.576 164.428C184.818 164.904 184.94 165.441 184.94 166.038C184.94 166.197 184.935 166.341 184.926 166.472C184.916 166.603 184.902 166.719 184.883 166.822H179.228V165.828H184.394L183.82 165.94C183.82 165.268 183.633 164.75 183.26 164.386C182.896 164.022 182.415 163.84 181.818 163.84C181.36 163.84 180.964 163.947 180.628 164.162C180.301 164.367 180.044 164.671 179.858 165.072C179.68 165.464 179.592 165.94 179.592 166.5C179.592 167.051 179.685 167.527 179.872 167.928C180.058 168.329 180.32 168.637 180.656 168.852C181.001 169.057 181.412 169.16 181.888 169.16C182.401 169.16 182.816 169.062 183.134 168.866C183.46 168.67 183.722 168.404 183.918 168.068L184.8 168.586C184.622 168.903 184.394 169.179 184.114 169.412C183.843 169.645 183.521 169.827 183.148 169.958C182.784 170.079 182.373 170.14 181.916 170.14ZM195.929 165.478C195.929 164.955 195.789 164.554 195.509 164.274C195.229 163.985 194.832 163.84 194.319 163.84C193.834 163.84 193.423 163.947 193.087 164.162C192.751 164.367 192.504 164.703 192.345 165.17L191.435 164.61C191.622 164.087 191.967 163.667 192.471 163.35C192.975 163.023 193.6 162.86 194.347 162.86C194.851 162.86 195.308 162.949 195.719 163.126C196.13 163.294 196.452 163.555 196.685 163.91C196.928 164.255 197.049 164.703 197.049 165.254V168.642C197.049 168.978 197.226 169.146 197.581 169.146C197.758 169.146 197.931 169.123 198.099 169.076L198.043 169.958C197.856 170.051 197.614 170.098 197.315 170.098C197.044 170.098 196.802 170.047 196.587 169.944C196.372 169.841 196.204 169.687 196.083 169.482C195.962 169.267 195.901 169.001 195.901 168.684V168.544L196.181 168.586C196.069 168.95 195.878 169.249 195.607 169.482C195.336 169.706 195.033 169.874 194.697 169.986C194.361 170.089 194.03 170.14 193.703 170.14C193.292 170.14 192.91 170.07 192.555 169.93C192.2 169.79 191.916 169.58 191.701 169.3C191.496 169.011 191.393 168.656 191.393 168.236C191.393 167.713 191.566 167.284 191.911 166.948C192.266 166.603 192.756 166.369 193.381 166.248L196.153 165.702V166.626L193.899 167.088C193.442 167.181 193.101 167.312 192.877 167.48C192.653 167.648 192.541 167.881 192.541 168.18C192.541 168.469 192.653 168.707 192.877 168.894C193.11 169.071 193.437 169.16 193.857 169.16C194.128 169.16 194.384 169.127 194.627 169.062C194.879 168.987 195.103 168.88 195.299 168.74C195.495 168.591 195.649 168.409 195.761 168.194C195.873 167.97 195.929 167.709 195.929 167.41V165.478ZM205.278 159.78V168.222C205.278 168.577 205.343 168.824 205.474 168.964C205.605 169.095 205.815 169.16 206.104 169.16C206.291 169.16 206.445 169.146 206.566 169.118C206.687 169.09 206.851 169.039 207.056 168.964L206.874 169.944C206.725 170.009 206.561 170.056 206.384 170.084C206.207 170.121 206.025 170.14 205.838 170.14C205.269 170.14 204.844 169.986 204.564 169.678C204.293 169.37 204.158 168.899 204.158 168.264V159.78H205.278ZM209.053 161.656C208.801 161.656 208.596 161.581 208.437 161.432C208.288 161.273 208.213 161.068 208.213 160.816C208.213 160.564 208.288 160.363 208.437 160.214C208.596 160.055 208.801 159.976 209.053 159.976C209.305 159.976 209.506 160.055 209.655 160.214C209.814 160.363 209.893 160.564 209.893 160.816C209.893 161.068 209.814 161.273 209.655 161.432C209.506 161.581 209.305 161.656 209.053 161.656ZM209.613 163V170H208.493V163H209.613ZM214.732 170.14C214.051 170.14 213.421 169.995 212.842 169.706C212.273 169.417 211.834 169.006 211.526 168.474L212.478 167.788C212.683 168.217 212.982 168.553 213.374 168.796C213.775 169.039 214.256 169.16 214.816 169.16C215.311 169.16 215.698 169.067 215.978 168.88C216.258 168.684 216.398 168.432 216.398 168.124C216.398 167.928 216.333 167.751 216.202 167.592C216.081 167.424 215.843 167.303 215.488 167.228L213.808 166.878C213.127 166.738 212.637 166.505 212.338 166.178C212.049 165.851 211.904 165.445 211.904 164.96C211.904 164.577 212.011 164.227 212.226 163.91C212.45 163.593 212.763 163.341 213.164 163.154C213.575 162.958 214.055 162.86 214.606 162.86C215.297 162.86 215.88 162.995 216.356 163.266C216.832 163.537 217.187 163.919 217.42 164.414L216.482 165.03C216.323 164.619 216.067 164.321 215.712 164.134C215.357 163.938 214.989 163.84 214.606 163.84C214.27 163.84 213.981 163.887 213.738 163.98C213.505 164.073 213.323 164.204 213.192 164.372C213.071 164.531 213.01 164.713 213.01 164.918C213.01 165.123 213.08 165.315 213.22 165.492C213.36 165.66 213.621 165.781 214.004 165.856L215.754 166.22C216.407 166.351 216.865 166.565 217.126 166.864C217.387 167.163 217.518 167.527 217.518 167.956C217.518 168.395 217.401 168.782 217.168 169.118C216.935 169.445 216.608 169.697 216.188 169.874C215.768 170.051 215.283 170.14 214.732 170.14ZM221.247 161.012V168.068C221.247 168.413 221.345 168.67 221.541 168.838C221.737 169.006 221.989 169.09 222.297 169.09C222.568 169.09 222.801 169.043 222.997 168.95C223.193 168.857 223.37 168.731 223.529 168.572L223.921 169.51C223.706 169.706 223.45 169.86 223.151 169.972C222.862 170.084 222.526 170.14 222.143 170.14C221.788 170.14 221.457 170.079 221.149 169.958C220.841 169.827 220.594 169.627 220.407 169.356C220.23 169.076 220.136 168.712 220.127 168.264V161.32L221.247 161.012ZM223.795 163V163.966H218.727V163H223.795ZM233.13 162.86C233.792 162.86 234.376 163.005 234.88 163.294C235.393 163.583 235.794 164.003 236.084 164.554C236.373 165.095 236.518 165.744 236.518 166.5C236.518 167.256 236.373 167.909 236.084 168.46C235.794 169.001 235.393 169.417 234.88 169.706C234.376 169.995 233.792 170.14 233.13 170.14C232.476 170.14 231.893 169.995 231.38 169.706C230.866 169.417 230.465 169.001 230.176 168.46C229.886 167.909 229.742 167.256 229.742 166.5C229.742 165.744 229.886 165.095 230.176 164.554C230.465 164.003 230.866 163.583 231.38 163.294C231.893 163.005 232.476 162.86 233.13 162.86ZM233.13 163.826C232.654 163.826 232.248 163.933 231.912 164.148C231.576 164.363 231.314 164.671 231.128 165.072C230.95 165.464 230.862 165.94 230.862 166.5C230.862 167.051 230.95 167.527 231.128 167.928C231.314 168.329 231.576 168.637 231.912 168.852C232.248 169.067 232.654 169.174 233.13 169.174C233.606 169.174 234.012 169.067 234.348 168.852C234.684 168.637 234.94 168.329 235.118 167.928C235.304 167.527 235.398 167.051 235.398 166.5C235.398 165.94 235.304 165.464 235.118 165.072C234.94 164.671 234.684 164.363 234.348 164.148C234.012 163.933 233.606 163.826 233.13 163.826ZM241.345 159.71C241.588 159.71 241.817 159.738 242.031 159.794C242.246 159.85 242.414 159.929 242.535 160.032L242.241 160.942C242.129 160.867 242.008 160.816 241.877 160.788C241.747 160.751 241.602 160.732 241.443 160.732C241.042 160.732 240.729 160.83 240.505 161.026C240.281 161.213 240.169 161.516 240.169 161.936V163V163.364V170H239.049V161.824C239.049 161.516 239.096 161.231 239.189 160.97C239.283 160.709 239.423 160.485 239.609 160.298C239.805 160.111 240.048 159.967 240.337 159.864C240.627 159.761 240.963 159.71 241.345 159.71ZM242.507 163V163.966H237.649V163H242.507ZM248.21 170V163H249.19L249.26 164.092C249.512 163.663 249.839 163.35 250.24 163.154C250.651 162.958 251.071 162.86 251.5 162.86C251.995 162.86 252.462 162.972 252.9 163.196C253.339 163.42 253.675 163.765 253.908 164.232C254.058 163.915 254.268 163.658 254.538 163.462C254.809 163.257 255.103 163.107 255.42 163.014C255.747 162.911 256.055 162.86 256.344 162.86C256.792 162.86 257.217 162.953 257.618 163.14C258.029 163.327 258.365 163.616 258.626 164.008C258.888 164.4 259.018 164.904 259.018 165.52V170H257.898V165.632C257.898 164.997 257.74 164.54 257.422 164.26C257.105 163.98 256.713 163.84 256.246 163.84C255.882 163.84 255.542 163.929 255.224 164.106C254.907 164.283 254.65 164.545 254.454 164.89C254.268 165.235 254.174 165.66 254.174 166.164V170H253.054V165.632C253.054 164.997 252.896 164.54 252.578 164.26C252.261 163.98 251.869 163.84 251.402 163.84C251.094 163.84 250.777 163.924 250.45 164.092C250.133 164.251 249.867 164.507 249.652 164.862C249.438 165.217 249.33 165.683 249.33 166.262V170H248.21ZM265.642 165.478C265.642 164.955 265.502 164.554 265.222 164.274C264.942 163.985 264.545 163.84 264.032 163.84C263.547 163.84 263.136 163.947 262.8 164.162C262.464 164.367 262.217 164.703 262.058 165.17L261.148 164.61C261.335 164.087 261.68 163.667 262.184 163.35C262.688 163.023 263.313 162.86 264.06 162.86C264.564 162.86 265.021 162.949 265.432 163.126C265.843 163.294 266.165 163.555 266.398 163.91C266.641 164.255 266.762 164.703 266.762 165.254V168.642C266.762 168.978 266.939 169.146 267.294 169.146C267.471 169.146 267.644 169.123 267.812 169.076L267.756 169.958C267.569 170.051 267.327 170.098 267.028 170.098C266.757 170.098 266.515 170.047 266.3 169.944C266.085 169.841 265.917 169.687 265.796 169.482C265.675 169.267 265.614 169.001 265.614 168.684V168.544L265.894 168.586C265.782 168.95 265.591 169.249 265.32 169.482C265.049 169.706 264.746 169.874 264.41 169.986C264.074 170.089 263.743 170.14 263.416 170.14C263.005 170.14 262.623 170.07 262.268 169.93C261.913 169.79 261.629 169.58 261.414 169.3C261.209 169.011 261.106 168.656 261.106 168.236C261.106 167.713 261.279 167.284 261.624 166.948C261.979 166.603 262.469 166.369 263.094 166.248L265.866 165.702V166.626L263.612 167.088C263.155 167.181 262.814 167.312 262.59 167.48C262.366 167.648 262.254 167.881 262.254 168.18C262.254 168.469 262.366 168.707 262.59 168.894C262.823 169.071 263.15 169.16 263.57 169.16C263.841 169.16 264.097 169.127 264.34 169.062C264.592 168.987 264.816 168.88 265.012 168.74C265.208 168.591 265.362 168.409 265.474 168.194C265.586 167.97 265.642 167.709 265.642 167.41V165.478ZM270.862 161.012V168.068C270.862 168.413 270.96 168.67 271.156 168.838C271.352 169.006 271.604 169.09 271.912 169.09C272.183 169.09 272.416 169.043 272.612 168.95C272.808 168.857 272.986 168.731 273.144 168.572L273.536 169.51C273.322 169.706 273.065 169.86 272.766 169.972C272.477 170.084 272.141 170.14 271.758 170.14C271.404 170.14 271.072 170.079 270.764 169.958C270.456 169.827 270.209 169.627 270.022 169.356C269.845 169.076 269.752 168.712 269.742 168.264V161.32L270.862 161.012ZM273.41 163V163.966H268.342V163H273.41ZM277.973 162.86C278.459 162.86 278.883 162.935 279.247 163.084C279.621 163.233 279.943 163.448 280.213 163.728C280.484 164.008 280.703 164.339 280.871 164.722L279.807 165.226C279.658 164.778 279.429 164.437 279.121 164.204C278.823 163.961 278.431 163.84 277.945 163.84C277.479 163.84 277.077 163.947 276.741 164.162C276.405 164.367 276.149 164.671 275.971 165.072C275.794 165.464 275.705 165.94 275.705 166.5C275.705 167.051 275.794 167.527 275.971 167.928C276.149 168.329 276.405 168.637 276.741 168.852C277.077 169.057 277.479 169.16 277.945 169.16C278.309 169.16 278.622 169.104 278.883 168.992C279.154 168.88 279.373 168.717 279.541 168.502C279.719 168.287 279.84 168.026 279.905 167.718L280.941 168.082C280.783 168.511 280.563 168.88 280.283 169.188C280.013 169.496 279.681 169.734 279.289 169.902C278.907 170.061 278.468 170.14 277.973 170.14C277.32 170.14 276.737 169.995 276.223 169.706C275.71 169.417 275.309 169.001 275.019 168.46C274.73 167.909 274.585 167.256 274.585 166.5C274.585 165.744 274.73 165.095 275.019 164.554C275.309 164.003 275.71 163.583 276.223 163.294C276.737 163.005 277.32 162.86 277.973 162.86ZM282.909 170V159.78H284.029V164.05C284.272 163.63 284.594 163.327 284.995 163.14C285.397 162.953 285.835 162.86 286.311 162.86C286.815 162.86 287.273 162.958 287.683 163.154C288.094 163.341 288.421 163.63 288.663 164.022C288.915 164.414 289.041 164.913 289.041 165.52V170H287.921V165.912C287.921 165.137 287.753 164.601 287.417 164.302C287.091 163.994 286.685 163.84 286.199 163.84C285.863 163.84 285.527 163.919 285.191 164.078C284.855 164.237 284.575 164.498 284.351 164.862C284.137 165.217 284.029 165.693 284.029 166.29V170H282.909ZM292.137 161.656C291.885 161.656 291.68 161.581 291.521 161.432C291.372 161.273 291.297 161.068 291.297 160.816C291.297 160.564 291.372 160.363 291.521 160.214C291.68 160.055 291.885 159.976 292.137 159.976C292.389 159.976 292.59 160.055 292.739 160.214C292.898 160.363 292.977 160.564 292.977 160.816C292.977 161.068 292.898 161.273 292.739 161.432C292.59 161.581 292.389 161.656 292.137 161.656ZM292.697 163V170H291.577V163H292.697ZM295.296 170V163H296.276L296.374 164.568L296.192 164.414C296.341 164.041 296.542 163.742 296.794 163.518C297.046 163.285 297.335 163.117 297.662 163.014C297.998 162.911 298.343 162.86 298.698 162.86C299.202 162.86 299.659 162.958 300.07 163.154C300.481 163.341 300.807 163.63 301.05 164.022C301.302 164.414 301.428 164.913 301.428 165.52V170H300.308V165.912C300.308 165.137 300.14 164.601 299.804 164.302C299.477 163.994 299.071 163.84 298.586 163.84C298.25 163.84 297.914 163.919 297.578 164.078C297.242 164.237 296.962 164.493 296.738 164.848C296.523 165.203 296.416 165.679 296.416 166.276V170H295.296ZM309.858 161.712L310.11 162.706C310.101 162.706 310.087 162.706 310.068 162.706C310.049 162.706 310.031 162.706 310.012 162.706C309.555 162.706 309.2 162.799 308.948 162.986C308.705 163.163 308.584 163.453 308.584 163.854L307.898 163.504C307.898 163.14 307.982 162.823 308.15 162.552C308.318 162.281 308.547 162.076 308.836 161.936C309.125 161.787 309.443 161.712 309.788 161.712C309.797 161.712 309.807 161.712 309.816 161.712C309.835 161.712 309.849 161.712 309.858 161.712ZM307.73 169.104C308.393 169.104 308.911 169.258 309.284 169.566C309.657 169.865 309.844 170.266 309.844 170.77C309.844 171.227 309.69 171.624 309.382 171.96C309.083 172.296 308.677 172.553 308.164 172.73C307.66 172.917 307.091 173.01 306.456 173.01C305.355 173.01 304.529 172.823 303.978 172.45C303.437 172.077 303.166 171.629 303.166 171.106C303.166 170.733 303.287 170.397 303.53 170.098C303.782 169.809 304.202 169.645 304.79 169.608L304.692 169.818C304.375 169.734 304.104 169.594 303.88 169.398C303.665 169.193 303.558 168.899 303.558 168.516C303.558 168.133 303.698 167.807 303.978 167.536C304.267 167.256 304.692 167.083 305.252 167.018L305.994 167.396H305.854C305.397 167.443 305.07 167.559 304.874 167.746C304.687 167.923 304.594 168.119 304.594 168.334C304.594 168.595 304.687 168.791 304.874 168.922C305.07 169.043 305.341 169.104 305.686 169.104H307.73ZM306.442 172.072C306.983 172.072 307.427 172.016 307.772 171.904C308.127 171.792 308.388 171.647 308.556 171.47C308.724 171.293 308.808 171.101 308.808 170.896C308.808 170.644 308.705 170.443 308.5 170.294C308.304 170.145 307.945 170.07 307.422 170.07H305.266C304.967 170.07 304.715 170.145 304.51 170.294C304.305 170.453 304.202 170.667 304.202 170.938C304.202 171.283 304.398 171.559 304.79 171.764C305.191 171.969 305.742 172.072 306.442 172.072ZM306.344 162.86C306.904 162.86 307.399 162.963 307.828 163.168C308.267 163.364 308.607 163.639 308.85 163.994C309.093 164.349 309.214 164.759 309.214 165.226C309.214 165.683 309.093 166.094 308.85 166.458C308.607 166.813 308.267 167.093 307.828 167.298C307.399 167.494 306.904 167.592 306.344 167.592C305.42 167.592 304.711 167.373 304.216 166.934C303.721 166.486 303.474 165.917 303.474 165.226C303.474 164.759 303.595 164.349 303.838 163.994C304.09 163.639 304.431 163.364 304.86 163.168C305.289 162.963 305.784 162.86 306.344 162.86ZM306.344 163.77C305.859 163.77 305.453 163.905 305.126 164.176C304.799 164.437 304.636 164.787 304.636 165.226C304.636 165.655 304.799 166.005 305.126 166.276C305.453 166.547 305.859 166.682 306.344 166.682C306.829 166.682 307.235 166.547 307.562 166.276C307.889 166.005 308.052 165.655 308.052 165.226C308.052 164.787 307.889 164.437 307.562 164.176C307.235 163.905 306.829 163.77 306.344 163.77ZM319.113 170.14C318.45 170.14 317.857 169.995 317.335 169.706C316.821 169.417 316.42 169.001 316.131 168.46C315.841 167.909 315.697 167.256 315.697 166.5C315.697 165.744 315.841 165.095 316.131 164.554C316.42 164.003 316.817 163.583 317.321 163.294C317.825 163.005 318.399 162.86 319.043 162.86C319.696 162.86 320.251 163 320.709 163.28C321.175 163.56 321.53 163.943 321.773 164.428C322.015 164.904 322.137 165.441 322.137 166.038C322.137 166.197 322.132 166.341 322.123 166.472C322.113 166.603 322.099 166.719 322.081 166.822H316.425V165.828H321.591L321.017 165.94C321.017 165.268 320.83 164.75 320.457 164.386C320.093 164.022 319.612 163.84 319.015 163.84C318.557 163.84 318.161 163.947 317.825 164.162C317.498 164.367 317.241 164.671 317.055 165.072C316.877 165.464 316.789 165.94 316.789 166.5C316.789 167.051 316.882 167.527 317.069 167.928C317.255 168.329 317.517 168.637 317.853 168.852C318.198 169.057 318.609 169.16 319.085 169.16C319.598 169.16 320.013 169.062 320.331 168.866C320.657 168.67 320.919 168.404 321.115 168.068L321.997 168.586C321.819 168.903 321.591 169.179 321.311 169.412C321.04 169.645 320.718 169.827 320.345 169.958C319.981 170.079 319.57 170.14 319.113 170.14ZM328.709 163H329.885L326.973 170H325.853L322.941 163H324.215L326.427 168.866L328.709 163ZM334.275 170.14C333.612 170.14 333.02 169.995 332.497 169.706C331.984 169.417 331.582 169.001 331.293 168.46C331.004 167.909 330.859 167.256 330.859 166.5C330.859 165.744 331.004 165.095 331.293 164.554C331.582 164.003 331.979 163.583 332.483 163.294C332.987 163.005 333.561 162.86 334.205 162.86C334.858 162.86 335.414 163 335.871 163.28C336.338 163.56 336.692 163.943 336.935 164.428C337.178 164.904 337.299 165.441 337.299 166.038C337.299 166.197 337.294 166.341 337.285 166.472C337.276 166.603 337.262 166.719 337.243 166.822H331.587V165.828H336.753L336.179 165.94C336.179 165.268 335.992 164.75 335.619 164.386C335.255 164.022 334.774 163.84 334.177 163.84C333.72 163.84 333.323 163.947 332.987 164.162C332.66 164.367 332.404 164.671 332.217 165.072C332.04 165.464 331.951 165.94 331.951 166.5C331.951 167.051 332.044 167.527 332.231 167.928C332.418 168.329 332.679 168.637 333.015 168.852C333.36 169.057 333.771 169.16 334.247 169.16C334.76 169.16 335.176 169.062 335.493 168.866C335.82 168.67 336.081 168.404 336.277 168.068L337.159 168.586C336.982 168.903 336.753 169.179 336.473 169.412C336.202 169.645 335.88 169.827 335.507 169.958C335.143 170.079 334.732 170.14 334.275 170.14ZM339.429 170V163H340.409L340.507 164.568L340.325 164.414C340.474 164.041 340.675 163.742 340.927 163.518C341.179 163.285 341.468 163.117 341.795 163.014C342.131 162.911 342.476 162.86 342.831 162.86C343.335 162.86 343.792 162.958 344.203 163.154C344.614 163.341 344.94 163.63 345.183 164.022C345.435 164.414 345.561 164.913 345.561 165.52V170H344.441V165.912C344.441 165.137 344.273 164.601 343.937 164.302C343.61 163.994 343.204 163.84 342.719 163.84C342.383 163.84 342.047 163.919 341.711 164.078C341.375 164.237 341.095 164.493 340.871 164.848C340.656 165.203 340.549 165.679 340.549 166.276V170H339.429ZM349.653 161.012V168.068C349.653 168.413 349.751 168.67 349.947 168.838C350.143 169.006 350.395 169.09 350.703 169.09C350.974 169.09 351.207 169.043 351.403 168.95C351.599 168.857 351.777 168.731 351.935 168.572L352.327 169.51C352.113 169.706 351.856 169.86 351.557 169.972C351.268 170.084 350.932 170.14 350.549 170.14C350.195 170.14 349.863 170.079 349.555 169.958C349.247 169.827 349 169.627 348.813 169.356C348.636 169.076 348.543 168.712 348.533 168.264V161.32L349.653 161.012ZM352.201 163V163.966H347.133V163H352.201ZM356.386 170.14C355.705 170.14 355.075 169.995 354.496 169.706C353.927 169.417 353.488 169.006 353.18 168.474L354.132 167.788C354.338 168.217 354.636 168.553 355.028 168.796C355.43 169.039 355.91 169.16 356.47 169.16C356.965 169.16 357.352 169.067 357.632 168.88C357.912 168.684 358.052 168.432 358.052 168.124C358.052 167.928 357.987 167.751 357.856 167.592C357.735 167.424 357.497 167.303 357.142 167.228L355.462 166.878C354.781 166.738 354.291 166.505 353.992 166.178C353.703 165.851 353.558 165.445 353.558 164.96C353.558 164.577 353.666 164.227 353.88 163.91C354.104 163.593 354.417 163.341 354.818 163.154C355.229 162.958 355.71 162.86 356.26 162.86C356.951 162.86 357.534 162.995 358.01 163.266C358.486 163.537 358.841 163.919 359.074 164.414L358.136 165.03C357.978 164.619 357.721 164.321 357.366 164.134C357.012 163.938 356.643 163.84 356.26 163.84C355.924 163.84 355.635 163.887 355.392 163.98C355.159 164.073 354.977 164.204 354.846 164.372C354.725 164.531 354.664 164.713 354.664 164.918C354.664 165.123 354.734 165.315 354.874 165.492C355.014 165.66 355.276 165.781 355.658 165.856L357.408 166.22C358.062 166.351 358.519 166.565 358.78 166.864C359.042 167.163 359.172 167.527 359.172 167.956C359.172 168.395 359.056 168.782 358.822 169.118C358.589 169.445 358.262 169.697 357.842 169.874C357.422 170.051 356.937 170.14 356.386 170.14Z" fill="#78787E"/>
<defs>
<clipPath id="clip0_2482_39858">
<rect width="294" height="104" fill="white" transform="translate(53)"/>
</clipPath>
</defs>
</svg>
