<svg width="300" height="70" viewBox="0 0 300 70" fill="none" xmlns="http://www.w3.org/2000/svg">
<g clip-path="url(#clip0_477_15173)">
<path d="M16.5693 28.7305H285.568V36.9616H16.5693V28.7305Z" fill="#DFF5FF"/>
<path d="M41.5215 69.004V7.37539C41.5215 3.34298 38.4246 0.0439453 34.6395 0.0439453H7.50706C3.72191 0.0439453 0.625 3.34298 0.625 7.37539V69.004" fill="#64A8F8"/>
<path d="M84.4971 69.004V7.37539C84.4971 3.34298 81.4 0.0439453 77.6149 0.0439453H50.4826C46.6975 0.0439453 43.6006 3.34298 43.6006 7.37539V69.004" fill="#64A8F8"/>
<path d="M127.473 69.004V7.37539C127.473 3.34298 124.376 0.0439453 120.591 0.0439453H93.4582C89.6731 0.0439453 86.5762 3.34298 86.5762 7.37539V69.004" fill="#64A8F8"/>
<path d="M170.448 69.004V7.37539C170.448 3.34298 167.351 0.0439453 163.566 0.0439453H136.434C132.649 0.0439453 129.552 3.34298 129.552 7.37539V69.004" fill="#64A8F8"/>
<path d="M213.424 69.004V7.37539C213.424 3.34316 210.327 0.0439453 206.542 0.0439453H179.409C175.624 0.0439453 172.527 3.34298 172.527 7.37539V69.004" fill="#64A8F8"/>
<path d="M299.375 69.004V7.37539C299.375 3.34316 296.278 0.0439453 292.493 0.0439453H265.361C261.575 0.0439453 258.479 3.34298 258.479 7.37539V69.004" fill="#64A8F8"/>
<path d="M21.0729 35.6293C22.5835 35.6293 23.808 34.4048 23.808 32.8942C23.808 31.3837 22.5835 30.1592 21.0729 30.1592C19.5624 30.1592 18.3379 31.3837 18.3379 32.8942C18.3379 34.4048 19.5624 35.6293 21.0729 35.6293Z" fill="#DFF5FF"/>
<path d="M64.0485 35.6293C65.5591 35.6293 66.7836 34.4048 66.7836 32.8942C66.7836 31.3837 65.5591 30.1592 64.0485 30.1592C62.538 30.1592 61.3135 31.3837 61.3135 32.8942C61.3135 34.4048 62.538 35.6293 64.0485 35.6293Z" fill="#DFF5FF"/>
<path d="M107.024 35.6293C108.535 35.6293 109.759 34.4048 109.759 32.8942C109.759 31.3837 108.535 30.1592 107.024 30.1592C105.514 30.1592 104.289 31.3837 104.289 32.8942C104.289 34.4048 105.514 35.6293 107.024 35.6293Z" fill="#DFF5FF"/>
<path d="M150 35.6293C151.51 35.6293 152.735 34.4048 152.735 32.8942C152.735 31.3837 151.51 30.1592 150 30.1592C148.489 30.1592 147.265 31.3837 147.265 32.8942C147.265 34.4048 148.489 35.6293 150 35.6293Z" fill="#64A8F8"/>
<path d="M192.975 35.6293C194.486 35.6293 195.71 34.4048 195.71 32.8942C195.71 31.3837 194.486 30.1592 192.975 30.1592C191.465 30.1592 190.24 31.3837 190.24 32.8942C190.24 34.4048 191.465 35.6293 192.975 35.6293Z" fill="#DFF5FF"/>
<path d="M150 35.6293C151.51 35.6293 152.735 34.4048 152.735 32.8942C152.735 31.3837 151.51 30.1592 150 30.1592C148.489 30.1592 147.265 31.3837 147.265 32.8942C147.265 34.4048 148.489 35.6293 150 35.6293Z" fill="#DFF5FF"/>
<path d="M253.862 68.6601L272.439 23.6848C274.038 19.8139 272.484 15.4646 268.985 14.0196L243.908 3.66163C240.409 2.21662 236.239 4.2013 234.64 8.07216L209.528 68.6603" fill="white"/>
<path d="M209.529 69.2082C209.459 69.2082 209.388 69.1947 209.319 69.1664C209.039 69.0505 208.906 68.7296 209.022 68.45L234.134 7.86182C235.852 3.70239 240.331 1.59088 244.117 3.1545L269.195 13.5127C272.981 15.0768 274.664 19.7339 272.946 23.8939L254.369 68.8694C254.253 69.1494 253.933 69.2826 253.653 69.1667C253.373 69.0511 253.24 68.7305 253.356 68.4507L271.933 23.4752C273.42 19.8739 272.004 15.8594 268.776 14.5262L243.699 4.16804C240.471 2.83469 236.635 4.67993 235.147 8.28105L210.035 68.8698C209.948 69.0807 209.744 69.2082 209.529 69.2082Z" fill="#222433"/>
<path d="M245.96 41.4111C246.559 39.961 245.913 38.3179 244.517 37.7412C243.12 37.1645 241.503 37.8725 240.904 39.3226C240.305 40.7727 240.951 42.4158 242.347 42.9925C243.744 43.5692 245.361 42.8612 245.96 41.4111Z" fill="#DFF5FF"/>
<path d="M278.926 35.6293C280.437 35.6293 281.662 34.4048 281.662 32.8942C281.662 31.3837 280.437 30.1592 278.926 30.1592C277.416 30.1592 276.191 31.3837 276.191 32.8942C276.191 34.4048 277.416 35.6293 278.926 35.6293Z" fill="#DFF5FF"/>
</g>
<defs>
<clipPath id="clip0_477_15173">
<rect width="298.75" height="69.2515" fill="white" transform="translate(0.625)"/>
</clipPath>
</defs>
</svg>
