<svg width="27" height="26" viewBox="0 0 27 26" fill="none" xmlns="http://www.w3.org/2000/svg">
<rect x="0.75" width="26" height="26" rx="2" fill="#A9E38D"/>
<g clip-path="url(#clip0_2195_38200)">
<path d="M17.9927 16.5756L13.75 20.8183L9.50734 16.5756C8.66823 15.7365 8.09679 14.6674 7.86529 13.5035C7.63378 12.3396 7.7526 11.1332 8.20673 10.0369C8.66086 8.94054 9.4299 8.00347 10.4166 7.34418C11.4033 6.6849 12.5633 6.33301 13.75 6.33301C14.9367 6.33301 16.0967 6.6849 17.0834 7.34418C18.0701 8.00347 18.8391 8.94054 19.2933 10.0369C19.7474 11.1332 19.8662 12.3396 19.6347 13.5035C19.4032 14.6674 18.8318 15.7365 17.9927 16.5756ZM13.75 13.6663C14.1036 13.6663 14.4428 13.5258 14.6928 13.2758C14.9429 13.0257 15.0833 12.6866 15.0833 12.333C15.0833 11.9793 14.9429 11.6402 14.6928 11.3901C14.4428 11.1401 14.1036 10.9996 13.75 10.9996C13.3964 10.9996 13.0572 11.1401 12.8072 11.3901C12.5571 11.6402 12.4167 11.9793 12.4167 12.333C12.4167 12.6866 12.5571 13.0257 12.8072 13.2758C13.0572 13.5258 13.3964 13.6663 13.75 13.6663Z" fill="white"/>
</g>
<defs>
<clipPath id="clip0_2195_38200">
<rect width="16" height="16" fill="white" transform="translate(5.75 5)"/>
</clipPath>
</defs>
</svg>
