<svg width="147" height="98" viewBox="0 0 147 98" fill="none" xmlns="http://www.w3.org/2000/svg">
<g clip-path="url(#clip0_4790_222785)">
<rect width="147" height="98.0005" rx="7.25928" fill="#6AAFAC"/>
<rect x="40.3799" width="106.62" height="98.0005" fill="white"/>
<rect x="55.3516" y="13.6094" width="76.6759" height="70.7781" fill="white"/>
<rect x="60.3428" y="74.9688" width="52.6296" height="3.62965" rx="1.81482" fill="#6AAFAC"/>
<rect x="116.147" y="74.9688" width="3.62963" height="3.62965" rx="1.81481" fill="#6AAFAC"/>
<rect x="122.954" y="74.9688" width="3.62963" height="3.62965" rx="1.81481" fill="#6AAFAC"/>
<rect x="6.80566" y="19.5078" width="26.3148" height="4.41001" rx="2.20501" fill="white"/>
<rect x="6.80566" y="29.0625" width="26.3148" height="4.41001" rx="2.20501" fill="white"/>
<rect x="6.80566" y="38.6172" width="26.3148" height="4.41001" rx="2.20501" fill="white"/>
<rect x="60.2695" y="24.2578" width="66.15" height="10.29" rx="0.735001" fill="#6AAFAC"/>
<rect x="60.2695" y="37.4844" width="49.98" height="10.29" rx="0.735001" fill="#6AAFAC"/>
<rect x="60.2695" y="50.7109" width="25.725" height="10.29" rx="0.735001" fill="#6AAFAC"/>
</g>
<rect x="0.367501" y="0.367501" width="146.265" height="97.2655" rx="6.89178" stroke="#DFDFDF" stroke-width="0.735001"/>
<defs>
<clipPath id="clip0_4790_222785">
<rect width="147" height="98.0005" rx="7.25928" fill="white"/>
</clipPath>
</defs>
</svg>
