<svg width="154" height="175" viewBox="0 0 154 175" fill="none" xmlns="http://www.w3.org/2000/svg">
<path d="M77 39L153 77L153 39L77 0.999993L77 39Z" fill="#E6EAEE"/>
<path d="M134 86L153 77L77 39L1.5 77L19.5 86L134 86Z" fill="#C5CCD4"/>
<path d="M134 86L134 86.7L134.157 86.7L134.3 86.6326L134 86ZM153 77L153.3 77.6326L153.7 77.443L153.7 77L153 77ZM1.5 77L0.800004 77L0.800004 77.4326L1.18695 77.6261L1.5 77ZM19.5 86L19.187 86.6261L19.3347 86.7L19.5 86.7L19.5 86ZM77 0.999993L77.3131 0.373895L76.999 0.216851L76.6853 0.374726L77 0.999993ZM1.5 39L1.18531 38.3747L0.800007 38.5686L0.800007 39L1.5 39ZM153 39L153.7 39L153.7 38.5674L153.313 38.3739L153 39ZM134.3 86.6326L153.3 77.6326L152.7 76.3674L133.7 85.3674L134.3 86.6326ZM153.313 76.3739L77.3131 38.3739L76.687 39.6261L152.687 77.6261L153.313 76.3739ZM76.6853 38.3747L1.1853 76.3747L1.8147 77.6253L77.3147 39.6253L76.6853 38.3747ZM1.18695 77.6261L19.187 86.6261L19.813 85.3739L1.81305 76.3739L1.18695 77.6261ZM77.7 39L77.7 0.999993L76.3 0.999993L76.3 39L77.7 39ZM76.6853 0.374726L1.18531 38.3747L1.8147 39.6253L77.3147 1.62526L76.6853 0.374726ZM0.800007 39L0.800004 77L2.2 77L2.2 39L0.800007 39ZM76.687 1.62609L152.687 39.6261L153.313 38.3739L77.3131 0.373895L76.687 1.62609ZM152.3 39L152.3 77L153.7 77L153.7 39L152.3 39ZM19.5 86.7L134 86.7L134 85.3L19.5 85.3L19.5 86.7Z" fill="#C5CCD4"/>
<path d="M77 88.5L133.5 116.5L133.5 78.5L77 50.5L77 88.5Z" fill="#E6EAEE"/>
<path d="M20.5 116.5L77 88.5L77 50.5L20.5 78.5L20.5 116.5Z" fill="white"/>
<path d="M133.5 116.5L77 88.5L20.5 116.5L39 126L115.5 126L133.5 116.5Z" fill="#C5CCD4"/>
<path d="M133.5 116.5L133.827 117.119L134.2 116.922L134.2 116.5L133.5 116.5ZM20.5 116.5L19.8 116.5L19.8 116.927L20.1802 117.123L20.5 116.5ZM39 126L38.6802 126.623L38.8308 126.7L39 126.7L39 126ZM115.5 126L115.5 126.7L115.673 126.7L115.827 126.619L115.5 126ZM77 50.5L77.3108 49.8728L77 49.7188L76.6892 49.8728L77 50.5ZM20.5 78.5L20.1892 77.8728L19.8 78.0656L19.8 78.5L20.5 78.5ZM133.5 78.5L134.2 78.5L134.2 78.0657L133.811 77.8728L133.5 78.5ZM133.811 115.873L77.3108 87.8728L76.6892 89.1272L133.189 117.127L133.811 115.873ZM76.6892 87.8728L20.1892 115.873L20.8108 117.127L77.3108 89.1272L76.6892 87.8728ZM20.1802 117.123L38.6802 126.623L39.3198 125.377L20.8198 115.877L20.1802 117.123ZM133.173 115.881L115.173 125.381L115.827 126.619L133.827 117.119L133.173 115.881ZM77.7 88.5L77.7 50.5L76.3 50.5L76.3 88.5L77.7 88.5ZM76.6892 49.8728L20.1892 77.8728L20.8108 79.1272L77.3108 51.1272L76.6892 49.8728ZM19.8 78.5L19.8 116.5L21.2 116.5L21.2 78.5L19.8 78.5ZM76.6892 51.1272L133.189 79.1272L133.811 77.8728L77.3108 49.8728L76.6892 51.1272ZM132.8 78.5L132.8 116.5L134.2 116.5L134.2 78.5L132.8 78.5ZM115.5 125.3L39 125.3L39 126.7L115.5 126.7L115.5 125.3Z" fill="#C5CCD4"/>
<path fill-rule="evenodd" clip-rule="evenodd" d="M77 97.5L39 116.5L39 154L77 154L77 97.5Z" fill="white"/>
<path d="M115 116.5L77 97.5L77 154L115 154L115 116.5Z" fill="#E6EAEE"/>
<path d="M115 116.5L115.7 116.5L115.7 116.067L115.313 115.874L115 116.5ZM77 97.5L77.3131 96.8739L77 96.7174L76.687 96.8739L77 97.5ZM39 116.5L38.687 115.874L38.3 116.067L38.3 116.5L39 116.5ZM39 154L38.3 154L38.3 154.7L39 154.7L39 154ZM115 154L115 154.7L115.7 154.7L115.7 154L115 154ZM115.313 115.874L77.3131 96.8739L76.687 98.1261L114.687 117.126L115.313 115.874ZM76.687 96.8739L38.687 115.874L39.3131 117.126L77.3131 98.1261L76.687 96.8739ZM38.3 116.5L38.3 154L39.7 154L39.7 116.5L38.3 116.5ZM115.7 154L115.7 116.5L114.3 116.5L114.3 154L115.7 154ZM39 154.7L77 154.7L77 153.3L39 153.3L39 154.7ZM77 154.7L115 154.7L115 153.3L77 153.3L77 154.7ZM76.3 97.5L76.3 154L77.7 154L77.7 97.5L76.3 97.5Z" fill="#C5CCD4"/>
<path d="M115 154L77 173.5L39 154L77 135L115 154Z" fill="#C5CCD4" stroke="#C5CCD4" stroke-width="1.4"/>
<path d="M82 8L149 41.5V70L82 36.5V8Z" fill="white"/>
<path d="M82 57L129 80.5V109L82 85.5V57Z" fill="white"/>
<path d="M72 8.25L6.5 41V69.5L72 35.5V8.25Z" fill="#E6EAEE"/>
<path d="M72 57.75L26 80.75V109.25L72 86.25V57.75Z" fill="#E6EAEE"/>
<path d="M72 104.5L43.5 119.042V146.542L72 132.5V104.5Z" fill="#E6EAEE"/>
<path d="M82 105L110.5 119.542V147.042L82 133V105Z" fill="white"/>
</svg>
