<svg width="465" height="283" viewBox="0 0 465 283" fill="none" xmlns="http://www.w3.org/2000/svg">
<path d="M0.799805 23.349L264.714 23.349L338.099 23.349L464.16 23.349" stroke="#EBEFFB" stroke-width="45.9259"/>
<rect opacity="0.5" width="45.9259" height="9.92568" transform="matrix(-4.37114e-08 1 1 4.37114e-08 0.799805 0.264282)" fill="#646FD4"/>
<path d="M0.799805 82.2749L203.056 82.2749H259.296L355.906 82.2749" stroke="#EBEFFB" stroke-width="45.9259"/>
<rect opacity="0.5" width="45.9259" height="9.84127" transform="matrix(-4.37114e-08 1 1 4.37114e-08 0.799805 59.3119)" fill="#646FD4"/>
<path d="M0.799805 141.323H133.925H170.942L234.53 141.323" stroke="#EBEFFB" stroke-width="45.9259"/>
<rect opacity="0.5" width="45.9259" height="9.84127" transform="matrix(-4.37114e-08 1 1 4.37114e-08 0.799805 118.359)" fill="#646FD4"/>
<path d="M0.799805 200.37H70.3985H89.7511H122.996" stroke="#EBEFFB" stroke-width="45.9259"/>
<rect opacity="0.5" width="45.9259" height="9.84127" transform="matrix(-4.37114e-08 1 1 4.37114e-08 0.799805 177.407)" fill="#646FD4"/>
<path d="M0.799805 259.418H36.2998H46.171H63.1278" stroke="#EBEFFB" stroke-width="45.9259"/>
<rect opacity="0.5" width="45.9259" height="9.81758" transform="matrix(-4.37114e-08 1 1 4.37114e-08 0.799805 236.455)" fill="#646FD4"/>
</svg>
