<svg width="32" height="31" viewBox="0 0 32 31" fill="none" xmlns="http://www.w3.org/2000/svg">
<path d="M31.0361 12.3316H29.8009V12.268H15.9994V18.402H24.6659C23.4016 21.9728 20.0041 24.536 15.9994 24.536C10.9181 24.536 6.79837 20.4163 6.79837 15.335C6.79837 10.2537 10.9181 6.134 15.9994 6.134C18.3449 6.134 20.4787 7.01883 22.1035 8.46415L26.441 4.12665C23.7021 1.57414 20.0386 0 15.9994 0C7.53061 0 0.664368 6.86625 0.664368 15.335C0.664368 23.8038 7.53061 30.67 15.9994 30.67C24.4681 30.67 31.3344 23.8038 31.3344 15.335C31.3344 14.3068 31.2286 13.3031 31.0361 12.3316Z" fill="#FFC107"/>
<path d="M2.44095 8.19732L7.47926 11.8923C8.84254 8.51706 12.1442 6.134 16.0078 6.134C18.3533 6.134 20.4872 7.01883 22.1119 8.46415L26.4494 4.12665C23.7106 1.57414 20.0471 0 16.0078 0C10.1177 0 5.00956 3.32539 2.44095 8.19732Z" fill="#FF3D00"/>
<path d="M15.9968 30.6696C19.9578 30.6696 23.5569 29.1537 26.2781 26.6886L21.5319 22.6724C19.9923 23.8386 18.0785 24.5356 15.9968 24.5356C12.0081 24.5356 8.6214 21.9923 7.34553 18.443L2.34479 22.2959C4.88273 27.2622 10.0368 30.6696 15.9968 30.6696Z" fill="#4CAF50"/>
<path d="M31.0373 12.331H29.8021V12.2674H16.0006V18.4014H24.6672C24.0599 20.1166 22.9566 21.5957 21.5335 22.673C21.5342 22.6722 21.535 22.6722 21.5358 22.6714L26.282 26.6877C25.9461 26.9928 31.3356 23.0019 31.3356 15.3344C31.3356 14.3062 31.2298 13.3025 31.0373 12.331Z" fill="#1976D2"/>
</svg>
