<svg width="298" height="80" viewBox="0 0 298 80" fill="none" xmlns="http://www.w3.org/2000/svg">
<g clip-path="url(#clip0_57_14592)">
<path d="M2.53342 0.111328H77.2829C78.5648 0.111328 79.6044 1.15085 79.6044 2.43283V2.98199C79.6044 4.26397 78.5648 5.3035 77.2829 5.3035H2.53342C1.25144 5.3035 0.211914 4.26397 0.211914 2.98199V2.43283C0.211914 1.15085 1.25144 0.111328 2.53342 0.111328V0.111328Z" fill="#002F94"/>
<path d="M149.622 8.80176C158.034 8.80176 164.858 15.6256 164.858 24.0376V64.4554C164.858 66.4527 165.397 68.3274 166.351 69.9295C168.226 73.1196 171.695 75.2605 175.67 75.2605C181.635 75.2605 186.475 70.4271 186.475 64.4554V39.7099C186.475 37.0514 187.552 34.6517 189.29 32.9066C191.035 31.1682 193.442 30.0911 196.093 30.0911H225.57V23.7994C225.57 15.5172 218.855 8.80236 210.573 8.80236H149.622V8.80176Z" fill="url(#paint0_linear_57_14592)"/>
<path d="M175.669 72.7285C172.747 72.7285 170.012 71.1647 168.533 68.6474C167.782 67.3866 167.389 65.9422 167.389 64.456V24.0381C167.389 19.0648 165.334 14.5618 162.03 11.3335H210.571C217.445 11.3335 223.036 16.9257 223.036 23.7993V27.5592H196.092C192.853 27.5592 189.802 28.8212 187.501 31.1124C185.203 33.4205 183.941 36.4712 183.941 39.7098V64.4554C183.942 69.0171 180.231 72.7285 175.669 72.7285Z" fill="url(#paint1_linear_57_14592)"/>
<path d="M123.615 69.9295H166.351C165.396 68.3274 164.858 66.4527 164.858 64.4554V24.0376C164.858 15.6256 158.034 8.80176 149.622 8.80176C145.409 8.80176 141.605 10.5062 138.844 13.2672C136.083 16.0215 134.379 19.8316 134.379 24.0382V31.8301H134.427V59.1184C134.427 59.4591 134.413 59.8003 134.379 60.1343C133.868 65.6283 129.246 69.9295 123.615 69.9295Z" fill="#64A8F8"/>
<path d="M101.998 31.8291C107.97 31.8291 112.81 36.6624 112.81 42.6341V59.1174C112.81 65.0891 117.643 69.9291 123.615 69.9291C129.246 69.9291 133.868 65.6273 134.378 60.1333V31.8291H101.998Z" fill="url(#paint2_linear_57_14592)"/>
<path d="M57.2246 22.4492C62.201 22.4492 65.6572 24.6853 68.2339 27.9505C68.6903 28.5167 69.1061 29.1161 69.5086 29.7368C74.5395 37.5693 75.9439 49.3217 80.4972 52.3415C81.6289 53.4525 83.183 54.1344 84.9014 54.1344C88.2619 54.1344 91.0162 51.4893 91.1865 48.1694V42.6342C91.1865 42.5384 91.1865 42.4499 91.1931 42.3548V42.0074H91.2071C91.5277 36.3292 96.238 31.8298 101.998 31.8298H127.31L125.374 28.7761C122.879 24.8356 118.529 22.4498 113.867 22.4498H57.2246V22.4492Z" fill="url(#paint3_linear_57_14592)"/>
<path d="M5.8584 2.70752C21.3264 8.83617 14.6589 29.737 32.8945 29.737C44.8924 29.737 44.7694 22.4494 57.2243 22.4494H90.6273C77.6099 20.1825 82.6099 9.30835 70.7278 2.70752H5.8584Z" fill="url(#paint4_linear_57_14592)"/>
<path d="M84.9014 54.1343H112.81V42.6341C112.81 36.6624 107.97 31.8291 101.998 31.8291C96.2379 31.8291 91.5271 36.3285 91.207 42.0068C91.2003 42.1225 91.1931 42.2383 91.1931 42.3541V47.842C91.1931 47.9511 91.1931 48.0602 91.1864 48.1693C91.0161 51.4892 88.2618 54.1343 84.9014 54.1343Z" fill="#64A8F8"/>
<path d="M32.8945 29.7368H69.5082C69.1058 29.1161 68.69 28.5167 68.2335 27.9505C65.6568 24.6853 62.2007 22.4492 57.2243 22.4492C44.7694 22.4492 44.8924 29.7368 32.8945 29.7368Z" fill="#64A8F8"/>
<path d="M196.093 30.0909C201.403 30.0909 205.712 34.3994 205.712 39.7097V71.8241C205.712 73.0509 205.984 74.2171 206.482 75.2597C207.771 77.9933 210.552 79.8881 213.776 79.8881C217.921 79.8881 221.336 76.752 221.779 72.7303C221.814 72.4302 221.834 72.1302 221.834 71.8235V66.5404H272.047V39.634C272.047 34.3642 267.773 30.0903 262.504 30.0903H196.093V30.0909Z" fill="url(#paint5_linear_57_14592)"/>
<path d="M213.776 77.3573C211.646 77.3573 209.682 76.1105 208.772 74.1811C208.419 73.4416 208.243 72.6531 208.243 71.8251V39.7095C208.243 37.0674 207.395 34.618 205.957 32.6226H262.504C266.37 32.6226 269.515 35.7678 269.515 39.635V64.0095H219.302V71.8251C219.302 72.0166 219.289 72.2197 219.264 72.4433C218.954 75.2485 216.596 77.3573 213.776 77.3573Z" fill="url(#paint6_linear_57_14592)"/>
<path d="M175.669 75.2602H206.481C205.984 74.2176 205.711 73.0514 205.711 71.8246V53.6096V50.1873V39.7096C205.711 34.3992 201.402 30.0908 196.092 30.0908C193.44 30.0908 191.034 31.1679 189.289 32.9063C187.55 34.6514 186.473 37.0511 186.473 39.7096V64.4552C186.473 70.4268 181.633 75.2602 175.669 75.2602Z" fill="#64A8F8"/>
<path d="M213.775 79.8888H289.607C294.119 79.8888 297.787 76.221 297.787 71.7083V66.541H221.833V71.8241C221.833 72.1308 221.812 72.4308 221.778 72.7309C221.335 76.7532 217.92 79.8888 213.775 79.8888Z" fill="#8BD2FF"/>
<path d="M261.676 39.451H215.694C215.359 39.451 215.088 39.1801 215.088 38.8449C215.088 38.5097 215.359 38.2388 215.694 38.2388H261.676C262.01 38.2388 262.282 38.5097 262.282 38.8449C262.282 39.1801 262.011 39.451 261.676 39.451Z" fill="#002F94"/>
<path d="M261.676 44.9432H245.89C245.556 44.9432 245.284 44.6723 245.284 44.3371C245.284 44.0019 245.556 43.731 245.89 43.731H261.676C262.011 43.731 262.282 44.0019 262.282 44.3371C262.282 44.6723 262.011 44.9432 261.676 44.9432Z" fill="#002F94"/>
<path d="M240.056 44.9432H215.694C215.359 44.9432 215.088 44.6723 215.088 44.3371C215.088 44.0019 215.359 43.731 215.694 43.731H240.055C240.39 43.731 240.661 44.0019 240.661 44.3371C240.661 44.6723 240.39 44.9432 240.056 44.9432Z" fill="#002F94"/>
<path d="M261.676 50.4354H254.781C254.446 50.4354 254.175 50.1645 254.175 49.8293C254.175 49.4941 254.446 49.2231 254.781 49.2231H261.676C262.011 49.2231 262.282 49.4941 262.282 49.8293C262.282 50.1645 262.011 50.4354 261.676 50.4354Z" fill="#002F94"/>
<path d="M248.642 50.4354H233.995C233.66 50.4354 233.389 50.1645 233.389 49.8293C233.389 49.4941 233.66 49.2231 233.995 49.2231H248.642C248.977 49.2231 249.248 49.4941 249.248 49.8293C249.248 50.1645 248.977 50.4354 248.642 50.4354Z" fill="#002F94"/>
<path d="M228.237 50.4354H215.694C215.359 50.4354 215.088 50.1645 215.088 49.8293C215.088 49.4941 215.359 49.2231 215.694 49.2231H228.237C228.571 49.2231 228.843 49.4941 228.843 49.8293C228.843 50.1645 228.572 50.4354 228.237 50.4354Z" fill="#002F94"/>
<path d="M261.676 55.9281H215.694C215.359 55.9281 215.088 55.6572 215.088 55.322C215.088 54.9868 215.359 54.7158 215.694 54.7158H261.676C262.01 54.7158 262.282 54.9868 262.282 55.322C262.282 55.6572 262.011 55.9281 261.676 55.9281Z" fill="#002F94"/>
<path d="M235.366 61.4198H215.694C215.359 61.4198 215.088 61.1489 215.088 60.8137C215.088 60.4785 215.359 60.2075 215.694 60.2075H235.365C235.7 60.2075 235.971 60.4785 235.971 60.8137C235.971 61.1489 235.7 61.4198 235.366 61.4198Z" fill="#002F94"/>
</g>
<defs>
<linearGradient id="paint0_linear_57_14592" x1="187.596" y1="19.5639" x2="187.596" y2="97.0453" gradientUnits="userSpaceOnUse">
<stop stop-color="#D2F1FF"/>
<stop offset="0.3024" stop-color="#C0E9FF"/>
<stop offset="0.9032" stop-color="#93D5FF"/>
<stop offset="1" stop-color="#8BD2FF"/>
</linearGradient>
<linearGradient id="paint1_linear_57_14592" x1="192.534" y1="10.2525" x2="192.534" y2="30.2484" gradientUnits="userSpaceOnUse">
<stop stop-color="white"/>
<stop offset="1" stop-color="white" stop-opacity="0"/>
</linearGradient>
<linearGradient id="paint2_linear_57_14592" x1="118.188" y1="33.8859" x2="118.188" y2="95.7794" gradientUnits="userSpaceOnUse">
<stop stop-color="#D2F1FF"/>
<stop offset="0.3024" stop-color="#C0E9FF"/>
<stop offset="0.9032" stop-color="#93D5FF"/>
<stop offset="1" stop-color="#8BD2FF"/>
</linearGradient>
<linearGradient id="paint3_linear_57_14592" x1="92.267" y1="24.2867" x2="92.267" y2="54.7009" gradientUnits="userSpaceOnUse">
<stop stop-color="#D2F1FF"/>
<stop offset="0.3024" stop-color="#C0E9FF"/>
<stop offset="0.9032" stop-color="#93D5FF"/>
<stop offset="1" stop-color="#8BD2FF"/>
</linearGradient>
<linearGradient id="paint4_linear_57_14592" x1="48.2428" y1="3.81275" x2="48.2428" y2="30.5618" gradientUnits="userSpaceOnUse">
<stop stop-color="#D2F1FF"/>
<stop offset="0.3024" stop-color="#C0E9FF"/>
<stop offset="0.9032" stop-color="#93D5FF"/>
<stop offset="1" stop-color="#8BD2FF"/>
</linearGradient>
<linearGradient id="paint5_linear_57_14592" x1="234.07" y1="53.5132" x2="234.07" y2="93.4875" gradientUnits="userSpaceOnUse">
<stop stop-color="#D2F1FF"/>
<stop offset="0.3024" stop-color="#C0E9FF"/>
<stop offset="0.9032" stop-color="#93D5FF"/>
<stop offset="1" stop-color="#8BD2FF"/>
</linearGradient>
<linearGradient id="paint6_linear_57_14592" x1="237.736" y1="30.5613" x2="237.736" y2="61.3226" gradientUnits="userSpaceOnUse">
<stop stop-color="white"/>
<stop offset="1" stop-color="white" stop-opacity="0"/>
</linearGradient>
<clipPath id="clip0_57_14592">
<rect width="297.576" height="80" fill="white" transform="translate(0.211914)"/>
</clipPath>
</defs>
</svg>
