<svg width="259" height="145" viewBox="0 0 259 145" fill="none" xmlns="http://www.w3.org/2000/svg">
<g clip-path="url(#clip0_1253_31101)">
<path d="M190.68 144.909C176.263 144.952 184.575 144.927 159.793 145C156.346 138.118 134.464 94.4285 131.571 88.6515L130.993 87.4986L130.842 87.1976L130.695 86.903L130.596 86.7044L130.527 86.5672L130.453 86.4199L129.433 84.3831L129.329 84.1754L129.309 84.136L129.204 83.9275L119.172 63.8956L119.071 63.6943V63.6934L118.945 63.4437L113.891 53.3504L124.891 53.334L134.204 53.3203L135.385 53.3184H135.565L144.411 53.3056L144.494 53.3047H144.799L144.866 53.4374L145.167 54.0394L145.206 54.118L145.281 54.2653L145.611 54.9241C146.764 57.2271 178.43 120.45 179.929 123.444C192.037 147.619 189.517 142.586 190.68 144.909V144.909Z" fill="#C5CCD4"/>
<path opacity="0.1" d="M185.39 134.346C185.369 134.492 185.346 134.629 185.302 134.719C185.126 135.072 185.041 135.718 184.914 136.255C184.713 137.11 184.284 137.914 184.292 138.689C184.219 138.671 184.136 138.632 184.121 138.75C184.188 138.78 184.297 138.784 184.289 138.859C184.18 139.089 184.034 139.237 183.849 139.294C183.923 139.374 183.968 139.473 184.011 139.573C184.053 139.485 183.964 139.273 184.11 139.261C184.098 139.366 184.212 139.395 184.12 139.549C183.76 139.67 183.989 139.611 183.803 139.908C183.836 139.82 183.812 139.764 183.762 139.724C183.831 140.005 183.466 140.293 183.544 140.569C183.704 140.322 183.686 140.222 183.863 140.041C183.809 140.321 183.758 140.374 183.773 140.64C183.672 140.664 183.669 140.437 183.589 140.584C183.704 140.888 183.073 141.135 183.184 141.544C183.179 141.425 183.348 141.279 183.325 141.415C183.291 141.547 183.203 141.554 183.151 141.647C183.401 141.944 182.995 142.234 183.07 142.535C182.966 142.646 182.901 142.619 182.838 142.635C182.963 142.77 182.856 143.265 182.806 143.368C182.654 143.349 182.847 143.119 182.751 143.065C182.616 143.597 182.718 143.821 182.729 144.086C182.705 144.211 182.579 144.103 182.541 144.2C182.768 144.177 182.686 144.584 182.635 144.857C182.48 144.789 182.4 144.781 182.377 144.719C182.447 144.68 182.469 144.485 182.43 144.393C182.292 144.514 182.313 144.187 182.204 144.152C182.265 144.052 182.312 144.064 182.358 144.142C182.375 143.725 182.647 143.284 182.663 142.867C182.715 142.89 182.738 142.991 182.8 142.91C182.613 142.939 182.829 142.724 182.713 142.71C182.575 142.831 182.556 142.529 182.55 142.431C182.597 142.51 182.644 142.522 182.703 142.422C182.459 142.216 182.859 142.04 182.731 141.859C182.837 141.76 182.844 142.006 182.902 141.798C182.841 141.779 182.78 141.76 182.719 141.741C182.756 141.546 182.911 140.998 182.954 140.844C183.018 140.719 182.68 140.918 182.803 140.683C183 140.784 182.899 140.08 183.23 140.13C183.234 139.601 183.513 139.473 183.44 138.995C183.524 138.998 183.69 138.737 183.6 138.646C183.608 138.741 183.439 138.843 183.476 138.721C183.927 138.021 184.127 136.957 184.485 136.178C184.458 136.234 184.409 136.244 184.361 136.254C184.383 136.185 184.405 136.115 184.427 136.046C184.491 136.064 184.52 136.101 184.548 136.141C184.491 135.925 184.862 135.745 184.821 135.598C184.721 135.73 184.795 135.496 184.855 135.494C184.739 135.419 184.753 135.452 184.72 135.281C184.688 135.356 184.676 135.477 184.608 135.475C184.561 134.971 184.978 134.389 185.15 133.929C185.117 133.74 184.939 134.056 184.921 133.858C185.054 133.792 184.99 133.632 184.975 133.517C184.965 133.443 184.975 133.389 185.069 133.39C185.137 133.443 185.073 133.673 185.102 133.773L185.118 133.804C185.138 133.828 185.177 133.828 185.245 133.787C185.204 133.502 184.965 133.239 185.248 132.988C184.782 132.892 185.211 132.254 185.069 131.962C185.2 131.866 185.445 131.565 185.375 131.315C185.205 131.674 185.002 131.96 184.699 132.019C184.712 131.955 184.754 131.873 184.703 131.848C184.535 132.118 184.847 132.097 184.692 132.359C184.864 132.419 184.856 132.076 185.02 132.117C184.933 132.459 184.854 132.774 184.728 133.025C184.697 133.085 184.664 133.143 184.627 133.195C184.721 133.04 184.499 133.077 184.556 132.944C184.576 132.932 184.61 132.897 184.642 132.854L179.929 123.443C179.824 123.894 179.711 124.308 179.648 124.623C179.759 124.989 179.671 125.642 179.451 125.876C179.51 126.055 179.328 126.667 179.24 126.991C179.248 126.905 179.124 127.114 179.055 127.123C179.182 126.683 179.349 126.401 179.135 126.235C179.178 126.18 179.222 126.132 179.277 126.108C179.274 126.151 179.246 126.21 179.29 126.226C179.463 125.904 178.969 126.205 179.034 125.918C179.29 125.956 179.105 125.541 179.409 125.691C179.381 125.862 179.234 125.87 179.372 125.966C179.541 125.505 179.615 125.05 179.644 124.794C179.425 124.921 179.525 125.353 179.396 125.573C179.319 125.608 179.212 125.571 179.134 125.606C178.935 125.845 179.006 126.146 178.737 126.225C178.809 125.463 179.067 125.708 179.204 125.228C179.195 125.257 179.148 125.275 179.158 125.214C179.225 124.871 179.348 124.742 179.36 124.42C179.464 124.323 179.869 124.059 179.508 123.952C179.485 124.167 179.418 124.422 179.206 124.429C178.977 124.849 179.25 125.216 178.984 125.445C179.039 125.216 179.022 125.03 178.903 124.906C178.803 125.121 179.037 125.133 178.908 125.365C178.848 125.332 178.859 125.255 178.805 125.218C178.813 125.488 178.749 125.96 178.511 125.983C178.567 125.525 178.669 125.13 178.691 124.783C178.754 124.807 178.87 124.826 178.799 124.76C178.768 124.75 178.738 124.741 178.707 124.732C178.361 125.135 178.676 125.461 178.256 125.676C178.359 125.452 178.273 125.194 178.454 125.053C178.233 124.885 178.353 124.359 178.506 124.097C177.95 124.712 178.325 125.447 178.17 126.106C177.991 126.1 178.123 125.69 177.899 125.851C177.937 126.648 177.207 127.487 177.018 128.147C177.052 127.478 177.155 126.915 177.409 126.441C177.474 126.283 177.235 126.532 177.288 126.346C177.588 125.979 177.71 125.077 177.807 124.395C177.867 124.435 177.865 124.481 177.945 124.437C177.711 124.018 178.16 123.505 178.158 123.133C178.135 123.17 178.124 123.235 178.079 123.222C178.372 122.605 178.654 121.779 178.73 121.05L178.253 120.096C178.155 120.339 178.033 120.591 177.977 120.848C177.909 121.166 178.012 121.475 177.834 121.775C177.639 121.767 177.888 121.491 177.796 121.421C177.723 121.438 177.774 121.567 177.667 121.666C177.966 122.342 177.327 123.236 177.124 124.01C176.957 124.645 176.995 125.245 176.796 125.678C176.738 125.699 176.71 125.784 176.625 125.741C176.693 125.959 176.472 126.121 176.426 126.365C176.254 126.388 176.331 126.269 176.269 126.543C176.212 126.42 176.156 126.503 176.04 126.473C176.053 126.323 176.166 126.402 176.227 126.359C176.179 126.262 176.159 126.148 176.064 126.08C176.128 125.987 176.241 126.004 176.313 125.929C176.333 125.819 176.221 125.788 176.242 125.678C176.057 125.735 176.072 126.16 175.815 126.231C175.895 126.627 176.267 126.732 176.163 127.196C176.283 127.201 176.326 127.032 176.399 126.926C176.501 127.383 176.107 127.681 176.252 128.023C176.185 128.078 176.147 128.204 176.049 128.189C176.032 128.345 176.116 128.723 175.929 128.723C175.904 128.823 176.07 128.806 176.017 128.922C175.61 129.174 175.806 130.009 175.479 130.297C175.604 130.618 175.363 131.224 175.225 131.417C175.485 131.802 175.037 132.716 174.713 133.028C174.605 133.436 174.737 133.431 174.619 133.8C174.667 133.692 174.891 133.53 174.826 133.464C174.992 133.525 174.887 133.764 174.765 134.129C174.765 134.118 174.73 134.057 174.752 134.012C174.506 134.513 174.684 135.735 173.921 136.152C173.996 135.94 174.037 135.748 173.995 135.604C174.03 135.749 173.626 136.268 173.884 136.427C173.855 136.597 173.76 136.622 173.665 136.645C173.564 136.593 173.461 136.544 173.547 136.379C173.444 136.324 173.497 136.623 173.361 136.493C173.461 136.153 173.639 135.991 173.734 135.637C173.6 135.724 173.492 135.932 173.381 136.27C173.378 135.437 173.497 134.938 173.858 134.134C173.647 134.073 173.608 134.402 173.421 134.398C173.695 133.878 173.532 133.416 173.743 133.071C173.773 133.08 173.804 133.089 173.835 133.099C173.94 133.104 173.899 133.2 173.876 133.283C174.042 133.233 173.938 132.998 173.759 133.018C173.812 132.846 173.764 132.736 173.862 132.536C173.96 132.575 173.919 132.697 173.871 132.824C174.115 132.73 173.992 132.288 173.982 132.002C173.97 131.795 174.147 132.018 174.168 131.888C174.142 131.657 174.47 130.531 174.709 130.343C174.694 130.19 174.667 130.151 174.514 130.168C174.546 129.972 174.624 129.88 174.751 129.898C174.584 129.626 174.873 129.366 175.044 129.133C175.097 128.948 174.857 129.197 174.923 129.038C174.963 128.906 174.977 128.986 175.031 129.015C175.096 128.821 174.884 128.797 175.025 128.557C175.126 128.636 175.249 128.701 175.421 128.736C175.452 128.62 175.235 128.654 175.163 128.599C175.19 128.363 175.355 128.439 175.416 128.278C175.313 128.284 175.214 128.193 175.174 128.088C175.29 128.119 175.347 128.035 175.403 128.16C175.356 127.87 175.472 127.885 175.614 127.654C175.514 127.6 175.418 127.43 175.202 127.526C175.323 127.383 175.424 127.193 175.551 127.063C175.666 127.105 175.587 127.265 175.542 127.403C175.525 127.498 175.737 127.378 175.805 127.371C175.817 127.246 175.713 127.411 175.684 127.276C175.737 127.159 175.818 127.103 175.846 126.926C175.964 126.868 175.903 126.948 176.028 126.983C175.997 126.612 175.634 126.666 175.781 126.335C175.718 126.34 175.666 126.372 175.641 126.462C175.438 125.766 176.252 125.097 176.096 124.548C176.249 124.416 176.263 124.526 176.226 124.302C176.48 124.277 176.498 124.493 176.533 124.703C176.56 124.649 176.583 124.594 176.604 124.534C176.73 124.637 176.718 124.597 176.85 124.554C176.863 124.361 176.542 124.61 176.547 124.402C176.7 124.364 176.599 123.94 176.853 123.755C176.86 123.677 176.773 123.725 176.745 123.778C176.656 123.657 176.941 123.632 176.952 123.443C176.897 123.467 176.853 123.516 176.81 123.57C176.684 123.493 176.889 123.473 176.876 123.362C176.831 123.35 176.821 123.415 176.797 123.452C176.683 123.395 176.841 123.175 176.76 123.098C176.876 123.045 177.072 122.9 176.921 122.747C177.345 122.133 177.596 121.39 177.827 120.687C177.873 120.701 177.918 120.716 177.964 120.73C177.957 120.408 178.037 120.131 178.132 119.855L173.361 110.33C173.339 110.401 173.318 110.471 173.297 110.541C173.32 110.504 173.331 110.439 173.376 110.452C173.097 111.121 172.874 111.371 172.789 111.983C172.547 112.478 172.29 113.467 172.182 113.736C172.223 113.698 172.372 113.469 172.368 113.623C171.894 114.087 171.749 114.57 171.516 115.357C171.279 115.348 171.094 115.907 171.317 115.981C171.397 115.821 171.387 115.715 171.325 115.641C171.41 115.595 171.415 115.367 171.574 115.49C171.486 115.754 171.272 116.599 171.222 116.123C171.132 116.98 170.715 117.12 170.614 117.876C170.13 117.867 170.185 118.955 169.964 118.816C170.016 119.044 169.9 119.331 169.657 119.464C169.682 118.978 169.867 118.694 169.85 118.381C169.81 118.558 169.755 118.703 169.643 118.717C169.72 118.995 169.624 119.219 169.428 119.393C169.634 119.448 169.389 119.612 169.346 119.652C169.474 119.763 169.434 119.495 169.562 119.605C169.53 119.969 169.33 120.36 169.078 120.655C169.102 120.556 169.102 120.471 169.052 120.418C169.027 120.729 168.678 120.979 168.929 121.122C168.99 121.023 168.981 120.763 169.09 120.773C169.05 121.173 168.907 121.428 168.718 121.628C168.746 121.562 168.845 121.254 168.738 121.406C168.617 121.634 168.698 121.738 168.681 121.902C168.182 122.322 168.178 122.738 167.898 123.258C168.041 123.381 167.896 123.679 167.837 123.925C167.775 123.903 167.729 123.918 167.684 123.934C167.558 123.912 167.712 123.721 167.55 123.721C167.47 123.929 167.395 124.424 167.099 124.666C167.151 124.826 167.057 125.487 166.743 125.47C166.817 125.093 166.867 124.758 167.023 124.586C166.887 124.481 167.45 123.542 167.154 123.541C167.235 123.517 167.324 123.509 167.357 123.376C167.309 123.278 167.295 123.097 167.199 122.927C167.517 123.054 167.143 122.567 167.451 122.606C167.544 122.451 167.367 122.461 167.38 122.354C167.469 122.229 167.602 122.202 167.678 122.047C167.705 120.756 168.542 119.546 168.804 118.342C168.678 118.59 168.589 118.926 168.39 119.013C168.408 118.918 168.602 118.794 168.49 118.701C168.419 118.779 168.392 118.956 168.299 118.984C168.31 118.679 168.613 118.569 168.572 118.441C168.454 118.733 168.404 118.374 168.389 118.384C168.279 118.462 168.352 118.658 168.12 118.757C168.203 118.796 168.238 118.731 168.319 118.763C168.272 118.864 168.163 118.826 168.115 118.927C168.351 119.797 167.561 120.788 167.532 121.717C167.282 121.688 167.347 121.909 167.466 121.925C167.322 122.137 167.213 122.144 167.075 122.203C167.314 122.515 166.775 123.042 166.895 123.403C166.517 123.636 166.601 124.463 166.45 124.807C166.472 124.769 166.507 124.758 166.558 124.784C166.519 124.974 166.534 125.102 166.38 125.186C166.306 125.028 166.478 125.11 166.508 124.94C166.062 125.211 166.127 125.888 165.845 126.391C165.887 126.492 165.877 126.623 165.885 126.745C165.725 126.802 165.674 127.104 165.594 127.341C165.714 127.421 165.776 127.538 165.662 127.761C166.063 127.594 166.137 127.078 166.192 126.727C166.308 126.963 166.432 126.685 166.48 126.93C166.206 126.993 166.113 127.727 165.999 128.011C166.036 127.938 166.079 127.878 166.166 127.918C166.118 128.075 166.148 128.401 165.984 128.49C166.1 128.239 165.887 128.236 166.1 128.126C165.926 128.18 165.768 128.267 165.647 128.441C165.776 128.524 165.76 128.28 165.91 128.409C165.892 128.461 165.927 128.482 165.922 128.527C165.773 128.558 165.692 129.08 165.561 128.871C165.516 129.274 165.299 129.825 164.985 129.892C164.891 130.558 164.864 131.097 164.561 131.703C164.489 131.69 164.398 131.632 164.362 131.699C164.45 131.771 164.418 131.915 164.462 132.015C164.297 131.98 164.421 132.157 164.32 132.142C164.332 132.066 164.239 132.052 164.217 131.996C164.193 132.121 164.146 132.194 164.088 132.241C164.217 132.325 164.201 132.08 164.35 132.208C164.302 132.336 164.371 132.392 164.359 132.497C164.126 132.645 164.324 133.055 164.033 133.367C163.976 133.331 163.969 133.265 163.866 133.258C163.821 133.454 164.012 133.505 163.98 133.693C163.918 133.659 163.929 133.583 163.876 133.546C164.126 133.909 163.561 134.41 163.499 134.572C163.528 134.519 163.614 134.47 163.607 134.548C163.252 135.36 163.122 136.111 162.864 136.888C162.811 136.877 162.816 136.79 162.772 136.859C162.699 137.224 162.638 139.188 162.195 138.679C162.172 138.716 162.161 138.781 162.116 138.769C162.127 138.706 162.171 138.623 162.119 138.599C161.996 138.737 162.041 139.078 161.996 139.302C161.919 139.335 161.831 139.345 161.764 139.402C161.962 139.888 161.379 139.992 161.387 140.427C161.262 140.406 161.416 140.215 161.254 140.215C161.459 140.866 160.851 141.665 160.743 142.454C160.616 142.433 160.879 142.177 160.671 142.204C160.627 142.785 160.145 143.749 160.054 144.468C159.965 144.266 159.929 144.64 159.804 144.619C159.643 144.067 160.077 143.666 160.025 142.974C159.949 142.981 159.807 142.84 159.779 142.955C160.151 143.256 159.69 143.821 159.703 144.302C159.624 144.302 159.612 144.454 159.487 144.349C159.494 144.373 159.499 144.398 159.504 144.423L159.671 144.757C159.691 144.714 159.716 144.678 159.743 144.657C159.821 144.665 159.804 144.731 159.863 144.751C159.841 144.839 159.802 144.888 159.765 144.943L159.792 144.999L182.433 144.932C182.434 144.907 182.435 144.88 182.435 144.852C182.446 144.873 182.453 144.901 182.459 144.932L184.028 144.928C184.043 144.883 184.056 144.836 184.067 144.787C183.746 144.451 184.351 143.854 184.142 143.44C184.13 143.701 184.033 144.012 183.836 144.087C183.732 143.84 183.874 143.214 184.159 143.388C184.086 143.052 184.515 142.918 184.266 142.735C184.573 142.768 184.75 142.175 184.763 141.807C184.763 141.856 184.839 141.743 184.875 141.611C185.059 140.912 185.398 140.087 185.385 139.37C185.458 139.388 185.542 139.427 185.555 139.309C185.44 139.267 185.322 139.226 185.375 139.082C185.487 139.08 185.475 139.274 185.53 139.073C185.468 138.999 185.447 138.868 185.566 138.798C185.537 138.663 185.433 138.829 185.445 138.704C185.482 138.609 185.531 138.539 185.603 138.525C185.674 138.551 185.597 138.668 185.707 138.671C185.669 138.45 185.724 138.417 185.718 138.161C185.565 138.102 185.667 138.337 185.469 138.312C185.297 137.309 185.611 136.307 185.893 135.35L185.39 134.346L185.39 134.346ZM184.913 132.77C185.002 132.815 184.959 132.939 185.047 132.983C185.002 133.058 184.889 132.983 184.889 133.162C184.761 133.115 184.875 132.92 184.913 132.77H184.913ZM184.728 133.512C184.828 133.575 184.854 133.773 184.721 133.852C184.681 133.754 184.623 133.576 184.728 133.512ZM184.657 133.262C184.602 133.493 184.63 133.715 184.488 133.952C184.327 133.813 184.587 133.434 184.657 133.262ZM184.418 134.33C184.48 134.469 184.505 134.63 184.378 134.774C184.276 134.753 184.415 134.583 184.414 134.5C184.318 134.461 184.334 134.678 184.287 134.746C184.192 134.561 184.327 134.5 184.418 134.33L184.418 134.33ZM184.148 136.13C184.358 136.25 184.004 136.548 184.075 136.679C183.934 136.505 184.148 136.377 184.148 136.13ZM183.752 137.378C183.927 137.232 183.898 136.917 183.967 136.702C183.995 136.828 184.06 137.34 183.752 137.378ZM183.899 136.282C183.972 136.369 183.824 136.7 183.75 136.75C183.633 136.736 183.851 136.521 183.662 136.551C183.755 136.491 183.823 136.378 183.899 136.282ZM183.518 136.849C183.626 136.905 183.671 137.092 183.572 137.152C183.507 137.079 183.443 137.005 183.518 136.849ZM183.464 137.175C183.48 137.275 183.576 137.41 183.619 137.165C183.633 137.367 183.479 137.68 183.416 137.96C183.215 137.781 183.629 137.454 183.352 137.368C183.367 137.254 183.427 137.241 183.464 137.175V137.175ZM182.621 141.254C182.515 141.137 182.614 141.101 182.645 140.862C182.833 140.875 182.626 141.125 182.621 141.254ZM183.159 138.452C183.118 138.879 182.882 139.393 182.802 140.054C183.011 140.074 182.84 139.788 183.009 139.718C183.155 139.784 182.985 140.04 182.952 140.214C182.752 140.266 182.749 140.069 182.539 140.086C182.765 139.457 182.777 138.978 183.159 138.452H183.159ZM182.464 142.861C182.449 142.912 182.506 142.92 182.538 142.942C182.451 143.081 182.451 142.979 182.339 142.937C182.356 142.768 182.467 142.809 182.483 142.639C182.521 142.666 182.576 142.88 182.464 142.861ZM182.376 141.235C182.492 141.291 182.487 141.419 182.477 141.552C182.448 141.499 182.391 141.464 182.31 141.443C182.332 141.373 182.354 141.304 182.376 141.235ZM182.273 143.145C182.303 143.19 182.335 143.233 182.364 143.173C182.467 143.196 182.327 143.363 182.327 143.447C182.262 143.374 182.199 143.3 182.273 143.145ZM175.774 126.676C175.724 126.827 175.476 126.718 175.437 126.628C175.541 126.443 175.634 126.647 175.774 126.676ZM175.679 126.817C175.729 126.842 175.687 126.925 175.675 126.988C175.559 126.904 175.533 127.024 175.429 126.969C175.474 126.83 175.599 126.875 175.678 126.817H175.679ZM166.997 123.72C167.087 123.875 166.872 124.089 166.831 124.241C166.751 124.113 166.934 123.826 166.997 123.72ZM166.183 126.439C166.113 126.617 166.01 126.281 165.983 126.433C165.995 126.297 166.118 126.099 166.195 125.927C166.385 125.98 166.073 126.337 166.183 126.439ZM161.903 140.073C161.829 140.003 161.851 139.807 161.956 139.747C162.14 139.752 161.952 140.047 161.903 140.073ZM162.035 139.658C161.909 139.497 162.132 139.122 162.191 138.849C162.255 138.97 162.293 138.839 162.357 138.958C162.154 139.26 162.126 139.346 162.035 139.658ZM164.477 132.762C164.307 132.749 164.37 132.529 164.468 132.474C164.638 132.469 164.488 132.658 164.477 132.762ZM165.642 129.412C165.62 129.107 165.746 128.836 165.906 128.58C165.87 128.854 165.811 129.106 165.642 129.412ZM166.558 126.212C166.465 126.323 166.402 125.723 166.673 125.848C166.613 125.959 166.498 126.086 166.558 126.212ZM167.544 124.69C167.562 124.521 167.651 124.516 167.69 124.393C167.779 124.466 167.73 124.788 167.544 124.69ZM170.347 118.878C170.279 118.71 170.249 118.341 170.425 118.16C170.566 118.389 170.381 118.554 170.347 118.878ZM173.39 136.559C173.61 136.635 173.469 136.93 173.392 137.188C173.172 137.077 173.318 136.754 173.39 136.559ZM173.522 137.571C173.5 137.514 173.51 137.438 173.542 137.349C173.769 137.425 173.287 138.168 173.522 137.571ZM174.934 134.868C174.852 134.819 175.005 134.629 174.8 134.654C174.946 134.286 174.912 134.028 175.006 133.691C175.066 134.172 175.003 134.383 174.934 134.868ZM176.551 126.289C176.677 126.311 176.679 126.408 176.623 126.539C176.577 126.525 176.531 126.511 176.485 126.496C176.507 126.428 176.529 126.358 176.551 126.289ZM176.56 129.433C176.401 129.331 176.593 129.213 176.629 129.055C176.777 129.131 176.62 129.327 176.56 129.433ZM182.265 144.913C182.077 144.9 182.285 144.65 182.289 144.521C182.433 144.616 182.211 144.726 182.265 144.913Z" fill="black"/>
<path d="M98.6862 144.906H67.7536L67.6397 144.678L67.547 144.493L61.1114 131.644L60.551 130.524L60.4132 130.25L60.3783 130.179L60.2726 129.97L60.0696 129.564L60.0366 129.497L51.6075 112.669L50.7311 110.918L50.585 110.627L50.4526 110.363L47.5496 104.566L47.5395 104.546L47.4513 104.369H47.4504L38.3029 86.1041L34.2441 78H65.1758L65.7555 79.1575L69.1794 85.9925L70.7945 89.2187L71.1684 89.9644L79.4376 106.475L80.0467 107.69L80.2708 108.139L80.6549 108.905L80.7091 109.014L80.8239 109.242L81.3558 110.306L81.4679 110.528L81.7031 110.999L81.738 111.068L81.8216 111.235L81.8409 111.274L81.8896 111.371L81.9153 111.421L81.9658 111.522L82.0017 111.594L82.0844 111.759L82.1046 111.8L83.3366 114.26L92.4564 132.467L92.5042 132.564L92.5052 132.564L92.6623 132.878L94.3049 136.159L98.6862 144.906Z" fill="#C5CCD4"/>
<path opacity="0.1" fill-rule="evenodd" clip-rule="evenodd" d="M81.9659 111.524C81.9439 111.582 81.9172 111.643 81.8859 111.707C81.9337 111.694 81.9695 111.649 82.0016 111.595L81.9658 111.524H81.9659ZM92.6623 132.88L92.5052 132.566L92.5043 132.565L92.4565 132.469L83.3366 114.262L82.1046 111.801C82.0605 111.85 81.9769 111.791 81.9117 111.778C81.7601 112.317 81.7675 112.363 81.5754 112.941C81.3752 112.949 81.4716 113.213 81.2512 113.25C81.2374 113.412 81.4147 113.124 81.433 113.317C81.2539 113.682 81.1437 113.598 81.0591 114.036C81.1841 114.093 81.1363 113.664 81.2952 113.817C81.1299 114.039 81.0968 114.249 81.0977 114.48C80.9866 114.458 80.9269 114.406 80.891 114.342C80.823 114.48 80.8874 114.542 81.0123 114.57C80.9572 114.862 80.8029 114.87 80.6687 114.933C80.4381 114.523 81.152 113.685 81.0499 113.236C81.4064 112.639 81.5929 112.049 81.897 111.405C81.8097 111.381 81.8015 111.576 81.7252 111.586C81.6039 111.533 81.7224 111.297 81.8409 111.275C81.8584 111.272 81.8749 111.273 81.8914 111.28C81.8657 111.139 81.84 111.091 81.738 111.069C81.7058 111.063 81.6654 111.058 81.6148 111.055C81.646 111.034 81.6745 111.016 81.703 111.001L81.4678 110.53C81.42 110.581 81.3677 110.618 81.3079 110.637C81.3116 110.519 81.329 110.411 81.3557 110.307L80.8237 109.244C80.6299 109.793 80.4857 110.343 80.4406 110.746C80.3111 110.753 80.278 111.027 80.1118 110.931C80.1614 111.3 79.8178 111.369 79.9381 111.663C79.9684 111.6 80.0006 111.542 80.0704 111.59C80.0604 111.733 80.0456 111.742 79.973 111.983C79.8995 111.962 79.8187 111.917 79.7957 112.04C80.0235 112.322 79.5706 112.645 79.4255 112.884C79.51 112.933 79.5441 112.845 79.6028 112.825C79.5467 113.044 79.4301 113.445 79.1774 113.404C79.1811 113.25 79.4429 113.289 79.3244 113.153C79.283 113.223 79.2012 113.178 79.148 113.211C79.1866 113.891 78.7961 114.671 78.6133 115.035C78.5471 115.169 78.6749 115.294 78.6482 115.355C78.5747 115.519 78.323 115.577 78.2889 115.895C78.2954 115.836 78.2559 115.97 78.2071 116.111C78.1879 116.165 78.0712 116.763 77.8324 116.83C77.7102 116.812 77.927 116.387 77.7983 116.512C77.7414 116.712 77.7699 116.796 77.6348 116.942C77.8856 116.988 77.7184 117.293 77.5843 117.353C77.5806 117.156 77.6634 116.913 77.5402 116.784C77.4861 117.145 77.4475 117.842 77.0588 117.649C77.1039 117.667 77.0809 117.764 77.0175 117.756C76.9881 117.495 76.8567 117.548 76.8227 117.317C76.9513 118.154 76.0979 118.479 76.4296 119.316C76.3386 119.297 76.3523 119.218 76.2678 119.195C76.1999 119.36 76.3532 119.401 76.2164 119.605C76.1356 119.561 76.0933 119.629 76.0152 119.593C75.9793 119.739 75.927 119.897 75.9638 120.002C76.0336 119.757 76.1668 119.69 76.3322 119.71C76.1282 120.043 76.2688 120.294 75.917 120.537C76.0428 120.338 75.8416 120.326 75.9684 120.126C75.8416 120.14 75.6744 120.038 75.6147 120.241C75.6781 120.276 75.7902 120.284 75.7763 120.362C75.5834 120.25 75.2554 120.93 75.1379 121.23C75.2857 121.35 75.3179 121.143 75.4502 121.223C75.3749 121.267 75.3281 121.394 75.2839 121.529C75.216 121.375 75.216 121.417 75.0322 121.375C74.9256 121.533 75.1535 121.504 75.0864 121.64C74.9164 121.57 74.8861 121.888 74.7373 121.879C74.8016 122.171 74.65 122.193 74.5462 122.115C74.594 122.367 74.5195 122.431 74.6096 122.629C74.4865 122.685 74.5536 122.602 74.4296 122.562C74.3892 122.81 74.3764 122.78 74.2413 122.921C74.2615 123.023 74.3212 123.102 74.3424 123.203C74.2137 123.265 74.2294 123.411 74.1853 123.208C73.8711 123.766 74.3121 124.155 74.0971 124.4C74.4178 124.559 74.1936 124.757 74.0053 124.918C74.0806 125.029 74.2276 124.842 74.1853 124.985C74.0291 125.095 73.996 125.225 73.9584 125.451C73.7958 125.444 73.85 125.315 73.7718 125.261C73.8012 125.407 73.6514 125.549 73.6956 125.599C73.7498 125.532 73.815 125.494 73.8922 125.488C73.8426 125.615 73.9106 125.676 73.8151 125.828C73.77 125.812 73.7241 125.795 73.6792 125.779C73.7563 126.325 73.2896 126.876 73.4201 127.153C73.3944 127.34 73.2593 127.22 73.2015 127.318C73.2639 127.343 73.3117 127.329 73.3585 127.314C73.4118 127.485 72.8238 127.989 73.1959 127.744C73.0811 127.992 72.8744 128.001 72.9221 128.194C72.9837 128.074 73.0921 128.115 73.0591 128.244C73.0213 128.143 72.9305 128.15 72.8818 128.302C72.9396 128.382 72.9176 128.507 72.9158 128.621C72.8478 128.431 72.7412 128.839 72.7495 128.927C72.7743 128.89 72.7908 128.822 72.8349 128.837C72.8137 128.951 72.7963 129.277 72.6529 129.321C72.6015 129.265 72.7237 129.111 72.6428 129.072C72.4941 129.225 72.6134 129.334 72.5712 129.537C72.2689 129.519 72.5712 130.147 72.212 130.076C72.5491 129.711 72.0733 129.215 72.5316 129.092C72.279 128.988 72.5013 128.864 72.5124 128.595C72.347 128.604 72.4343 128.47 72.3718 128.421C72.2414 128.656 72.3645 128.592 72.381 128.669C72.314 128.701 72.2929 128.862 72.1845 128.781C72.201 128.715 72.2497 128.631 72.1991 128.602C72.1514 128.837 72.053 128.93 71.9227 128.928C71.9199 129.25 71.7178 129.399 71.5607 130.022C71.6029 130.152 71.7288 130 71.7012 130.195C71.2309 130.819 71.388 131.606 71.082 132.111C71.1776 132.272 71.3815 132.11 71.2933 132.373C71.1794 132.483 71.1013 132.412 71.0002 132.327C70.9938 132.886 70.5997 133.103 70.4481 133.655C70.7494 134.02 70.0953 134.62 70.2772 135.062C70.3085 134.79 70.4279 134.467 70.6328 134.397C70.7209 134.661 70.5336 135.31 70.257 135.116C70.3075 135.471 69.8647 135.594 70.1044 135.795C69.7958 135.749 69.5762 136.36 69.5366 136.745C69.5366 136.702 69.454 136.816 69.4109 136.949C69.1756 137.674 68.776 138.525 68.7393 139.275C68.6658 139.255 68.585 139.21 68.5629 139.332C68.6758 139.382 68.7925 139.429 68.7282 139.578C68.6161 139.575 68.6418 139.373 68.5721 139.58C68.629 139.66 68.6419 139.799 68.5161 139.867C68.5363 140.01 68.652 139.839 68.6319 139.97C68.5887 140.068 68.5335 140.139 68.4591 140.152C68.3902 140.121 68.4756 140.002 68.3645 139.994C68.3874 140.227 68.3296 140.259 68.3176 140.528C68.4691 140.596 68.3828 140.346 68.5804 140.38C68.7154 141.749 68.0282 143.084 67.658 144.33C67.5192 144.345 67.7113 143.97 67.5826 144.117C67.5624 144.268 67.5551 144.391 67.5469 144.495L67.6396 144.68L67.7536 144.908H68.0879C68.1008 144.84 68.1118 144.78 68.166 144.762C68.2276 144.771 68.2405 144.835 68.2248 144.908H68.3056C68.3745 144.655 68.4086 144.316 68.5013 144.149C68.619 143.937 68.7136 143.617 68.8045 143.277C68.8679 143.036 68.9312 142.787 68.9992 142.556C69.2619 141.669 69.7507 140.844 69.7966 140.032C69.8701 140.053 69.9509 140.097 69.9739 139.975C69.9096 139.94 69.7993 139.932 69.8121 139.854C69.938 139.618 70.096 139.468 70.2871 139.417C70.2182 139.328 70.1796 139.224 70.142 139.118C70.0932 139.208 70.1687 139.433 70.0207 139.44C70.0391 139.331 69.927 139.296 70.0309 139.138C70.4039 139.025 70.1677 139.078 70.3762 138.774C70.3376 138.866 70.357 138.925 70.4047 138.97C70.3542 138.671 70.7428 138.386 70.684 138.092C70.504 138.345 70.5168 138.45 70.3239 138.633C70.3983 138.343 70.4543 138.289 70.4571 138.008C70.5609 137.987 70.5489 138.225 70.6389 138.075C70.5434 137.751 71.1993 137.519 71.1149 137.086C71.113 137.211 70.9321 137.356 70.9633 137.214C71.0074 137.078 71.0974 137.074 71.1562 136.979C70.9237 136.658 71.3546 136.37 71.2996 136.052C71.4125 135.942 71.476 135.972 71.5412 135.956C71.4245 135.812 71.5669 135.296 71.6247 135.191C71.7773 135.217 71.565 135.45 71.6597 135.51C71.8324 134.959 71.7451 134.721 71.7525 134.442C71.7855 134.313 71.905 134.43 71.9491 134.33C71.7184 134.345 71.8305 133.922 71.9013 133.638C72.0529 133.715 72.1328 133.727 72.1521 133.793C72.0786 133.831 72.0418 134.034 72.0758 134.133C72.2228 134.011 72.1787 134.352 72.2881 134.393C72.2192 134.496 72.1742 134.481 72.131 134.398C72.086 134.834 71.7792 135.285 71.7333 135.722C71.6836 135.694 71.6671 135.587 71.5982 135.672C71.7903 135.647 71.5569 135.864 71.6726 135.884C71.8206 135.762 71.8196 136.079 71.8196 136.181C71.7755 136.097 71.7296 136.082 71.6625 136.186C71.8949 136.411 71.4798 136.579 71.5955 136.774C71.4815 136.874 71.4917 136.615 71.4191 136.831C71.4788 136.854 71.5395 136.875 71.601 136.898C71.5496 137.1 71.3547 137.668 71.3014 137.828C71.2271 137.956 71.5826 137.761 71.4411 138.002C71.25 137.889 71.3024 138.63 70.9698 138.565C70.9368 139.027 70.7291 139.189 70.685 139.522C70.6759 139.588 70.6741 139.661 70.6805 139.744C70.595 139.739 70.4112 140.003 70.4939 140.104C70.4939 140.003 70.6712 139.903 70.6244 140.031C70.12 140.746 69.8444 141.852 69.4283 142.653C69.4594 142.596 69.51 142.587 69.5587 142.579C69.5312 142.651 69.5046 142.722 69.4779 142.794C69.4145 142.773 69.3879 142.732 69.3612 142.69C69.4044 142.919 69.0167 143.092 69.047 143.249C69.1591 143.114 69.0672 143.354 69.0075 143.356C69.1187 143.439 69.1067 143.403 69.1279 143.584C69.1656 143.507 69.1858 143.379 69.2547 143.385C69.2666 143.887 68.8523 144.446 68.6336 144.907H78.8928C78.9203 144.76 78.9581 144.605 78.9994 144.401C79.0793 144.455 78.9103 144.648 79.1197 144.629C79.0747 144.728 79.0426 144.82 79.0168 144.907H79.2602C79.4054 144.302 79.4743 143.42 80.1128 143.096C80.0228 143.315 79.9677 143.516 79.9998 143.667C79.975 143.515 80.4188 142.986 80.1679 142.81C80.2111 142.633 80.3076 142.611 80.4059 142.592C80.5051 142.648 80.6053 142.704 80.507 142.873C80.6071 142.935 80.574 142.619 80.7026 142.762C80.5786 143.113 80.3866 143.276 80.2671 143.643C80.4077 143.556 80.5317 143.345 80.6676 142.993C80.6198 143.755 80.4958 144.246 80.1872 144.907H90.5639C90.8919 144.173 91.0683 143.475 91.3494 142.761C91.4018 142.774 91.3898 142.865 91.4394 142.794C91.5396 142.415 91.7371 140.362 92.1505 140.912C92.1762 140.874 92.1918 140.806 92.2359 140.821C92.2194 140.886 92.1707 140.97 92.2212 140.998C92.3553 140.859 92.3333 140.5 92.3939 140.266C92.4747 140.235 92.5639 140.228 92.6365 140.171C92.4693 139.655 93.0664 139.568 93.0876 139.113C93.2134 139.14 93.0454 139.334 93.208 139.341C93.0454 138.651 93.7161 137.837 93.8805 137.015C94.0063 137.042 93.7233 137.301 93.9347 137.28C93.9779 136.977 94.1386 136.577 94.3049 136.16L92.6623 132.88V132.88ZM81.3926 111.648C81.4707 111.684 81.512 111.617 81.5928 111.66C81.557 111.891 81.3972 111.772 81.3604 112.004C81.3062 111.921 81.3972 111.757 81.3926 111.648ZM70.7458 133.274C70.8754 133.085 71.0068 132.896 71.252 133.032C71.0756 133.091 70.958 133.314 70.7458 133.274ZM71.2465 132.907C71.0278 132.898 71.218 132.397 71.388 132.531C71.2778 132.71 71.3935 132.829 71.2465 132.907ZM69.3677 144.592C69.3136 144.443 69.3007 144.274 69.4395 144.127C69.5414 144.155 69.3881 144.326 69.3834 144.413C69.479 144.458 69.4762 144.229 69.5304 144.161C69.6122 144.357 69.4715 144.416 69.3677 144.592V144.592ZM69.7655 142.716C69.5615 142.583 69.9401 142.286 69.8776 142.144C70.009 142.333 69.783 142.459 69.7655 142.716ZM70.2524 141.425C70.0668 141.571 70.0733 141.903 69.9887 142.125C69.9676 141.993 69.9382 141.453 70.2524 141.425ZM70.0292 142.567C69.9593 142.474 70.133 142.133 70.2111 142.084C70.3277 142.103 70.0934 142.32 70.2864 142.295C70.189 142.355 70.1119 142.47 70.0292 142.567ZM70.4536 141.989C70.348 141.925 70.314 141.728 70.4197 141.669C70.4803 141.749 70.5382 141.828 70.4536 141.989ZM70.6567 141.451C70.6337 141.57 70.5713 141.581 70.5298 141.65C70.5216 141.544 70.4343 141.4 70.3728 141.651C70.3728 141.439 70.5501 141.118 70.6328 140.829C70.8248 141.024 70.382 141.352 70.6567 141.45V141.451ZM72.4931 132.754C72.5253 132.919 72.4113 132.96 72.3764 133.201C72.2395 133.146 72.4021 132.809 72.4931 132.754ZM75.0416 123.95C74.9957 123.934 74.9507 123.918 74.9048 123.901C74.9397 123.811 74.9727 123.722 75.0058 123.632C75.1519 123.662 75.0343 123.842 75.0416 123.95ZM82.5538 112.81C82.6383 112.928 82.5648 113.026 82.4776 113.15C82.2718 113.08 82.5594 112.995 82.5538 112.81ZM81.76 113.682C81.9447 113.861 81.7407 113.913 81.6434 114.13C81.5552 114.051 81.7389 113.822 81.76 113.682ZM78.088 117.66C78.269 117.808 78.0375 117.936 78.0613 118.14C77.9088 118.072 78.0916 117.813 78.088 117.66ZM77.8794 118.624C78.1036 118.888 77.6048 119.914 77.4357 120.483C77.3723 119.996 77.828 119.042 77.8794 118.624ZM77.4283 119.132C77.4008 119.204 77.3751 119.276 77.3475 119.348C77.3016 119.332 77.2575 119.315 77.2107 119.298C77.2704 119.202 77.3154 119.072 77.4284 119.132L77.4283 119.132ZM77.3722 119.418C77.4862 119.467 77.3943 119.631 77.3411 119.774C77.296 119.757 77.2501 119.741 77.2051 119.724C77.2502 119.589 77.2961 119.462 77.3723 119.418H77.3722ZM76.9148 118.576C76.9717 118.615 76.9028 118.725 76.8799 118.808C76.8164 118.779 76.755 118.751 76.7228 118.812C76.675 118.782 76.7182 118.749 76.743 118.758C76.6061 118.494 76.8808 118.761 76.9148 118.576H76.9148ZM75.5477 120.829C75.7361 120.861 75.7517 120.854 75.8453 121.001C75.7213 121.047 75.4696 121.055 75.5477 120.829ZM75.5817 121.148C75.6415 121.131 75.6755 121.043 75.76 121.091C75.7131 121.129 75.6681 121.166 75.7187 121.198C75.6846 121.253 75.614 121.202 75.5873 121.272C75.5616 121.231 75.534 121.189 75.4706 121.169C75.5101 121.113 75.6029 121.063 75.5817 121.148ZM75.443 124.529C75.5229 124.565 75.5642 124.497 75.6451 124.541C75.544 124.701 75.4476 124.875 75.3254 124.975C75.1747 124.878 75.4163 124.764 75.443 124.529ZM75.2096 125.423C75.1462 125.393 75.0847 125.365 75.0525 125.424C74.9212 125.376 75.0599 125.081 75.15 125.032C75.2602 125.111 75.2721 125.245 75.2097 125.423H75.2096ZM74.9147 121.821C74.9698 121.861 74.9018 121.97 74.8789 122.054C74.9349 122.064 74.9542 121.97 74.9854 121.909C75.0893 121.889 75.0773 122.126 75.1673 121.976C75.2178 122.055 74.9386 122.14 74.8384 122.161C74.8954 121.964 74.7631 121.982 74.9147 121.821ZM74.6823 124.492C74.5472 124.208 74.4636 123.95 74.8044 123.618C74.8815 123.805 74.5729 124.12 74.899 124.327C74.6565 124.749 74.5922 125.14 74.4222 125.316C74.2614 125.056 74.4433 124.631 74.6822 124.492H74.6823ZM74.3359 123.629C74.391 123.782 74.4378 123.652 74.4866 123.502C74.6455 123.635 74.3359 123.822 74.2588 123.97C74.1614 123.925 74.3258 123.734 74.3359 123.629ZM74.0879 125.928C74.2238 125.664 74.3626 125.596 74.3112 125.337C74.3874 125.364 74.4619 125.392 74.5381 125.42C74.3681 125.692 74.3332 126.118 74.1072 126.425C73.9988 126.24 74.2579 126.094 74.088 125.928L74.0879 125.928ZM72.5444 130.016C72.6979 130.028 72.6428 130.159 72.7971 130.171C72.6841 130.222 72.6657 130.542 72.4929 130.427C72.627 130.563 72.3717 130.777 72.29 130.964C72.4544 130.615 72.3745 130.255 72.5444 130.016ZM72.3763 130.873C72.4866 130.81 72.6584 130.928 72.5417 131.117C72.3323 130.855 72.4765 131.366 72.2137 131.303C72.3341 131.098 72.29 131.12 72.3763 130.873ZM71.7378 129.964C71.6597 129.77 71.7782 129.74 71.8793 129.588C71.9584 129.781 71.8398 129.81 71.7378 129.964ZM72.1025 133.651C72.0612 133.546 72.0915 133.234 71.9417 133.53C71.7745 133.385 72.0492 133.182 72.0998 132.977C72.1833 133.214 72.1347 133.313 72.1025 133.651ZM72.0833 129.049C72.0244 129.143 72.0217 129.396 71.8903 129.286C71.9795 129.238 72.0244 129.068 72.0778 128.925C72.1549 128.956 72.211 128.929 72.2551 128.868C72.3515 128.912 72.3019 129.039 72.2431 129.169C72.1862 129.041 72.1402 129.177 72.0833 129.049ZM72.2578 131.87C72.3083 131.941 72.3047 132.042 72.2477 132.172C72.1081 132.134 72.1596 131.923 72.2578 131.87ZM72.2275 134.004C72.0888 133.898 72.3203 133.792 72.2789 133.593C72.4672 133.614 72.2413 133.869 72.2275 134.004ZM72.1136 135.127C72.1761 135.206 72.234 135.286 72.1495 135.444C72.1201 135.397 72.0916 135.35 72.0585 135.411C71.9556 135.384 72.109 135.215 72.1136 135.127ZM71.8656 135.647C71.9639 135.505 71.9566 135.612 72.0677 135.66C72.0393 135.837 71.9299 135.789 71.9005 135.967C71.8647 135.937 71.8234 135.71 71.9355 135.734C71.9539 135.682 71.8969 135.672 71.8656 135.647ZM70.9258 140.325C70.9984 139.878 71.2712 139.35 71.3998 138.661C71.1894 138.631 71.3429 138.936 71.1673 139.005C71.0231 138.93 71.2124 138.669 71.2592 138.488C71.465 138.441 71.454 138.647 71.6662 138.637C71.3952 139.287 71.3493 139.788 70.9258 140.325ZM71.613 137.821C71.5818 137.818 71.5625 137.808 71.5514 137.793C71.4936 137.72 71.6533 137.523 71.6653 137.412C71.6874 137.44 71.6993 137.464 71.7048 137.487C71.7213 137.564 71.6506 137.628 71.6129 137.821H71.613ZM71.9115 137.441C71.8418 137.402 71.8206 137.336 71.8188 137.258C71.8178 137.21 71.8243 137.158 71.8316 137.105C71.8408 137.125 71.8527 137.143 71.8693 137.158C71.8987 137.186 71.941 137.208 71.9933 137.225C71.9667 137.297 71.9392 137.369 71.9115 137.441ZM80.6153 141.626C80.6318 141.687 80.619 141.766 80.5804 141.858C80.3553 141.769 80.8936 141.01 80.6153 141.626ZM80.6777 142.691C80.4618 142.602 80.6236 142.299 80.72 142.033C80.935 142.157 80.7651 142.49 80.6777 142.691ZM92.1651 140.733C92.1082 140.606 92.0622 140.74 92.0044 140.612C92.2313 140.305 92.2653 140.216 92.3801 139.893C92.4958 140.068 92.2442 140.449 92.1651 140.733ZM92.4655 139.802C92.28 139.79 92.4904 139.489 92.5418 139.463C92.6125 139.541 92.5748 139.744 92.4655 139.802ZM104.62 121.014C104.621 121.016 104.622 121.02 104.624 121.021C104.625 121.014 104.626 121.008 104.629 121C104.625 121.006 104.624 121.01 104.62 121.014Z" fill="black"/>
<path opacity="0.1" fill-rule="evenodd" clip-rule="evenodd" d="M144.773 58.1696C144.678 57.0296 145.248 55.9481 145.611 54.9241L145.281 54.2654C145.271 54.3047 145.255 54.3349 145.218 54.345C145.135 54.3276 145.153 54.2096 145.206 54.1181L145.167 54.0395C145.045 54.2389 145.018 54.6827 144.906 54.8675C144.717 55.1767 144.587 55.7614 144.428 56.2427C144.177 57.0095 143.719 57.7113 143.665 58.4213C143.599 58.4003 143.526 58.3573 143.504 58.4644C143.562 58.4973 143.661 58.5092 143.648 58.5769C143.53 58.7782 143.385 58.9027 143.211 58.9401C143.273 59.0197 143.306 59.114 143.338 59.2082C143.383 59.1313 143.318 58.93 143.453 58.931C143.433 59.0262 143.535 59.0618 143.439 59.1954C143.099 59.2778 143.314 59.2412 143.121 59.4992C143.157 59.4205 143.139 59.3674 143.097 59.3263C143.138 59.5907 142.781 59.8249 142.83 60.0839C142.997 59.8698 142.987 59.7774 143.164 59.6255C143.092 59.8771 143.042 59.9219 143.034 60.1671C142.94 60.1809 142.956 59.9731 142.871 60.1004C142.951 60.3886 142.354 60.5634 142.423 60.9467C142.427 60.8378 142.594 60.7179 142.562 60.8415C142.521 60.9586 142.438 60.9577 142.385 61.0391C142.59 61.331 142.195 61.5644 142.239 61.8461C142.135 61.9385 142.078 61.9083 142.018 61.9185C142.122 62.052 141.985 62.4977 141.931 62.5864C141.793 62.5571 141.989 62.3622 141.905 62.3055C141.738 62.7812 141.815 62.9945 141.803 63.2387C141.771 63.3495 141.665 63.2414 141.622 63.3275C141.832 63.3247 141.724 63.6907 141.656 63.9359C141.519 63.8617 141.447 63.8481 141.431 63.7895C141.499 63.7593 141.534 63.5827 141.505 63.4949C141.37 63.5946 141.415 63.2982 141.319 63.257C141.381 63.1701 141.423 63.1847 141.46 63.2607C141.508 62.8791 141.793 62.4967 141.841 62.1169C141.886 62.1425 141.899 62.2368 141.963 62.1664C141.789 62.1792 142.004 61.999 141.898 61.977C141.763 62.0776 141.77 61.7994 141.771 61.7089C141.809 61.7848 141.851 61.7995 141.913 61.7126C141.706 61.5049 142.086 61.3759 141.983 61.2002C142.088 61.117 142.076 61.3429 142.145 61.1572C142.09 61.1352 142.036 61.1133 141.981 61.0913C142.031 60.9156 142.216 60.4261 142.268 60.2879C142.337 60.179 142.011 60.3345 142.143 60.1287C142.314 60.2366 142.279 59.5843 142.578 59.6565C142.624 59.1725 142.89 59.0773 142.86 58.6345C142.937 58.6437 143.109 58.4185 143.036 58.327C143.035 58.4148 142.871 58.4954 142.916 58.3865C143.385 57.7817 143.652 56.8228 144.042 56.1393C144.012 56.1877 143.967 56.1932 143.922 56.1979C143.948 56.1365 143.974 56.0743 143.999 56.013C144.056 56.034 144.08 56.0716 144.102 56.1091C144.067 55.9069 144.421 55.7724 144.396 55.6342C144.293 55.7467 144.38 55.54 144.434 55.5409C144.335 55.464 144.345 55.4951 144.329 55.3359C144.293 55.4018 144.272 55.5124 144.211 55.5043C144.208 55.0395 144.635 54.5399 144.83 54.1327C144.815 53.9561 144.627 54.2325 144.626 54.0495C144.835 53.9663 144.578 53.6112 144.799 53.6332C144.886 53.7147 144.668 54.1364 144.928 54.0102C144.917 53.8098 144.8 53.6122 144.867 53.4374L144.8 53.3047H144.702C144.677 53.3166 144.658 53.344 144.653 53.4108C144.608 53.3898 144.599 53.3513 144.607 53.3047H144.495C144.468 53.3459 144.44 53.3843 144.41 53.4199C144.453 53.3605 144.438 53.3303 144.411 53.3056L135.565 53.3184C135.555 53.6286 135.489 53.8189 135.404 54.184C135.333 54.1328 135.489 53.9708 135.298 53.9781C135.423 53.7302 135.447 53.5317 135.5 53.3184H135.386C135.363 53.3724 135.336 53.4319 135.308 53.495C135.312 53.4886 135.282 53.4264 135.307 53.3861C135.041 53.8252 135.106 54.958 134.375 55.2792C134.46 55.0908 134.513 54.9178 134.486 54.7833C134.506 54.9187 134.096 55.3624 134.319 55.5272C134.278 55.6809 134.189 55.6965 134.1 55.7093C134.012 55.6544 133.922 55.6014 134.014 55.4577C133.924 55.3991 133.95 55.6773 133.835 55.5465C133.953 55.2437 134.13 55.11 134.244 54.7925C134.115 54.862 133.999 55.0433 133.871 55.3452C133.935 54.5821 134.083 54.1347 134.478 53.4273C134.289 53.355 134.227 53.6525 134.057 53.6342C134.125 53.5281 134.171 53.4228 134.204 53.3204L124.891 53.3341C124.613 53.9261 124.446 54.497 124.195 55.078C124.148 55.0643 124.16 54.9847 124.114 55.0441C124.018 55.3726 123.805 57.1651 123.44 56.6646C123.416 56.6966 123.4 56.7552 123.361 56.7405C123.376 56.6829 123.422 56.6114 123.377 56.5849C123.254 56.7012 123.267 57.0177 123.208 57.2199C123.135 57.2437 123.054 57.2456 122.988 57.2923C123.13 57.7525 122.588 57.8019 122.561 58.2009C122.448 58.1707 122.603 58.0079 122.456 57.9959C122.592 58.608 121.971 59.2915 121.81 60.0052C121.696 59.976 121.956 59.7618 121.765 59.7701C121.678 60.298 121.159 61.1426 121.018 61.7941C120.953 61.6019 120.89 61.9413 120.778 61.9121C120.674 61.3933 121.103 61.0612 121.111 60.4244C121.041 60.4252 120.922 60.2844 120.887 60.3869C121.204 60.6925 120.737 61.1729 120.71 61.6139C120.639 61.6084 120.616 61.7457 120.509 61.6405C120.594 62.097 120.241 62.7833 119.876 63.2764C119.997 63.4878 119.659 63.7183 119.668 64.0038C119.649 63.8785 119.464 63.8346 119.519 63.6726C119.649 63.6626 119.636 63.8876 119.702 63.6936C119.428 63.5097 119.88 62.9927 119.826 62.8235C119.766 62.9378 119.782 62.7311 119.663 62.7567C119.692 63.001 119.497 63.1309 119.553 63.3615C119.395 63.411 119.131 63.7175 119.395 63.6516C119.283 63.6919 119.225 63.7897 119.172 63.8959L129.204 83.9277C129.278 83.8691 129.243 83.9606 129.325 83.6999C129.59 83.7831 129.319 83.9798 129.309 84.1363C129.307 84.1519 129.309 84.1674 129.314 84.1821C129.319 84.1802 129.325 84.1775 129.329 84.1756C129.544 84.0713 129.418 83.5205 129.687 83.6312C129.575 83.8499 129.508 84.1134 129.433 84.3833L130.453 86.4201C130.484 86.346 130.51 86.271 130.529 86.1941C130.633 86.2911 130.645 86.1209 130.688 86.0422C130.68 86.1794 130.613 86.3615 130.527 86.5674L130.596 86.7047C130.657 86.6223 130.717 86.5628 130.76 86.5591C130.757 86.6744 130.732 86.7897 130.695 86.9032L130.842 87.1978C131.009 86.723 131.319 86.0925 131.364 85.4521C131.471 85.3203 131.582 85.2005 131.722 85.1647C131.744 85.0156 131.579 85.1391 131.518 85.0815C131.535 84.9507 131.766 84.9342 131.674 84.8216C131.766 84.7008 131.756 84.7933 131.857 84.8418C131.893 84.5819 131.914 84.3906 132.006 84.2525C131.889 84.1491 131.882 84.3706 131.828 84.4511C131.745 84.2471 131.937 83.9433 132.079 83.849C132.249 83.8783 132.257 84.1756 132.383 83.9194C132.441 84.1812 131.942 84.5965 132.078 84.7686C132.322 84.4593 132.44 83.7758 132.763 83.6953C132.736 84.2625 132.327 84.5773 132.166 85.13C132.124 85.1117 132.081 85.0952 132.039 85.0778C131.84 85.8355 131.497 86.7486 130.993 87.4989L131.571 88.6517C131.579 88.6627 131.587 88.6746 131.593 88.6865C131.598 88.4659 131.79 88.2592 131.925 88.1174C132.034 88.3114 131.795 88.4925 132.038 88.6508C132.147 88.3204 131.868 88.0414 132.098 87.701C132.031 87.5994 131.896 87.7577 131.935 87.6342C132.045 87.5143 132.041 87.4668 132.01 87.3396C132.148 87.3999 132.219 87.2664 132.31 87.1913C132.311 86.7603 132.737 86.5206 132.631 86.0778C133.049 85.387 133.462 84.2936 133.551 83.6376C133.667 83.6376 133.702 83.3978 133.851 83.4893C133.812 83.1636 134.125 83.1197 134.02 82.8543C133.992 82.9092 133.962 82.9595 133.9 82.9138C133.912 82.7884 133.925 82.7811 133.993 82.5734C134.06 82.5944 134.132 82.6375 134.155 82.5304C133.954 82.2742 134.369 82.0098 134.504 81.8066C134.429 81.76 134.397 81.8368 134.343 81.8496C134.397 81.6611 134.509 81.3144 134.738 81.361C134.732 81.4974 134.495 81.4507 134.6 81.5752C134.638 81.5147 134.712 81.5596 134.761 81.533C134.737 80.9337 135.104 80.2676 135.274 79.9556C135.338 79.8413 135.223 79.7259 135.248 79.6738C135.317 79.5339 135.546 79.4936 135.583 79.2154C135.576 79.2676 135.613 79.1522 135.66 79.0306C135.678 78.9839 135.793 78.4642 136.011 78.4157C136.121 78.4377 135.917 78.8 136.037 78.6966C136.092 78.5246 136.067 78.4487 136.191 78.3269C135.965 78.2766 136.122 78.0149 136.244 77.9691C136.244 78.1411 136.165 78.3516 136.276 78.4696C136.33 78.1558 136.376 77.5464 136.725 77.7321C136.683 77.7147 136.707 77.6305 136.763 77.6398C136.786 77.8695 136.906 77.831 136.933 78.0341C136.83 77.2939 137.608 77.046 137.322 76.2984C137.404 76.3194 137.39 76.3872 137.466 76.4109C137.53 76.2691 137.393 76.2261 137.519 76.0531C137.592 76.0952 137.632 76.0375 137.702 76.0733C137.736 75.947 137.787 75.8107 137.756 75.7164C137.688 75.9287 137.565 75.9818 137.416 75.9571C137.606 75.6734 137.484 75.4474 137.806 75.2497C137.689 75.4181 137.87 75.4391 137.753 75.6075C137.868 75.6021 138.017 75.6981 138.074 75.5225C138.017 75.4895 137.917 75.4776 137.931 75.409C138.103 75.5151 138.411 74.9341 138.523 74.676C138.39 74.5644 138.358 74.7438 138.239 74.6687C138.309 74.633 138.353 74.5242 138.395 74.408C138.455 74.5452 138.455 74.5095 138.621 74.5535C138.718 74.4199 138.513 74.4354 138.575 74.3183C138.727 74.3878 138.761 74.1097 138.895 74.1243C138.842 73.8663 138.98 73.8535 139.073 73.9258C139.034 73.7035 139.101 73.6513 139.023 73.4729C139.136 73.429 139.073 73.4985 139.186 73.5397C139.226 73.3237 139.237 73.3511 139.361 73.2322C139.346 73.1416 139.292 73.0702 139.275 72.9806C139.393 72.9321 139.381 72.803 139.417 72.9843C139.711 72.5085 139.318 72.148 139.517 71.9421C139.228 71.7884 139.435 71.6246 139.608 71.4919C139.542 71.3904 139.405 71.5487 139.445 71.4252C139.589 71.3346 139.621 71.222 139.659 71.0253C139.806 71.039 139.755 71.1507 139.825 71.2019C139.8 71.0711 139.938 70.954 139.9 70.9073C139.849 70.9649 139.789 70.9942 139.72 70.996C139.766 70.8881 139.706 70.8313 139.794 70.7014C139.835 70.7188 139.876 70.7353 139.917 70.7517C139.857 70.2686 140.288 69.8056 140.175 69.5576C140.201 69.3948 140.322 69.5046 140.375 69.4231C140.32 69.3975 140.276 69.4075 140.233 69.4185C140.187 69.2657 140.727 68.8503 140.388 69.0489C140.495 68.8366 140.683 68.8366 140.642 68.6655C140.585 68.7688 140.487 68.7286 140.52 68.616C140.552 68.7066 140.634 68.7039 140.681 68.573C140.629 68.4998 140.651 68.3909 140.655 68.2912C140.714 68.4614 140.818 68.1082 140.811 68.0305C140.787 68.0625 140.772 68.1211 140.731 68.1064C140.753 68.0066 140.773 67.7221 140.905 67.6901C140.95 67.7413 140.837 67.8703 140.909 67.9078C141.046 67.7816 140.941 67.68 140.982 67.5043C141.255 67.5326 140.991 66.969 141.316 67.0458C141.005 67.3523 141.428 67.8071 141.011 67.8959C141.238 67.9984 141.034 68.0971 141.02 68.3323C141.17 68.3314 141.089 68.4458 141.144 68.4906C141.266 68.2911 141.154 68.3405 141.139 68.2728C141.202 68.2472 141.223 68.1073 141.32 68.1841C141.304 68.2408 141.259 68.3131 141.304 68.3396C141.35 68.1356 141.441 68.0587 141.56 68.0651C141.566 67.7842 141.752 67.6616 141.905 67.1227C141.869 67.0075 141.752 67.1346 141.78 66.9645C142.217 66.4384 142.087 65.7412 142.372 65.311C142.289 65.1655 142.102 65.3001 142.186 65.0722C142.29 64.9816 142.36 65.0484 142.449 65.1262C142.465 64.6358 142.826 64.4629 142.972 63.9861C142.705 63.6522 143.307 63.1544 143.148 62.7582C143.116 62.9961 143.003 63.2734 142.817 63.3264C142.741 63.0922 142.921 62.5303 143.168 62.7116C143.128 62.3986 143.532 62.3108 143.317 62.1233C143.598 62.1773 143.806 61.6475 143.847 61.3107C143.84 61.361 143.921 61.2613 143.965 61.1423C144.19 60.5174 144.565 59.7881 144.61 59.1321C144.676 59.1531 144.75 59.1961 144.772 59.0891C144.669 59.0415 144.565 58.9949 144.625 58.8676C144.727 58.8741 144.7 59.0515 144.766 58.8713C144.717 58.799 144.707 58.6765 144.822 58.6234C144.806 58.4972 144.698 58.6408 144.719 58.5264C144.76 58.4432 144.81 58.3827 144.878 58.3754C144.94 58.4056 144.861 58.5054 144.962 58.5172C144.945 58.3114 144.997 58.2866 145.013 58.0515C144.877 57.9856 144.951 58.2089 144.773 58.1696L144.773 58.1696ZM144.477 53.7183C144.563 53.7833 144.572 53.9663 144.444 54.0285C144.414 53.9351 144.376 53.7677 144.477 53.7183ZM144.432 53.4831C144.362 53.6908 144.371 53.8958 144.223 54.1017C144.086 53.9607 144.354 53.6359 144.432 53.4831ZM144.128 54.442C144.174 54.5738 144.184 54.7229 144.055 54.8456C143.963 54.8173 144.105 54.6736 144.111 54.5977C144.026 54.5538 144.024 54.7541 143.974 54.8127C143.903 54.6361 144.031 54.5904 144.128 54.4421V54.442ZM143.737 56.0689C143.92 56.1951 143.572 56.4385 143.626 56.5648C143.511 56.3946 143.717 56.293 143.737 56.0689ZM143.275 57.1797C143.446 57.0598 143.445 56.7698 143.525 56.5776C143.542 56.6947 143.56 57.1687 143.275 57.1797ZM143.497 56.1878C143.557 56.2729 143.395 56.5648 143.324 56.6041C143.218 56.5821 143.434 56.402 143.259 56.4147C143.348 56.3671 143.42 56.2692 143.497 56.1878H143.497ZM143.103 56.6764C143.197 56.7368 143.224 56.9107 143.128 56.9573C143.074 56.886 143.023 56.8137 143.103 56.6764ZM142.91 57.1385C142.933 57.0351 142.989 57.0278 143.028 56.9701C143.035 57.0634 143.111 57.1943 143.17 56.9738C143.168 57.1605 143.001 57.435 142.921 57.6847C142.751 57.5054 143.157 57.2382 142.91 57.1385H142.91ZM142.647 58.1147C142.575 58.5027 142.318 58.9547 142.192 59.5531C142.382 59.5879 142.247 59.3134 142.408 59.2622C142.537 59.3336 142.361 59.555 142.316 59.7115C142.129 59.7435 142.143 59.5633 141.949 59.5624C142.206 59.0043 142.256 58.5669 142.647 58.1148V58.1147ZM141.985 60.2805C142.156 60.3061 141.945 60.5203 141.931 60.6374C141.842 60.5221 141.937 60.4964 141.985 60.2805ZM141.708 60.5999C141.81 60.6612 141.795 60.7783 141.775 60.8981C141.753 60.8478 141.703 60.8112 141.631 60.7856C141.657 60.7234 141.682 60.6621 141.708 60.5999H141.708ZM141.694 61.8946C141.726 61.9221 141.759 62.1225 141.658 62.0959C141.641 62.1416 141.693 62.1526 141.721 62.1755C141.629 62.2963 141.638 62.203 141.538 62.1554C141.567 62.0017 141.665 62.0483 141.694 61.8946H141.694ZM141.461 62.3402C141.486 62.3841 141.511 62.4262 141.543 62.3741C141.635 62.4024 141.493 62.5452 141.487 62.622C141.433 62.5506 141.381 62.4774 141.461 62.3402ZM120.236 63.0987C120.109 63.0264 120.292 62.6577 120.431 62.7455C120.296 62.8855 120.345 62.9724 120.236 63.0987ZM120.627 62.3914C120.506 62.3182 120.612 62.0126 120.718 61.9421C120.789 61.9558 120.769 62.0144 120.821 62.0373C120.768 62.191 120.667 62.2047 120.627 62.3914ZM123.061 57.9172C122.999 57.8458 123.035 57.6692 123.136 57.6234C123.304 57.6417 123.109 57.897 123.061 57.9172ZM123.215 57.5466C123.113 57.3892 123.347 57.0653 123.423 56.8192C123.473 56.9345 123.517 56.8183 123.566 56.9327C123.357 57.1926 123.323 57.2685 123.215 57.5467V57.5466ZM132.516 80.6171C132.594 80.6894 132.425 80.8824 132.404 81.0042C132.239 80.8385 132.425 80.8019 132.516 80.6171ZM131.746 81.4388C131.931 81.5093 131.67 81.5715 131.67 81.7325C131.597 81.6265 131.665 81.544 131.746 81.4388ZM130.991 83.1343C131.1 83.1827 131.144 83.32 131.037 83.3694C130.923 83.3401 130.972 83.2303 130.991 83.1343ZM129.902 83.2312C129.996 83.3246 129.808 83.4225 129.786 83.5084C129.71 83.4847 129.723 83.4169 129.642 83.3959C129.542 83.3785 129.53 83.6173 129.466 83.7024C129.333 82.9109 129.904 82.3976 130.268 81.4323C130.324 81.4589 130.38 81.4863 130.41 81.435C130.373 82.027 129.913 82.792 129.68 83.3034C129.673 83.4361 129.877 83.34 129.902 83.2311V83.2312ZM130.736 83.5176C130.926 83.3675 131.107 83.3995 131.044 83.6978C131.014 83.675 131.023 83.6347 130.981 83.6182C130.732 84.2047 130.763 84.2917 130.622 84.8242C130.123 84.8379 130.672 83.8049 130.736 83.5176ZM130.582 85.837C130.852 85.676 130.806 85.2862 131.132 84.9788C131.088 85.3603 130.698 86.1115 130.582 85.837ZM131.11 84.9147C131.01 84.891 131.12 84.7628 131.045 84.7262C131.124 84.5688 131.148 84.9046 131.227 84.7463C131.334 84.8434 131.145 84.8954 131.11 84.9147H131.11ZM131.33 84.8424C131.534 84.6896 131.352 84.4251 131.541 84.2248C131.622 84.2943 131.585 84.4224 131.667 84.4929C131.52 84.5047 131.498 84.8881 131.33 84.8424ZM131.658 84.0564C131.544 83.8286 131.814 83.6383 131.866 83.329C131.955 83.3831 131.988 83.4644 132.132 83.4919C131.995 83.7352 131.859 83.8085 131.658 84.0564ZM132.704 82.8047C132.634 82.769 132.594 82.8267 132.522 82.7846C132.559 82.5833 132.702 82.6949 132.738 82.4936C132.786 82.5677 132.701 82.7086 132.704 82.8047H132.704ZM133.04 81.4258C132.706 81.9345 132.528 82.4432 132.242 82.995C132.321 83.0187 132.332 82.8486 132.401 82.844C132.525 82.9026 132.362 83.1588 132.245 83.1048C132.274 83.2695 132.304 83.2924 132.492 83.3143C132.052 83.5788 131.982 83.2457 132.257 82.7305C132.181 82.7451 132.137 82.855 132.08 82.9291C131.942 82.898 132.138 82.704 132.053 82.6473C132.093 82.5897 132.173 82.651 132.236 82.6675C132.381 82.2008 132.376 82.1597 132.559 81.6628C132.74 81.6646 132.657 81.4276 132.857 81.4048C132.873 81.2638 132.707 81.5081 132.694 81.3389C132.863 81.0269 132.96 81.1046 133.045 80.724C132.933 80.6691 132.968 81.047 132.827 80.9051C132.98 80.7185 133.013 80.5355 133.017 80.3333C133.117 80.358 133.17 80.4056 133.202 80.4632C133.264 80.3461 133.208 80.2876 133.096 80.2574C133.15 80.0048 133.29 80.0039 133.413 79.9546C133.614 80.3242 132.955 81.0279 133.04 81.4259L133.04 81.4258ZM133.856 55.6094C134.051 55.6972 133.899 55.9552 133.807 56.1849C133.614 56.0669 133.774 55.7823 133.856 55.6094ZM133.895 56.5454C133.881 56.4914 133.895 56.4238 133.931 56.3442C134.133 56.432 133.633 57.0734 133.895 56.5454ZM135.793 77.6771C135.632 77.5389 135.844 77.4364 135.825 77.2562C135.962 77.3239 135.793 77.5425 135.793 77.6771ZM135.998 76.8399C135.8 76.5993 136.268 75.7217 136.43 75.2295C136.48 75.6605 136.051 76.4766 135.998 76.8399ZM136.414 76.4144C136.44 76.3531 136.466 76.2909 136.492 76.2296C136.532 76.246 136.572 76.2625 136.614 76.279C136.559 76.3605 136.515 76.4721 136.414 76.4144ZM136.469 76.1665C136.367 76.1189 136.454 75.979 136.503 75.8554C136.545 75.8719 136.585 75.8893 136.627 75.9058C136.584 76.022 136.539 76.1309 136.47 76.1665H136.469ZM137.029 76.7732C137.149 77.0102 136.905 76.7649 136.87 76.9251C136.82 76.8885 136.885 76.7961 136.906 76.7238C136.963 76.7513 137.019 76.7787 137.048 76.7275C137.091 76.755 137.051 76.7833 137.029 76.7733L137.029 76.7732ZM138.145 75.0091C137.975 74.9734 137.96 74.9789 137.878 74.8463C137.992 74.8106 138.22 74.8151 138.145 75.0091ZM138.119 74.7282C138.064 74.7411 138.032 74.817 137.958 74.7703C138 74.7391 138.041 74.7081 137.996 74.6779C138.028 74.6321 138.091 74.6797 138.117 74.6184C138.139 74.6569 138.164 74.6943 138.22 74.7154C138.183 74.762 138.098 74.8023 138.119 74.7282H138.119ZM138.299 71.77C138.229 71.7343 138.19 71.7911 138.117 71.7499C138.211 71.6135 138.301 71.4663 138.413 71.3829C138.548 71.4753 138.328 71.5641 138.299 71.7699L138.299 71.77ZM138.526 70.9959C138.582 71.0243 138.639 71.0508 138.668 71.0005C138.786 71.049 138.656 71.3006 138.573 71.3409C138.475 71.2667 138.467 71.1479 138.527 70.9959H138.526ZM138.777 72.3437C138.745 72.4206 138.713 72.4984 138.681 72.5752C138.55 72.5413 138.659 72.3895 138.654 72.2934C138.695 72.3108 138.736 72.3273 138.777 72.3437ZM138.734 74.1673C138.684 74.1298 138.749 74.0373 138.77 73.9651C138.719 73.9532 138.701 74.0356 138.672 74.0877C138.577 74.1006 138.593 73.8929 138.508 74.021C138.464 73.9496 138.717 73.8874 138.808 73.8727C138.754 74.0429 138.874 74.032 138.734 74.1674L138.734 74.1673ZM138.988 71.835C139.106 72.0903 139.177 72.3199 138.864 72.5953C138.796 72.4288 139.081 72.1662 138.789 71.9695C139.016 71.6108 139.08 71.2713 139.237 71.124C139.379 71.3592 139.206 71.7233 138.988 71.835ZM139.288 72.6072C139.24 72.4708 139.196 72.5825 139.149 72.7124C139.008 72.5889 139.291 72.4379 139.363 72.3117C139.451 72.3547 139.298 72.5157 139.288 72.6072ZM139.55 70.6015C139.423 70.8276 139.296 70.8797 139.339 71.1112C139.27 71.0829 139.202 71.0554 139.134 71.028C139.293 70.7955 139.331 70.4241 139.541 70.1651C139.636 70.3325 139.399 70.4487 139.55 70.6015H139.55ZM141.474 63.9158C141.509 64.01 141.476 64.2817 141.617 64.0283C141.767 64.1637 141.513 64.3302 141.465 64.5077C141.393 64.2963 141.439 64.2113 141.474 63.9158ZM141.366 63.601C141.489 63.6989 141.278 63.7831 141.312 63.9578C141.142 63.9322 141.351 63.7181 141.366 63.601ZM141.304 65.4703C141.26 65.4062 141.264 65.3184 141.318 65.2058C141.443 65.2452 141.394 65.4291 141.304 65.4703ZM141.218 64.2991C141.341 64.3531 141.188 64.6403 141.105 64.6861C141.079 64.5397 141.182 64.5085 141.218 64.2991ZM141.014 67.0843C140.875 67.0669 140.927 66.9553 140.788 66.9379C140.891 66.8976 140.912 66.6177 141.068 66.7275C140.948 66.6012 141.182 66.4237 141.26 66.2644C141.105 66.5628 141.172 66.882 141.014 67.0843H141.014ZM141.181 66.3405C141.079 66.3908 140.925 66.2791 141.034 66.119C141.22 66.3579 141.098 65.903 141.334 65.9699C141.222 66.1456 141.261 66.1273 141.181 66.3405ZM141.419 68.0625C141.35 68.0313 141.298 68.0533 141.258 68.1045C141.171 68.0615 141.218 67.9526 141.272 67.8401C141.322 67.9544 141.366 67.8382 141.417 67.9526C141.471 67.873 141.477 67.6507 141.594 67.754C141.513 67.7915 141.47 67.9389 141.419 68.0624V68.0625ZM141.609 67.4897C141.541 67.3167 141.648 67.2957 141.744 67.1658C141.811 67.3387 141.704 67.3597 141.609 67.4897ZM142.102 64.9295C142.205 64.7776 142.102 64.6687 142.236 64.6056C142.434 64.623 142.254 65.0557 142.102 64.9295ZM142.234 64.4967C142.394 64.4528 142.504 64.2625 142.696 64.3054C142.575 64.4664 142.454 64.6256 142.234 64.4967ZM118.945 63.4435L119.071 63.6933C119.101 63.4929 119.102 63.3163 119.185 63.1022C119.026 63.212 118.988 63.3199 118.945 63.4434V63.4435Z" fill="black"/>
<path opacity="0.1" fill-rule="evenodd" clip-rule="evenodd" d="M64.3037 78C64.2559 78.215 64.2164 78.4483 64.1429 78.5774C63.9372 78.9379 63.7975 79.6095 63.6257 80.1649C63.352 81.0488 62.8522 81.8677 62.7971 82.6784C62.7236 82.6564 62.6427 82.6116 62.6179 82.7333C62.6822 82.769 62.7925 82.779 62.7787 82.8568C62.6501 83.0911 62.4902 83.2392 62.2982 83.2878C62.3662 83.3774 62.4038 83.4826 62.4397 83.5888C62.4893 83.4992 62.4167 83.2732 62.5647 83.2686C62.5454 83.3775 62.6565 83.4131 62.5509 83.5705C62.177 83.6785 62.4141 83.6281 62.2018 83.9292C62.2413 83.8386 62.222 83.7791 62.1751 83.7334C62.222 84.0334 61.8297 84.3144 61.8848 84.6072C62.0676 84.3565 62.0566 84.2522 62.2513 84.0701C62.1733 84.3611 62.1173 84.4142 62.1107 84.695C62.0069 84.7133 62.0226 84.4763 61.9297 84.6246C62.0216 84.9503 61.3619 85.1745 61.441 85.6082C61.4446 85.4838 61.6275 85.3401 61.5944 85.482C61.5485 85.6174 61.4585 85.6201 61.3996 85.7153C61.6275 86.0382 61.1929 86.321 61.2444 86.6394C61.1295 86.7492 61.0671 86.7181 61.0018 86.7327C61.1166 86.8791 60.9678 87.3933 60.9091 87.4968C60.7565 87.4693 60.9715 87.2387 60.8778 87.1774C60.6978 87.7264 60.7822 87.9661 60.7721 88.2452C60.7363 88.3733 60.6187 88.2543 60.5737 88.3541C60.8043 88.3413 60.6876 88.7631 60.6132 89.0458C60.4616 88.9672 60.3817 88.9544 60.3633 88.8885C60.4377 88.8519 60.4772 88.6487 60.4442 88.5499C60.2962 88.6698 60.3441 88.3294 60.2356 88.2864C60.3054 88.1849 60.3504 88.1995 60.3927 88.2837C60.4432 87.8482 60.7546 87.4007 60.8061 86.9643C60.8557 86.9936 60.8704 87.0997 60.9411 87.0173C60.7491 87.0393 60.9852 86.8252 60.8694 86.8041C60.7197 86.9231 60.7243 86.6066 60.726 86.5041C60.7692 86.5891 60.8142 86.6038 60.8831 86.5022C60.6534 86.2744 61.0705 86.1106 60.9575 85.9148C61.0724 85.816 61.0595 86.0749 61.1348 85.8599C61.0751 85.8362 61.0144 85.8142 60.9538 85.7913C61.0071 85.5891 61.2093 85.0236 61.2643 84.8635C61.3397 84.7373 60.9823 84.9275 61.1265 84.6878C61.3158 84.804 61.2726 84.0629 61.6042 84.1315C61.651 83.5789 61.9441 83.4591 61.9084 82.9558C61.9938 82.9622 62.1821 82.6987 62.1004 82.5971C62.0995 82.6977 61.9194 82.7965 61.969 82.6703C62.4816 81.9612 62.7711 80.8586 63.1964 80.0626C63.1643 80.1184 63.1146 80.1275 63.0651 80.1349C63.0935 80.0636 63.122 79.9922 63.1487 79.9217C63.2121 79.9428 63.2387 79.9839 63.2644 80.0261C63.224 79.7973 63.6135 79.629 63.5851 79.4716C63.4721 79.6052 63.5667 79.3664 63.6264 79.3655C63.5162 79.2813 63.5272 79.316 63.5088 79.1358C63.4702 79.2127 63.4482 79.3398 63.3802 79.3334C63.3748 78.8961 63.6935 78.4194 63.9241 78.0003H53.6926C53.6788 78.0606 53.6641 78.1265 53.6485 78.197C53.5934 78.1585 53.6605 78.0543 53.6338 78.0003H53.3224C53.2002 78.563 53.0569 79.2245 52.5186 79.4899C52.6123 79.2703 52.6693 79.0717 52.639 78.9189C52.6619 79.0717 52.2117 79.5951 52.4598 79.7744C52.4149 79.9509 52.3174 79.9711 52.2191 79.9894C52.1218 79.9318 52.0216 79.8741 52.1218 79.7066C52.0226 79.6444 52.0519 79.9601 51.9242 79.8156C52.0528 79.466 52.2467 79.3059 52.3716 78.9399C52.2301 79.025 52.1033 79.2354 51.9628 79.585C52.0106 78.9537 52.1079 78.5089 52.322 78.0002H41.8985C41.6725 78.5693 41.5089 79.1228 41.2793 79.6865C41.2269 79.6728 41.2398 79.5822 41.1901 79.6517C41.0845 80.0296 40.8622 82.081 40.4552 81.5256C40.4285 81.5631 40.413 81.63 40.3679 81.6153C40.3863 81.5494 40.435 81.467 40.3854 81.4377C40.2504 81.5759 40.2669 81.9345 40.2035 82.1679C40.1226 82.1991 40.0335 82.2036 39.96 82.2594C40.1208 82.7782 39.5228 82.8569 39.4961 83.3126C39.3702 83.2833 39.5411 83.092 39.3784 83.0838C39.5319 83.7756 38.8521 84.5807 38.6775 85.4006C38.5517 85.3713 38.8374 85.117 38.6261 85.1343C38.5848 85.4015 38.4516 85.7418 38.3027 86.1042L47.4502 104.369H47.4511L47.5393 104.546L47.5493 104.566L50.4525 110.363C50.5113 110.152 50.5535 110.002 50.684 109.624C50.8842 109.619 50.7915 109.353 51.012 109.318C51.0276 109.156 50.8475 109.443 50.831 109.25C51.0147 108.887 51.1241 108.972 51.2141 108.535C51.09 108.477 51.1323 108.906 50.9752 108.751C51.1433 108.531 51.1792 108.321 51.181 108.091C51.2922 108.115 51.351 108.166 51.3859 108.23C51.4548 108.095 51.3923 108.031 51.2673 108.002C51.3262 107.711 51.4805 107.704 51.6155 107.642C51.8406 108.055 51.1176 108.885 51.2132 109.335C50.9514 109.761 50.7777 110.184 50.5848 110.627L50.6795 110.815C50.7392 110.704 50.855 110.756 50.8871 110.564C50.9413 110.647 50.8476 110.811 50.8513 110.92C50.8035 110.896 50.7695 110.912 50.7309 110.918L51.6073 112.669C51.6973 112.36 51.7626 112.071 51.7919 111.833C51.9215 111.827 51.9583 111.553 52.1227 111.651C52.0776 111.282 52.4221 111.218 52.3055 110.921C52.2742 110.985 52.2421 111.042 52.1723 110.994C52.1842 110.85 52.199 110.841 52.2742 110.602C52.3477 110.623 52.4285 110.669 52.4525 110.545C52.2283 110.262 52.685 109.944 52.8328 109.707C52.7492 109.657 52.7143 109.745 52.6556 109.763C52.7135 109.546 52.8356 109.146 53.0883 109.189C53.0819 109.344 52.821 109.302 52.9377 109.439C52.9799 109.369 53.0608 109.416 53.115 109.383C53.0847 108.703 53.4853 107.929 53.6717 107.566C53.7397 107.433 53.6129 107.306 53.6406 107.246C53.7168 107.083 53.9685 107.027 54.0071 106.71C53.9998 106.768 54.0403 106.636 54.0908 106.495C54.111 106.441 54.235 105.844 54.4748 105.78C54.597 105.801 54.3747 106.222 54.5051 106.1C54.5649 105.9 54.5373 105.815 54.6732 105.671C54.4233 105.623 54.5952 105.319 54.7293 105.261C54.7312 105.458 54.6448 105.701 54.7661 105.83C54.8249 105.471 54.8727 104.774 55.2585 104.971C55.2136 104.953 55.2383 104.856 55.3017 104.864C55.3274 105.126 55.4597 105.076 55.491 105.306C55.3725 104.467 56.2297 104.153 55.9081 103.312C55.999 103.333 55.9844 103.41 56.0689 103.435C56.1387 103.27 55.9862 103.227 56.1258 103.025C56.2048 103.07 56.2479 103.003 56.326 103.041C56.3637 102.894 56.4179 102.738 56.383 102.632C56.3095 102.876 56.1753 102.942 56.0109 102.92C56.2185 102.589 56.0816 102.336 56.4363 102.098C56.3076 102.294 56.5089 102.311 56.3793 102.507C56.5069 102.496 56.6724 102.599 56.7348 102.398C56.6714 102.362 56.5602 102.352 56.5749 102.275C56.7651 102.388 57.1023 101.712 57.2236 101.414C57.0775 101.292 57.0426 101.498 56.9112 101.418C56.9866 101.375 57.0361 101.248 57.0812 101.114C57.1473 101.267 57.1473 101.226 57.3311 101.27C57.4394 101.114 57.2107 101.14 57.2805 101.004C57.4486 101.077 57.4826 100.759 57.6315 100.77C57.5718 100.477 57.7234 100.458 57.8263 100.536C57.7822 100.285 57.8566 100.222 57.7684 100.022C57.8924 99.9674 57.8244 100.049 57.9484 100.091C57.9925 99.8439 58.0044 99.874 58.1413 99.7341C58.1221 99.6325 58.0633 99.5529 58.044 99.4504C58.1735 99.3901 58.1588 99.2446 58.2002 99.4486C58.5217 98.8941 58.0853 98.4998 58.304 98.2573C57.9843 98.0945 58.2112 97.8986 58.4023 97.7413C58.3278 97.6287 58.179 97.8144 58.2222 97.6718C58.3803 97.5628 58.4143 97.4329 58.4556 97.2079C58.6173 97.217 58.5622 97.346 58.6394 97.4C58.6118 97.2536 58.7634 97.1145 58.7202 97.0633C58.6651 97.1292 58.5989 97.1658 58.5217 97.1722C58.5731 97.046 58.5052 96.9837 58.6025 96.8327C58.6485 96.8502 58.6935 96.8666 58.7385 96.8839C58.6687 96.3367 59.1418 95.7915 59.015 95.5133C59.0426 95.3266 59.1758 95.4474 59.2355 95.3513C59.1731 95.3247 59.1253 95.3385 59.0785 95.3522C59.027 95.1811 59.6214 94.6833 59.2457 94.924C59.3642 94.6779 59.5709 94.6706 59.525 94.4775C59.4625 94.5975 59.3541 94.5553 59.3899 94.4263C59.4258 94.527 59.5167 94.5215 59.5672 94.3696C59.5103 94.29 59.5342 94.1646 59.5369 94.0512C59.6021 94.2415 59.7142 93.8353 59.7077 93.7474C59.682 93.784 59.6645 93.8518 59.6205 93.8362C59.6434 93.7227 59.6645 93.397 59.8088 93.3549C59.8593 93.4116 59.7353 93.5635 59.8152 93.6038C59.9659 93.4528 59.8483 93.3412 59.8933 93.1399C60.1946 93.1609 59.9006 92.5296 60.2589 92.6037C59.9172 92.966 60.3867 93.4665 59.9264 93.5855C60.1781 93.6916 59.9539 93.8133 59.9401 94.0824C60.1055 94.0751 60.0164 94.2077 60.0779 94.2571C60.2111 94.0246 60.0881 94.086 60.0725 94.01C60.1395 93.978 60.1634 93.8179 60.2709 93.9002C60.2526 93.9661 60.2039 94.0503 60.2535 94.0787C60.304 93.8435 60.4032 93.7529 60.5346 93.7557C60.5401 93.4345 60.745 93.2872 60.9085 92.6669C60.8681 92.537 60.7404 92.6879 60.7707 92.4912C61.2494 91.8745 61.1014 91.0849 61.4138 90.5835C61.3201 90.4206 61.1143 90.5816 61.2052 90.319C61.321 90.2111 61.3981 90.2833 61.4983 90.3685C61.5121 89.8094 61.9081 89.5971 62.067 89.0481C61.7702 88.6794 62.4317 88.0874 62.2543 87.6427C62.2204 87.9145 62.0973 88.2357 61.8915 88.3033C61.8061 88.0389 62.0017 87.392 62.2755 87.5887C62.2295 87.2336 62.6742 87.1166 62.4372 86.9117C62.7449 86.9611 62.9719 86.3535 63.0159 85.9692C63.0159 86.0122 63.0996 85.8997 63.1446 85.766C63.389 85.045 63.7987 84.1987 63.8446 83.4493C63.9172 83.4703 63.998 83.517 64.0219 83.3944C63.9089 83.3432 63.7931 83.2956 63.8593 83.1465C63.9713 83.1511 63.9429 83.3533 64.0163 83.1456C63.9603 83.0651 63.9483 82.9269 64.0751 82.8601C64.0568 82.7174 63.9392 82.8857 63.9603 82.7558C64.0053 82.6579 64.0604 82.5874 64.1357 82.5755C64.2038 82.6075 64.1174 82.7246 64.2286 82.7348C64.2083 82.5014 64.2663 82.4694 64.2818 82.2013C64.1311 82.1318 64.2148 82.3824 64.0172 82.3458C63.8996 80.976 64.6024 79.6494 64.9883 78.4077C65.127 78.3949 64.9305 78.7672 65.0609 78.6218C65.1023 78.3355 65.0986 78.1515 65.1326 78.0005H64.3039L64.3037 78ZM63.2811 78.1244C63.3335 78.2735 63.3454 78.4428 63.2049 78.5883C63.103 78.559 63.2582 78.3897 63.2637 78.3028C63.1691 78.2571 63.1681 78.4849 63.114 78.5535C63.0341 78.3559 63.1756 78.2982 63.2812 78.1244H63.2811ZM62.8603 79.9947C63.0633 80.131 62.6812 80.4228 62.7418 80.5656C62.6123 80.3753 62.8401 80.2518 62.8603 79.9947ZM62.3578 81.2803C62.5452 81.1366 62.5434 80.8054 62.6306 80.5839C62.649 80.7157 62.6729 81.2555 62.3578 81.2803ZM62.5958 80.1411C62.6638 80.2353 62.4855 80.5739 62.4074 80.6214C62.2907 80.6013 62.5277 80.3872 62.3348 80.4091C62.4322 80.3515 62.5112 80.2371 62.5958 80.1411ZM62.164 80.7139C62.2687 80.7789 62.2999 80.9765 62.1943 81.0332C62.1336 80.9536 62.0767 80.8731 62.164 80.7139ZM61.9536 81.2491C61.9784 81.1302 62.0409 81.1192 62.084 81.0524C62.0905 81.1576 62.1759 81.304 62.2402 81.0506C62.2384 81.2628 62.0565 81.5822 61.9701 81.8713C61.7808 81.6736 62.2273 81.3515 61.9536 81.2491ZM61.6706 82.3718C61.5934 82.8165 61.3133 83.3426 61.1763 84.0298C61.3859 84.0618 61.237 83.7553 61.4133 83.6885C61.5567 83.7654 61.3637 84.0243 61.315 84.2054C61.1083 84.2493 61.1221 84.0426 60.909 84.0499C61.1883 83.4039 61.2406 82.9034 61.6706 82.3719L61.6706 82.3718ZM60.9522 84.8669C61.1405 84.8898 60.9108 85.1414 60.8962 85.2759C60.7978 85.1478 60.9007 85.1149 60.9522 84.8669ZM60.6499 85.2439C60.762 85.3079 60.7463 85.4425 60.7252 85.5797C60.7004 85.523 60.6462 85.4836 60.5645 85.458C60.5929 85.3867 60.6214 85.3153 60.6499 85.2439ZM60.6426 86.7179C60.6783 86.7481 60.7169 86.975 60.6039 86.9494C60.5856 87.0016 60.6426 87.0126 60.6728 87.0382C60.5737 87.1791 60.582 87.072 60.4707 87.0217C60.5029 86.846 60.6113 86.8945 60.6426 86.7179ZM60.3871 87.2367C60.4155 87.2843 60.4431 87.3319 60.4781 87.2706C60.58 87.2999 60.4248 87.4673 60.4192 87.5542C60.3577 87.4746 60.3007 87.3941 60.3871 87.2367ZM40.0453 82.9683C39.9764 82.8906 40.0158 82.6874 40.1261 82.6298C40.3117 82.6454 40.0976 82.9446 40.0453 82.9683ZM40.2125 82.541C40.0986 82.3645 40.3558 81.9865 40.4375 81.7029C40.4935 81.8319 40.5413 81.6974 40.5965 81.8255C40.3668 82.1312 40.3309 82.219 40.2124 82.541H40.2125ZM50.5084 108.88C50.3265 108.699 50.5304 108.649 50.6305 108.434C50.7178 108.514 50.5314 108.741 50.5084 108.88ZM51.9489 79.8867C52.1639 79.9773 51.9985 80.2793 51.8984 80.5437C51.6843 80.4175 51.8589 80.0863 51.9489 79.8867ZM51.9977 80.9518C51.982 80.8904 51.9967 80.8118 52.0363 80.7203C52.2605 80.8127 51.7119 81.5639 51.9977 80.9518ZM54.2292 104.947C54.0501 104.797 54.2833 104.671 54.2622 104.468C54.4138 104.537 54.2282 104.795 54.2292 104.947ZM54.4497 103.986C54.2292 103.719 54.7409 102.7 54.9164 102.133C54.9743 102.62 54.5066 103.569 54.4497 103.986ZM54.9071 103.483C54.9356 103.412 54.9623 103.34 54.9907 103.268C55.0358 103.286 55.0808 103.303 55.1267 103.32C55.0661 103.416 55.0192 103.546 54.9071 103.483ZM54.9669 103.198C54.8539 103.148 54.9466 102.985 55.0027 102.843C55.0477 102.86 55.0927 102.878 55.1378 102.894C55.0919 103.029 55.0432 103.155 54.9669 103.198H54.9669ZM55.5878 103.866C55.722 104.131 55.45 103.861 55.4133 104.046C55.3573 104.006 55.428 103.897 55.4519 103.815C55.5143 103.844 55.5759 103.872 55.6081 103.812C55.6558 103.843 55.6118 103.876 55.5878 103.866V103.866ZM56.8088 101.81C56.6204 101.776 56.6048 101.782 56.5129 101.634C56.6378 101.589 56.8896 101.585 56.8088 101.81ZM56.7785 101.49C56.7188 101.507 56.6829 101.595 56.5993 101.544C56.6471 101.508 56.693 101.47 56.6425 101.438C56.6764 101.384 56.7463 101.436 56.7748 101.366C56.7997 101.407 56.8262 101.449 56.8897 101.471C56.8492 101.526 56.7565 101.575 56.7785 101.49L56.7785 101.49ZM56.9585 98.1114C56.8794 98.0739 56.8372 98.1415 56.7564 98.0968C56.8593 97.9385 56.9585 97.7655 57.0816 97.6667C57.2313 97.7655 56.9879 97.8763 56.9585 98.1115V98.1114ZM57.2038 97.2202C57.2662 97.2504 57.3278 97.2797 57.36 97.2202C57.4913 97.2705 57.348 97.5633 57.258 97.6118C57.1487 97.5313 57.1386 97.3967 57.2039 97.2202H57.2038ZM57.4894 98.7464C57.4536 98.8351 57.4197 98.9239 57.3847 99.0136C57.2396 98.9815 57.359 98.8031 57.3535 98.6942C57.3986 98.7116 57.4445 98.729 57.4894 98.7464ZM57.4536 100.825C57.3985 100.785 57.4683 100.676 57.4922 100.593C57.4361 100.583 57.416 100.676 57.3838 100.736C57.28 100.756 57.2956 100.519 57.2028 100.668C57.1532 100.588 57.4334 100.507 57.5335 100.487C57.4747 100.683 57.607 100.665 57.4536 100.825ZM57.7191 98.1571C57.8505 98.4426 57.9304 98.7025 57.5859 99.0291C57.5106 98.8424 57.8239 98.5305 57.4995 98.3191C57.7485 97.9009 57.8165 97.5111 57.9892 97.3373C58.1473 97.599 57.9598 98.0208 57.7191 98.1571ZM58.0544 99.0246C58.002 98.8709 57.9534 99.0008 57.9028 99.1499C57.7448 99.0154 58.0572 98.8315 58.1362 98.6851C58.2327 98.7309 58.0664 98.9193 58.0544 99.0246V99.0246ZM58.331 96.7288C58.1922 96.9906 58.0526 97.0564 58.1004 97.3172C58.025 97.2889 57.9506 97.2596 57.8744 97.2312C58.0481 96.9603 58.0884 96.5358 58.3182 96.2311C58.4238 96.4186 58.1639 96.5605 58.3311 96.7288H58.331ZM60.4118 89.0311C60.4523 89.1363 60.4173 89.4474 60.5707 89.1537C60.7371 89.3011 60.4586 89.5005 60.4063 89.7055C60.3245 89.4676 60.3751 89.3688 60.4117 89.0312L60.4118 89.0311ZM60.2914 88.676C60.4283 88.7831 60.1959 88.8874 60.2345 89.0859C60.0461 89.063 60.2758 88.8114 60.2914 88.676ZM60.2345 90.8089C60.1848 90.7384 60.1904 90.6369 60.2482 90.5069C60.3869 90.5472 60.3328 90.7586 60.2345 90.8089ZM60.1325 89.4775C60.2685 89.5343 60.1022 89.8682 60.0104 89.9231C59.9792 89.7575 60.094 89.7182 60.1325 89.4775ZM59.9249 92.6599C59.7715 92.6462 59.8275 92.5162 59.6742 92.5025C59.788 92.4522 59.8101 92.1328 59.9819 92.2499C59.8487 92.1127 60.1069 91.9013 60.1905 91.7155C60.0224 92.0623 60.0977 92.4238 59.925 92.6598L59.9249 92.6599ZM60.1041 91.8053C59.992 91.8666 59.822 91.7467 59.9415 91.5583C60.1482 91.8246 60.0095 91.3103 60.2722 91.3771C60.1482 91.5811 60.1922 91.5592 60.1041 91.8053ZM60.3778 93.7569C60.3016 93.724 60.2446 93.7515 60.2005 93.8118C60.105 93.7661 60.1555 93.6407 60.2152 93.5099C60.2713 93.6389 60.319 93.5044 60.3741 93.6325C60.4348 93.5392 60.4403 93.2857 60.5699 93.3983C60.4807 93.445 60.4329 93.6142 60.3778 93.757V93.7569ZM60.5845 93.0972C60.5083 92.9023 60.6267 92.8739 60.7306 92.723C60.806 92.9169 60.6884 92.9453 60.5845 93.0972ZM61.1119 90.1592C61.2248 89.9826 61.1109 89.8618 61.258 89.7849C61.4766 89.7959 61.28 90.2955 61.1119 90.1592ZM61.2552 89.6605C61.4316 89.6029 61.5519 89.3824 61.7632 89.4235C61.6319 89.612 61.4977 89.7987 61.2552 89.6605Z" fill="black"/>
<path d="M144.776 53.3503L98.8739 145L67.7539 144.907L113.867 53.3047L144.776 53.3503Z" fill="#E6EAEE"/>
<path d="M0.5 144.906L34.0099 78H64.9417L31.4319 144.906H0.5Z" fill="#E6EAEE"/>
<path d="M248.685 29.2877L229.287 68.0182L216.435 93.6787L203.584 119.339L190.732 145L183.01 144.977L175.288 144.954L167.566 144.931L159.845 144.908L173.675 117.294L187.506 89.6804L201.337 62.0664L222.845 19.123L248.685 29.2877Z" fill="#91A0E2"/>
<path d="M258.501 57.3332L239.394 47.8411L229.288 68.0184L216.436 93.6793L203.585 119.339L190.733 145L175.29 144.954L159.793 145L173.676 117.294L186.048 92.5941L187.507 89.6808L201.337 62.0664L210.398 43.9752L211.505 41.7656L211.633 41.5094L212.975 38.8294L214.625 35.5354L208.144 32.3156L207.723 32.106L207.564 32.0274L206.865 31.6796L206.261 31.3795L204.896 30.7015L204.091 30.3017L202.627 29.5751L201.822 29.1744L196.103 26.3333L223.296 12.6131L230.302 9.07757L239.182 4.59689L243.311 2.51346L248.293 0L248.357 0.363251L248.732 2.46586L248.818 2.94718L248.898 3.40104L258.501 57.3332Z" fill="#E6EAEE"/>
</g>
<defs>
<clipPath id="clip0_1253_31101">
<rect width="258" height="145" fill="white" transform="translate(0.5)"/>
</clipPath>
</defs>
</svg>
