<svg width="27" height="26" viewBox="0 0 27 26" fill="none" xmlns="http://www.w3.org/2000/svg">
<rect x="0.75" width="26" height="26" rx="2" fill="#EC97A9"/>
<g clip-path="url(#clip0_2195_35574)">
<path d="M7.74998 7H19.75C19.9268 7 20.0964 7.07024 20.2214 7.19526C20.3464 7.32029 20.4166 7.48986 20.4166 7.66667V18.3333C20.4166 18.5101 20.3464 18.6797 20.2214 18.8047C20.0964 18.9298 19.9268 19 19.75 19H7.74998C7.57317 19 7.4036 18.9298 7.27858 18.8047C7.15355 18.6797 7.08331 18.5101 7.08331 18.3333V7.66667C7.08331 7.48986 7.15355 7.32029 7.27858 7.19526C7.4036 7.07024 7.57317 7 7.74998 7ZM15.612 11.5287L13.9786 13.162L12.5646 11.7473L9.73598 14.576L10.6786 15.5187L12.5646 13.6333L13.9786 15.0473L16.5546 12.4713L17.75 13.6667V10.3333H14.4166L15.612 11.5287Z" fill="white"/>
</g>
<defs>
<clipPath id="clip0_2195_35574">
<rect width="16" height="16" fill="white" transform="translate(5.75 5)"/>
</clipPath>
</defs>
</svg>
