<svg width="212" height="140" viewBox="0 0 212 140" fill="none" xmlns="http://www.w3.org/2000/svg">
<g clip-path="url(#clip0_5754_261473)">
<rect width="212" height="140" rx="8" fill="white"/>
<rect width="212" height="16" fill="#9E9E9E"/>
<rect x="12" y="6" width="78" height="4" rx="2" fill="#BDBDBD"/>
<circle cx="202" cy="8" r="2" fill="#BDBDBD"/>
<circle cx="196" cy="8" r="2" fill="#BDBDBD"/>
<circle cx="190" cy="8" r="2" fill="#BDBDBD"/>
<path d="M12 32C12 29.7909 13.7909 28 16 28H68C70.2091 28 72 29.7909 72 32V44C72 46.2091 70.2091 48 68 48H16C13.7909 48 12 46.2091 12 44V32Z" fill="#E5F2FC"/>
<path d="M19.9091 40H18.4304V35.6364H19.9389C20.3722 35.6364 20.7443 35.7237 21.0554 35.8984C21.3679 36.0717 21.608 36.321 21.7756 36.6463C21.9432 36.9716 22.027 37.3608 22.027 37.8139C22.027 38.2685 21.9425 38.6591 21.7734 38.9858C21.6058 39.3125 21.3636 39.5632 21.0469 39.7379C20.7315 39.9126 20.3523 40 19.9091 40ZM19.2209 39.3161H19.8707C20.1747 39.3161 20.4283 39.2607 20.6314 39.1499C20.8345 39.0376 20.9872 38.8707 21.0895 38.6491C21.1918 38.4261 21.2429 38.1477 21.2429 37.8139C21.2429 37.4801 21.1918 37.2031 21.0895 36.983C20.9872 36.7614 20.8359 36.5959 20.6357 36.4865C20.4368 36.3757 20.1896 36.3203 19.8942 36.3203H19.2209V39.3161ZM22.744 40V36.7273H23.5153V40H22.744ZM23.1317 36.2628C23.0096 36.2628 22.9045 36.2223 22.8164 36.1413C22.7283 36.0589 22.6843 35.9602 22.6843 35.8452C22.6843 35.7287 22.7283 35.63 22.8164 35.549C22.9045 35.4666 23.0096 35.4254 23.1317 35.4254C23.2553 35.4254 23.3604 35.4666 23.4471 35.549C23.5352 35.63 23.5792 35.7287 23.5792 35.8452C23.5792 35.9602 23.5352 36.0589 23.4471 36.1413C23.3604 36.2223 23.2553 36.2628 23.1317 36.2628ZM24.3084 40V36.7273H25.0456V37.2834H25.084C25.1522 37.0959 25.2651 36.9496 25.4228 36.8445C25.5804 36.7379 25.7686 36.6847 25.9874 36.6847C26.209 36.6847 26.3958 36.7386 26.5478 36.8466C26.7012 36.9531 26.8091 37.0987 26.8716 37.2834H26.9057C26.9782 37.1016 27.1003 36.9567 27.2722 36.8487C27.4455 36.7393 27.6507 36.6847 27.888 36.6847C28.1891 36.6847 28.4348 36.7798 28.6252 36.9702C28.8155 37.1605 28.9107 37.4382 28.9107 37.8033V40H28.1373V37.9226C28.1373 37.7195 28.0833 37.571 27.9753 37.4773C27.8674 37.3821 27.7353 37.3345 27.579 37.3345C27.3929 37.3345 27.2473 37.3928 27.1422 37.5092C27.0385 37.6243 26.9867 37.7741 26.9867 37.9588V40H26.2303V37.8906C26.2303 37.7216 26.1792 37.5866 26.0769 37.4858C25.976 37.3849 25.8439 37.3345 25.6806 37.3345C25.5698 37.3345 25.4689 37.3629 25.378 37.4197C25.2871 37.4751 25.2147 37.554 25.1607 37.6562C25.1067 37.7571 25.0797 37.875 25.0797 38.0099V40H24.3084ZM31.142 40.0639C30.8139 40.0639 30.5305 39.9957 30.2919 39.8594C30.0547 39.7216 29.8722 39.527 29.7443 39.2756C29.6165 39.0227 29.5526 38.7251 29.5526 38.3828C29.5526 38.0462 29.6165 37.7507 29.7443 37.4964C29.8736 37.2408 30.054 37.0419 30.2855 36.8999C30.517 36.7564 30.7891 36.6847 31.1016 36.6847C31.3033 36.6847 31.4936 36.7173 31.6726 36.7827C31.853 36.8466 32.0121 36.946 32.1499 37.081C32.2891 37.2159 32.3984 37.3878 32.478 37.5966C32.5575 37.804 32.5973 38.0511 32.5973 38.3381V38.5746H29.9148V38.0547H31.858C31.8565 37.907 31.8246 37.7756 31.7621 37.6605C31.6996 37.544 31.6122 37.4524 31.5 37.3857C31.3892 37.3189 31.2599 37.2855 31.1122 37.2855C30.9545 37.2855 30.8161 37.3239 30.6967 37.4006C30.5774 37.4759 30.4844 37.5753 30.4176 37.6989C30.3523 37.821 30.3189 37.9553 30.3175 38.1016V38.5554C30.3175 38.7457 30.3523 38.9091 30.4219 39.0455C30.4915 39.1804 30.5888 39.2841 30.7138 39.3565C30.8388 39.4276 30.9851 39.4631 31.1527 39.4631C31.2649 39.4631 31.3665 39.4474 31.4574 39.4162C31.5483 39.3835 31.6271 39.3359 31.6939 39.2734C31.7607 39.2109 31.8111 39.1335 31.8452 39.0412L32.5653 39.1222C32.5199 39.3125 32.4332 39.4787 32.3054 39.6207C32.179 39.7614 32.017 39.8707 31.8196 39.9489C31.6222 40.0256 31.3963 40.0639 31.142 40.0639ZM34.0211 38.0824V40H33.2498V36.7273H33.987V37.2834H34.0254C34.1007 37.1001 34.2207 36.9545 34.3855 36.8466C34.5517 36.7386 34.7569 36.6847 35.0012 36.6847C35.2271 36.6847 35.4238 36.733 35.5914 36.8295C35.7605 36.9261 35.8912 37.0661 35.9835 37.2493C36.0772 37.4325 36.1234 37.6548 36.122 37.9162V40H35.3507V38.0355C35.3507 37.8168 35.2939 37.6456 35.1802 37.522C35.068 37.3984 34.9125 37.3366 34.7136 37.3366C34.5787 37.3366 34.4586 37.3665 34.3535 37.4261C34.2498 37.4844 34.1681 37.5689 34.1085 37.6797C34.0502 37.7905 34.0211 37.9247 34.0211 38.0824ZM39.4927 37.5923L38.7896 37.669C38.7697 37.598 38.7349 37.5312 38.6852 37.4688C38.6369 37.4062 38.5716 37.3558 38.4892 37.3175C38.4068 37.2791 38.3059 37.2599 38.1866 37.2599C38.0261 37.2599 37.8912 37.2947 37.7818 37.3643C37.6738 37.4339 37.6206 37.5241 37.622 37.6349C37.6206 37.7301 37.6554 37.8075 37.7264 37.8672C37.7988 37.9268 37.9181 37.9759 38.0843 38.0142L38.6426 38.1335C38.9522 38.2003 39.1824 38.3061 39.3329 38.451C39.4849 38.5959 39.5616 38.7855 39.563 39.0199C39.5616 39.2259 39.5012 39.4077 39.3819 39.5653C39.264 39.7216 39.1 39.8437 38.8897 39.9318C38.6795 40.0199 38.438 40.0639 38.1653 40.0639C37.7647 40.0639 37.4423 39.9801 37.198 39.8125C36.9537 39.6435 36.8081 39.4084 36.7612 39.1072L37.5133 39.0348C37.5474 39.1825 37.6199 39.294 37.7306 39.3693C37.8414 39.4446 37.9856 39.4822 38.1632 39.4822C38.3464 39.4822 38.4934 39.4446 38.6042 39.3693C38.7164 39.294 38.7725 39.201 38.7725 39.0902C38.7725 38.9964 38.7363 38.919 38.6639 38.858C38.5929 38.7969 38.4821 38.75 38.3315 38.7173L37.7733 38.6001C37.4593 38.5348 37.2271 38.4247 37.0765 38.2699C36.926 38.1136 36.8514 37.9162 36.8528 37.6776C36.8514 37.4759 36.9061 37.3011 37.0169 37.1534C37.1291 37.0043 37.2846 36.8892 37.4835 36.8082C37.6838 36.7259 37.9146 36.6847 38.176 36.6847C38.5595 36.6847 38.8613 36.7663 39.0815 36.9297C39.3031 37.093 39.4402 37.3139 39.4927 37.5923ZM40.199 40V36.7273H40.9703V40H40.199ZM40.5868 36.2628C40.4647 36.2628 40.3596 36.2223 40.2715 36.1413C40.1834 36.0589 40.1394 35.9602 40.1394 35.8452C40.1394 35.7287 40.1834 35.63 40.2715 35.549C40.3596 35.4666 40.4647 35.4254 40.5868 35.4254C40.7104 35.4254 40.8155 35.4666 40.9022 35.549C40.9902 35.63 41.0343 35.7287 41.0343 35.8452C41.0343 35.9602 40.9902 36.0589 40.9022 36.1413C40.8155 36.2223 40.7104 36.2628 40.5868 36.2628ZM43.1911 40.0639C42.8714 40.0639 42.5945 39.9936 42.3601 39.853C42.1257 39.7124 41.9439 39.5156 41.8146 39.2628C41.6868 39.0099 41.6229 38.7145 41.6229 38.3764C41.6229 38.0384 41.6868 37.7422 41.8146 37.4879C41.9439 37.2337 42.1257 37.0362 42.3601 36.8956C42.5945 36.755 42.8714 36.6847 43.1911 36.6847C43.5107 36.6847 43.7876 36.755 44.022 36.8956C44.2564 37.0362 44.4375 37.2337 44.5653 37.4879C44.6946 37.7422 44.7592 38.0384 44.7592 38.3764C44.7592 38.7145 44.6946 39.0099 44.5653 39.2628C44.4375 39.5156 44.2564 39.7124 44.022 39.853C43.7876 39.9936 43.5107 40.0639 43.1911 40.0639ZM43.1953 39.446C43.3686 39.446 43.5135 39.3984 43.63 39.3033C43.7464 39.2067 43.8331 39.0774 43.8899 38.9155C43.9482 38.7536 43.9773 38.5732 43.9773 38.3743C43.9773 38.174 43.9482 37.9929 43.8899 37.831C43.8331 37.6676 43.7464 37.5376 43.63 37.4411C43.5135 37.3445 43.3686 37.2962 43.1953 37.2962C43.0178 37.2962 42.87 37.3445 42.7521 37.4411C42.6357 37.5376 42.5483 37.6676 42.4901 37.831C42.4332 37.9929 42.4048 38.174 42.4048 38.3743C42.4048 38.5732 42.4332 38.7536 42.4901 38.9155C42.5483 39.0774 42.6357 39.2067 42.7521 39.3033C42.87 39.3984 43.0178 39.446 43.1953 39.446ZM46.1852 38.0824V40H45.4139V36.7273H46.1511V37.2834H46.1895C46.2647 37.1001 46.3848 36.9545 46.5495 36.8466C46.7157 36.7386 46.921 36.6847 47.1653 36.6847C47.3912 36.6847 47.5879 36.733 47.7555 36.8295C47.9245 36.9261 48.0552 37.0661 48.1475 37.2493C48.2413 37.4325 48.2875 37.6548 48.286 37.9162V40H47.5147V38.0355C47.5147 37.8168 47.4579 37.6456 47.3443 37.522C47.2321 37.3984 47.0765 37.3366 46.8777 37.3366C46.7427 37.3366 46.6227 37.3665 46.5176 37.4261C46.4139 37.4844 46.3322 37.5689 46.2725 37.6797C46.2143 37.7905 46.1852 37.9247 46.1852 38.0824Z" fill="#747474"/>
<path d="M76 32C76 29.7909 77.7909 28 80 28H132C134.209 28 136 29.7909 136 32V44C136 46.2091 134.209 48 132 48H80C77.7909 48 76 46.2091 76 44V32Z" fill="#F5F5F5"/>
<path d="M82.4304 35.6364H83.3977L84.6932 38.7983H84.7443L86.0398 35.6364H87.0071V40H86.2486V37.0021H86.2081L85.0021 39.9872H84.4354L83.2294 36.9957H83.1889V40H82.4304V35.6364ZM89.2827 40.0639C88.9545 40.0639 88.6712 39.9957 88.4325 39.8594C88.1953 39.7216 88.0128 39.527 87.8849 39.2756C87.7571 39.0227 87.6932 38.7251 87.6932 38.3828C87.6932 38.0462 87.7571 37.7507 87.8849 37.4964C88.0142 37.2408 88.1946 37.0419 88.4261 36.8999C88.6577 36.7564 88.9297 36.6847 89.2422 36.6847C89.4439 36.6847 89.6342 36.7173 89.8132 36.7827C89.9936 36.8466 90.1527 36.946 90.2905 37.081C90.4297 37.2159 90.5391 37.3878 90.6186 37.5966C90.6982 37.804 90.7379 38.0511 90.7379 38.3381V38.5746H88.0554V38.0547H89.9986C89.9972 37.907 89.9652 37.7756 89.9027 37.6605C89.8402 37.544 89.7528 37.4524 89.6406 37.3857C89.5298 37.3189 89.4006 37.2855 89.2528 37.2855C89.0952 37.2855 88.9567 37.3239 88.8374 37.4006C88.718 37.4759 88.625 37.5753 88.5582 37.6989C88.4929 37.821 88.4595 37.9553 88.4581 38.1016V38.5554C88.4581 38.7457 88.4929 38.9091 88.5625 39.0455C88.6321 39.1804 88.7294 39.2841 88.8544 39.3565C88.9794 39.4276 89.1257 39.4631 89.2933 39.4631C89.4055 39.4631 89.5071 39.4474 89.598 39.4162C89.6889 39.3835 89.7678 39.3359 89.8345 39.2734C89.9013 39.2109 89.9517 39.1335 89.9858 39.0412L90.706 39.1222C90.6605 39.3125 90.5739 39.4787 90.446 39.6207C90.3196 39.7614 90.1577 39.8707 89.9602 39.9489C89.7628 40.0256 89.5369 40.0639 89.2827 40.0639ZM93.0247 36.7273V37.3239H91.1433V36.7273H93.0247ZM91.6078 35.9432H92.3791V39.0156C92.3791 39.1193 92.3947 39.1989 92.426 39.2543C92.4586 39.3082 92.5012 39.3452 92.5538 39.3651C92.6064 39.3849 92.6646 39.3949 92.7285 39.3949C92.7768 39.3949 92.8208 39.3913 92.8606 39.3842C92.9018 39.3771 92.9331 39.3707 92.9544 39.3651L93.0843 39.968C93.0431 39.9822 92.9842 39.9979 92.9075 40.0149C92.8322 40.032 92.7399 40.0419 92.6305 40.0447C92.4373 40.0504 92.2633 40.0213 92.1085 39.9574C91.9537 39.892 91.8308 39.7912 91.7399 39.6548C91.6504 39.5185 91.6064 39.348 91.6078 39.1435V35.9432ZM93.6697 40V36.7273H94.4176V37.2727H94.4517C94.5114 37.0838 94.6136 36.9382 94.7585 36.8359C94.9048 36.7322 95.0717 36.6804 95.2592 36.6804C95.3018 36.6804 95.3494 36.6825 95.402 36.6868C95.456 36.6896 95.5007 36.6946 95.5362 36.7017V37.4112C95.5036 37.3999 95.4517 37.3899 95.3807 37.3814C95.3111 37.3714 95.2436 37.3665 95.1783 37.3665C95.0376 37.3665 94.9112 37.397 94.799 37.4581C94.6882 37.5178 94.6009 37.6009 94.5369 37.7074C94.473 37.8139 94.4411 37.9368 94.4411 38.076V40H93.6697ZM96.0487 40V36.7273H96.82V40H96.0487ZM96.4364 36.2628C96.3143 36.2628 96.2092 36.2223 96.1211 36.1413C96.033 36.0589 95.989 35.9602 95.989 35.8452C95.989 35.7287 96.033 35.63 96.1211 35.549C96.2092 35.4666 96.3143 35.4254 96.4364 35.4254C96.56 35.4254 96.6651 35.4666 96.7518 35.549C96.8398 35.63 96.8839 35.7287 96.8839 35.8452C96.8839 35.9602 96.8398 36.0589 96.7518 36.1413C96.6651 36.2223 96.56 36.2628 96.4364 36.2628ZM99.0407 40.0639C98.714 40.0639 98.4334 39.9922 98.199 39.8487C97.9661 39.7053 97.7864 39.5071 97.66 39.2543C97.535 39 97.4725 38.7074 97.4725 38.3764C97.4725 38.044 97.5364 37.7507 97.6642 37.4964C97.7921 37.2408 97.9725 37.0419 98.2054 36.8999C98.4398 36.7564 98.7168 36.6847 99.0364 36.6847C99.302 36.6847 99.5371 36.7337 99.7417 36.8317C99.9476 36.9283 100.112 37.0653 100.234 37.2429C100.356 37.419 100.426 37.625 100.443 37.8608H99.7054C99.6756 37.7031 99.6046 37.5717 99.4924 37.4666C99.3816 37.3601 99.2331 37.3068 99.0471 37.3068C98.8894 37.3068 98.7509 37.3494 98.6316 37.4347C98.5123 37.5185 98.4192 37.6392 98.3525 37.7969C98.2871 37.9545 98.2544 38.1435 98.2544 38.3636C98.2544 38.5866 98.2871 38.7784 98.3525 38.9389C98.4178 39.098 98.5094 39.2209 98.6273 39.3075C98.7466 39.3928 98.8865 39.4354 99.0471 39.4354C99.1607 39.4354 99.2623 39.4141 99.3517 39.3714C99.4426 39.3274 99.5186 39.2642 99.5797 39.1818C99.6408 39.0994 99.6827 38.9993 99.7054 38.8814H100.443C100.424 39.1129 100.356 39.3182 100.238 39.4972C100.12 39.6747 99.9597 39.8139 99.7566 39.9148C99.5534 40.0142 99.3148 40.0639 99.0407 40.0639Z" fill="#747474"/>
<path d="M140 32C140 29.7909 141.791 28 144 28H196C198.209 28 200 29.7909 200 32V44C200 46.2091 198.209 48 196 48H144C141.791 48 140 46.2091 140 44V32Z" fill="#F5F5F5"/>
<path d="M146.43 35.6364H147.398L148.693 38.7983H148.744L150.04 35.6364H151.007V40H150.249V37.0021H150.208L149.002 39.9872H148.435L147.229 36.9957H147.189V40H146.43V35.6364ZM153.283 40.0639C152.955 40.0639 152.671 39.9957 152.433 39.8594C152.195 39.7216 152.013 39.527 151.885 39.2756C151.757 39.0227 151.693 38.7251 151.693 38.3828C151.693 38.0462 151.757 37.7507 151.885 37.4964C152.014 37.2408 152.195 37.0419 152.426 36.8999C152.658 36.7564 152.93 36.6847 153.242 36.6847C153.444 36.6847 153.634 36.7173 153.813 36.7827C153.994 36.8466 154.153 36.946 154.29 37.081C154.43 37.2159 154.539 37.3878 154.619 37.5966C154.698 37.804 154.738 38.0511 154.738 38.3381V38.5746H152.055V38.0547H153.999C153.997 37.907 153.965 37.7756 153.903 37.6605C153.84 37.544 153.753 37.4524 153.641 37.3857C153.53 37.3189 153.401 37.2855 153.253 37.2855C153.095 37.2855 152.957 37.3239 152.837 37.4006C152.718 37.4759 152.625 37.5753 152.558 37.6989C152.493 37.821 152.46 37.9553 152.458 38.1016V38.5554C152.458 38.7457 152.493 38.9091 152.562 39.0455C152.632 39.1804 152.729 39.2841 152.854 39.3565C152.979 39.4276 153.126 39.4631 153.293 39.4631C153.406 39.4631 153.507 39.4474 153.598 39.4162C153.689 39.3835 153.768 39.3359 153.835 39.2734C153.901 39.2109 153.952 39.1335 153.986 39.0412L154.706 39.1222C154.661 39.3125 154.574 39.4787 154.446 39.6207C154.32 39.7614 154.158 39.8707 153.96 39.9489C153.763 40.0256 153.537 40.0639 153.283 40.0639ZM157.025 36.7273V37.3239H155.143V36.7273H157.025ZM155.608 35.9432H156.379V39.0156C156.379 39.1193 156.395 39.1989 156.426 39.2543C156.459 39.3082 156.501 39.3452 156.554 39.3651C156.606 39.3849 156.665 39.3949 156.729 39.3949C156.777 39.3949 156.821 39.3913 156.861 39.3842C156.902 39.3771 156.933 39.3707 156.954 39.3651L157.084 39.968C157.043 39.9822 156.984 39.9979 156.907 40.0149C156.832 40.032 156.74 40.0419 156.631 40.0447C156.437 40.0504 156.263 40.0213 156.108 39.9574C155.954 39.892 155.831 39.7912 155.74 39.6548C155.65 39.5185 155.606 39.348 155.608 39.1435V35.9432ZM157.67 40V36.7273H158.418V37.2727H158.452C158.511 37.0838 158.614 36.9382 158.759 36.8359C158.905 36.7322 159.072 36.6804 159.259 36.6804C159.302 36.6804 159.349 36.6825 159.402 36.6868C159.456 36.6896 159.501 36.6946 159.536 36.7017V37.4112C159.504 37.3999 159.452 37.3899 159.381 37.3814C159.311 37.3714 159.244 37.3665 159.178 37.3665C159.038 37.3665 158.911 37.397 158.799 37.4581C158.688 37.5178 158.601 37.6009 158.537 37.7074C158.473 37.8139 158.441 37.9368 158.441 38.076V40H157.67ZM160.049 40V36.7273H160.82V40H160.049ZM160.436 36.2628C160.314 36.2628 160.209 36.2223 160.121 36.1413C160.033 36.0589 159.989 35.9602 159.989 35.8452C159.989 35.7287 160.033 35.63 160.121 35.549C160.209 35.4666 160.314 35.4254 160.436 35.4254C160.56 35.4254 160.665 35.4666 160.752 35.549C160.84 35.63 160.884 35.7287 160.884 35.8452C160.884 35.9602 160.84 36.0589 160.752 36.1413C160.665 36.2223 160.56 36.2628 160.436 36.2628ZM163.041 40.0639C162.714 40.0639 162.433 39.9922 162.199 39.8487C161.966 39.7053 161.786 39.5071 161.66 39.2543C161.535 39 161.472 38.7074 161.472 38.3764C161.472 38.044 161.536 37.7507 161.664 37.4964C161.792 37.2408 161.972 37.0419 162.205 36.8999C162.44 36.7564 162.717 36.6847 163.036 36.6847C163.302 36.6847 163.537 36.7337 163.742 36.8317C163.948 36.9283 164.112 37.0653 164.234 37.2429C164.356 37.419 164.426 37.625 164.443 37.8608H163.705C163.676 37.7031 163.605 37.5717 163.492 37.4666C163.382 37.3601 163.233 37.3068 163.047 37.3068C162.889 37.3068 162.751 37.3494 162.632 37.4347C162.512 37.5185 162.419 37.6392 162.352 37.7969C162.287 37.9545 162.254 38.1435 162.254 38.3636C162.254 38.5866 162.287 38.7784 162.352 38.9389C162.418 39.098 162.509 39.2209 162.627 39.3075C162.747 39.3928 162.887 39.4354 163.047 39.4354C163.161 39.4354 163.262 39.4141 163.352 39.3714C163.443 39.3274 163.519 39.2642 163.58 39.1818C163.641 39.0994 163.683 38.9993 163.705 38.8814H164.443C164.424 39.1129 164.356 39.3182 164.238 39.4972C164.12 39.6747 163.96 39.8139 163.757 39.9148C163.553 40.0142 163.315 40.0639 163.041 40.0639Z" fill="#747474"/>
<path d="M12 56C12 53.7909 13.7909 52 16 52H68C70.2091 52 72 53.7909 72 56V63C72 65.2091 70.2091 67 68 67H16C13.7909 67 12 65.2091 12 63V56Z" fill="#E5F2FC"/>
<rect x="18" y="58" width="36" height="3" rx="1" fill="white"/>
<path d="M76 56C76 53.7909 77.7909 52 80 52H132C134.209 52 136 53.7909 136 56V63C136 65.2091 134.209 67 132 67H80C77.7909 67 76 65.2091 76 63V56Z" fill="#F5F5F5"/>
<rect x="82" y="58" width="36" height="3" rx="1" fill="white"/>
<path d="M140 56C140 53.7909 141.791 52 144 52H196C198.209 52 200 53.7909 200 56V63C200 65.2091 198.209 67 196 67H144C141.791 67 140 65.2091 140 63V56Z" fill="#F5F5F5"/>
<rect x="146" y="58" width="36" height="3" rx="1" fill="white"/>
<path d="M12 76C12 73.7909 13.7909 72 16 72H68C70.2091 72 72 73.7909 72 76V83C72 85.2091 70.2091 87 68 87H16C13.7909 87 12 85.2091 12 83V76Z" fill="#E5F2FC"/>
<rect x="18" y="78" width="36" height="3" rx="1" fill="white"/>
<path d="M76 76C76 73.7909 77.7909 72 80 72H132C134.209 72 136 73.7909 136 76V83C136 85.2091 134.209 87 132 87H80C77.7909 87 76 85.2091 76 83V76Z" fill="#F5F5F5"/>
<rect x="82" y="78" width="36" height="3" rx="1" fill="white"/>
<path d="M140 76C140 73.7909 141.791 72 144 72H196C198.209 72 200 73.7909 200 76V83C200 85.2091 198.209 87 196 87H144C141.791 87 140 85.2091 140 83V76Z" fill="#F5F5F5"/>
<rect x="146" y="78" width="36" height="3" rx="1" fill="white"/>
<path d="M12 96C12 93.7909 13.7909 92 16 92H68C70.2091 92 72 93.7909 72 96V103C72 105.209 70.2091 107 68 107H16C13.7909 107 12 105.209 12 103V96Z" fill="#E5F2FC"/>
<rect x="18" y="98" width="36" height="3" rx="1" fill="white"/>
<path d="M76 96C76 93.7909 77.7909 92 80 92H132C134.209 92 136 93.7909 136 96V103C136 105.209 134.209 107 132 107H80C77.7909 107 76 105.209 76 103V96Z" fill="#F5F5F5"/>
<rect x="82" y="98" width="36" height="3" rx="1" fill="white"/>
<path d="M140 96C140 93.7909 141.791 92 144 92H196C198.209 92 200 93.7909 200 96V103C200 105.209 198.209 107 196 107H144C141.791 107 140 105.209 140 103V96Z" fill="#F5F5F5"/>
<rect x="146" y="98" width="36" height="3" rx="1" fill="white"/>
<path d="M12 116C12 113.791 13.7909 112 16 112H68C70.2091 112 72 113.791 72 116V123C72 125.209 70.2091 127 68 127H16C13.7909 127 12 125.209 12 123V116Z" fill="#E5F2FC"/>
<rect x="18" y="118" width="36" height="3" rx="1" fill="white"/>
<path d="M76 116C76 113.791 77.7909 112 80 112H132C134.209 112 136 113.791 136 116V123C136 125.209 134.209 127 132 127H80C77.7909 127 76 125.209 76 123V116Z" fill="#F5F5F5"/>
<rect x="82" y="118" width="36" height="3" rx="1" fill="white"/>
<path d="M140 116C140 113.791 141.791 112 144 112H196C198.209 112 200 113.791 200 116V123C200 125.209 198.209 127 196 127H144C141.791 127 140 125.209 140 123V116Z" fill="#F5F5F5"/>
<rect x="146" y="118" width="36" height="3" rx="1" fill="white"/>
<g filter="url(#filter0_ddddd_5754_261473)">
<rect x="86" y="50" width="40" height="40" rx="20" fill="white"/>
<path d="M100.5 70H111.5" stroke="black" stroke-linecap="round" stroke-linejoin="round"/>
<path d="M106 64.5V75.5" stroke="black" stroke-linecap="round" stroke-linejoin="round"/>
<rect x="86.5" y="50.5" width="39" height="39" rx="19.5" stroke="#EDEDED"/>
</g>
</g>
<rect x="0.2" y="0.2" width="211.6" height="139.6" rx="7.8" stroke="#BDBDBD" stroke-width="0.4"/>
<defs>
<filter id="filter0_ddddd_5754_261473" x="57" y="46" width="83" height="117" filterUnits="userSpaceOnUse" color-interpolation-filters="sRGB">
<feFlood flood-opacity="0" result="BackgroundImageFix"/>
<feColorMatrix in="SourceAlpha" type="matrix" values="0 0 0 0 0 0 0 0 0 0 0 0 0 0 0 0 0 0 127 0" result="hardAlpha"/>
<feOffset/>
<feColorMatrix type="matrix" values="0 0 0 0 0 0 0 0 0 0 0 0 0 0 0 0 0 0 0.06 0"/>
<feBlend mode="normal" in2="BackgroundImageFix" result="effect1_dropShadow_5754_261473"/>
<feColorMatrix in="SourceAlpha" type="matrix" values="0 0 0 0 0 0 0 0 0 0 0 0 0 0 0 0 0 0 127 0" result="hardAlpha"/>
<feOffset dy="3"/>
<feGaussianBlur stdDeviation="3.5"/>
<feColorMatrix type="matrix" values="0 0 0 0 0 0 0 0 0 0 0 0 0 0 0 0 0 0 0.06 0"/>
<feBlend mode="normal" in2="effect1_dropShadow_5754_261473" result="effect2_dropShadow_5754_261473"/>
<feColorMatrix in="SourceAlpha" type="matrix" values="0 0 0 0 0 0 0 0 0 0 0 0 0 0 0 0 0 0 127 0" result="hardAlpha"/>
<feOffset dx="-2" dy="13"/>
<feGaussianBlur stdDeviation="6.5"/>
<feColorMatrix type="matrix" values="0 0 0 0 0 0 0 0 0 0 0 0 0 0 0 0 0 0 0.05 0"/>
<feBlend mode="normal" in2="effect2_dropShadow_5754_261473" result="effect3_dropShadow_5754_261473"/>
<feColorMatrix in="SourceAlpha" type="matrix" values="0 0 0 0 0 0 0 0 0 0 0 0 0 0 0 0 0 0 127 0" result="hardAlpha"/>
<feOffset dx="-4" dy="30"/>
<feGaussianBlur stdDeviation="9"/>
<feColorMatrix type="matrix" values="0 0 0 0 0 0 0 0 0 0 0 0 0 0 0 0 0 0 0.03 0"/>
<feBlend mode="normal" in2="effect3_dropShadow_5754_261473" result="effect4_dropShadow_5754_261473"/>
<feColorMatrix in="SourceAlpha" type="matrix" values="0 0 0 0 0 0 0 0 0 0 0 0 0 0 0 0 0 0 127 0" result="hardAlpha"/>
<feOffset dx="-8" dy="52"/>
<feGaussianBlur stdDeviation="10.5"/>
<feColorMatrix type="matrix" values="0 0 0 0 0 0 0 0 0 0 0 0 0 0 0 0 0 0 0.01 0"/>
<feBlend mode="normal" in2="effect4_dropShadow_5754_261473" result="effect5_dropShadow_5754_261473"/>
<feBlend mode="normal" in="SourceGraphic" in2="effect5_dropShadow_5754_261473" result="shape"/>
</filter>
<clipPath id="clip0_5754_261473">
<rect width="212" height="140" rx="8" fill="white"/>
</clipPath>
</defs>
</svg>
