<svg width="147" height="98" viewBox="0 0 147 98" fill="none" xmlns="http://www.w3.org/2000/svg">
<g clip-path="url(#clip0_4790_222824)">
<rect width="147" height="98.0005" rx="7.25928" fill="#C099E2"/>
<rect x="40.3799" width="106.62" height="98.0005" fill="white"/>
<rect x="55.3516" y="13.6094" width="76.6759" height="70.7781" fill="white"/>
<rect x="6.80566" y="19.5078" width="26.3148" height="4.41001" rx="2.20501" fill="white"/>
<rect x="6.80566" y="29.0625" width="26.3148" height="4.41001" rx="2.20501" fill="white"/>
<rect x="6.80566" y="38.6172" width="26.3148" height="4.41001" rx="2.20501" fill="white"/>
<rect x="103.635" y="35.2812" width="38.2201" height="19.845" rx="0.735001" transform="rotate(90 103.635 35.2812)" fill="#C099E2"/>
<rect x="125.685" y="35.2812" width="38.2201" height="19.845" rx="0.735001" transform="rotate(90 125.685 35.2812)" fill="#C099E2"/>
<rect x="61.7402" y="24.2578" width="63.945" height="8.08502" rx="0.735001" fill="#C099E2"/>
<rect x="81.585" y="35.2812" width="38.2201" height="19.845" rx="0.735001" transform="rotate(90 81.585 35.2812)" fill="#C099E2"/>
</g>
<rect x="0.367501" y="0.367501" width="146.265" height="97.2655" rx="6.89178" stroke="#DFDFDF" stroke-width="0.735001"/>
<defs>
<clipPath id="clip0_4790_222824">
<rect width="147" height="98.0005" rx="7.25928" fill="white"/>
</clipPath>
</defs>
</svg>
