<svg width="184" height="200" viewBox="0 0 184 200" fill="none" xmlns="http://www.w3.org/2000/svg">
<g clip-path="url(#clip0_1161_30834)">
<path d="M99.1483 24.9838L99.0886 120.746L123.263 106.86L123.488 10.9712L99.1483 24.9838Z" fill="#9E9E9E"/>
<path d="M99.0886 121.154C99.0179 121.154 98.9472 121.136 98.8839 121.099C98.7576 121.026 98.6799 120.891 98.6799 120.746L98.7396 24.9834C98.7396 24.8376 98.8177 24.7024 98.9443 24.6297L123.284 10.6166C123.411 10.5435 123.566 10.5439 123.693 10.617C123.819 10.6902 123.897 10.8253 123.897 10.9716L123.672 106.86C123.672 107.006 123.594 107.141 123.467 107.214L99.293 121.1C99.23 121.136 99.1589 121.154 99.0886 121.154ZM99.557 25.2199L99.4977 120.04L122.855 106.623L123.078 11.6785L99.557 25.2199Z" fill="#BDBDBD"/>
<path d="M80.6526 14.4851L80.7731 110.568L99.0887 120.746L99.1483 24.9837L80.6526 14.4851Z" fill="#DFDFDF"/>
<path d="M99.0887 121.154C99.0204 121.154 98.9517 121.137 98.89 121.103L80.5745 110.924C80.445 110.853 80.3645 110.716 80.3645 110.568L80.2439 14.4855C80.2439 14.3401 80.3207 14.2054 80.447 14.1323C80.5729 14.0587 80.7282 14.0583 80.8545 14.1298L99.3502 24.6288C99.4781 24.7015 99.557 24.8371 99.557 24.9841L99.4973 120.746C99.4973 120.891 99.4205 121.025 99.2959 121.098C99.2321 121.136 99.1602 121.155 99.0887 121.155V121.154ZM81.1814 110.327L98.6804 120.052L98.7396 25.2218L81.0625 15.1876L81.1818 110.328L81.1814 110.327Z" fill="#BDBDBD"/>
<path d="M105.015 0.408447L80.6526 14.4852L99.1483 24.9838L123.488 10.9711L105.015 0.408447Z" fill="white"/>
<path d="M99.1483 25.3927C99.0788 25.3927 99.009 25.3751 98.9464 25.3396L80.4507 14.8406C80.3232 14.7683 80.2443 14.6335 80.2439 14.4869C80.2435 14.3403 80.3211 14.2051 80.4482 14.1316L104.81 0.054781C104.936 -0.0179187 105.091 -0.0183271 105.218 0.0539641L123.691 10.6162C123.818 10.6889 123.897 10.8237 123.897 10.9703C123.897 11.1166 123.819 11.2518 123.692 11.3249L99.3519 25.3379C99.2889 25.3743 99.2182 25.3922 99.1479 25.3922L99.1483 25.3927ZM81.4744 14.4824L99.1467 24.5141L122.667 10.9728L105.016 0.879799L81.4744 14.4824Z" fill="#BDBDBD"/>
<path d="M59.2333 52.5908L59.1736 143.794L83.348 129.907L83.5727 38.5781L59.2333 52.5908Z" fill="#9E9E9E"/>
<path d="M59.1736 144.202C59.1029 144.202 59.0322 144.184 58.9688 144.147C58.8425 144.074 58.7645 143.939 58.7649 143.793L58.8246 52.5903C58.8246 52.4445 58.9026 52.3093 59.0293 52.2366L83.3692 38.2236C83.4955 38.1505 83.6512 38.1509 83.7779 38.224C83.9046 38.2971 83.9822 38.4323 83.9818 38.5785L83.7571 129.908C83.7571 130.054 83.6786 130.189 83.5523 130.261L59.3779 144.148C59.315 144.184 59.2439 144.202 59.1736 144.202ZM59.6415 52.8268L59.5827 143.088L82.9397 129.67L83.162 39.2851L59.6415 52.8268Z" fill="#BDBDBD"/>
<path d="M40.7373 42.0923L40.8579 133.615L59.1734 143.794L59.233 52.5909L40.7373 42.0923Z" fill="#DFDFDF"/>
<path d="M59.1736 144.202C59.1054 144.202 59.0367 144.185 58.975 144.151L40.6595 133.972C40.5299 133.9 40.4494 133.764 40.4494 133.616L40.3289 42.0926C40.3289 41.9472 40.4057 41.8125 40.532 41.7393C40.6578 41.6658 40.8131 41.665 40.9394 41.7369L59.4352 52.2359C59.5631 52.3086 59.6424 52.4442 59.642 52.5912L59.5823 143.794C59.5823 143.939 59.5055 144.073 59.3808 144.146C59.3171 144.184 59.2451 144.203 59.1736 144.203V144.202ZM41.2664 133.375L58.7653 143.1L58.8242 52.8289L41.147 42.7947L41.2664 133.376V133.375Z" fill="#BDBDBD"/>
<path d="M65.0993 28.0156L40.7373 42.0924L59.233 52.591L83.5725 38.5783L65.0993 28.0156Z" fill="white"/>
<path d="M59.2333 52.9993C59.1638 52.9993 59.0939 52.9818 59.0314 52.9462L40.5357 42.4473C40.4081 42.375 40.3293 42.2402 40.3289 42.0936C40.3285 41.947 40.4061 41.8118 40.5332 41.7382L64.8952 27.6615C65.0215 27.5888 65.1763 27.5884 65.3026 27.6607L83.7759 38.2229C83.903 38.2956 83.9815 38.4304 83.9815 38.577C83.9815 38.7233 83.9038 38.8584 83.7767 38.9316L59.4368 52.9446C59.3739 52.981 59.3032 52.9989 59.2329 52.9989L59.2333 52.9993ZM41.5594 42.0891L59.2317 52.1208L82.7522 38.5795L65.1007 28.4873L41.5594 42.0891Z" fill="#BDBDBD"/>
<path d="M19.4933 86.6049L19.4336 166.503L43.608 152.616L43.8328 72.5918L19.4933 86.6049Z" fill="#9E9E9E"/>
<path d="M19.4336 166.911C19.3629 166.911 19.2922 166.893 19.2288 166.856C19.1026 166.783 19.0245 166.648 19.0249 166.502L19.0846 86.604C19.0846 86.4582 19.1626 86.3234 19.2893 86.2503L43.6292 72.2372C43.7555 72.1641 43.9116 72.1645 44.0379 72.2377C44.1646 72.3112 44.2423 72.4459 44.2418 72.5922L44.0171 152.617C44.0171 152.763 43.9386 152.897 43.8123 152.97L19.6379 166.856C19.575 166.892 19.5043 166.911 19.434 166.911L19.4336 166.911ZM19.9019 86.8409L19.8431 165.796L43.2001 152.379L43.4224 73.2992L19.9019 86.8409Z" fill="#BDBDBD"/>
<path d="M0.997559 76.106L1.11812 156.324L19.4336 166.503L19.4933 86.6049L0.997559 76.106Z" fill="#BDBDBD"/>
<path d="M19.4336 166.911C19.3654 166.911 19.2967 166.894 19.235 166.859L0.919491 156.681C0.789939 156.609 0.709429 156.473 0.709429 156.325L0.588867 76.1066C0.588867 75.9612 0.665699 75.8265 0.791574 75.7534C0.917857 75.6798 1.07316 75.6794 1.19944 75.7509L19.6952 86.2499C19.8231 86.3226 19.9024 86.4582 19.902 86.6056L19.8423 166.504C19.8423 166.648 19.7655 166.782 19.6408 166.855C19.5771 166.893 19.5051 166.912 19.4336 166.912V166.911ZM1.52638 156.084L19.0254 165.808L19.0842 86.8421L1.40705 76.8083L1.52638 156.084V156.084Z" fill="#BDBDBD"/>
<path d="M25.3595 62.0291L0.997559 76.1058L19.4933 86.6048L43.8328 72.5917L25.3595 62.0291Z" fill="white"/>
<path d="M19.4933 87.0133C19.4238 87.0133 19.3539 86.9957 19.2914 86.9602L0.795662 76.4612C0.668153 76.3889 0.589277 76.2541 0.588869 76.1075C0.58846 75.9609 0.66611 75.8257 0.79321 75.7522L25.1552 61.6754C25.2811 61.6027 25.4364 61.6023 25.5626 61.6746L44.0359 72.2369C44.163 72.3096 44.2415 72.4443 44.2415 72.591C44.2415 72.7372 44.1638 72.8724 44.0367 72.9455L19.6968 86.9585C19.6339 86.9949 19.5632 87.0128 19.4929 87.0128L19.4933 87.0133ZM1.81941 76.1026L19.4917 86.1343L43.0122 72.593L25.3607 62.5008L1.81941 76.1026Z" fill="#BDBDBD"/>
<path d="M91.5199 176.185H136.09L136.084 124.256H91.394L91.5199 176.185Z" fill="#9E9E9E"/>
<path d="M136.09 176.594H91.5199C91.2947 176.594 91.1116 176.412 91.1112 176.186L90.9854 124.257C90.9854 124.148 91.0279 124.044 91.1047 123.967C91.1815 123.891 91.2853 123.847 91.394 123.847H136.084C136.31 123.847 136.493 124.03 136.493 124.256L136.499 176.185C136.499 176.294 136.456 176.398 136.379 176.474C136.303 176.551 136.199 176.594 136.09 176.594ZM91.9278 175.777H135.682L135.676 124.664H91.8039L91.9278 175.777Z" fill="#BDBDBD"/>
<path d="M136.085 124.377C136.085 124.377 136.13 107.125 136.133 98.566C121.194 98.5443 91.2568 104.302 91.3945 124.377H136.085Z" fill="white"/>
<path d="M136.085 124.785H91.3945C91.1697 124.785 90.9875 124.604 90.9858 124.38C90.9503 119.198 92.8862 114.606 96.7401 110.734C106.624 100.803 126.058 98.158 136.051 98.158H136.133C136.359 98.158 136.542 98.3409 136.542 98.5664C136.539 107.027 136.494 124.205 136.493 124.378C136.493 124.603 136.31 124.785 136.085 124.785ZM91.8044 123.968H135.677C135.684 121.352 135.72 106.815 135.724 98.9756C126.388 99.0373 106.919 101.665 97.3192 111.31C93.7261 114.921 91.8719 119.177 91.8044 123.968Z" fill="#BDBDBD"/>
<path d="M140.026 171.587L171.314 153.488L171.405 112.626L140.033 130.676L140.026 171.587Z" fill="#BDBDBD"/>
<path d="M140.026 171.996C139.956 171.996 139.885 171.978 139.822 171.941C139.695 171.868 139.618 171.733 139.618 171.587L139.625 130.676C139.625 130.53 139.703 130.395 139.829 130.322L171.201 112.271C171.328 112.198 171.483 112.199 171.61 112.272C171.736 112.345 171.814 112.48 171.814 112.626L171.723 153.489C171.723 153.634 171.645 153.769 171.519 153.841L140.231 171.941C140.168 171.977 140.097 171.996 140.026 171.996ZM140.442 130.912L140.435 170.879L170.906 153.252L170.995 113.333L140.442 130.912L140.442 130.912Z" fill="#BDBDBD"/>
<path d="M171.405 112.626C162.003 107.204 150.778 105.142 140.025 105.104L140.033 130.677L171.405 112.626Z" fill="white"/>
<path d="M140.033 131.085C139.963 131.085 139.892 131.066 139.829 131.03C139.703 130.957 139.625 130.823 139.625 130.677L139.616 105.104C139.616 104.995 139.66 104.891 139.736 104.815C139.813 104.738 139.917 104.696 140.025 104.696H140.026C152.167 104.738 163.088 107.358 171.61 112.272C171.736 112.345 171.814 112.48 171.814 112.626C171.814 112.773 171.736 112.907 171.609 112.98L140.237 131.031C140.174 131.067 140.103 131.085 140.033 131.085L140.033 131.085ZM140.434 105.514L140.442 129.97L170.582 112.629C162.373 108.066 151.976 105.611 140.434 105.515V105.514Z" fill="#BDBDBD"/>
<path d="M138.389 172.811L169.826 190.998L169.917 155.368L138.395 137.23L138.389 172.811Z" fill="#DFDFDF"/>
<path d="M169.826 191.406C169.755 191.406 169.684 191.388 169.621 191.351L138.184 173.164C138.058 173.091 137.98 172.957 137.98 172.811L137.987 137.23C137.987 137.084 138.064 136.949 138.191 136.876C138.317 136.803 138.473 136.803 138.6 136.876L170.121 155.015C170.248 155.088 170.326 155.223 170.326 155.369L170.235 190.999C170.235 191.145 170.156 191.28 170.03 191.353C169.967 191.388 169.897 191.407 169.826 191.407L169.826 191.406ZM138.798 172.576L169.419 190.291L169.507 155.604L138.804 137.936L138.797 172.576H138.798Z" fill="#BDBDBD"/>
<path d="M182.882 170.812C182.959 171.419 182.783 175.143 182.358 176.642C180.608 182.806 175.505 187.697 170.066 190.866C169.985 190.909 169.905 190.956 169.825 190.999L169.949 159.906L170.086 119.007C175.903 122.361 183.002 137.071 183.002 137.071L182.879 170.778V170.798L182.882 170.812Z" fill="#BDBDBD"/>
<path d="M169.825 191.408C169.752 191.408 169.68 191.388 169.615 191.35C169.491 191.276 169.416 191.142 169.417 190.997L169.54 159.904L169.677 119.006C169.677 118.86 169.755 118.725 169.882 118.653C170.008 118.58 170.163 118.58 170.289 118.653C176.148 122.031 183.078 136.289 183.37 136.894C183.397 136.95 183.411 137.011 183.411 137.073L183.287 170.76V170.76C183.377 171.471 183.181 175.238 182.751 176.753C180.621 184.256 174.017 189.036 170.271 191.218L170.019 191.358C169.958 191.391 169.891 191.407 169.825 191.407L169.825 191.408ZM170.492 119.752L170.357 159.907L170.237 190.29C173.917 188.086 179.981 183.52 181.965 176.53C182.368 175.112 182.543 171.498 182.479 170.883C182.473 170.856 182.47 170.827 182.47 170.798L182.593 137.165C182.028 136.014 175.79 123.471 170.492 119.751V119.752Z" fill="#BDBDBD"/>
<path d="M170.134 155.247C180.726 149.2 187.693 137.339 179.09 126.457C176.659 123.382 173.462 120.957 170.086 119.006C159.533 125.081 149.092 131.414 138.395 137.23L169.917 155.369L170.134 155.248V155.247Z" fill="white"/>
<path d="M169.917 155.776C169.846 155.776 169.776 155.758 169.713 155.722L138.191 137.584C138.063 137.51 137.985 137.372 137.987 137.225C137.988 137.077 138.07 136.942 138.2 136.871C145.392 132.961 152.588 128.746 159.546 124.67C162.93 122.688 166.428 120.639 169.881 118.651C170.008 118.579 170.163 118.579 170.29 118.651C174.138 120.874 177.206 123.414 179.411 126.203C182.721 130.389 183.988 135.086 183.076 139.785C181.909 145.8 177.147 151.713 170.336 155.601C170.335 155.602 170.334 155.602 170.333 155.603L170.116 155.724C170.054 155.758 169.985 155.776 169.917 155.776ZM139.231 137.239L169.92 154.899L169.933 154.891C176.538 151.119 181.152 145.414 182.274 139.63C183.151 135.108 181.972 130.761 178.769 126.71C176.668 124.052 173.747 121.62 170.085 119.478C166.701 121.427 163.275 123.434 159.96 125.375C153.202 129.333 146.221 133.422 139.231 137.239Z" fill="#BDBDBD"/>
<path d="M167.297 161.167V161.187L167.237 192.137L166.412 192.598C155.89 198.305 143.374 200.123 131.532 199.462C117.407 198.645 91.7431 192.237 91.4828 174.015L91.3924 143.896L91.3892 143.102L105.716 147.133L151.915 155.258L167.297 161.167Z" fill="#9E9E9E"/>
<path d="M136.132 200C134.499 200 132.952 199.951 131.509 199.871C117.639 199.068 91.3396 192.632 91.0736 174.021L90.98 143.104C90.9796 142.976 91.0392 142.855 91.1414 142.777C91.2436 142.7 91.3764 142.674 91.4994 142.709L105.807 146.734L151.985 154.856C152.011 154.861 152.036 154.868 152.061 154.877L167.443 160.786C167.601 160.846 167.705 160.998 167.705 161.167V161.187L167.646 192.138C167.646 192.286 167.565 192.422 167.436 192.494L166.611 192.954C156.261 198.567 144.963 199.999 136.132 199.999L136.132 200ZM91.7998 143.642L91.8006 143.895L91.8909 174.015C92.1484 192.019 117.949 198.267 131.555 199.055C140.693 199.567 154.126 198.797 166.217 192.24L166.829 191.898L166.887 161.448L151.805 155.655L105.646 147.536C105.632 147.533 105.619 147.53 105.605 147.527L91.7998 143.643V143.642Z" fill="#BDBDBD"/>
<path d="M167.317 161.177C167.31 161.18 167.304 161.184 167.297 161.187C161.199 164.647 154.343 166.683 147.434 167.745C134.708 169.697 120.906 168.605 109.031 163.413C101.007 159.902 92.0001 153.397 91.3924 143.896C91.3724 143.636 91.3626 143.369 91.3589 143.102H135.92L154.764 153.951L167.297 161.166L167.317 161.177V161.177Z" fill="white"/>
<path d="M135.606 169.061C126.042 169.061 116.83 167.269 108.867 163.787C103.728 161.539 91.6993 155.102 90.9841 143.922C90.9636 143.659 90.9534 143.383 90.9497 143.107C90.9485 142.998 90.991 142.893 91.0678 142.815C91.1447 142.738 91.2493 142.694 91.3584 142.694H135.92C135.991 142.694 136.061 142.713 136.123 142.748L167.5 160.813C167.632 160.889 167.721 161.037 167.715 161.189C167.708 161.34 167.629 161.481 167.491 161.546C161.834 164.757 155.104 166.98 147.496 168.148C143.516 168.759 139.531 169.061 135.606 169.061ZM91.7785 143.51C91.7839 143.63 91.7908 143.748 91.7998 143.865C92.4864 154.602 104.193 160.85 109.195 163.039C120.285 167.888 133.843 169.416 147.372 167.341C154.61 166.229 161.037 164.155 166.487 161.171L135.81 143.51H91.7785Z" fill="#BDBDBD"/>
</g>
<defs>
<clipPath id="clip0_1161_30834">
<rect width="182.822" height="200" fill="white" transform="translate(0.588867)"/>
</clipPath>
</defs>
</svg>
