<svg width="147" height="98" viewBox="0 0 147 98" fill="none" xmlns="http://www.w3.org/2000/svg">
<rect x="0.367501" y="0.367501" width="146.265" height="97.2655" rx="6.89178" fill="#6AAF79"/>
<rect y="18.375" width="147" height="79.3802" fill="white"/>
<rect x="8" y="10" width="131" height="4" rx="2" fill="white"/>
<rect width="53" height="20" rx="0.735001" transform="matrix(5.10765e-08 1 1 -3.74083e-08 9 34)" fill="#C3DFC9"/>
<rect width="7" height="20" rx="0.735001" transform="matrix(6.43012e-08 1 1 -2.97146e-08 9 25)" fill="#C3DFC9"/>
<rect width="53" height="20" rx="0.735001" transform="matrix(5.10765e-08 1 1 -3.74083e-08 31 34)" fill="#C3DFC9"/>
<rect width="7" height="20" rx="0.735001" transform="matrix(6.43012e-08 1 1 -2.97146e-08 31 25)" fill="#C3DFC9"/>
<rect width="53" height="20" rx="0.735001" transform="matrix(5.10765e-08 1 1 -3.74083e-08 53 34)" fill="#C3DFC9"/>
<rect width="7" height="20" rx="0.735001" transform="matrix(6.43012e-08 1 1 -2.97146e-08 53 25)" fill="#C3DFC9"/>
<rect width="53" height="20" rx="0.735001" transform="matrix(5.10765e-08 1 1 -3.74083e-08 75 34)" fill="#C3DFC9"/>
<rect width="7" height="20" rx="0.735001" transform="matrix(6.43012e-08 1 1 -2.97146e-08 75 25)" fill="#C3DFC9"/>
<rect width="53" height="20" rx="0.735001" transform="matrix(5.10765e-08 1 1 -3.74083e-08 97 34)" fill="#C3DFC9"/>
<rect width="7" height="20" rx="0.735001" transform="matrix(6.43012e-08 1 1 -2.97146e-08 97 25)" fill="#C3DFC9"/>
<rect width="53" height="20" rx="0.735001" transform="matrix(5.10765e-08 1 1 -3.74083e-08 119 34)" fill="#C3DFC9"/>
<rect width="7" height="20" rx="0.735001" transform="matrix(6.43012e-08 1 1 -2.97146e-08 119 25)" fill="#C3DFC9"/>
<rect x="0.367501" y="0.367501" width="146.265" height="97.2655" rx="6.89178" stroke="#DFDFDF" stroke-width="0.735001"/>
</svg>
