<svg width="212" height="140" viewBox="0 0 212 140" fill="none" xmlns="http://www.w3.org/2000/svg">
<g clip-path="url(#clip0_5754_261415)">
<rect width="212" height="140" rx="8" fill="white"/>
<rect width="212" height="16" fill="#9E9E9E"/>
<rect x="12" y="6" width="78" height="4" rx="2" fill="#BDBDBD"/>
<circle cx="202" cy="8" r="2" fill="#BDBDBD"/>
<circle cx="196" cy="8" r="2" fill="#BDBDBD"/>
<circle cx="190" cy="8" r="2" fill="#BDBDBD"/>
<path d="M76 32C76 29.7909 77.7909 28 80 28H132C134.209 28 136 29.7909 136 32V44C136 46.2091 134.209 48 132 48H80C77.7909 48 76 46.2091 76 44V32Z" fill="#F5F5F5"/>
<path d="M82.4304 35.6364H83.3977L84.6932 38.7983H84.7443L86.0398 35.6364H87.0071V40H86.2486V37.0021H86.2081L85.0021 39.9872H84.4354L83.2294 36.9957H83.1889V40H82.4304V35.6364ZM89.2827 40.0639C88.9545 40.0639 88.6712 39.9957 88.4325 39.8594C88.1953 39.7216 88.0128 39.527 87.8849 39.2756C87.7571 39.0227 87.6932 38.7251 87.6932 38.3828C87.6932 38.0462 87.7571 37.7507 87.8849 37.4964C88.0142 37.2408 88.1946 37.0419 88.4261 36.8999C88.6577 36.7564 88.9297 36.6847 89.2422 36.6847C89.4439 36.6847 89.6342 36.7173 89.8132 36.7827C89.9936 36.8466 90.1527 36.946 90.2905 37.081C90.4297 37.2159 90.5391 37.3878 90.6186 37.5966C90.6982 37.804 90.7379 38.0511 90.7379 38.3381V38.5746H88.0554V38.0547H89.9986C89.9972 37.907 89.9652 37.7756 89.9027 37.6605C89.8402 37.544 89.7528 37.4524 89.6406 37.3857C89.5298 37.3189 89.4006 37.2855 89.2528 37.2855C89.0952 37.2855 88.9567 37.3239 88.8374 37.4006C88.718 37.4759 88.625 37.5753 88.5582 37.6989C88.4929 37.821 88.4595 37.9553 88.4581 38.1016V38.5554C88.4581 38.7457 88.4929 38.9091 88.5625 39.0455C88.6321 39.1804 88.7294 39.2841 88.8544 39.3565C88.9794 39.4276 89.1257 39.4631 89.2933 39.4631C89.4055 39.4631 89.5071 39.4474 89.598 39.4162C89.6889 39.3835 89.7678 39.3359 89.8345 39.2734C89.9013 39.2109 89.9517 39.1335 89.9858 39.0412L90.706 39.1222C90.6605 39.3125 90.5739 39.4787 90.446 39.6207C90.3196 39.7614 90.1577 39.8707 89.9602 39.9489C89.7628 40.0256 89.5369 40.0639 89.2827 40.0639ZM93.0247 36.7273V37.3239H91.1433V36.7273H93.0247ZM91.6078 35.9432H92.3791V39.0156C92.3791 39.1193 92.3947 39.1989 92.426 39.2543C92.4586 39.3082 92.5012 39.3452 92.5538 39.3651C92.6064 39.3849 92.6646 39.3949 92.7285 39.3949C92.7768 39.3949 92.8208 39.3913 92.8606 39.3842C92.9018 39.3771 92.9331 39.3707 92.9544 39.3651L93.0843 39.968C93.0431 39.9822 92.9842 39.9979 92.9075 40.0149C92.8322 40.032 92.7399 40.0419 92.6305 40.0447C92.4373 40.0504 92.2633 40.0213 92.1085 39.9574C91.9537 39.892 91.8308 39.7912 91.7399 39.6548C91.6504 39.5185 91.6064 39.348 91.6078 39.1435V35.9432ZM93.6697 40V36.7273H94.4176V37.2727H94.4517C94.5114 37.0838 94.6136 36.9382 94.7585 36.8359C94.9048 36.7322 95.0717 36.6804 95.2592 36.6804C95.3018 36.6804 95.3494 36.6825 95.402 36.6868C95.456 36.6896 95.5007 36.6946 95.5362 36.7017V37.4112C95.5036 37.3999 95.4517 37.3899 95.3807 37.3814C95.3111 37.3714 95.2436 37.3665 95.1783 37.3665C95.0376 37.3665 94.9112 37.397 94.799 37.4581C94.6882 37.5178 94.6009 37.6009 94.5369 37.7074C94.473 37.8139 94.4411 37.9368 94.4411 38.076V40H93.6697ZM96.0487 40V36.7273H96.82V40H96.0487ZM96.4364 36.2628C96.3143 36.2628 96.2092 36.2223 96.1211 36.1413C96.033 36.0589 95.989 35.9602 95.989 35.8452C95.989 35.7287 96.033 35.63 96.1211 35.549C96.2092 35.4666 96.3143 35.4254 96.4364 35.4254C96.56 35.4254 96.6651 35.4666 96.7518 35.549C96.8398 35.63 96.8839 35.7287 96.8839 35.8452C96.8839 35.9602 96.8398 36.0589 96.7518 36.1413C96.6651 36.2223 96.56 36.2628 96.4364 36.2628ZM99.0407 40.0639C98.714 40.0639 98.4334 39.9922 98.199 39.8487C97.9661 39.7053 97.7864 39.5071 97.66 39.2543C97.535 39 97.4725 38.7074 97.4725 38.3764C97.4725 38.044 97.5364 37.7507 97.6642 37.4964C97.7921 37.2408 97.9725 37.0419 98.2054 36.8999C98.4398 36.7564 98.7168 36.6847 99.0364 36.6847C99.302 36.6847 99.5371 36.7337 99.7417 36.8317C99.9476 36.9283 100.112 37.0653 100.234 37.2429C100.356 37.419 100.426 37.625 100.443 37.8608H99.7054C99.6756 37.7031 99.6046 37.5717 99.4924 37.4666C99.3816 37.3601 99.2331 37.3068 99.0471 37.3068C98.8894 37.3068 98.7509 37.3494 98.6316 37.4347C98.5123 37.5185 98.4192 37.6392 98.3525 37.7969C98.2871 37.9545 98.2544 38.1435 98.2544 38.3636C98.2544 38.5866 98.2871 38.7784 98.3525 38.9389C98.4178 39.098 98.5094 39.2209 98.6273 39.3075C98.7466 39.3928 98.8865 39.4354 99.0471 39.4354C99.1607 39.4354 99.2623 39.4141 99.3517 39.3714C99.4426 39.3274 99.5186 39.2642 99.5797 39.1818C99.6408 39.0994 99.6827 38.9993 99.7054 38.8814H100.443C100.424 39.1129 100.356 39.3182 100.238 39.4972C100.12 39.6747 99.9597 39.8139 99.7566 39.9148C99.5534 40.0142 99.3148 40.0639 99.0407 40.0639Z" fill="#747474"/>
<path d="M140 32C140 29.7909 141.791 28 144 28H196C198.209 28 200 29.7909 200 32V44C200 46.2091 198.209 48 196 48H144C141.791 48 140 46.2091 140 44V32Z" fill="#F5F5F5"/>
<path d="M146.43 35.6364H147.398L148.693 38.7983H148.744L150.04 35.6364H151.007V40H150.249V37.0021H150.208L149.002 39.9872H148.435L147.229 36.9957H147.189V40H146.43V35.6364ZM153.283 40.0639C152.955 40.0639 152.671 39.9957 152.433 39.8594C152.195 39.7216 152.013 39.527 151.885 39.2756C151.757 39.0227 151.693 38.7251 151.693 38.3828C151.693 38.0462 151.757 37.7507 151.885 37.4964C152.014 37.2408 152.195 37.0419 152.426 36.8999C152.658 36.7564 152.93 36.6847 153.242 36.6847C153.444 36.6847 153.634 36.7173 153.813 36.7827C153.994 36.8466 154.153 36.946 154.29 37.081C154.43 37.2159 154.539 37.3878 154.619 37.5966C154.698 37.804 154.738 38.0511 154.738 38.3381V38.5746H152.055V38.0547H153.999C153.997 37.907 153.965 37.7756 153.903 37.6605C153.84 37.544 153.753 37.4524 153.641 37.3857C153.53 37.3189 153.401 37.2855 153.253 37.2855C153.095 37.2855 152.957 37.3239 152.837 37.4006C152.718 37.4759 152.625 37.5753 152.558 37.6989C152.493 37.821 152.46 37.9553 152.458 38.1016V38.5554C152.458 38.7457 152.493 38.9091 152.562 39.0455C152.632 39.1804 152.729 39.2841 152.854 39.3565C152.979 39.4276 153.126 39.4631 153.293 39.4631C153.406 39.4631 153.507 39.4474 153.598 39.4162C153.689 39.3835 153.768 39.3359 153.835 39.2734C153.901 39.2109 153.952 39.1335 153.986 39.0412L154.706 39.1222C154.661 39.3125 154.574 39.4787 154.446 39.6207C154.32 39.7614 154.158 39.8707 153.96 39.9489C153.763 40.0256 153.537 40.0639 153.283 40.0639ZM157.025 36.7273V37.3239H155.143V36.7273H157.025ZM155.608 35.9432H156.379V39.0156C156.379 39.1193 156.395 39.1989 156.426 39.2543C156.459 39.3082 156.501 39.3452 156.554 39.3651C156.606 39.3849 156.665 39.3949 156.729 39.3949C156.777 39.3949 156.821 39.3913 156.861 39.3842C156.902 39.3771 156.933 39.3707 156.954 39.3651L157.084 39.968C157.043 39.9822 156.984 39.9979 156.907 40.0149C156.832 40.032 156.74 40.0419 156.631 40.0447C156.437 40.0504 156.263 40.0213 156.108 39.9574C155.954 39.892 155.831 39.7912 155.74 39.6548C155.65 39.5185 155.606 39.348 155.608 39.1435V35.9432ZM157.67 40V36.7273H158.418V37.2727H158.452C158.511 37.0838 158.614 36.9382 158.759 36.8359C158.905 36.7322 159.072 36.6804 159.259 36.6804C159.302 36.6804 159.349 36.6825 159.402 36.6868C159.456 36.6896 159.501 36.6946 159.536 36.7017V37.4112C159.504 37.3999 159.452 37.3899 159.381 37.3814C159.311 37.3714 159.244 37.3665 159.178 37.3665C159.038 37.3665 158.911 37.397 158.799 37.4581C158.688 37.5178 158.601 37.6009 158.537 37.7074C158.473 37.8139 158.441 37.9368 158.441 38.076V40H157.67ZM160.049 40V36.7273H160.82V40H160.049ZM160.436 36.2628C160.314 36.2628 160.209 36.2223 160.121 36.1413C160.033 36.0589 159.989 35.9602 159.989 35.8452C159.989 35.7287 160.033 35.63 160.121 35.549C160.209 35.4666 160.314 35.4254 160.436 35.4254C160.56 35.4254 160.665 35.4666 160.752 35.549C160.84 35.63 160.884 35.7287 160.884 35.8452C160.884 35.9602 160.84 36.0589 160.752 36.1413C160.665 36.2223 160.56 36.2628 160.436 36.2628ZM163.041 40.0639C162.714 40.0639 162.433 39.9922 162.199 39.8487C161.966 39.7053 161.786 39.5071 161.66 39.2543C161.535 39 161.472 38.7074 161.472 38.3764C161.472 38.044 161.536 37.7507 161.664 37.4964C161.792 37.2408 161.972 37.0419 162.205 36.8999C162.44 36.7564 162.717 36.6847 163.036 36.6847C163.302 36.6847 163.537 36.7337 163.742 36.8317C163.948 36.9283 164.112 37.0653 164.234 37.2429C164.356 37.419 164.426 37.625 164.443 37.8608H163.705C163.676 37.7031 163.605 37.5717 163.492 37.4666C163.382 37.3601 163.233 37.3068 163.047 37.3068C162.889 37.3068 162.751 37.3494 162.632 37.4347C162.512 37.5185 162.419 37.6392 162.352 37.7969C162.287 37.9545 162.254 38.1435 162.254 38.3636C162.254 38.5866 162.287 38.7784 162.352 38.9389C162.418 39.098 162.509 39.2209 162.627 39.3075C162.747 39.3928 162.887 39.4354 163.047 39.4354C163.161 39.4354 163.262 39.4141 163.352 39.3714C163.443 39.3274 163.519 39.2642 163.58 39.1818C163.641 39.0994 163.683 38.9993 163.705 38.8814H164.443C164.424 39.1129 164.356 39.3182 164.238 39.4972C164.12 39.6747 163.96 39.8139 163.757 39.9148C163.553 40.0142 163.315 40.0639 163.041 40.0639Z" fill="#747474"/>
<path d="M76 56C76 53.7909 77.7909 52 80 52H132C134.209 52 136 53.7909 136 56V63C136 65.2091 134.209 67 132 67H80C77.7909 67 76 65.2091 76 63V56Z" fill="#F5F5F5"/>
<rect x="82" y="58" width="36" height="3" rx="1" fill="white"/>
<path d="M140 56C140 53.7909 141.791 52 144 52H196C198.209 52 200 53.7909 200 56V63C200 65.2091 198.209 67 196 67H144C141.791 67 140 65.2091 140 63V56Z" fill="#F5F5F5"/>
<rect x="146" y="58" width="36" height="3" rx="1" fill="white"/>
<path d="M76 76C76 73.7909 77.7909 72 80 72H132C134.209 72 136 73.7909 136 76V83C136 85.2091 134.209 87 132 87H80C77.7909 87 76 85.2091 76 83V76Z" fill="#F5F5F5"/>
<rect x="82" y="78" width="36" height="3" rx="1" fill="white"/>
<path d="M140 76C140 73.7909 141.791 72 144 72H196C198.209 72 200 73.7909 200 76V83C200 85.2091 198.209 87 196 87H144C141.791 87 140 85.2091 140 83V76Z" fill="#F5F5F5"/>
<rect x="146" y="78" width="36" height="3" rx="1" fill="white"/>
<path d="M76 96C76 93.7909 77.7909 92 80 92H132C134.209 92 136 93.7909 136 96V103C136 105.209 134.209 107 132 107H80C77.7909 107 76 105.209 76 103V96Z" fill="#F5F5F5"/>
<rect x="82" y="98" width="36" height="3" rx="1" fill="white"/>
<path d="M140 96C140 93.7909 141.791 92 144 92H196C198.209 92 200 93.7909 200 96V103C200 105.209 198.209 107 196 107H144C141.791 107 140 105.209 140 103V96Z" fill="#F5F5F5"/>
<rect x="146" y="98" width="36" height="3" rx="1" fill="white"/>
<path d="M76 116C76 113.791 77.7909 112 80 112H132C134.209 112 136 113.791 136 116V123C136 125.209 134.209 127 132 127H80C77.7909 127 76 125.209 76 123V116Z" fill="#F5F5F5"/>
<rect x="82" y="118" width="36" height="3" rx="1" fill="white"/>
<path d="M140 116C140 113.791 141.791 112 144 112H196C198.209 112 200 113.791 200 116V123C200 125.209 198.209 127 196 127H144C141.791 127 140 125.209 140 123V116Z" fill="#F5F5F5"/>
<rect x="146" y="118" width="36" height="3" rx="1" fill="white"/>
<path d="M12 32C12 29.7909 13.7909 28 16 28H68C70.2091 28 72 29.7909 72 32V44C72 46.2091 70.2091 48 68 48H16C13.7909 48 12 46.2091 12 44V32Z" fill="#F5F5F5"/>
<path d="M18.4304 35.6364H19.3977L20.6932 38.7983H20.7443L22.0398 35.6364H23.0071V40H22.2486V37.0021H22.2081L21.0021 39.9872H20.4354L19.2294 36.9957H19.1889V40H18.4304V35.6364ZM25.2827 40.0639C24.9545 40.0639 24.6712 39.9957 24.4325 39.8594C24.1953 39.7216 24.0128 39.527 23.8849 39.2756C23.7571 39.0227 23.6932 38.7251 23.6932 38.3828C23.6932 38.0462 23.7571 37.7507 23.8849 37.4964C24.0142 37.2408 24.1946 37.0419 24.4261 36.8999C24.6577 36.7564 24.9297 36.6847 25.2422 36.6847C25.4439 36.6847 25.6342 36.7173 25.8132 36.7827C25.9936 36.8466 26.1527 36.946 26.2905 37.081C26.4297 37.2159 26.5391 37.3878 26.6186 37.5966C26.6982 37.804 26.7379 38.0511 26.7379 38.3381V38.5746H24.0554V38.0547H25.9986C25.9972 37.907 25.9652 37.7756 25.9027 37.6605C25.8402 37.544 25.7528 37.4524 25.6406 37.3857C25.5298 37.3189 25.4006 37.2855 25.2528 37.2855C25.0952 37.2855 24.9567 37.3239 24.8374 37.4006C24.718 37.4759 24.625 37.5753 24.5582 37.6989C24.4929 37.821 24.4595 37.9553 24.4581 38.1016V38.5554C24.4581 38.7457 24.4929 38.9091 24.5625 39.0455C24.6321 39.1804 24.7294 39.2841 24.8544 39.3565C24.9794 39.4276 25.1257 39.4631 25.2933 39.4631C25.4055 39.4631 25.5071 39.4474 25.598 39.4162C25.6889 39.3835 25.7678 39.3359 25.8345 39.2734C25.9013 39.2109 25.9517 39.1335 25.9858 39.0412L26.706 39.1222C26.6605 39.3125 26.5739 39.4787 26.446 39.6207C26.3196 39.7614 26.1577 39.8707 25.9602 39.9489C25.7628 40.0256 25.5369 40.0639 25.2827 40.0639ZM29.0247 36.7273V37.3239H27.1433V36.7273H29.0247ZM27.6078 35.9432H28.3791V39.0156C28.3791 39.1193 28.3947 39.1989 28.426 39.2543C28.4586 39.3082 28.5012 39.3452 28.5538 39.3651C28.6064 39.3849 28.6646 39.3949 28.7285 39.3949C28.7768 39.3949 28.8208 39.3913 28.8606 39.3842C28.9018 39.3771 28.9331 39.3707 28.9544 39.3651L29.0843 39.968C29.0431 39.9822 28.9842 39.9979 28.9075 40.0149C28.8322 40.032 28.7399 40.0419 28.6305 40.0447C28.4373 40.0504 28.2633 40.0213 28.1085 39.9574C27.9537 39.892 27.8308 39.7912 27.7399 39.6548C27.6504 39.5185 27.6064 39.348 27.6078 39.1435V35.9432ZM29.6697 40V36.7273H30.4176V37.2727H30.4517C30.5114 37.0838 30.6136 36.9382 30.7585 36.8359C30.9048 36.7322 31.0717 36.6804 31.2592 36.6804C31.3018 36.6804 31.3494 36.6825 31.402 36.6868C31.456 36.6896 31.5007 36.6946 31.5362 36.7017V37.4112C31.5036 37.3999 31.4517 37.3899 31.3807 37.3814C31.3111 37.3714 31.2436 37.3665 31.1783 37.3665C31.0376 37.3665 30.9112 37.397 30.799 37.4581C30.6882 37.5178 30.6009 37.6009 30.5369 37.7074C30.473 37.8139 30.4411 37.9368 30.4411 38.076V40H29.6697ZM32.0487 40V36.7273H32.82V40H32.0487ZM32.4364 36.2628C32.3143 36.2628 32.2092 36.2223 32.1211 36.1413C32.033 36.0589 31.989 35.9602 31.989 35.8452C31.989 35.7287 32.033 35.63 32.1211 35.549C32.2092 35.4666 32.3143 35.4254 32.4364 35.4254C32.56 35.4254 32.6651 35.4666 32.7518 35.549C32.8398 35.63 32.8839 35.7287 32.8839 35.8452C32.8839 35.9602 32.8398 36.0589 32.7518 36.1413C32.6651 36.2223 32.56 36.2628 32.4364 36.2628ZM35.0407 40.0639C34.714 40.0639 34.4334 39.9922 34.199 39.8487C33.9661 39.7053 33.7864 39.5071 33.66 39.2543C33.535 39 33.4725 38.7074 33.4725 38.3764C33.4725 38.044 33.5364 37.7507 33.6642 37.4964C33.7921 37.2408 33.9725 37.0419 34.2054 36.8999C34.4398 36.7564 34.7168 36.6847 35.0364 36.6847C35.302 36.6847 35.5371 36.7337 35.7417 36.8317C35.9476 36.9283 36.1117 37.0653 36.2338 37.2429C36.356 37.419 36.4256 37.625 36.4426 37.8608H35.7054C35.6756 37.7031 35.6046 37.5717 35.4924 37.4666C35.3816 37.3601 35.2331 37.3068 35.0471 37.3068C34.8894 37.3068 34.7509 37.3494 34.6316 37.4347C34.5123 37.5185 34.4192 37.6392 34.3525 37.7969C34.2871 37.9545 34.2544 38.1435 34.2544 38.3636C34.2544 38.5866 34.2871 38.7784 34.3525 38.9389C34.4178 39.098 34.5094 39.2209 34.6273 39.3075C34.7466 39.3928 34.8865 39.4354 35.0471 39.4354C35.1607 39.4354 35.2623 39.4141 35.3517 39.3714C35.4426 39.3274 35.5186 39.2642 35.5797 39.1818C35.6408 39.0994 35.6827 38.9993 35.7054 38.8814H36.4426C36.4242 39.1129 36.356 39.3182 36.2381 39.4972C36.1202 39.6747 35.9597 39.8139 35.7566 39.9148C35.5534 40.0142 35.3148 40.0639 35.0407 40.0639Z" fill="#747474"/>
<path d="M12 56C12 53.7909 13.7909 52 16 52H68C70.2091 52 72 53.7909 72 56V63C72 65.2091 70.2091 67 68 67H16C13.7909 67 12 65.2091 12 63V56Z" fill="#F5F5F5"/>
<rect x="18" y="58" width="36" height="3" rx="1" fill="white"/>
<path d="M12 76C12 73.7909 13.7909 72 16 72H68C70.2091 72 72 73.7909 72 76V83C72 85.2091 70.2091 87 68 87H16C13.7909 87 12 85.2091 12 83V76Z" fill="#F5F5F5"/>
<rect x="18" y="78" width="36" height="3" rx="1" fill="white"/>
<path d="M12 96C12 93.7909 13.7909 92 16 92H68C70.2091 92 72 93.7909 72 96V103C72 105.209 70.2091 107 68 107H16C13.7909 107 12 105.209 12 103V96Z" fill="#F5F5F5"/>
<rect x="18" y="98" width="36" height="3" rx="1" fill="white"/>
<path d="M12 116C12 113.791 13.7909 112 16 112H68C70.2091 112 72 113.791 72 116V123C72 125.209 70.2091 127 68 127H16C13.7909 127 12 125.209 12 123V116Z" fill="#F5F5F5"/>
<rect x="18" y="118" width="36" height="3" rx="1" fill="white"/>
<g filter="url(#filter0_ddddd_5754_261415)">
<rect x="86" y="50" width="40" height="40" rx="20" fill="white"/>
<path d="M100.5 70H111.5" stroke="black" stroke-linecap="round" stroke-linejoin="round"/>
<path d="M106 64.5V75.5" stroke="black" stroke-linecap="round" stroke-linejoin="round"/>
<rect x="86.5" y="50.5" width="39" height="39" rx="19.5" stroke="#EDEDED"/>
</g>
</g>
<rect x="0.2" y="0.2" width="211.6" height="139.6" rx="7.8" stroke="#BDBDBD" stroke-width="0.4"/>
<defs>
<filter id="filter0_ddddd_5754_261415" x="57" y="46" width="83" height="117" filterUnits="userSpaceOnUse" color-interpolation-filters="sRGB">
<feFlood flood-opacity="0" result="BackgroundImageFix"/>
<feColorMatrix in="SourceAlpha" type="matrix" values="0 0 0 0 0 0 0 0 0 0 0 0 0 0 0 0 0 0 127 0" result="hardAlpha"/>
<feOffset/>
<feColorMatrix type="matrix" values="0 0 0 0 0 0 0 0 0 0 0 0 0 0 0 0 0 0 0.06 0"/>
<feBlend mode="normal" in2="BackgroundImageFix" result="effect1_dropShadow_5754_261415"/>
<feColorMatrix in="SourceAlpha" type="matrix" values="0 0 0 0 0 0 0 0 0 0 0 0 0 0 0 0 0 0 127 0" result="hardAlpha"/>
<feOffset dy="3"/>
<feGaussianBlur stdDeviation="3.5"/>
<feColorMatrix type="matrix" values="0 0 0 0 0 0 0 0 0 0 0 0 0 0 0 0 0 0 0.06 0"/>
<feBlend mode="normal" in2="effect1_dropShadow_5754_261415" result="effect2_dropShadow_5754_261415"/>
<feColorMatrix in="SourceAlpha" type="matrix" values="0 0 0 0 0 0 0 0 0 0 0 0 0 0 0 0 0 0 127 0" result="hardAlpha"/>
<feOffset dx="-2" dy="13"/>
<feGaussianBlur stdDeviation="6.5"/>
<feColorMatrix type="matrix" values="0 0 0 0 0 0 0 0 0 0 0 0 0 0 0 0 0 0 0.05 0"/>
<feBlend mode="normal" in2="effect2_dropShadow_5754_261415" result="effect3_dropShadow_5754_261415"/>
<feColorMatrix in="SourceAlpha" type="matrix" values="0 0 0 0 0 0 0 0 0 0 0 0 0 0 0 0 0 0 127 0" result="hardAlpha"/>
<feOffset dx="-4" dy="30"/>
<feGaussianBlur stdDeviation="9"/>
<feColorMatrix type="matrix" values="0 0 0 0 0 0 0 0 0 0 0 0 0 0 0 0 0 0 0.03 0"/>
<feBlend mode="normal" in2="effect3_dropShadow_5754_261415" result="effect4_dropShadow_5754_261415"/>
<feColorMatrix in="SourceAlpha" type="matrix" values="0 0 0 0 0 0 0 0 0 0 0 0 0 0 0 0 0 0 127 0" result="hardAlpha"/>
<feOffset dx="-8" dy="52"/>
<feGaussianBlur stdDeviation="10.5"/>
<feColorMatrix type="matrix" values="0 0 0 0 0 0 0 0 0 0 0 0 0 0 0 0 0 0 0.01 0"/>
<feBlend mode="normal" in2="effect4_dropShadow_5754_261415" result="effect5_dropShadow_5754_261415"/>
<feBlend mode="normal" in="SourceGraphic" in2="effect5_dropShadow_5754_261415" result="shape"/>
</filter>
<clipPath id="clip0_5754_261415">
<rect width="212" height="140" rx="8" fill="white"/>
</clipPath>
</defs>
</svg>
