<svg width="50" height="50" viewBox="0 0 50 50" fill="none" xmlns="http://www.w3.org/2000/svg">
<rect x="0.539723" y="0.949879" width="48.5707" height="48.5707" rx="6.7959" stroke="#BDBDBD" stroke-width="0.399759"/>
<rect x="19.2109" y="19.9453" width="18.2539" height="17.9453" fill="#BDBDBD"/>
<rect x="11.5039" y="11.9023" width="5.69471" height="5.70956" rx="0.4" fill="#E48633"/>
<rect x="18.4648" y="11.9023" width="5.69471" height="5.70956" rx="0.4" fill="#E48633"/>
<rect x="25.4258" y="11.9023" width="5.69471" height="5.70956" rx="0.4" fill="#E48633"/>
<rect x="32.3906" y="11.9023" width="5.69471" height="5.70956" rx="0.4" fill="#E48633"/>
<rect x="11.5039" y="18.8867" width="5.69471" height="5.70956" rx="0.4" fill="#E48633"/>
<rect x="11.5039" y="25.8711" width="5.69471" height="5.70956" rx="0.4" fill="#E48633"/>
<rect x="11.5039" y="32.8516" width="5.69471" height="5.70956" rx="0.4" fill="#E48633"/>
<rect x="19.7305" y="20.1602" width="4.42757" height="4.43499" rx="0.4" fill="#FAFAFA"/>
<rect x="19.7227" y="25.8711" width="4.43962" height="5.71094" rx="0.4" fill="#FAFAFA"/>
<rect x="19.7305" y="32.8516" width="4.42757" height="4.40035" rx="0.4" fill="#FAFAFA"/>
<rect x="25.4258" y="32.8516" width="5.69471" height="4.40035" rx="0.4" fill="#FAFAFA"/>
<rect x="24.1641" y="18.8867" width="1.26714" height="19.4747" fill="#BDBDBD"/>
<path d="M18.4648 19.2867C18.4648 19.0658 18.6439 18.8867 18.8648 18.8867H19.732V38.3614H18.8648C18.6439 38.3614 18.4648 38.1823 18.4648 37.9614V19.2867Z" fill="#BDBDBD"/>
<path d="M36.832 18.8867H37.6992C37.9201 18.8867 38.0992 19.0658 38.0992 19.2867V38.1234C38.0992 38.3444 37.9201 38.5234 37.6992 38.5234H36.832V18.8867Z" fill="#BDBDBD"/>
<rect x="31.125" y="18.8867" width="1.26714" height="19.4747" fill="#BDBDBD"/>
<rect x="18.4648" y="25.8633" width="1.26714" height="19.5508" transform="rotate(-90 18.4648 25.8633)" fill="#BDBDBD"/>
<path d="M18.4648 20.1523V19.2867C18.4648 19.0658 18.6439 18.8867 18.8648 18.8867L37.5727 18.8867C37.7936 18.8867 37.9727 19.0658 37.9727 19.2867V20.1523L18.4648 20.1523Z" fill="#BDBDBD"/>
<path d="M18.8648 38.5234C18.6439 38.5234 18.4648 38.3444 18.4648 38.1234V37.2563L38.0156 37.2563V38.1234C38.0156 38.3444 37.8365 38.5234 37.6156 38.5234L18.8648 38.5234Z" fill="#BDBDBD"/>
<rect x="18.4648" y="32.8477" width="1.26714" height="19.6289" transform="rotate(-90 18.4648 32.8477)" fill="#BDBDBD"/>
<rect x="25.4258" y="25.8711" width="5.69471" height="5.70956" rx="0.4" fill="#FAFAFA"/>
<rect x="32.3906" y="25.8711" width="4.43994" height="5.70956" rx="0.4" fill="#FAFAFA"/>
<rect x="32.3906" y="32.8516" width="4.43994" height="4.40035" rx="0.4" fill="#FAFAFA"/>
<rect x="25.4258" y="20.1602" width="5.69471" height="4.43499" rx="0.4" fill="#FAFAFA"/>
<rect x="32.3906" y="20.1602" width="4.43994" height="4.43499" rx="0.4" fill="#FAFAFA"/>
</svg>
