<svg xmlns="http://www.w3.org/2000/svg" viewBox="0 0 414.72 352.36"><path fill="#1b1918" fill-rule="evenodd" d="M45.52,246.67H120v22.4H98.21V324H67.29v-54.9H45.52ZM200.63,51.49c51,0,94.35,22,110.07,52.56A431.1,431.1,0,0,0,215,90.81c-3.86-.13-7.09,1.14-8.41,4.83a17.27,17.27,0,0,0-.9,5.18c-.09,2.16.77,97.19.86,106.44q-2.94.11-5.91.1t-5.67-.09c.08-9.22.95-104.28.86-106.45a17.27,17.27,0,0,0-.9-5.18c-1.32-3.69-4.56-5-8.41-4.83a431.3,431.3,0,0,0-96,13.31c15.7-30.62,59.07-52.63,110.12-52.63Zm115,65.8A53,53,0,0,1,317,129.43c0,34.15-32.82,63.17-78.49,73.7-1.68-7.1-8.34-35.77-16-74.46a57.2,57.2,0,0,1-.83-12c.36-6.28,3.05-9.6,10.35-9.6,6.72,0,56.63,1.52,83.53,10.24ZM163,203.19c-45.79-10.49-78.72-39.56-78.72-73.76a53.21,53.21,0,0,1,1.38-12.05c26.84-8.8,77.06-10.33,83.8-10.33,7.3,0,10,3.32,10.35,9.6a56.75,56.75,0,0,1-.84,12c-7.65,38.79-14.32,67.51-16,74.52ZM197,246.67h74.46v22.4H249.72V324H218.8v-54.9H197Zm67.2,77h30L310,277.22l15.78,46.43h30l-29.31-77H293.54Zm-151.51,0h30l15.77-46.43,15.78,46.43h30l-29.32-77H142Z"/></svg>