<svg width="54" height="54" viewBox="0 0 54 54" fill="none" xmlns="http://www.w3.org/2000/svg">
<g id="Icon / CloudArrowUp">
<path id="Vector" d="M20.25 43.875H15.1875C12.0546 43.875 9.05007 42.6305 6.8348 40.4152C4.61953 38.1999 3.375 35.1954 3.375 32.0625C3.375 28.9296 4.61953 25.9251 6.8348 23.7098C9.05007 21.4945 12.0546 20.25 15.1875 20.25C16.1758 20.2496 17.1604 20.3701 18.1195 20.6086" stroke="#EDEDED" stroke-width="2" stroke-linecap="round" stroke-linejoin="round"/>
<path id="Vector_2" d="M16.875 27C16.875 24.3261 17.5104 21.6905 18.7288 19.3104C19.9473 16.9303 21.7139 14.8737 23.883 13.3103C26.0522 11.7468 28.5618 10.7212 31.2051 10.318C33.8484 9.91476 36.5497 10.1454 39.0863 10.991C41.623 11.8365 43.9224 13.2728 45.7951 15.1813C47.6678 17.0899 49.0602 19.4162 49.8574 21.9684C50.6547 24.5207 50.834 27.2258 50.3807 29.861C49.9274 32.4962 48.8543 34.9859 47.25 37.125" stroke="#EDEDED" stroke-width="2" stroke-linecap="round" stroke-linejoin="round"/>
<path id="Vector_3" d="M24.9141 34.1508L32.0648 27L39.2156 34.1508" stroke="#5093EC" stroke-width="2" stroke-linecap="round" stroke-linejoin="round"/>
<path id="Vector_4" d="M32.0625 43.875V27" stroke="#5093EC" stroke-width="2" stroke-linecap="round" stroke-linejoin="round"/>
</g>
</svg>
