<svg width="14" height="14" viewBox="0 0 14 14" fill="none" xmlns="http://www.w3.org/2000/svg">
<path d="M8.40009 13.44C8.35025 13.44 8.30041 13.4268 8.25589 13.4L5.45589 11.72C5.37161 11.6696 5.32009 11.5783 5.32009 11.48V6.55088L0.916248 1.87208C0.867248 1.82 0.840088 1.7514 0.840088 1.68V0.839998C0.840088 0.685438 0.965528 0.559998 1.12009 0.559998H12.8801C13.0346 0.559998 13.1601 0.685438 13.1601 0.839998V1.68C13.1601 1.7514 13.1329 1.82 13.0839 1.87208L8.68009 6.55088V13.16C8.68009 13.2608 8.62577 13.354 8.53813 13.4036C8.49529 13.428 8.44769 13.44 8.40009 13.44ZM12.8801 1.68H12.8829H12.8801Z" fill="black"/>
</svg>
