<svg width="8" height="8" viewBox="0 0 8 8" fill="none" xmlns="http://www.w3.org/2000/svg">
<path d="M7.33333 5.99984C7.51014 5.99984 7.67971 6.07008 7.80474 6.1951C7.92976 6.32012 8 6.48969 8 6.6665C8 6.84331 7.92976 7.01288 7.80474 7.13791C7.67971 7.26293 7.51014 7.33317 7.33333 7.33317L0.666666 7.33317C0.489855 7.33317 0.320286 7.26293 0.195261 7.13791C0.0702369 7.01288 -2.69997e-07 6.84331 -2.62268e-07 6.6665C-2.5454e-07 6.48969 0.0702369 6.32012 0.195261 6.1951C0.320286 6.07007 0.489855 5.99984 0.666666 5.99984L7.33333 5.99984ZM7.33333 0.666504C7.51014 0.666504 7.67971 0.736742 7.80474 0.861766C7.92976 0.98679 8 1.15636 8 1.33317C8 1.50998 7.92976 1.67955 7.80474 1.80457C7.67971 1.9296 7.51014 1.99984 7.33333 1.99984L0.666666 1.99984C0.489855 1.99984 0.320286 1.9296 0.195261 1.80457C0.0702371 1.67955 -3.68696e-08 1.50998 -2.91409e-08 1.33317C-2.14123e-08 1.15636 0.0702371 0.98679 0.195261 0.861766C0.320286 0.736742 0.489855 0.666504 0.666667 0.666504L7.33333 0.666504Z" fill="#78787E"/>
</svg>
