<svg width="13" height="12" viewBox="0 0 13 12" fill="none" xmlns="http://www.w3.org/2000/svg">
<path d="M2.5 7.50024L2.5 4.25024C2.5 3.65351 2.73705 3.08121 3.15901 2.65925C3.58097 2.2373 4.15326 2.00024 4.75 2.00024C5.34674 2.00024 5.91903 2.2373 6.34099 2.65925C6.76295 3.08121 7 3.65351 7 4.25024V7.75024C7 8.08176 7.1317 8.39971 7.36612 8.63413C7.60054 8.86855 7.91848 9.00024 8.25 9.00024C8.58152 9.00024 8.89946 8.86855 9.13388 8.63413C9.3683 8.39971 9.5 8.08176 9.5 7.75024V4.41524C9.16625 4.29729 8.88495 4.06515 8.70582 3.75984C8.52669 3.45454 8.46126 3.09573 8.52109 2.74685C8.58093 2.39797 8.76218 2.08147 9.03281 1.85331C9.30344 1.62514 9.64602 1.5 10 1.5C10.354 1.5 10.6966 1.62514 10.9672 1.85331C11.2378 2.08147 11.4191 2.39797 11.4789 2.74685C11.5387 3.09573 11.4733 3.45454 11.2942 3.75984C11.115 4.06515 10.8337 4.29729 10.5 4.41524V7.75024C10.5 8.34698 10.2629 8.91928 9.84099 9.34123C9.41903 9.76319 8.84674 10.0002 8.25 10.0002C7.65326 10.0002 7.08097 9.76319 6.65901 9.34123C6.23705 8.91928 6 8.34698 6 7.75024V4.25024C6 3.91872 5.8683 3.60078 5.63388 3.36636C5.39946 3.13194 5.08152 3.00024 4.75 3.00024C4.41848 3.00024 4.10054 3.13194 3.86612 3.36636C3.6317 3.60078 3.5 3.91872 3.5 4.25024L3.5 7.50024H5L3 10.0002L1 7.50024H2.5Z" fill="#0E0E19"/>
<path d="M2.5 7.50024L2.5 4.25024C2.5 3.65351 2.73705 3.08121 3.15901 2.65925C3.58097 2.2373 4.15326 2.00024 4.75 2.00024C5.34674 2.00024 5.91903 2.2373 6.34099 2.65925C6.76295 3.08121 7 3.65351 7 4.25024V7.75024C7 8.08176 7.1317 8.39971 7.36612 8.63413C7.60054 8.86855 7.91848 9.00024 8.25 9.00024C8.58152 9.00024 8.89946 8.86855 9.13388 8.63413C9.3683 8.39971 9.5 8.08176 9.5 7.75024V4.41524C9.16625 4.29729 8.88495 4.06515 8.70582 3.75984C8.52669 3.45454 8.46126 3.09573 8.52109 2.74685C8.58093 2.39797 8.76218 2.08147 9.03281 1.85331C9.30344 1.62514 9.64602 1.5 10 1.5C10.354 1.5 10.6966 1.62514 10.9672 1.85331C11.2378 2.08147 11.4191 2.39797 11.4789 2.74685C11.5387 3.09573 11.4733 3.45454 11.2942 3.75984C11.115 4.06515 10.8337 4.29729 10.5 4.41524V7.75024C10.5 8.34698 10.2629 8.91928 9.84099 9.34123C9.41903 9.76319 8.84674 10.0002 8.25 10.0002C7.65326 10.0002 7.08097 9.76319 6.65901 9.34123C6.23705 8.91928 6 8.34698 6 7.75024V4.25024C6 3.91872 5.8683 3.60078 5.63388 3.36636C5.39946 3.13194 5.08152 3.00024 4.75 3.00024C4.41848 3.00024 4.10054 3.13194 3.86612 3.36636C3.6317 3.60078 3.5 3.91872 3.5 4.25024L3.5 7.50024H5L3 10.0002L1 7.50024H2.5Z" fill="white" fill-opacity="0.2"/>
</svg>
