<svg fill="none" xmlns="http://www.w3.org/2000/svg">
<path d="M21.038 3.98047C19.193 3.98047 18.0068 5.12258 17.7563 5.76046H17.6901V4.2032H15.0283V8.52996H17.8829C18.3447 7.29496 19.395 6.6495 20.498 6.6495C21.9745 6.6495 23.3576 7.82194 23.3576 9.98674C23.3576 12.1515 21.9745 13.324 20.498 13.324C19.4222 13.324 18.4076 12.7202 17.9279 11.5629H15.0283V19.9985H17.6774V14.214H17.7428C18.0068 14.8661 19.193 15.994 21.0252 15.994C23.4238 15.994 25.9812 13.9912 25.9812 9.98674C25.9812 5.98224 23.4238 3.98047 21.038 3.98047Z" fill="black"/>
<path d="M27.7642 4.2032H30.42V5.76046H30.4727C30.724 5.12258 31.9127 3.98047 33.7628 3.98047C36.1546 3.98047 38.717 5.98224 38.717 9.98769C38.717 13.9931 36.1673 15.9949 33.7628 15.9949C31.9262 15.9949 30.7367 14.868 30.4727 14.2149H30.42V19.9994H27.7642V4.2032ZM33.2338 13.3249C34.7137 13.3249 36.1011 12.1534 36.1011 9.98769C36.1011 7.82194 34.7137 6.65045 33.2338 6.65045C31.7539 6.65045 30.3665 7.80773 30.3665 9.98769C30.3665 12.1677 31.7403 13.3249 33.2338 13.3249Z" fill="black"/>
<path d="M40.1602 9.99906C40.1602 6.10546 42.7549 3.98047 45.4022 3.98047C48.0496 3.98047 51.0298 6.04575 50.4448 11.1582H42.6878C43.0605 12.7335 44.2976 13.5657 45.8539 13.5657C46.8652 13.5657 47.7703 13.2538 48.5285 12.525L49.7392 13.9666C48.8876 15.1703 47.3839 16.0177 45.5483 16.0177C42.7141 16.0177 40.1602 13.8481 40.1602 9.99906ZM48.0895 8.97353C47.9299 7.32434 46.6928 6.50638 45.4421 6.50638C44.1915 6.50638 43.007 7.30918 42.6751 8.97353H48.0904H48.0895Z" fill="black"/>
<path d="M52.4843 4.20226H55.1232V7.1926C55.4781 5.4164 56.4757 3.98047 58.3267 3.98047C58.5627 3.98047 58.7733 4.00985 59.0093 4.06956V6.9111C58.7733 6.86655 58.5763 6.83717 58.3394 6.83717C56.3568 6.83717 55.1096 8.39158 55.1096 10.7004V15.7333H52.4707V4.20226H52.4843Z" fill="black"/>
<path d="M62.3489 12.5407V6.56101H60.8774V4.19243H62.3489V1.23242H65.0268V4.17822H67.1477V6.54679H65.0268V12.0232C65.0268 12.6156 65.318 13.1928 66.1934 13.1928C66.432 13.1928 66.7903 13.1483 67.1613 13.0156V15.2951C66.764 15.6951 66.0083 15.8277 65.3588 15.8277C63.6224 15.8723 62.3497 14.9103 62.3497 12.5417L62.3489 12.5407Z" fill="black"/>
<path d="M78.9624 15.8109H76.2887V14.2271C75.7165 15.2488 74.6789 16.0185 73.1226 16.0185C70.994 16.0185 69.1982 14.5532 69.1982 11.0453V4.26562H71.8719V10.5714C71.8719 12.2585 72.6836 13.3693 74.0803 13.3693C75.477 13.3693 76.2887 12.2595 76.2887 10.5714V4.26562H78.9624V15.8109Z" fill="black"/>
<path d="M81.3525 4.20226H84.0253V7.1926C84.3844 5.4164 85.3948 3.98047 87.2704 3.98047C87.509 3.98047 87.7221 4.00985 87.9615 4.06956V6.9111C87.7221 6.86655 87.5226 6.83717 87.2831 6.83717C85.2751 6.83717 84.0117 8.39158 84.0117 10.7004V15.7333H81.3389V4.20226H81.3525Z" fill="black"/>
<path d="M88.7266 9.99906C88.7266 6.10546 91.3001 3.98047 93.9253 3.98047C96.5506 3.98047 99.5071 6.04575 98.9263 11.1582H91.2338C91.6032 12.7335 92.8301 13.5657 94.3745 13.5657C95.3772 13.5657 96.2747 13.2538 97.0261 12.525L98.2275 13.9666C97.3827 15.1703 95.8918 16.0177 94.0705 16.0177C91.2601 16.0177 88.7266 13.8481 88.7266 9.99906ZM96.5778 8.97353C96.4199 7.32434 95.1921 6.50638 93.9517 6.50638C92.7112 6.50638 91.5369 7.30918 91.2075 8.97353H96.5778Z" fill="black"/>
<path d="M11.2687 8.53029H8.46001L7.68313 6.20721L6.88671 3.79219V3.82157L6.86039 3.76281L2.93265 15.7763H0L5.42718 0H8.31992L11.2687 8.53029Z" fill="black"/>
<path d="M13.7745 15.7755H10.8817L9.47314 11.5625H12.3175L13.7745 15.7755Z" fill="black"/>
</svg>
