<svg width="22" height="20" viewBox="0 0 22 20" fill="none" xmlns="http://www.w3.org/2000/svg">
<g clip-path="url(#clip0_6716_32207)">
<path d="M6.39519 8.20042H9.04569C8.38384 7.78638 8.13604 7.2061 7.80357 6.13022L6.80923 2.44463C6.35442 0.788466 5.98115 0.00116062 4.15876 0.00116062H0.35083V0.995486H0.890338C2.00699 0.995486 2.13246 1.40953 2.46495 2.65164L3.33381 5.88242C3.78862 7.45703 4.49438 8.20042 6.39834 8.20042H6.39519ZM12.5274 8.20042H15.1747C17.0787 8.20042 17.7405 7.4539 18.1985 5.88242L19.0674 2.65164C19.3998 1.40953 19.5629 0.995486 20.642 0.995486H21.1814V0.00116062H17.4143C15.5511 0.00116062 15.1779 0.747687 14.7638 2.44463L13.7695 6.13022C13.437 7.24687 13.1892 7.78638 12.5274 8.20042ZM9.04569 11.6758H12.5275L12.5274 8.20042H9.04569V11.6758ZM0.35083 19.8751H4.15876C5.98115 19.8751 6.35442 19.0878 6.80923 17.4316L7.80357 13.7461C8.13604 12.6702 8.38384 12.0899 9.04569 11.6758H6.39519C4.49123 11.6758 3.78549 12.4224 3.33068 13.9938L2.46181 17.2246C2.12932 18.4667 2.00699 18.8808 0.887201 18.8808H0.35083V19.8751ZM17.408 19.8751H21.1751V18.8808H20.6357C19.5598 18.8808 19.3936 18.4667 19.0611 17.2246L18.1922 13.9938C17.7374 12.4192 17.0756 11.6758 15.1685 11.6758H12.5275C13.1893 12.0899 13.4276 12.6294 13.7601 13.7461L14.7544 17.4316C15.1685 19.1286 15.5417 19.8751 17.4049 19.8751H17.408Z" fill="#7856FF"/>
</g>
<defs>
<clipPath id="clip0_6716_32207">
<rect width="20.9901" height="20" fill="white" transform="translate(0.254944)"/>
</clipPath>
</defs>
</svg>
