<svg xmlns="http://www.w3.org/2000/svg" width="24" height="24" viewBox="0 0 24 24" fill="none">
  <path d="M9.73214 7C8.52513 7 7.52679 7.54625 6.84821 8.57853C6.29942 9.41487 6 10.5413 6 11.75C6 12.9587 6.30196 14.0851 6.84821 14.9215C7.52679 15.9546 8.52259 16.5 9.73214 16.5C10.9417 16.5 11.9375 15.9546 12.6161 14.9215C13.1649 14.0851 13.4643 12.9587 13.4643 11.75C13.4643 10.5413 13.1623 9.41487 12.6161 8.57853C11.9375 7.54625 10.9392 7 9.73214 7ZM9.73214 15.1429C7.85759 15.1429 7.35714 13.0104 7.35714 11.75C7.35714 10.4896 7.85759 8.35714 9.73214 8.35714C11.6067 8.35714 12.1071 10.4896 12.1071 11.75C12.1071 13.0104 11.6067 15.1429 9.73214 15.1429Z" fill="#606060"/>
  <path d="M18.196 7C16.989 7 15.9907 7.54625 15.3121 8.57853C14.7633 9.41487 14.4639 10.5413 14.4639 11.75C14.4639 12.9587 14.7658 14.0851 15.3121 14.9215C15.9907 15.9546 16.9865 16.5 18.196 16.5C19.4056 16.5 20.4014 15.9546 21.0799 14.9215C21.6287 14.0851 21.9282 12.9587 21.9282 11.75C21.9282 10.5413 21.6262 9.41487 21.0799 8.57853C20.4014 7.54625 19.403 7 18.196 7ZM18.196 15.1429C16.3215 15.1429 15.821 13.0104 15.821 11.75C15.821 10.4896 16.3215 8.35714 18.196 8.35714C20.0706 8.35714 20.571 10.4896 20.571 11.75C20.571 13.0104 20.0706 15.1429 18.196 15.1429Z" fill="#606060"/>
  <circle cx="4" cy="15" r="1" fill="#606060"/>
</svg>
