<svg width="25" height="24" viewBox="0 0 25 24" fill="none" xmlns="http://www.w3.org/2000/svg">
<path d="M14.1267 7C12.9197 7 11.9213 7.54625 11.2427 8.57853C10.694 9.41487 10.3945 10.5413 10.3945 11.75C10.3945 12.9587 10.6965 14.0851 11.2427 14.9215C11.9213 15.9546 12.9171 16.5 14.1267 16.5C15.3362 16.5 16.332 15.9546 17.0106 14.9215C17.5594 14.0851 17.8588 12.9587 17.8588 11.75C17.8588 10.5413 17.5569 9.41487 17.0106 8.57853C16.332 7.54625 15.3337 7 14.1267 7ZM14.1267 15.1429C12.2521 15.1429 11.7517 13.0104 11.7517 11.75C11.7517 10.4896 12.2521 8.35714 14.1267 8.35714C16.0012 8.35714 16.5017 10.4896 16.5017 11.75C16.5017 13.0104 16.0012 15.1429 14.1267 15.1429Z" fill="#BDBDBD"/>
<circle cx="8.39453" cy="15" r="1" fill="#BDBDBD"/>
</svg>
