<svg width="25" height="24" viewBox="0 0 25 24" fill="none" xmlns="http://www.w3.org/2000/svg">
<path d="M10.1267 7C8.91967 7 7.92132 7.54625 7.24275 8.57853C6.69395 9.41487 6.39453 10.5413 6.39453 11.75C6.39453 12.9587 6.6965 14.0851 7.24275 14.9215C7.92132 15.9546 8.91712 16.5 10.1267 16.5C11.3362 16.5 12.332 15.9546 13.0106 14.9215C13.5594 14.0851 13.8588 12.9587 13.8588 11.75C13.8588 10.5413 13.5569 9.41487 13.0106 8.57853C12.332 7.54625 11.3337 7 10.1267 7ZM10.1267 15.1429C8.25212 15.1429 7.75167 13.0104 7.75167 11.75C7.75167 10.4896 8.25212 8.35714 10.1267 8.35714C12.0012 8.35714 12.5017 10.4896 12.5017 11.75C12.5017 13.0104 12.0012 15.1429 10.1267 15.1429Z" fill="#BDBDBD"/>
<path d="M18.5905 7C17.3835 7 16.3852 7.54625 15.7066 8.57853C15.1578 9.41487 14.8584 10.5413 14.8584 11.75C14.8584 12.9587 15.1604 14.0851 15.7066 14.9215C16.3852 15.9546 17.381 16.5 18.5905 16.5C19.8001 16.5 20.7959 15.9546 21.4745 14.9215C22.0233 14.0851 22.3227 12.9587 22.3227 11.75C22.3227 10.5413 22.0207 9.41487 21.4745 8.57853C20.7959 7.54625 19.7976 7 18.5905 7ZM18.5905 15.1429C16.716 15.1429 16.2155 13.0104 16.2155 11.75C16.2155 10.4896 16.716 8.35714 18.5905 8.35714C20.4651 8.35714 20.9655 10.4896 20.9655 11.75C20.9655 13.0104 20.4651 15.1429 18.5905 15.1429Z" fill="#BDBDBD"/>
<circle cx="4.39453" cy="15" r="1" fill="#BDBDBD"/>
</svg>
