<svg xmlns="http://www.w3.org/2000/svg" width="24" height="24" viewBox="0 0 24 24" fill="none">
  <path d="M13.7321 7C12.5251 7 11.5268 7.54625 10.8482 8.57853C10.2994 9.41487 10 10.5413 10 11.75C10 12.9587 10.302 14.0851 10.8482 14.9215C11.5268 15.9546 12.5226 16.5 13.7321 16.5C14.9417 16.5 15.9375 15.9546 16.6161 14.9215C17.1649 14.0851 17.4643 12.9587 17.4643 11.75C17.4643 10.5413 17.1623 9.41487 16.6161 8.57853C15.9375 7.54625 14.9392 7 13.7321 7ZM13.7321 15.1429C11.8576 15.1429 11.3571 13.0104 11.3571 11.75C11.3571 10.4896 11.8576 8.35714 13.7321 8.35714C15.6067 8.35714 16.1071 10.4896 16.1071 11.75C16.1071 13.0104 15.6067 15.1429 13.7321 15.1429Z" fill="#606060"/>
  <circle cx="8" cy="15" r="1" fill="#606060"/>
</svg>