<svg width="13" height="14" viewBox="0 0 13 14" fill="none" xmlns="http://www.w3.org/2000/svg">
<path d="M3.55338 0.992216C3.52915 0.992849 3.505 0.995242 3.48112 0.999378H2.22786C1.22127 0.999378 0.394529 1.82612 0.394529 2.83271V4.08401C0.385712 4.13769 0.385712 4.19245 0.394529 4.24612V11.166C0.394529 12.1726 1.22127 12.9994 2.22786 12.9994H3.47916C3.53284 13.0082 3.5876 13.0082 3.64127 12.9994H10.5612C11.5678 12.9994 12.3945 12.1726 12.3945 11.166V4.24808C12.4033 4.1944 12.4033 4.13964 12.3945 4.08597V2.83271C12.3945 1.82612 11.5678 0.999378 10.5612 0.999378H3.64323C3.61356 0.994291 3.58349 0.991894 3.55338 0.992216ZM2.22786 1.99938H3.0612V3.66604H1.39453V2.83271C1.39453 2.36664 1.76179 1.99938 2.22786 1.99938ZM4.0612 1.99938H10.5612C11.0273 1.99938 11.3945 2.36664 11.3945 2.83271V3.66604H4.0612V1.99938ZM1.39453 4.66604H3.0612V11.9994H2.22786C1.76179 11.9994 1.39453 11.6321 1.39453 11.166V4.66604ZM4.0612 4.66604H11.3945V11.166C11.3945 11.6321 11.0273 11.9994 10.5612 11.9994H4.0612V4.66604ZM9.2207 5.66604C9.09059 5.66795 8.96634 5.72049 8.87435 5.81253L7.87435 6.81253C7.82636 6.8586 7.78805 6.91379 7.76166 6.97485C7.73527 7.03591 7.72133 7.10163 7.72065 7.16815C7.71997 7.23467 7.73258 7.30065 7.75772 7.36224C7.78287 7.42383 7.82005 7.47978 7.86709 7.52682C7.91412 7.57386 7.97008 7.61104 8.03166 7.63619C8.09325 7.66133 8.15924 7.67393 8.22576 7.67326C8.29228 7.67258 8.35799 7.65864 8.41906 7.63225C8.48012 7.60586 8.53531 7.56754 8.58138 7.51956L8.72786 7.37308V9.16604C8.72786 9.26439 8.65954 9.33271 8.5612 9.33271H6.76823L6.91471 9.18623C6.98685 9.11597 7.03609 9.02558 7.056 8.92688C7.07591 8.82818 7.06556 8.72576 7.02631 8.63304C6.98705 8.54032 6.92072 8.46161 6.83599 8.40721C6.75126 8.35281 6.65208 8.32525 6.55143 8.32815C6.42158 8.33194 6.29829 8.38611 6.20768 8.47919L5.20768 9.47919C5.11395 9.57297 5.06129 9.70012 5.06129 9.83271C5.06129 9.9653 5.11395 10.0925 5.20768 10.1862L6.20768 11.1862C6.25375 11.2342 6.30894 11.2725 6.37 11.2989C6.43107 11.3253 6.49678 11.3392 6.5633 11.3399C6.62982 11.3406 6.69581 11.328 6.75739 11.3029C6.81898 11.2777 6.87493 11.2405 6.92197 11.1935C6.96901 11.1464 7.00619 11.0905 7.03134 11.0289C7.05648 10.9673 7.06909 10.9013 7.06841 10.8348C7.06773 10.7683 7.05379 10.7026 7.0274 10.6415C7.00101 10.5805 6.9627 10.5253 6.91471 10.4792L6.76823 10.3327H8.5612C9.19951 10.3327 9.72786 9.80436 9.72786 9.16604V7.37308L9.87435 7.51956C9.92042 7.56754 9.97561 7.60586 10.0367 7.63225C10.0977 7.65864 10.1634 7.67258 10.23 7.67326C10.2965 7.67393 10.3625 7.66133 10.4241 7.63619C10.4857 7.61104 10.5416 7.57386 10.5886 7.52682C10.6357 7.47978 10.6729 7.42383 10.698 7.36224C10.7231 7.30065 10.7358 7.23467 10.7351 7.16815C10.7344 7.10163 10.7205 7.03591 10.6941 6.97485C10.6677 6.91379 10.6294 6.8586 10.5814 6.81253L9.58138 5.81253C9.53411 5.76524 9.47783 5.72791 9.41588 5.70275C9.35393 5.67759 9.28756 5.66511 9.2207 5.66604Z" fill="#606060"/>
</svg>
