<svg width="48" height="47" viewBox="0 0 48 47" fill="none" xmlns="http://www.w3.org/2000/svg">
<circle cx="24" cy="23.5" r="22.5" fill="white" stroke="#343330" stroke-width="2"/>
<path d="M24.6096 25.3951C24.6097 25.3027 24.5915 25.2112 24.5562 25.1258C24.5209 25.0405 24.4691 24.9629 24.4037 24.8976C24.3384 24.8323 24.2608 24.7805 24.1755 24.7451C24.0901 24.7098 23.9986 24.6916 23.9063 24.6917L21.6265 24.6923L21.6265 22.1211L23.9063 22.1218C24.0928 22.1218 24.2717 22.0477 24.4036 21.9158C24.5355 21.7838 24.6096 21.6049 24.6096 21.4184C24.6096 21.2318 24.5355 21.0529 24.4036 20.921C24.2717 20.7891 24.0928 20.715 23.9063 20.715L21.6265 20.7156L21.6271 18.4359C21.6271 18.2493 21.553 18.0704 21.4211 17.9385C21.2892 17.8066 21.1103 17.7325 20.9237 17.7325C20.7372 17.7325 20.5583 17.8066 20.4264 17.9385C20.2945 18.0704 20.2204 18.2493 20.2204 18.4359L20.221 19.2244L17.3236 19.2238C16.9543 19.2237 16.5886 19.2964 16.2473 19.4377C15.9061 19.5791 15.5961 19.7862 15.3349 20.0474C15.0738 20.3085 14.8666 20.6185 14.7253 20.9598C14.584 21.301 14.5113 21.6667 14.5113 22.036L14.512 22.704L10.982 22.7034C10.8897 22.7034 10.7982 22.7216 10.7129 22.7569C10.6275 22.7922 10.55 22.8441 10.4847 22.9094C10.4194 22.9747 10.3675 23.0522 10.3322 23.1376C10.2969 23.2229 10.2787 23.3144 10.2787 23.4067C10.2787 23.5933 10.3528 23.7722 10.4847 23.9041C10.55 23.9694 10.6275 24.0212 10.7129 24.0566C10.7982 24.0919 10.8897 24.1101 10.982 24.1101L14.512 24.1095L14.5113 24.7774C14.5113 25.1468 14.584 25.5125 14.7253 25.8537C14.8666 26.1949 15.0738 26.505 15.3349 26.7661C15.5961 27.0273 15.9061 27.2344 16.2473 27.3757C16.5886 27.517 16.9543 27.5898 17.3236 27.5897L20.221 27.5891L20.2204 28.3776C20.2204 28.47 20.2386 28.5614 20.2739 28.6468C20.3093 28.7321 20.3611 28.8096 20.4264 28.875C20.4917 28.9403 20.5692 28.9921 20.6546 29.0274C20.7399 29.0628 20.8314 29.081 20.9237 29.081C21.0161 29.081 21.1076 29.0628 21.1929 29.0274C21.2783 28.9921 21.3558 28.9403 21.4211 28.875C21.4864 28.8096 21.5382 28.7321 21.5736 28.6468C21.6089 28.5614 21.6271 28.47 21.6271 28.3776L21.6265 26.0978L23.9063 26.0985C23.9986 26.0985 24.0901 26.0803 24.1755 26.045C24.2609 26.0097 24.3384 25.9579 24.4037 25.8926C24.4691 25.8272 24.5209 25.7497 24.5562 25.6643C24.5915 25.5789 24.6097 25.4875 24.6096 25.3951ZM17.3217 26.1848C16.949 26.1847 16.5916 26.0366 16.328 25.773C16.0645 25.5095 15.9164 25.152 15.9162 24.7793L15.9181 22.036C15.9182 21.6633 16.0663 21.3059 16.3299 21.0423C16.5934 20.7788 16.9509 20.6306 17.3236 20.6305L20.221 20.6299L20.221 26.1836L17.3217 26.1848ZM37.5339 23.4067C37.5339 23.3144 37.5158 23.2229 37.4804 23.1375C37.4451 23.0521 37.3933 22.9746 37.328 22.9093C37.2626 22.8439 37.1851 22.7921 37.0997 22.7568C37.0144 22.7215 36.9229 22.7033 36.8305 22.7034L33.3006 22.704L33.3012 22.036C33.3001 21.2905 33.0035 20.5758 32.4763 20.0486C31.9491 19.5215 31.2344 19.2248 30.4889 19.2238L27.5915 19.2244L27.5921 18.4359C27.5921 18.2493 27.518 18.0704 27.3861 17.9385C27.2542 17.8066 27.0753 17.7325 26.8888 17.7325C26.7022 17.7325 26.5233 17.8066 26.3914 17.9385C26.2595 18.0704 26.1854 18.2493 26.1854 18.4359L26.1854 28.3776C26.1854 28.47 26.2036 28.5614 26.2389 28.6468C26.2743 28.7321 26.3261 28.8096 26.3914 28.875C26.4567 28.9403 26.5343 28.9921 26.6196 29.0274C26.7049 29.0628 26.7964 29.081 26.8888 29.081C26.9811 29.081 27.0726 29.0628 27.1579 29.0274C27.2433 28.9921 27.3208 28.9403 27.3861 28.875C27.4514 28.8096 27.5033 28.7321 27.5386 28.6468C27.574 28.5614 27.5921 28.47 27.5921 28.3776L27.5915 27.5891L30.4889 27.5897C30.8582 27.5898 31.224 27.517 31.5652 27.3757C31.9064 27.2344 32.2164 27.0273 32.4776 26.7661C32.7387 26.505 32.9459 26.1949 33.0872 25.8537C33.2285 25.5125 33.3012 25.1468 33.3012 24.7774L33.3006 24.1095L36.8305 24.1101C36.9229 24.1102 37.0144 24.092 37.0997 24.0567C37.1851 24.0213 37.2626 23.9695 37.328 23.9042C37.3933 23.8389 37.4451 23.7613 37.4804 23.676C37.5158 23.5906 37.5339 23.4991 37.5339 23.4067ZM30.4908 26.1811L27.5915 26.1836L27.5915 20.6299L30.4889 20.6305C30.8616 20.6306 31.2191 20.7788 31.4826 21.0423C31.7462 21.3059 31.8943 21.6633 31.8944 22.036L31.8982 24.7737C31.8986 24.9589 31.8624 25.1423 31.7918 25.3135C31.7211 25.4847 31.6173 25.6402 31.4864 25.7712C31.3554 25.9021 31.1999 26.0059 31.0287 26.0766C30.8575 26.1472 30.6741 26.1834 30.4889 26.183L30.4908 26.1811Z" fill="#343330"/>
</svg>
